%TF.GenerationSoftware,KiCad,Pcbnew,10.0.5*%
%TF.CreationDate,2026-08-22T17:45:41+08:00*%
%TF.ProjectId,BLDC_MC_V1.0,424c4443-5f4d-4435-9f56-312e302e6b69,V1.0*%
%TF.SameCoordinates,Original*%
%TF.FileFunction,Soldermask,Top*%
%TF.FilePolarity,Negative*%
%FSLAX46Y46*%
G04 Gerber Fmt 4.6, Leading zero omitted, Abs format (unit mm)*
G04 Created by KiCad (PCBNEW 10.0.5) date 2026-08-22 17:45:41*
%MOMM*%
%LPD*%
G01*
G04 APERTURE LIST*
G04 Aperture macros list*
%AMRoundRect*
0 Rectangle with rounded corners*
0 $1 Rounding radius*
0 $2 $3 $4 $5 $6 $7 $8 $9 X,Y pos of 4 corners*
0 Add a 4 corners polygon primitive as box body*
4,1,4,$2,$3,$4,$5,$6,$7,$8,$9,$2,$3,0*
0 Add four circle primitives for the rounded corners*
1,1,$1+$1,$2,$3*
1,1,$1+$1,$4,$5*
1,1,$1+$1,$6,$7*
1,1,$1+$1,$8,$9*
0 Add four rect primitives between the rounded corners*
20,1,$1+$1,$2,$3,$4,$5,0*
20,1,$1+$1,$4,$5,$6,$7,0*
20,1,$1+$1,$6,$7,$8,$9,0*
20,1,$1+$1,$8,$9,$2,$3,0*%
%AMHorizOval*
0 Thick line with rounded ends*
0 $1 width*
0 $2 $3 position (X,Y) of the first rounded end (center of the circle)*
0 $4 $5 position (X,Y) of the second rounded end (center of the circle)*
0 Add line between two ends*
20,1,$1,$2,$3,$4,$5,0*
0 Add two circle primitives to create the rounded ends*
1,1,$1,$2,$3*
1,1,$1,$4,$5*%
%AMRotRect*
0 Rectangle, with rotation*
0 The origin of the aperture is its center*
0 $1 length*
0 $2 width*
0 $3 Rotation angle, in degrees counterclockwise*
0 Add horizontal line*
21,1,$1,$2,0,0,$3*%
%AMFreePoly0*
4,1,13,0.495300,-2.806700,-0.495300,-2.806700,-0.495300,-2.273300,-0.054610,-2.273300,-0.054610,-1.536700,-0.495300,-1.536700,-0.495300,-1.003300,-0.054610,-1.003300,-0.054490,-0.266700,-0.495300,-0.266700,-0.495300,0.266700,0.495300,0.266700,0.495300,-2.806700,0.495300,-2.806700,$1*%
%AMFreePoly1*
4,1,9,1.457974,0.266700,2.194525,0.266700,2.194525,-0.266700,1.457974,-0.266700,1.457974,-0.320001,-2.217024,-0.320001,-2.217024,4.130001,1.457974,4.130001,1.457974,0.266700,1.457974,0.266700,$1*%
G04 Aperture macros list end*
%ADD10C,0.150000*%
%ADD11C,0.300000*%
%ADD12C,0.400000*%
%ADD13RoundRect,0.102000X0.600000X-0.600000X0.600000X0.600000X-0.600000X0.600000X-0.600000X-0.600000X0*%
%ADD14C,1.404000*%
%ADD15RoundRect,0.200000X0.275000X-0.200000X0.275000X0.200000X-0.275000X0.200000X-0.275000X-0.200000X0*%
%ADD16R,0.803900X0.406400*%
%ADD17RoundRect,0.225000X-0.225000X-0.250000X0.225000X-0.250000X0.225000X0.250000X-0.225000X0.250000X0*%
%ADD18RoundRect,0.225000X0.017678X-0.335876X0.335876X-0.017678X-0.017678X0.335876X-0.335876X0.017678X0*%
%ADD19RoundRect,0.225000X-0.250000X0.225000X-0.250000X-0.225000X0.250000X-0.225000X0.250000X0.225000X0*%
%ADD20FreePoly0,180.000000*%
%ADD21R,0.990600X0.533400*%
%ADD22FreePoly1,180.000000*%
%ADD23R,0.736600X0.533400*%
%ADD24RoundRect,0.900000X-4.100000X-2.100000X4.100000X-2.100000X4.100000X2.100000X-4.100000X2.100000X0*%
%ADD25RoundRect,0.250000X-0.250000X-0.475000X0.250000X-0.475000X0.250000X0.475000X-0.250000X0.475000X0*%
%ADD26C,1.270000*%
%ADD27RoundRect,0.218750X0.218750X0.256250X-0.218750X0.256250X-0.218750X-0.256250X0.218750X-0.256250X0*%
%ADD28RoundRect,0.249999X1.425001X-0.450001X1.425001X0.450001X-1.425001X0.450001X-1.425001X-0.450001X0*%
%ADD29RoundRect,0.200000X-0.200000X-0.275000X0.200000X-0.275000X0.200000X0.275000X-0.200000X0.275000X0*%
%ADD30RoundRect,0.200000X-0.275000X0.200000X-0.275000X-0.200000X0.275000X-0.200000X0.275000X0.200000X0*%
%ADD31RoundRect,0.250000X-0.325000X-0.650000X0.325000X-0.650000X0.325000X0.650000X-0.325000X0.650000X0*%
%ADD32RoundRect,0.200000X-0.335876X-0.053033X-0.053033X-0.335876X0.335876X0.053033X0.053033X0.335876X0*%
%ADD33RoundRect,0.250000X0.650000X-0.325000X0.650000X0.325000X-0.650000X0.325000X-0.650000X-0.325000X0*%
%ADD34RoundRect,0.250000X-0.457500X-0.445000X0.457500X-0.445000X0.457500X0.445000X-0.457500X0.445000X0*%
%ADD35RoundRect,0.102000X-0.700000X-0.600000X0.700000X-0.600000X0.700000X0.600000X-0.700000X0.600000X0*%
%ADD36RoundRect,0.225000X0.250000X-0.225000X0.250000X0.225000X-0.250000X0.225000X-0.250000X-0.225000X0*%
%ADD37RoundRect,0.250000X0.512652X0.159099X0.159099X0.512652X-0.512652X-0.159099X-0.159099X-0.512652X0*%
%ADD38RoundRect,0.218750X-0.335876X-0.026517X-0.026517X-0.335876X0.335876X0.026517X0.026517X0.335876X0*%
%ADD39RoundRect,0.200000X0.200000X0.275000X-0.200000X0.275000X-0.200000X-0.275000X0.200000X-0.275000X0*%
%ADD40RoundRect,0.177000X0.910000X0.225000X-0.910000X0.225000X-0.910000X-0.225000X0.910000X-0.225000X0*%
%ADD41C,0.700000*%
%ADD42C,4.400000*%
%ADD43RoundRect,0.200000X0.053033X-0.335876X0.335876X-0.053033X-0.053033X0.335876X-0.335876X0.053033X0*%
%ADD44RoundRect,0.250000X0.475000X-0.250000X0.475000X0.250000X-0.475000X0.250000X-0.475000X-0.250000X0*%
%ADD45R,1.460500X0.558800*%
%ADD46HorizOval,0.230000X-0.130814X0.130814X0.130814X-0.130814X0*%
%ADD47HorizOval,0.230000X0.130814X0.130814X-0.130814X-0.130814X0*%
%ADD48RotRect,4.150000X4.150000X135.000000*%
%ADD49RoundRect,0.250000X0.250000X0.475000X-0.250000X0.475000X-0.250000X-0.475000X0.250000X-0.475000X0*%
%ADD50RoundRect,0.250000X-0.362500X-1.425000X0.362500X-1.425000X0.362500X1.425000X-0.362500X1.425000X0*%
%ADD51RoundRect,0.250000X-0.475000X0.250000X-0.475000X-0.250000X0.475000X-0.250000X0.475000X0.250000X0*%
%ADD52C,0.650000*%
%ADD53RoundRect,0.150000X-0.425000X0.150000X-0.425000X-0.150000X0.425000X-0.150000X0.425000X0.150000X0*%
%ADD54RoundRect,0.075000X-0.500000X0.075000X-0.500000X-0.075000X0.500000X-0.075000X0.500000X0.075000X0*%
%ADD55O,2.100000X1.000000*%
%ADD56O,1.800000X1.000000*%
%ADD57RoundRect,0.150000X-0.512500X-0.150000X0.512500X-0.150000X0.512500X0.150000X-0.512500X0.150000X0*%
%ADD58RoundRect,0.225000X0.335876X0.017678X0.017678X0.335876X-0.335876X-0.017678X-0.017678X-0.335876X0*%
%ADD59RoundRect,0.250000X-0.800000X-0.450000X0.800000X-0.450000X0.800000X0.450000X-0.800000X0.450000X0*%
%ADD60RoundRect,0.102000X0.525000X0.300000X-0.525000X0.300000X-0.525000X-0.300000X0.525000X-0.300000X0*%
%ADD61RoundRect,0.102000X0.950000X-0.550000X0.950000X0.550000X-0.950000X0.550000X-0.950000X-0.550000X0*%
%ADD62R,1.700000X1.700000*%
%ADD63C,1.700000*%
%ADD64RoundRect,0.250000X-0.512652X-0.159099X-0.159099X-0.512652X0.512652X0.159099X0.159099X0.512652X0*%
%ADD65RoundRect,0.250000X0.625000X-0.312500X0.625000X0.312500X-0.625000X0.312500X-0.625000X-0.312500X0*%
%ADD66RoundRect,0.250000X0.689429X0.229810X0.229810X0.689429X-0.689429X-0.229810X-0.229810X-0.689429X0*%
%ADD67R,1.193800X0.304800*%
%ADD68R,0.304800X1.193800*%
%ADD69RoundRect,0.225000X-0.017678X0.335876X-0.335876X0.017678X0.017678X-0.335876X0.335876X-0.017678X0*%
G04 APERTURE END LIST*
D10*
X177002200Y-166007200D02*
X285002200Y-166007200D01*
X285002200Y-198007200D01*
X177002200Y-198007200D01*
X177002200Y-166007200D01*
X10000000Y-10000000D02*
X287002200Y-10000000D01*
X287002200Y-200007200D01*
X10000000Y-200007200D01*
X10000000Y-10000000D01*
X12000000Y-12000000D02*
X285002200Y-12000000D01*
X285002200Y-198007200D01*
X12000000Y-198007200D01*
X12000000Y-12000000D01*
X60000000Y-12000000D02*
X60000000Y-10000000D01*
X110000000Y-12000000D02*
X110000000Y-10000000D01*
X160000000Y-12000000D02*
X160000000Y-10000000D01*
X210000000Y-12000000D02*
X210000000Y-10000000D01*
X260000000Y-12000000D02*
X260000000Y-10000000D01*
X36089160Y-11593604D02*
X35346303Y-11593604D01*
X35717731Y-11593604D02*
X35717731Y-10293604D01*
X35717731Y-10293604D02*
X35593922Y-10479319D01*
X35593922Y-10479319D02*
X35470112Y-10603128D01*
X35470112Y-10603128D02*
X35346303Y-10665033D01*
X85346303Y-10417414D02*
X85408207Y-10355509D01*
X85408207Y-10355509D02*
X85532017Y-10293604D01*
X85532017Y-10293604D02*
X85841541Y-10293604D01*
X85841541Y-10293604D02*
X85965350Y-10355509D01*
X85965350Y-10355509D02*
X86027255Y-10417414D01*
X86027255Y-10417414D02*
X86089160Y-10541223D01*
X86089160Y-10541223D02*
X86089160Y-10665033D01*
X86089160Y-10665033D02*
X86027255Y-10850747D01*
X86027255Y-10850747D02*
X85284398Y-11593604D01*
X85284398Y-11593604D02*
X86089160Y-11593604D01*
X135284398Y-10293604D02*
X136089160Y-10293604D01*
X136089160Y-10293604D02*
X135655826Y-10788842D01*
X135655826Y-10788842D02*
X135841541Y-10788842D01*
X135841541Y-10788842D02*
X135965350Y-10850747D01*
X135965350Y-10850747D02*
X136027255Y-10912652D01*
X136027255Y-10912652D02*
X136089160Y-11036461D01*
X136089160Y-11036461D02*
X136089160Y-11345985D01*
X136089160Y-11345985D02*
X136027255Y-11469795D01*
X136027255Y-11469795D02*
X135965350Y-11531700D01*
X135965350Y-11531700D02*
X135841541Y-11593604D01*
X135841541Y-11593604D02*
X135470112Y-11593604D01*
X135470112Y-11593604D02*
X135346303Y-11531700D01*
X135346303Y-11531700D02*
X135284398Y-11469795D01*
X185965350Y-10726938D02*
X185965350Y-11593604D01*
X185655826Y-10231700D02*
X185346303Y-11160271D01*
X185346303Y-11160271D02*
X186151064Y-11160271D01*
X236027255Y-10293604D02*
X235408207Y-10293604D01*
X235408207Y-10293604D02*
X235346303Y-10912652D01*
X235346303Y-10912652D02*
X235408207Y-10850747D01*
X235408207Y-10850747D02*
X235532017Y-10788842D01*
X235532017Y-10788842D02*
X235841541Y-10788842D01*
X235841541Y-10788842D02*
X235965350Y-10850747D01*
X235965350Y-10850747D02*
X236027255Y-10912652D01*
X236027255Y-10912652D02*
X236089160Y-11036461D01*
X236089160Y-11036461D02*
X236089160Y-11345985D01*
X236089160Y-11345985D02*
X236027255Y-11469795D01*
X236027255Y-11469795D02*
X235965350Y-11531700D01*
X235965350Y-11531700D02*
X235841541Y-11593604D01*
X235841541Y-11593604D02*
X235532017Y-11593604D01*
X235532017Y-11593604D02*
X235408207Y-11531700D01*
X235408207Y-11531700D02*
X235346303Y-11469795D01*
X285965350Y-10293604D02*
X285717731Y-10293604D01*
X285717731Y-10293604D02*
X285593922Y-10355509D01*
X285593922Y-10355509D02*
X285532017Y-10417414D01*
X285532017Y-10417414D02*
X285408207Y-10603128D01*
X285408207Y-10603128D02*
X285346303Y-10850747D01*
X285346303Y-10850747D02*
X285346303Y-11345985D01*
X285346303Y-11345985D02*
X285408207Y-11469795D01*
X285408207Y-11469795D02*
X285470112Y-11531700D01*
X285470112Y-11531700D02*
X285593922Y-11593604D01*
X285593922Y-11593604D02*
X285841541Y-11593604D01*
X285841541Y-11593604D02*
X285965350Y-11531700D01*
X285965350Y-11531700D02*
X286027255Y-11469795D01*
X286027255Y-11469795D02*
X286089160Y-11345985D01*
X286089160Y-11345985D02*
X286089160Y-11036461D01*
X286089160Y-11036461D02*
X286027255Y-10912652D01*
X286027255Y-10912652D02*
X285965350Y-10850747D01*
X285965350Y-10850747D02*
X285841541Y-10788842D01*
X285841541Y-10788842D02*
X285593922Y-10788842D01*
X285593922Y-10788842D02*
X285470112Y-10850747D01*
X285470112Y-10850747D02*
X285408207Y-10912652D01*
X285408207Y-10912652D02*
X285346303Y-11036461D01*
X60000000Y-198007200D02*
X60000000Y-200007200D01*
X110000000Y-198007200D02*
X110000000Y-200007200D01*
X160000000Y-198007200D02*
X160000000Y-200007200D01*
X210000000Y-198007200D02*
X210000000Y-200007200D01*
X260000000Y-198007200D02*
X260000000Y-200007200D01*
X36089160Y-199600804D02*
X35346303Y-199600804D01*
X35717731Y-199600804D02*
X35717731Y-198300804D01*
X35717731Y-198300804D02*
X35593922Y-198486519D01*
X35593922Y-198486519D02*
X35470112Y-198610328D01*
X35470112Y-198610328D02*
X35346303Y-198672233D01*
X85346303Y-198424614D02*
X85408207Y-198362709D01*
X85408207Y-198362709D02*
X85532017Y-198300804D01*
X85532017Y-198300804D02*
X85841541Y-198300804D01*
X85841541Y-198300804D02*
X85965350Y-198362709D01*
X85965350Y-198362709D02*
X86027255Y-198424614D01*
X86027255Y-198424614D02*
X86089160Y-198548423D01*
X86089160Y-198548423D02*
X86089160Y-198672233D01*
X86089160Y-198672233D02*
X86027255Y-198857947D01*
X86027255Y-198857947D02*
X85284398Y-199600804D01*
X85284398Y-199600804D02*
X86089160Y-199600804D01*
X135284398Y-198300804D02*
X136089160Y-198300804D01*
X136089160Y-198300804D02*
X135655826Y-198796042D01*
X135655826Y-198796042D02*
X135841541Y-198796042D01*
X135841541Y-198796042D02*
X135965350Y-198857947D01*
X135965350Y-198857947D02*
X136027255Y-198919852D01*
X136027255Y-198919852D02*
X136089160Y-199043661D01*
X136089160Y-199043661D02*
X136089160Y-199353185D01*
X136089160Y-199353185D02*
X136027255Y-199476995D01*
X136027255Y-199476995D02*
X135965350Y-199538900D01*
X135965350Y-199538900D02*
X135841541Y-199600804D01*
X135841541Y-199600804D02*
X135470112Y-199600804D01*
X135470112Y-199600804D02*
X135346303Y-199538900D01*
X135346303Y-199538900D02*
X135284398Y-199476995D01*
X185965350Y-198734138D02*
X185965350Y-199600804D01*
X185655826Y-198238900D02*
X185346303Y-199167471D01*
X185346303Y-199167471D02*
X186151064Y-199167471D01*
X236027255Y-198300804D02*
X235408207Y-198300804D01*
X235408207Y-198300804D02*
X235346303Y-198919852D01*
X235346303Y-198919852D02*
X235408207Y-198857947D01*
X235408207Y-198857947D02*
X235532017Y-198796042D01*
X235532017Y-198796042D02*
X235841541Y-198796042D01*
X235841541Y-198796042D02*
X235965350Y-198857947D01*
X235965350Y-198857947D02*
X236027255Y-198919852D01*
X236027255Y-198919852D02*
X236089160Y-199043661D01*
X236089160Y-199043661D02*
X236089160Y-199353185D01*
X236089160Y-199353185D02*
X236027255Y-199476995D01*
X236027255Y-199476995D02*
X235965350Y-199538900D01*
X235965350Y-199538900D02*
X235841541Y-199600804D01*
X235841541Y-199600804D02*
X235532017Y-199600804D01*
X235532017Y-199600804D02*
X235408207Y-199538900D01*
X235408207Y-199538900D02*
X235346303Y-199476995D01*
X285965350Y-198300804D02*
X285717731Y-198300804D01*
X285717731Y-198300804D02*
X285593922Y-198362709D01*
X285593922Y-198362709D02*
X285532017Y-198424614D01*
X285532017Y-198424614D02*
X285408207Y-198610328D01*
X285408207Y-198610328D02*
X285346303Y-198857947D01*
X285346303Y-198857947D02*
X285346303Y-199353185D01*
X285346303Y-199353185D02*
X285408207Y-199476995D01*
X285408207Y-199476995D02*
X285470112Y-199538900D01*
X285470112Y-199538900D02*
X285593922Y-199600804D01*
X285593922Y-199600804D02*
X285841541Y-199600804D01*
X285841541Y-199600804D02*
X285965350Y-199538900D01*
X285965350Y-199538900D02*
X286027255Y-199476995D01*
X286027255Y-199476995D02*
X286089160Y-199353185D01*
X286089160Y-199353185D02*
X286089160Y-199043661D01*
X286089160Y-199043661D02*
X286027255Y-198919852D01*
X286027255Y-198919852D02*
X285965350Y-198857947D01*
X285965350Y-198857947D02*
X285841541Y-198796042D01*
X285841541Y-198796042D02*
X285593922Y-198796042D01*
X285593922Y-198796042D02*
X285470112Y-198857947D01*
X285470112Y-198857947D02*
X285408207Y-198919852D01*
X285408207Y-198919852D02*
X285346303Y-199043661D01*
X10000000Y-60000000D02*
X12000000Y-60000000D01*
X10000000Y-110000000D02*
X12000000Y-110000000D01*
X10000000Y-160000000D02*
X12000000Y-160000000D01*
X10690476Y-35222176D02*
X11309523Y-35222176D01*
X10566666Y-35593604D02*
X10999999Y-34293604D01*
X10999999Y-34293604D02*
X11433333Y-35593604D01*
X11092857Y-84912652D02*
X11278571Y-84974557D01*
X11278571Y-84974557D02*
X11340476Y-85036461D01*
X11340476Y-85036461D02*
X11402380Y-85160271D01*
X11402380Y-85160271D02*
X11402380Y-85345985D01*
X11402380Y-85345985D02*
X11340476Y-85469795D01*
X11340476Y-85469795D02*
X11278571Y-85531700D01*
X11278571Y-85531700D02*
X11154761Y-85593604D01*
X11154761Y-85593604D02*
X10659523Y-85593604D01*
X10659523Y-85593604D02*
X10659523Y-84293604D01*
X10659523Y-84293604D02*
X11092857Y-84293604D01*
X11092857Y-84293604D02*
X11216666Y-84355509D01*
X11216666Y-84355509D02*
X11278571Y-84417414D01*
X11278571Y-84417414D02*
X11340476Y-84541223D01*
X11340476Y-84541223D02*
X11340476Y-84665033D01*
X11340476Y-84665033D02*
X11278571Y-84788842D01*
X11278571Y-84788842D02*
X11216666Y-84850747D01*
X11216666Y-84850747D02*
X11092857Y-84912652D01*
X11092857Y-84912652D02*
X10659523Y-84912652D01*
X11402380Y-135469795D02*
X11340476Y-135531700D01*
X11340476Y-135531700D02*
X11154761Y-135593604D01*
X11154761Y-135593604D02*
X11030952Y-135593604D01*
X11030952Y-135593604D02*
X10845238Y-135531700D01*
X10845238Y-135531700D02*
X10721428Y-135407890D01*
X10721428Y-135407890D02*
X10659523Y-135284080D01*
X10659523Y-135284080D02*
X10597619Y-135036461D01*
X10597619Y-135036461D02*
X10597619Y-134850747D01*
X10597619Y-134850747D02*
X10659523Y-134603128D01*
X10659523Y-134603128D02*
X10721428Y-134479319D01*
X10721428Y-134479319D02*
X10845238Y-134355509D01*
X10845238Y-134355509D02*
X11030952Y-134293604D01*
X11030952Y-134293604D02*
X11154761Y-134293604D01*
X11154761Y-134293604D02*
X11340476Y-134355509D01*
X11340476Y-134355509D02*
X11402380Y-134417414D01*
X10659523Y-185593604D02*
X10659523Y-184293604D01*
X10659523Y-184293604D02*
X10969047Y-184293604D01*
X10969047Y-184293604D02*
X11154761Y-184355509D01*
X11154761Y-184355509D02*
X11278571Y-184479319D01*
X11278571Y-184479319D02*
X11340476Y-184603128D01*
X11340476Y-184603128D02*
X11402380Y-184850747D01*
X11402380Y-184850747D02*
X11402380Y-185036461D01*
X11402380Y-185036461D02*
X11340476Y-185284080D01*
X11340476Y-185284080D02*
X11278571Y-185407890D01*
X11278571Y-185407890D02*
X11154761Y-185531700D01*
X11154761Y-185531700D02*
X10969047Y-185593604D01*
X10969047Y-185593604D02*
X10659523Y-185593604D01*
X287002200Y-60000000D02*
X285002200Y-60000000D01*
X287002200Y-110000000D02*
X285002200Y-110000000D01*
X287002200Y-160000000D02*
X285002200Y-160000000D01*
X285692676Y-35222176D02*
X286311723Y-35222176D01*
X285568866Y-35593604D02*
X286002199Y-34293604D01*
X286002199Y-34293604D02*
X286435533Y-35593604D01*
X286095057Y-84912652D02*
X286280771Y-84974557D01*
X286280771Y-84974557D02*
X286342676Y-85036461D01*
X286342676Y-85036461D02*
X286404580Y-85160271D01*
X286404580Y-85160271D02*
X286404580Y-85345985D01*
X286404580Y-85345985D02*
X286342676Y-85469795D01*
X286342676Y-85469795D02*
X286280771Y-85531700D01*
X286280771Y-85531700D02*
X286156961Y-85593604D01*
X286156961Y-85593604D02*
X285661723Y-85593604D01*
X285661723Y-85593604D02*
X285661723Y-84293604D01*
X285661723Y-84293604D02*
X286095057Y-84293604D01*
X286095057Y-84293604D02*
X286218866Y-84355509D01*
X286218866Y-84355509D02*
X286280771Y-84417414D01*
X286280771Y-84417414D02*
X286342676Y-84541223D01*
X286342676Y-84541223D02*
X286342676Y-84665033D01*
X286342676Y-84665033D02*
X286280771Y-84788842D01*
X286280771Y-84788842D02*
X286218866Y-84850747D01*
X286218866Y-84850747D02*
X286095057Y-84912652D01*
X286095057Y-84912652D02*
X285661723Y-84912652D01*
X286404580Y-135469795D02*
X286342676Y-135531700D01*
X286342676Y-135531700D02*
X286156961Y-135593604D01*
X286156961Y-135593604D02*
X286033152Y-135593604D01*
X286033152Y-135593604D02*
X285847438Y-135531700D01*
X285847438Y-135531700D02*
X285723628Y-135407890D01*
X285723628Y-135407890D02*
X285661723Y-135284080D01*
X285661723Y-135284080D02*
X285599819Y-135036461D01*
X285599819Y-135036461D02*
X285599819Y-134850747D01*
X285599819Y-134850747D02*
X285661723Y-134603128D01*
X285661723Y-134603128D02*
X285723628Y-134479319D01*
X285723628Y-134479319D02*
X285847438Y-134355509D01*
X285847438Y-134355509D02*
X286033152Y-134293604D01*
X286033152Y-134293604D02*
X286156961Y-134293604D01*
X286156961Y-134293604D02*
X286342676Y-134355509D01*
X286342676Y-134355509D02*
X286404580Y-134417414D01*
X285661723Y-185593604D02*
X285661723Y-184293604D01*
X285661723Y-184293604D02*
X285971247Y-184293604D01*
X285971247Y-184293604D02*
X286156961Y-184355509D01*
X286156961Y-184355509D02*
X286280771Y-184479319D01*
X286280771Y-184479319D02*
X286342676Y-184603128D01*
X286342676Y-184603128D02*
X286404580Y-184850747D01*
X286404580Y-184850747D02*
X286404580Y-185036461D01*
X286404580Y-185036461D02*
X286342676Y-185284080D01*
X286342676Y-185284080D02*
X286280771Y-185407890D01*
X286280771Y-185407890D02*
X286156961Y-185531700D01*
X286156961Y-185531700D02*
X285971247Y-185593604D01*
X285971247Y-185593604D02*
X285661723Y-185593604D01*
X200458026Y-193793328D02*
X200458026Y-192293328D01*
X200458026Y-192293328D02*
X200815169Y-192293328D01*
X200815169Y-192293328D02*
X201029455Y-192364757D01*
X201029455Y-192364757D02*
X201172312Y-192507614D01*
X201172312Y-192507614D02*
X201243741Y-192650471D01*
X201243741Y-192650471D02*
X201315169Y-192936185D01*
X201315169Y-192936185D02*
X201315169Y-193150471D01*
X201315169Y-193150471D02*
X201243741Y-193436185D01*
X201243741Y-193436185D02*
X201172312Y-193579042D01*
X201172312Y-193579042D02*
X201029455Y-193721900D01*
X201029455Y-193721900D02*
X200815169Y-193793328D01*
X200815169Y-193793328D02*
X200458026Y-193793328D01*
X202600884Y-193793328D02*
X202600884Y-193007614D01*
X202600884Y-193007614D02*
X202529455Y-192864757D01*
X202529455Y-192864757D02*
X202386598Y-192793328D01*
X202386598Y-192793328D02*
X202100884Y-192793328D01*
X202100884Y-192793328D02*
X201958026Y-192864757D01*
X202600884Y-193721900D02*
X202458026Y-193793328D01*
X202458026Y-193793328D02*
X202100884Y-193793328D01*
X202100884Y-193793328D02*
X201958026Y-193721900D01*
X201958026Y-193721900D02*
X201886598Y-193579042D01*
X201886598Y-193579042D02*
X201886598Y-193436185D01*
X201886598Y-193436185D02*
X201958026Y-193293328D01*
X201958026Y-193293328D02*
X202100884Y-193221900D01*
X202100884Y-193221900D02*
X202458026Y-193221900D01*
X202458026Y-193221900D02*
X202600884Y-193150471D01*
X203100884Y-192793328D02*
X203672312Y-192793328D01*
X203315169Y-192293328D02*
X203315169Y-193579042D01*
X203315169Y-193579042D02*
X203386598Y-193721900D01*
X203386598Y-193721900D02*
X203529455Y-193793328D01*
X203529455Y-193793328D02*
X203672312Y-193793328D01*
X204743741Y-193721900D02*
X204600884Y-193793328D01*
X204600884Y-193793328D02*
X204315170Y-193793328D01*
X204315170Y-193793328D02*
X204172312Y-193721900D01*
X204172312Y-193721900D02*
X204100884Y-193579042D01*
X204100884Y-193579042D02*
X204100884Y-193007614D01*
X204100884Y-193007614D02*
X204172312Y-192864757D01*
X204172312Y-192864757D02*
X204315170Y-192793328D01*
X204315170Y-192793328D02*
X204600884Y-192793328D01*
X204600884Y-192793328D02*
X204743741Y-192864757D01*
X204743741Y-192864757D02*
X204815170Y-193007614D01*
X204815170Y-193007614D02*
X204815170Y-193150471D01*
X204815170Y-193150471D02*
X204100884Y-193293328D01*
X205458026Y-193650471D02*
X205529455Y-193721900D01*
X205529455Y-193721900D02*
X205458026Y-193793328D01*
X205458026Y-193793328D02*
X205386598Y-193721900D01*
X205386598Y-193721900D02*
X205458026Y-193650471D01*
X205458026Y-193650471D02*
X205458026Y-193793328D01*
X205458026Y-192864757D02*
X205529455Y-192936185D01*
X205529455Y-192936185D02*
X205458026Y-193007614D01*
X205458026Y-193007614D02*
X205386598Y-192936185D01*
X205386598Y-192936185D02*
X205458026Y-192864757D01*
X205458026Y-192864757D02*
X205458026Y-193007614D01*
X207243741Y-192436185D02*
X207315169Y-192364757D01*
X207315169Y-192364757D02*
X207458027Y-192293328D01*
X207458027Y-192293328D02*
X207815169Y-192293328D01*
X207815169Y-192293328D02*
X207958027Y-192364757D01*
X207958027Y-192364757D02*
X208029455Y-192436185D01*
X208029455Y-192436185D02*
X208100884Y-192579042D01*
X208100884Y-192579042D02*
X208100884Y-192721900D01*
X208100884Y-192721900D02*
X208029455Y-192936185D01*
X208029455Y-192936185D02*
X207172312Y-193793328D01*
X207172312Y-193793328D02*
X208100884Y-193793328D01*
X209029455Y-192293328D02*
X209172312Y-192293328D01*
X209172312Y-192293328D02*
X209315169Y-192364757D01*
X209315169Y-192364757D02*
X209386598Y-192436185D01*
X209386598Y-192436185D02*
X209458026Y-192579042D01*
X209458026Y-192579042D02*
X209529455Y-192864757D01*
X209529455Y-192864757D02*
X209529455Y-193221900D01*
X209529455Y-193221900D02*
X209458026Y-193507614D01*
X209458026Y-193507614D02*
X209386598Y-193650471D01*
X209386598Y-193650471D02*
X209315169Y-193721900D01*
X209315169Y-193721900D02*
X209172312Y-193793328D01*
X209172312Y-193793328D02*
X209029455Y-193793328D01*
X209029455Y-193793328D02*
X208886598Y-193721900D01*
X208886598Y-193721900D02*
X208815169Y-193650471D01*
X208815169Y-193650471D02*
X208743740Y-193507614D01*
X208743740Y-193507614D02*
X208672312Y-193221900D01*
X208672312Y-193221900D02*
X208672312Y-192864757D01*
X208672312Y-192864757D02*
X208743740Y-192579042D01*
X208743740Y-192579042D02*
X208815169Y-192436185D01*
X208815169Y-192436185D02*
X208886598Y-192364757D01*
X208886598Y-192364757D02*
X209029455Y-192293328D01*
X210100883Y-192436185D02*
X210172311Y-192364757D01*
X210172311Y-192364757D02*
X210315169Y-192293328D01*
X210315169Y-192293328D02*
X210672311Y-192293328D01*
X210672311Y-192293328D02*
X210815169Y-192364757D01*
X210815169Y-192364757D02*
X210886597Y-192436185D01*
X210886597Y-192436185D02*
X210958026Y-192579042D01*
X210958026Y-192579042D02*
X210958026Y-192721900D01*
X210958026Y-192721900D02*
X210886597Y-192936185D01*
X210886597Y-192936185D02*
X210029454Y-193793328D01*
X210029454Y-193793328D02*
X210958026Y-193793328D01*
X212243740Y-192293328D02*
X211958025Y-192293328D01*
X211958025Y-192293328D02*
X211815168Y-192364757D01*
X211815168Y-192364757D02*
X211743740Y-192436185D01*
X211743740Y-192436185D02*
X211600882Y-192650471D01*
X211600882Y-192650471D02*
X211529454Y-192936185D01*
X211529454Y-192936185D02*
X211529454Y-193507614D01*
X211529454Y-193507614D02*
X211600882Y-193650471D01*
X211600882Y-193650471D02*
X211672311Y-193721900D01*
X211672311Y-193721900D02*
X211815168Y-193793328D01*
X211815168Y-193793328D02*
X212100882Y-193793328D01*
X212100882Y-193793328D02*
X212243740Y-193721900D01*
X212243740Y-193721900D02*
X212315168Y-193650471D01*
X212315168Y-193650471D02*
X212386597Y-193507614D01*
X212386597Y-193507614D02*
X212386597Y-193150471D01*
X212386597Y-193150471D02*
X212315168Y-193007614D01*
X212315168Y-193007614D02*
X212243740Y-192936185D01*
X212243740Y-192936185D02*
X212100882Y-192864757D01*
X212100882Y-192864757D02*
X211815168Y-192864757D01*
X211815168Y-192864757D02*
X211672311Y-192936185D01*
X211672311Y-192936185D02*
X211600882Y-193007614D01*
X211600882Y-193007614D02*
X211529454Y-193150471D01*
X213029453Y-193221900D02*
X214172311Y-193221900D01*
X215172311Y-192293328D02*
X215315168Y-192293328D01*
X215315168Y-192293328D02*
X215458025Y-192364757D01*
X215458025Y-192364757D02*
X215529454Y-192436185D01*
X215529454Y-192436185D02*
X215600882Y-192579042D01*
X215600882Y-192579042D02*
X215672311Y-192864757D01*
X215672311Y-192864757D02*
X215672311Y-193221900D01*
X215672311Y-193221900D02*
X215600882Y-193507614D01*
X215600882Y-193507614D02*
X215529454Y-193650471D01*
X215529454Y-193650471D02*
X215458025Y-193721900D01*
X215458025Y-193721900D02*
X215315168Y-193793328D01*
X215315168Y-193793328D02*
X215172311Y-193793328D01*
X215172311Y-193793328D02*
X215029454Y-193721900D01*
X215029454Y-193721900D02*
X214958025Y-193650471D01*
X214958025Y-193650471D02*
X214886596Y-193507614D01*
X214886596Y-193507614D02*
X214815168Y-193221900D01*
X214815168Y-193221900D02*
X214815168Y-192864757D01*
X214815168Y-192864757D02*
X214886596Y-192579042D01*
X214886596Y-192579042D02*
X214958025Y-192436185D01*
X214958025Y-192436185D02*
X215029454Y-192364757D01*
X215029454Y-192364757D02*
X215172311Y-192293328D01*
X216529453Y-192936185D02*
X216386596Y-192864757D01*
X216386596Y-192864757D02*
X216315167Y-192793328D01*
X216315167Y-192793328D02*
X216243739Y-192650471D01*
X216243739Y-192650471D02*
X216243739Y-192579042D01*
X216243739Y-192579042D02*
X216315167Y-192436185D01*
X216315167Y-192436185D02*
X216386596Y-192364757D01*
X216386596Y-192364757D02*
X216529453Y-192293328D01*
X216529453Y-192293328D02*
X216815167Y-192293328D01*
X216815167Y-192293328D02*
X216958025Y-192364757D01*
X216958025Y-192364757D02*
X217029453Y-192436185D01*
X217029453Y-192436185D02*
X217100882Y-192579042D01*
X217100882Y-192579042D02*
X217100882Y-192650471D01*
X217100882Y-192650471D02*
X217029453Y-192793328D01*
X217029453Y-192793328D02*
X216958025Y-192864757D01*
X216958025Y-192864757D02*
X216815167Y-192936185D01*
X216815167Y-192936185D02*
X216529453Y-192936185D01*
X216529453Y-192936185D02*
X216386596Y-193007614D01*
X216386596Y-193007614D02*
X216315167Y-193079042D01*
X216315167Y-193079042D02*
X216243739Y-193221900D01*
X216243739Y-193221900D02*
X216243739Y-193507614D01*
X216243739Y-193507614D02*
X216315167Y-193650471D01*
X216315167Y-193650471D02*
X216386596Y-193721900D01*
X216386596Y-193721900D02*
X216529453Y-193793328D01*
X216529453Y-193793328D02*
X216815167Y-193793328D01*
X216815167Y-193793328D02*
X216958025Y-193721900D01*
X216958025Y-193721900D02*
X217029453Y-193650471D01*
X217029453Y-193650471D02*
X217100882Y-193507614D01*
X217100882Y-193507614D02*
X217100882Y-193221900D01*
X217100882Y-193221900D02*
X217029453Y-193079042D01*
X217029453Y-193079042D02*
X216958025Y-193007614D01*
X216958025Y-193007614D02*
X216815167Y-192936185D01*
X217743738Y-193221900D02*
X218886596Y-193221900D01*
X220386596Y-193793328D02*
X219529453Y-193793328D01*
X219958024Y-193793328D02*
X219958024Y-192293328D01*
X219958024Y-192293328D02*
X219815167Y-192507614D01*
X219815167Y-192507614D02*
X219672310Y-192650471D01*
X219672310Y-192650471D02*
X219529453Y-192721900D01*
X221100881Y-193793328D02*
X221386595Y-193793328D01*
X221386595Y-193793328D02*
X221529452Y-193721900D01*
X221529452Y-193721900D02*
X221600881Y-193650471D01*
X221600881Y-193650471D02*
X221743738Y-193436185D01*
X221743738Y-193436185D02*
X221815167Y-193150471D01*
X221815167Y-193150471D02*
X221815167Y-192579042D01*
X221815167Y-192579042D02*
X221743738Y-192436185D01*
X221743738Y-192436185D02*
X221672310Y-192364757D01*
X221672310Y-192364757D02*
X221529452Y-192293328D01*
X221529452Y-192293328D02*
X221243738Y-192293328D01*
X221243738Y-192293328D02*
X221100881Y-192364757D01*
X221100881Y-192364757D02*
X221029452Y-192436185D01*
X221029452Y-192436185D02*
X220958024Y-192579042D01*
X220958024Y-192579042D02*
X220958024Y-192936185D01*
X220958024Y-192936185D02*
X221029452Y-193079042D01*
X221029452Y-193079042D02*
X221100881Y-193150471D01*
X221100881Y-193150471D02*
X221243738Y-193221900D01*
X221243738Y-193221900D02*
X221529452Y-193221900D01*
X221529452Y-193221900D02*
X221672310Y-193150471D01*
X221672310Y-193150471D02*
X221743738Y-193079042D01*
X221743738Y-193079042D02*
X221815167Y-192936185D01*
X177002200Y-194507200D02*
X285002200Y-194507200D01*
X178458026Y-196593328D02*
X178458026Y-195093328D01*
X179315169Y-196593328D02*
X178672312Y-195736185D01*
X179315169Y-195093328D02*
X178458026Y-195950471D01*
X179958026Y-196593328D02*
X179958026Y-195593328D01*
X179958026Y-195093328D02*
X179886598Y-195164757D01*
X179886598Y-195164757D02*
X179958026Y-195236185D01*
X179958026Y-195236185D02*
X180029455Y-195164757D01*
X180029455Y-195164757D02*
X179958026Y-195093328D01*
X179958026Y-195093328D02*
X179958026Y-195236185D01*
X181529455Y-196450471D02*
X181458027Y-196521900D01*
X181458027Y-196521900D02*
X181243741Y-196593328D01*
X181243741Y-196593328D02*
X181100884Y-196593328D01*
X181100884Y-196593328D02*
X180886598Y-196521900D01*
X180886598Y-196521900D02*
X180743741Y-196379042D01*
X180743741Y-196379042D02*
X180672312Y-196236185D01*
X180672312Y-196236185D02*
X180600884Y-195950471D01*
X180600884Y-195950471D02*
X180600884Y-195736185D01*
X180600884Y-195736185D02*
X180672312Y-195450471D01*
X180672312Y-195450471D02*
X180743741Y-195307614D01*
X180743741Y-195307614D02*
X180886598Y-195164757D01*
X180886598Y-195164757D02*
X181100884Y-195093328D01*
X181100884Y-195093328D02*
X181243741Y-195093328D01*
X181243741Y-195093328D02*
X181458027Y-195164757D01*
X181458027Y-195164757D02*
X181529455Y-195236185D01*
X182815170Y-196593328D02*
X182815170Y-195807614D01*
X182815170Y-195807614D02*
X182743741Y-195664757D01*
X182743741Y-195664757D02*
X182600884Y-195593328D01*
X182600884Y-195593328D02*
X182315170Y-195593328D01*
X182315170Y-195593328D02*
X182172312Y-195664757D01*
X182815170Y-196521900D02*
X182672312Y-196593328D01*
X182672312Y-196593328D02*
X182315170Y-196593328D01*
X182315170Y-196593328D02*
X182172312Y-196521900D01*
X182172312Y-196521900D02*
X182100884Y-196379042D01*
X182100884Y-196379042D02*
X182100884Y-196236185D01*
X182100884Y-196236185D02*
X182172312Y-196093328D01*
X182172312Y-196093328D02*
X182315170Y-196021900D01*
X182315170Y-196021900D02*
X182672312Y-196021900D01*
X182672312Y-196021900D02*
X182815170Y-195950471D01*
X184172313Y-196593328D02*
X184172313Y-195093328D01*
X184172313Y-196521900D02*
X184029455Y-196593328D01*
X184029455Y-196593328D02*
X183743741Y-196593328D01*
X183743741Y-196593328D02*
X183600884Y-196521900D01*
X183600884Y-196521900D02*
X183529455Y-196450471D01*
X183529455Y-196450471D02*
X183458027Y-196307614D01*
X183458027Y-196307614D02*
X183458027Y-195879042D01*
X183458027Y-195879042D02*
X183529455Y-195736185D01*
X183529455Y-195736185D02*
X183600884Y-195664757D01*
X183600884Y-195664757D02*
X183743741Y-195593328D01*
X183743741Y-195593328D02*
X184029455Y-195593328D01*
X184029455Y-195593328D02*
X184172313Y-195664757D01*
X186029455Y-195807614D02*
X186529455Y-195807614D01*
X186743741Y-196593328D02*
X186029455Y-196593328D01*
X186029455Y-196593328D02*
X186029455Y-195093328D01*
X186029455Y-195093328D02*
X186743741Y-195093328D01*
X187386598Y-196450471D02*
X187458027Y-196521900D01*
X187458027Y-196521900D02*
X187386598Y-196593328D01*
X187386598Y-196593328D02*
X187315170Y-196521900D01*
X187315170Y-196521900D02*
X187386598Y-196450471D01*
X187386598Y-196450471D02*
X187386598Y-196593328D01*
X188100884Y-196593328D02*
X188100884Y-195093328D01*
X188100884Y-195093328D02*
X188458027Y-195093328D01*
X188458027Y-195093328D02*
X188672313Y-195164757D01*
X188672313Y-195164757D02*
X188815170Y-195307614D01*
X188815170Y-195307614D02*
X188886599Y-195450471D01*
X188886599Y-195450471D02*
X188958027Y-195736185D01*
X188958027Y-195736185D02*
X188958027Y-195950471D01*
X188958027Y-195950471D02*
X188886599Y-196236185D01*
X188886599Y-196236185D02*
X188815170Y-196379042D01*
X188815170Y-196379042D02*
X188672313Y-196521900D01*
X188672313Y-196521900D02*
X188458027Y-196593328D01*
X188458027Y-196593328D02*
X188100884Y-196593328D01*
X189600884Y-196450471D02*
X189672313Y-196521900D01*
X189672313Y-196521900D02*
X189600884Y-196593328D01*
X189600884Y-196593328D02*
X189529456Y-196521900D01*
X189529456Y-196521900D02*
X189600884Y-196450471D01*
X189600884Y-196450471D02*
X189600884Y-196593328D01*
X190243742Y-196164757D02*
X190958028Y-196164757D01*
X190100885Y-196593328D02*
X190600885Y-195093328D01*
X190600885Y-195093328D02*
X191100885Y-196593328D01*
X191600884Y-196450471D02*
X191672313Y-196521900D01*
X191672313Y-196521900D02*
X191600884Y-196593328D01*
X191600884Y-196593328D02*
X191529456Y-196521900D01*
X191529456Y-196521900D02*
X191600884Y-196450471D01*
X191600884Y-196450471D02*
X191600884Y-196593328D01*
X194243742Y-196593328D02*
X193386599Y-196593328D01*
X193815170Y-196593328D02*
X193815170Y-195093328D01*
X193815170Y-195093328D02*
X193672313Y-195307614D01*
X193672313Y-195307614D02*
X193529456Y-195450471D01*
X193529456Y-195450471D02*
X193386599Y-195521900D01*
X195172313Y-195093328D02*
X195315170Y-195093328D01*
X195315170Y-195093328D02*
X195458027Y-195164757D01*
X195458027Y-195164757D02*
X195529456Y-195236185D01*
X195529456Y-195236185D02*
X195600884Y-195379042D01*
X195600884Y-195379042D02*
X195672313Y-195664757D01*
X195672313Y-195664757D02*
X195672313Y-196021900D01*
X195672313Y-196021900D02*
X195600884Y-196307614D01*
X195600884Y-196307614D02*
X195529456Y-196450471D01*
X195529456Y-196450471D02*
X195458027Y-196521900D01*
X195458027Y-196521900D02*
X195315170Y-196593328D01*
X195315170Y-196593328D02*
X195172313Y-196593328D01*
X195172313Y-196593328D02*
X195029456Y-196521900D01*
X195029456Y-196521900D02*
X194958027Y-196450471D01*
X194958027Y-196450471D02*
X194886598Y-196307614D01*
X194886598Y-196307614D02*
X194815170Y-196021900D01*
X194815170Y-196021900D02*
X194815170Y-195664757D01*
X194815170Y-195664757D02*
X194886598Y-195379042D01*
X194886598Y-195379042D02*
X194958027Y-195236185D01*
X194958027Y-195236185D02*
X195029456Y-195164757D01*
X195029456Y-195164757D02*
X195172313Y-195093328D01*
X196315169Y-196450471D02*
X196386598Y-196521900D01*
X196386598Y-196521900D02*
X196315169Y-196593328D01*
X196315169Y-196593328D02*
X196243741Y-196521900D01*
X196243741Y-196521900D02*
X196315169Y-196450471D01*
X196315169Y-196450471D02*
X196315169Y-196593328D01*
X197315170Y-195093328D02*
X197458027Y-195093328D01*
X197458027Y-195093328D02*
X197600884Y-195164757D01*
X197600884Y-195164757D02*
X197672313Y-195236185D01*
X197672313Y-195236185D02*
X197743741Y-195379042D01*
X197743741Y-195379042D02*
X197815170Y-195664757D01*
X197815170Y-195664757D02*
X197815170Y-196021900D01*
X197815170Y-196021900D02*
X197743741Y-196307614D01*
X197743741Y-196307614D02*
X197672313Y-196450471D01*
X197672313Y-196450471D02*
X197600884Y-196521900D01*
X197600884Y-196521900D02*
X197458027Y-196593328D01*
X197458027Y-196593328D02*
X197315170Y-196593328D01*
X197315170Y-196593328D02*
X197172313Y-196521900D01*
X197172313Y-196521900D02*
X197100884Y-196450471D01*
X197100884Y-196450471D02*
X197029455Y-196307614D01*
X197029455Y-196307614D02*
X196958027Y-196021900D01*
X196958027Y-196021900D02*
X196958027Y-195664757D01*
X196958027Y-195664757D02*
X197029455Y-195379042D01*
X197029455Y-195379042D02*
X197100884Y-195236185D01*
X197100884Y-195236185D02*
X197172313Y-195164757D01*
X197172313Y-195164757D02*
X197315170Y-195093328D01*
X198458026Y-196450471D02*
X198529455Y-196521900D01*
X198529455Y-196521900D02*
X198458026Y-196593328D01*
X198458026Y-196593328D02*
X198386598Y-196521900D01*
X198386598Y-196521900D02*
X198458026Y-196450471D01*
X198458026Y-196450471D02*
X198458026Y-196593328D01*
X199886598Y-195093328D02*
X199172312Y-195093328D01*
X199172312Y-195093328D02*
X199100884Y-195807614D01*
X199100884Y-195807614D02*
X199172312Y-195736185D01*
X199172312Y-195736185D02*
X199315170Y-195664757D01*
X199315170Y-195664757D02*
X199672312Y-195664757D01*
X199672312Y-195664757D02*
X199815170Y-195736185D01*
X199815170Y-195736185D02*
X199886598Y-195807614D01*
X199886598Y-195807614D02*
X199958027Y-195950471D01*
X199958027Y-195950471D02*
X199958027Y-196307614D01*
X199958027Y-196307614D02*
X199886598Y-196450471D01*
X199886598Y-196450471D02*
X199815170Y-196521900D01*
X199815170Y-196521900D02*
X199672312Y-196593328D01*
X199672312Y-196593328D02*
X199315170Y-196593328D01*
X199315170Y-196593328D02*
X199172312Y-196521900D01*
X199172312Y-196521900D02*
X199100884Y-196450471D01*
X177002200Y-191507200D02*
X285002200Y-191507200D01*
D11*
X264413853Y-193785528D02*
X263913853Y-193071242D01*
X263556710Y-193785528D02*
X263556710Y-192285528D01*
X263556710Y-192285528D02*
X264128139Y-192285528D01*
X264128139Y-192285528D02*
X264270996Y-192356957D01*
X264270996Y-192356957D02*
X264342425Y-192428385D01*
X264342425Y-192428385D02*
X264413853Y-192571242D01*
X264413853Y-192571242D02*
X264413853Y-192785528D01*
X264413853Y-192785528D02*
X264342425Y-192928385D01*
X264342425Y-192928385D02*
X264270996Y-192999814D01*
X264270996Y-192999814D02*
X264128139Y-193071242D01*
X264128139Y-193071242D02*
X263556710Y-193071242D01*
X265628139Y-193714100D02*
X265485282Y-193785528D01*
X265485282Y-193785528D02*
X265199568Y-193785528D01*
X265199568Y-193785528D02*
X265056710Y-193714100D01*
X265056710Y-193714100D02*
X264985282Y-193571242D01*
X264985282Y-193571242D02*
X264985282Y-192999814D01*
X264985282Y-192999814D02*
X265056710Y-192856957D01*
X265056710Y-192856957D02*
X265199568Y-192785528D01*
X265199568Y-192785528D02*
X265485282Y-192785528D01*
X265485282Y-192785528D02*
X265628139Y-192856957D01*
X265628139Y-192856957D02*
X265699568Y-192999814D01*
X265699568Y-192999814D02*
X265699568Y-193142671D01*
X265699568Y-193142671D02*
X264985282Y-193285528D01*
X266199567Y-192785528D02*
X266556710Y-193785528D01*
X266556710Y-193785528D02*
X266913853Y-192785528D01*
X267485281Y-193642671D02*
X267556710Y-193714100D01*
X267556710Y-193714100D02*
X267485281Y-193785528D01*
X267485281Y-193785528D02*
X267413853Y-193714100D01*
X267413853Y-193714100D02*
X267485281Y-193642671D01*
X267485281Y-193642671D02*
X267485281Y-193785528D01*
X267485281Y-192856957D02*
X267556710Y-192928385D01*
X267556710Y-192928385D02*
X267485281Y-192999814D01*
X267485281Y-192999814D02*
X267413853Y-192928385D01*
X267413853Y-192928385D02*
X267485281Y-192856957D01*
X267485281Y-192856957D02*
X267485281Y-192999814D01*
X269128139Y-192285528D02*
X269628139Y-193785528D01*
X269628139Y-193785528D02*
X270128139Y-192285528D01*
X271413853Y-193785528D02*
X270556710Y-193785528D01*
X270985281Y-193785528D02*
X270985281Y-192285528D01*
X270985281Y-192285528D02*
X270842424Y-192499814D01*
X270842424Y-192499814D02*
X270699567Y-192642671D01*
X270699567Y-192642671D02*
X270556710Y-192714100D01*
X272056709Y-193642671D02*
X272128138Y-193714100D01*
X272128138Y-193714100D02*
X272056709Y-193785528D01*
X272056709Y-193785528D02*
X271985281Y-193714100D01*
X271985281Y-193714100D02*
X272056709Y-193642671D01*
X272056709Y-193642671D02*
X272056709Y-193785528D01*
X273056710Y-192285528D02*
X273199567Y-192285528D01*
X273199567Y-192285528D02*
X273342424Y-192356957D01*
X273342424Y-192356957D02*
X273413853Y-192428385D01*
X273413853Y-192428385D02*
X273485281Y-192571242D01*
X273485281Y-192571242D02*
X273556710Y-192856957D01*
X273556710Y-192856957D02*
X273556710Y-193214100D01*
X273556710Y-193214100D02*
X273485281Y-193499814D01*
X273485281Y-193499814D02*
X273413853Y-193642671D01*
X273413853Y-193642671D02*
X273342424Y-193714100D01*
X273342424Y-193714100D02*
X273199567Y-193785528D01*
X273199567Y-193785528D02*
X273056710Y-193785528D01*
X273056710Y-193785528D02*
X272913853Y-193714100D01*
X272913853Y-193714100D02*
X272842424Y-193642671D01*
X272842424Y-193642671D02*
X272770995Y-193499814D01*
X272770995Y-193499814D02*
X272699567Y-193214100D01*
X272699567Y-193214100D02*
X272699567Y-192856957D01*
X272699567Y-192856957D02*
X272770995Y-192571242D01*
X272770995Y-192571242D02*
X272842424Y-192428385D01*
X272842424Y-192428385D02*
X272913853Y-192356957D01*
X272913853Y-192356957D02*
X273056710Y-192285528D01*
D10*
X178386598Y-193721900D02*
X178600884Y-193793328D01*
X178600884Y-193793328D02*
X178958026Y-193793328D01*
X178958026Y-193793328D02*
X179100884Y-193721900D01*
X179100884Y-193721900D02*
X179172312Y-193650471D01*
X179172312Y-193650471D02*
X179243741Y-193507614D01*
X179243741Y-193507614D02*
X179243741Y-193364757D01*
X179243741Y-193364757D02*
X179172312Y-193221900D01*
X179172312Y-193221900D02*
X179100884Y-193150471D01*
X179100884Y-193150471D02*
X178958026Y-193079042D01*
X178958026Y-193079042D02*
X178672312Y-193007614D01*
X178672312Y-193007614D02*
X178529455Y-192936185D01*
X178529455Y-192936185D02*
X178458026Y-192864757D01*
X178458026Y-192864757D02*
X178386598Y-192721900D01*
X178386598Y-192721900D02*
X178386598Y-192579042D01*
X178386598Y-192579042D02*
X178458026Y-192436185D01*
X178458026Y-192436185D02*
X178529455Y-192364757D01*
X178529455Y-192364757D02*
X178672312Y-192293328D01*
X178672312Y-192293328D02*
X179029455Y-192293328D01*
X179029455Y-192293328D02*
X179243741Y-192364757D01*
X179886597Y-193793328D02*
X179886597Y-192793328D01*
X179886597Y-192293328D02*
X179815169Y-192364757D01*
X179815169Y-192364757D02*
X179886597Y-192436185D01*
X179886597Y-192436185D02*
X179958026Y-192364757D01*
X179958026Y-192364757D02*
X179886597Y-192293328D01*
X179886597Y-192293328D02*
X179886597Y-192436185D01*
X180458026Y-192793328D02*
X181243741Y-192793328D01*
X181243741Y-192793328D02*
X180458026Y-193793328D01*
X180458026Y-193793328D02*
X181243741Y-193793328D01*
X182386598Y-193721900D02*
X182243741Y-193793328D01*
X182243741Y-193793328D02*
X181958027Y-193793328D01*
X181958027Y-193793328D02*
X181815169Y-193721900D01*
X181815169Y-193721900D02*
X181743741Y-193579042D01*
X181743741Y-193579042D02*
X181743741Y-193007614D01*
X181743741Y-193007614D02*
X181815169Y-192864757D01*
X181815169Y-192864757D02*
X181958027Y-192793328D01*
X181958027Y-192793328D02*
X182243741Y-192793328D01*
X182243741Y-192793328D02*
X182386598Y-192864757D01*
X182386598Y-192864757D02*
X182458027Y-193007614D01*
X182458027Y-193007614D02*
X182458027Y-193150471D01*
X182458027Y-193150471D02*
X181743741Y-193293328D01*
X183100883Y-193650471D02*
X183172312Y-193721900D01*
X183172312Y-193721900D02*
X183100883Y-193793328D01*
X183100883Y-193793328D02*
X183029455Y-193721900D01*
X183029455Y-193721900D02*
X183100883Y-193650471D01*
X183100883Y-193650471D02*
X183100883Y-193793328D01*
X183100883Y-192864757D02*
X183172312Y-192936185D01*
X183172312Y-192936185D02*
X183100883Y-193007614D01*
X183100883Y-193007614D02*
X183029455Y-192936185D01*
X183029455Y-192936185D02*
X183100883Y-192864757D01*
X183100883Y-192864757D02*
X183100883Y-193007614D01*
X184886598Y-193364757D02*
X185600884Y-193364757D01*
X184743741Y-193793328D02*
X185243741Y-192293328D01*
X185243741Y-192293328D02*
X185743741Y-193793328D01*
X186886598Y-192793328D02*
X186886598Y-193793328D01*
X186529455Y-192221900D02*
X186172312Y-193293328D01*
X186172312Y-193293328D02*
X187100883Y-193293328D01*
X263458026Y-196593328D02*
X263458026Y-195093328D01*
X264815170Y-196593328D02*
X264815170Y-195093328D01*
X264815170Y-196521900D02*
X264672312Y-196593328D01*
X264672312Y-196593328D02*
X264386598Y-196593328D01*
X264386598Y-196593328D02*
X264243741Y-196521900D01*
X264243741Y-196521900D02*
X264172312Y-196450471D01*
X264172312Y-196450471D02*
X264100884Y-196307614D01*
X264100884Y-196307614D02*
X264100884Y-195879042D01*
X264100884Y-195879042D02*
X264172312Y-195736185D01*
X264172312Y-195736185D02*
X264243741Y-195664757D01*
X264243741Y-195664757D02*
X264386598Y-195593328D01*
X264386598Y-195593328D02*
X264672312Y-195593328D01*
X264672312Y-195593328D02*
X264815170Y-195664757D01*
X265529455Y-196450471D02*
X265600884Y-196521900D01*
X265600884Y-196521900D02*
X265529455Y-196593328D01*
X265529455Y-196593328D02*
X265458027Y-196521900D01*
X265458027Y-196521900D02*
X265529455Y-196450471D01*
X265529455Y-196450471D02*
X265529455Y-196593328D01*
X265529455Y-195664757D02*
X265600884Y-195736185D01*
X265600884Y-195736185D02*
X265529455Y-195807614D01*
X265529455Y-195807614D02*
X265458027Y-195736185D01*
X265458027Y-195736185D02*
X265529455Y-195664757D01*
X265529455Y-195664757D02*
X265529455Y-195807614D01*
X268172313Y-196593328D02*
X267315170Y-196593328D01*
X267743741Y-196593328D02*
X267743741Y-195093328D01*
X267743741Y-195093328D02*
X267600884Y-195307614D01*
X267600884Y-195307614D02*
X267458027Y-195450471D01*
X267458027Y-195450471D02*
X267315170Y-195521900D01*
X269529455Y-195093328D02*
X268815169Y-195093328D01*
X268815169Y-195093328D02*
X268743741Y-195807614D01*
X268743741Y-195807614D02*
X268815169Y-195736185D01*
X268815169Y-195736185D02*
X268958027Y-195664757D01*
X268958027Y-195664757D02*
X269315169Y-195664757D01*
X269315169Y-195664757D02*
X269458027Y-195736185D01*
X269458027Y-195736185D02*
X269529455Y-195807614D01*
X269529455Y-195807614D02*
X269600884Y-195950471D01*
X269600884Y-195950471D02*
X269600884Y-196307614D01*
X269600884Y-196307614D02*
X269529455Y-196450471D01*
X269529455Y-196450471D02*
X269458027Y-196521900D01*
X269458027Y-196521900D02*
X269315169Y-196593328D01*
X269315169Y-196593328D02*
X268958027Y-196593328D01*
X268958027Y-196593328D02*
X268815169Y-196521900D01*
X268815169Y-196521900D02*
X268743741Y-196450471D01*
X271315169Y-195021900D02*
X270029455Y-196950471D01*
X272600884Y-196593328D02*
X271743741Y-196593328D01*
X272172312Y-196593328D02*
X272172312Y-195093328D01*
X272172312Y-195093328D02*
X272029455Y-195307614D01*
X272029455Y-195307614D02*
X271886598Y-195450471D01*
X271886598Y-195450471D02*
X271743741Y-195521900D01*
X273315169Y-196593328D02*
X273600883Y-196593328D01*
X273600883Y-196593328D02*
X273743740Y-196521900D01*
X273743740Y-196521900D02*
X273815169Y-196450471D01*
X273815169Y-196450471D02*
X273958026Y-196236185D01*
X273958026Y-196236185D02*
X274029455Y-195950471D01*
X274029455Y-195950471D02*
X274029455Y-195379042D01*
X274029455Y-195379042D02*
X273958026Y-195236185D01*
X273958026Y-195236185D02*
X273886598Y-195164757D01*
X273886598Y-195164757D02*
X273743740Y-195093328D01*
X273743740Y-195093328D02*
X273458026Y-195093328D01*
X273458026Y-195093328D02*
X273315169Y-195164757D01*
X273315169Y-195164757D02*
X273243740Y-195236185D01*
X273243740Y-195236185D02*
X273172312Y-195379042D01*
X273172312Y-195379042D02*
X273172312Y-195736185D01*
X273172312Y-195736185D02*
X273243740Y-195879042D01*
X273243740Y-195879042D02*
X273315169Y-195950471D01*
X273315169Y-195950471D02*
X273458026Y-196021900D01*
X273458026Y-196021900D02*
X273743740Y-196021900D01*
X273743740Y-196021900D02*
X273886598Y-195950471D01*
X273886598Y-195950471D02*
X273958026Y-195879042D01*
X273958026Y-195879042D02*
X274029455Y-195736185D01*
X177002200Y-187507200D02*
X285002200Y-187507200D01*
D12*
X178693928Y-188211638D02*
X179836785Y-188211638D01*
X179015357Y-190211638D02*
X179265357Y-188211638D01*
X180253452Y-190211638D02*
X180420119Y-188878304D01*
X180503452Y-188211638D02*
X180396309Y-188306876D01*
X180396309Y-188306876D02*
X180479643Y-188402114D01*
X180479643Y-188402114D02*
X180586786Y-188306876D01*
X180586786Y-188306876D02*
X180503452Y-188211638D01*
X180503452Y-188211638D02*
X180479643Y-188402114D01*
X181086786Y-188878304D02*
X181848690Y-188878304D01*
X181455833Y-188211638D02*
X181241548Y-189925923D01*
X181241548Y-189925923D02*
X181312976Y-190116400D01*
X181312976Y-190116400D02*
X181491548Y-190211638D01*
X181491548Y-190211638D02*
X181682024Y-190211638D01*
X182634405Y-190211638D02*
X182455833Y-190116400D01*
X182455833Y-190116400D02*
X182384405Y-189925923D01*
X182384405Y-189925923D02*
X182598690Y-188211638D01*
X184170119Y-190116400D02*
X183967738Y-190211638D01*
X183967738Y-190211638D02*
X183586785Y-190211638D01*
X183586785Y-190211638D02*
X183408214Y-190116400D01*
X183408214Y-190116400D02*
X183336785Y-189925923D01*
X183336785Y-189925923D02*
X183432024Y-189164019D01*
X183432024Y-189164019D02*
X183551071Y-188973542D01*
X183551071Y-188973542D02*
X183753452Y-188878304D01*
X183753452Y-188878304D02*
X184134404Y-188878304D01*
X184134404Y-188878304D02*
X184312976Y-188973542D01*
X184312976Y-188973542D02*
X184384404Y-189164019D01*
X184384404Y-189164019D02*
X184360595Y-189354495D01*
X184360595Y-189354495D02*
X183384404Y-189544971D01*
X185134405Y-190021161D02*
X185217738Y-190116400D01*
X185217738Y-190116400D02*
X185110595Y-190211638D01*
X185110595Y-190211638D02*
X185027262Y-190116400D01*
X185027262Y-190116400D02*
X185134405Y-190021161D01*
X185134405Y-190021161D02*
X185110595Y-190211638D01*
X185265357Y-188973542D02*
X185348690Y-189068780D01*
X185348690Y-189068780D02*
X185241548Y-189164019D01*
X185241548Y-189164019D02*
X185158214Y-189068780D01*
X185158214Y-189068780D02*
X185265357Y-188973542D01*
X185265357Y-188973542D02*
X185241548Y-189164019D01*
X188384405Y-189164019D02*
X188658215Y-189259257D01*
X188658215Y-189259257D02*
X188741548Y-189354495D01*
X188741548Y-189354495D02*
X188812977Y-189544971D01*
X188812977Y-189544971D02*
X188777262Y-189830685D01*
X188777262Y-189830685D02*
X188658215Y-190021161D01*
X188658215Y-190021161D02*
X188551072Y-190116400D01*
X188551072Y-190116400D02*
X188348691Y-190211638D01*
X188348691Y-190211638D02*
X187586786Y-190211638D01*
X187586786Y-190211638D02*
X187836786Y-188211638D01*
X187836786Y-188211638D02*
X188503453Y-188211638D01*
X188503453Y-188211638D02*
X188682024Y-188306876D01*
X188682024Y-188306876D02*
X188765358Y-188402114D01*
X188765358Y-188402114D02*
X188836786Y-188592590D01*
X188836786Y-188592590D02*
X188812977Y-188783066D01*
X188812977Y-188783066D02*
X188693929Y-188973542D01*
X188693929Y-188973542D02*
X188586786Y-189068780D01*
X188586786Y-189068780D02*
X188384405Y-189164019D01*
X188384405Y-189164019D02*
X187717739Y-189164019D01*
X190539167Y-190211638D02*
X189586786Y-190211638D01*
X189586786Y-190211638D02*
X189836786Y-188211638D01*
X191205834Y-190211638D02*
X191455834Y-188211638D01*
X191455834Y-188211638D02*
X191932025Y-188211638D01*
X191932025Y-188211638D02*
X192205834Y-188306876D01*
X192205834Y-188306876D02*
X192372501Y-188497352D01*
X192372501Y-188497352D02*
X192443929Y-188687828D01*
X192443929Y-188687828D02*
X192491549Y-189068780D01*
X192491549Y-189068780D02*
X192455834Y-189354495D01*
X192455834Y-189354495D02*
X192312977Y-189735447D01*
X192312977Y-189735447D02*
X192193929Y-189925923D01*
X192193929Y-189925923D02*
X191979644Y-190116400D01*
X191979644Y-190116400D02*
X191682025Y-190211638D01*
X191682025Y-190211638D02*
X191205834Y-190211638D01*
X194372501Y-190021161D02*
X194265358Y-190116400D01*
X194265358Y-190116400D02*
X193967739Y-190211638D01*
X193967739Y-190211638D02*
X193777263Y-190211638D01*
X193777263Y-190211638D02*
X193503453Y-190116400D01*
X193503453Y-190116400D02*
X193336787Y-189925923D01*
X193336787Y-189925923D02*
X193265358Y-189735447D01*
X193265358Y-189735447D02*
X193217739Y-189354495D01*
X193217739Y-189354495D02*
X193253453Y-189068780D01*
X193253453Y-189068780D02*
X193396310Y-188687828D01*
X193396310Y-188687828D02*
X193515358Y-188497352D01*
X193515358Y-188497352D02*
X193729644Y-188306876D01*
X193729644Y-188306876D02*
X194027263Y-188211638D01*
X194027263Y-188211638D02*
X194217739Y-188211638D01*
X194217739Y-188211638D02*
X194491549Y-188306876D01*
X194491549Y-188306876D02*
X194574882Y-188402114D01*
X194705834Y-190402114D02*
X196229644Y-190402114D01*
X196729644Y-190211638D02*
X196979644Y-188211638D01*
X196979644Y-188211638D02*
X197467739Y-189640209D01*
X197467739Y-189640209D02*
X198312978Y-188211638D01*
X198312978Y-188211638D02*
X198062978Y-190211638D01*
X200182025Y-190021161D02*
X200074882Y-190116400D01*
X200074882Y-190116400D02*
X199777263Y-190211638D01*
X199777263Y-190211638D02*
X199586787Y-190211638D01*
X199586787Y-190211638D02*
X199312977Y-190116400D01*
X199312977Y-190116400D02*
X199146311Y-189925923D01*
X199146311Y-189925923D02*
X199074882Y-189735447D01*
X199074882Y-189735447D02*
X199027263Y-189354495D01*
X199027263Y-189354495D02*
X199062977Y-189068780D01*
X199062977Y-189068780D02*
X199205834Y-188687828D01*
X199205834Y-188687828D02*
X199324882Y-188497352D01*
X199324882Y-188497352D02*
X199539168Y-188306876D01*
X199539168Y-188306876D02*
X199836787Y-188211638D01*
X199836787Y-188211638D02*
X200027263Y-188211638D01*
X200027263Y-188211638D02*
X200301073Y-188306876D01*
X200301073Y-188306876D02*
X200384406Y-188402114D01*
D10*
X178958026Y-185607614D02*
X178458026Y-185607614D01*
X178458026Y-186393328D02*
X178458026Y-184893328D01*
X178458026Y-184893328D02*
X179172312Y-184893328D01*
X179743740Y-186393328D02*
X179743740Y-185393328D01*
X179743740Y-184893328D02*
X179672312Y-184964757D01*
X179672312Y-184964757D02*
X179743740Y-185036185D01*
X179743740Y-185036185D02*
X179815169Y-184964757D01*
X179815169Y-184964757D02*
X179743740Y-184893328D01*
X179743740Y-184893328D02*
X179743740Y-185036185D01*
X180672312Y-186393328D02*
X180529455Y-186321900D01*
X180529455Y-186321900D02*
X180458026Y-186179042D01*
X180458026Y-186179042D02*
X180458026Y-184893328D01*
X181815169Y-186321900D02*
X181672312Y-186393328D01*
X181672312Y-186393328D02*
X181386598Y-186393328D01*
X181386598Y-186393328D02*
X181243740Y-186321900D01*
X181243740Y-186321900D02*
X181172312Y-186179042D01*
X181172312Y-186179042D02*
X181172312Y-185607614D01*
X181172312Y-185607614D02*
X181243740Y-185464757D01*
X181243740Y-185464757D02*
X181386598Y-185393328D01*
X181386598Y-185393328D02*
X181672312Y-185393328D01*
X181672312Y-185393328D02*
X181815169Y-185464757D01*
X181815169Y-185464757D02*
X181886598Y-185607614D01*
X181886598Y-185607614D02*
X181886598Y-185750471D01*
X181886598Y-185750471D02*
X181172312Y-185893328D01*
X182529454Y-186250471D02*
X182600883Y-186321900D01*
X182600883Y-186321900D02*
X182529454Y-186393328D01*
X182529454Y-186393328D02*
X182458026Y-186321900D01*
X182458026Y-186321900D02*
X182529454Y-186250471D01*
X182529454Y-186250471D02*
X182529454Y-186393328D01*
X182529454Y-185464757D02*
X182600883Y-185536185D01*
X182600883Y-185536185D02*
X182529454Y-185607614D01*
X182529454Y-185607614D02*
X182458026Y-185536185D01*
X182458026Y-185536185D02*
X182529454Y-185464757D01*
X182529454Y-185464757D02*
X182529454Y-185607614D01*
X184886597Y-185607614D02*
X185100883Y-185679042D01*
X185100883Y-185679042D02*
X185172312Y-185750471D01*
X185172312Y-185750471D02*
X185243740Y-185893328D01*
X185243740Y-185893328D02*
X185243740Y-186107614D01*
X185243740Y-186107614D02*
X185172312Y-186250471D01*
X185172312Y-186250471D02*
X185100883Y-186321900D01*
X185100883Y-186321900D02*
X184958026Y-186393328D01*
X184958026Y-186393328D02*
X184386597Y-186393328D01*
X184386597Y-186393328D02*
X184386597Y-184893328D01*
X184386597Y-184893328D02*
X184886597Y-184893328D01*
X184886597Y-184893328D02*
X185029455Y-184964757D01*
X185029455Y-184964757D02*
X185100883Y-185036185D01*
X185100883Y-185036185D02*
X185172312Y-185179042D01*
X185172312Y-185179042D02*
X185172312Y-185321900D01*
X185172312Y-185321900D02*
X185100883Y-185464757D01*
X185100883Y-185464757D02*
X185029455Y-185536185D01*
X185029455Y-185536185D02*
X184886597Y-185607614D01*
X184886597Y-185607614D02*
X184386597Y-185607614D01*
X186600883Y-186393328D02*
X185886597Y-186393328D01*
X185886597Y-186393328D02*
X185886597Y-184893328D01*
X187100883Y-186393328D02*
X187100883Y-184893328D01*
X187100883Y-184893328D02*
X187458026Y-184893328D01*
X187458026Y-184893328D02*
X187672312Y-184964757D01*
X187672312Y-184964757D02*
X187815169Y-185107614D01*
X187815169Y-185107614D02*
X187886598Y-185250471D01*
X187886598Y-185250471D02*
X187958026Y-185536185D01*
X187958026Y-185536185D02*
X187958026Y-185750471D01*
X187958026Y-185750471D02*
X187886598Y-186036185D01*
X187886598Y-186036185D02*
X187815169Y-186179042D01*
X187815169Y-186179042D02*
X187672312Y-186321900D01*
X187672312Y-186321900D02*
X187458026Y-186393328D01*
X187458026Y-186393328D02*
X187100883Y-186393328D01*
X189458026Y-186250471D02*
X189386598Y-186321900D01*
X189386598Y-186321900D02*
X189172312Y-186393328D01*
X189172312Y-186393328D02*
X189029455Y-186393328D01*
X189029455Y-186393328D02*
X188815169Y-186321900D01*
X188815169Y-186321900D02*
X188672312Y-186179042D01*
X188672312Y-186179042D02*
X188600883Y-186036185D01*
X188600883Y-186036185D02*
X188529455Y-185750471D01*
X188529455Y-185750471D02*
X188529455Y-185536185D01*
X188529455Y-185536185D02*
X188600883Y-185250471D01*
X188600883Y-185250471D02*
X188672312Y-185107614D01*
X188672312Y-185107614D02*
X188815169Y-184964757D01*
X188815169Y-184964757D02*
X189029455Y-184893328D01*
X189029455Y-184893328D02*
X189172312Y-184893328D01*
X189172312Y-184893328D02*
X189386598Y-184964757D01*
X189386598Y-184964757D02*
X189458026Y-185036185D01*
X189743741Y-186536185D02*
X190886598Y-186536185D01*
X191243740Y-186393328D02*
X191243740Y-184893328D01*
X191243740Y-184893328D02*
X191743740Y-185964757D01*
X191743740Y-185964757D02*
X192243740Y-184893328D01*
X192243740Y-184893328D02*
X192243740Y-186393328D01*
X193815169Y-186250471D02*
X193743741Y-186321900D01*
X193743741Y-186321900D02*
X193529455Y-186393328D01*
X193529455Y-186393328D02*
X193386598Y-186393328D01*
X193386598Y-186393328D02*
X193172312Y-186321900D01*
X193172312Y-186321900D02*
X193029455Y-186179042D01*
X193029455Y-186179042D02*
X192958026Y-186036185D01*
X192958026Y-186036185D02*
X192886598Y-185750471D01*
X192886598Y-185750471D02*
X192886598Y-185536185D01*
X192886598Y-185536185D02*
X192958026Y-185250471D01*
X192958026Y-185250471D02*
X193029455Y-185107614D01*
X193029455Y-185107614D02*
X193172312Y-184964757D01*
X193172312Y-184964757D02*
X193386598Y-184893328D01*
X193386598Y-184893328D02*
X193529455Y-184893328D01*
X193529455Y-184893328D02*
X193743741Y-184964757D01*
X193743741Y-184964757D02*
X193815169Y-185036185D01*
X194100884Y-186536185D02*
X195243741Y-186536185D01*
X195386598Y-184893328D02*
X195886598Y-186393328D01*
X195886598Y-186393328D02*
X196386598Y-184893328D01*
X197672312Y-186393328D02*
X196815169Y-186393328D01*
X197243740Y-186393328D02*
X197243740Y-184893328D01*
X197243740Y-184893328D02*
X197100883Y-185107614D01*
X197100883Y-185107614D02*
X196958026Y-185250471D01*
X196958026Y-185250471D02*
X196815169Y-185321900D01*
X198315168Y-186250471D02*
X198386597Y-186321900D01*
X198386597Y-186321900D02*
X198315168Y-186393328D01*
X198315168Y-186393328D02*
X198243740Y-186321900D01*
X198243740Y-186321900D02*
X198315168Y-186250471D01*
X198315168Y-186250471D02*
X198315168Y-186393328D01*
X199315169Y-184893328D02*
X199458026Y-184893328D01*
X199458026Y-184893328D02*
X199600883Y-184964757D01*
X199600883Y-184964757D02*
X199672312Y-185036185D01*
X199672312Y-185036185D02*
X199743740Y-185179042D01*
X199743740Y-185179042D02*
X199815169Y-185464757D01*
X199815169Y-185464757D02*
X199815169Y-185821900D01*
X199815169Y-185821900D02*
X199743740Y-186107614D01*
X199743740Y-186107614D02*
X199672312Y-186250471D01*
X199672312Y-186250471D02*
X199600883Y-186321900D01*
X199600883Y-186321900D02*
X199458026Y-186393328D01*
X199458026Y-186393328D02*
X199315169Y-186393328D01*
X199315169Y-186393328D02*
X199172312Y-186321900D01*
X199172312Y-186321900D02*
X199100883Y-186250471D01*
X199100883Y-186250471D02*
X199029454Y-186107614D01*
X199029454Y-186107614D02*
X198958026Y-185821900D01*
X198958026Y-185821900D02*
X198958026Y-185464757D01*
X198958026Y-185464757D02*
X199029454Y-185179042D01*
X199029454Y-185179042D02*
X199100883Y-185036185D01*
X199100883Y-185036185D02*
X199172312Y-184964757D01*
X199172312Y-184964757D02*
X199315169Y-184893328D01*
X200458025Y-186250471D02*
X200529454Y-186321900D01*
X200529454Y-186321900D02*
X200458025Y-186393328D01*
X200458025Y-186393328D02*
X200386597Y-186321900D01*
X200386597Y-186321900D02*
X200458025Y-186250471D01*
X200458025Y-186250471D02*
X200458025Y-186393328D01*
X201172311Y-186393328D02*
X201172311Y-184893328D01*
X201315169Y-185821900D02*
X201743740Y-186393328D01*
X201743740Y-185393328D02*
X201172311Y-185964757D01*
X202386597Y-186393328D02*
X202386597Y-185393328D01*
X202386597Y-184893328D02*
X202315169Y-184964757D01*
X202315169Y-184964757D02*
X202386597Y-185036185D01*
X202386597Y-185036185D02*
X202458026Y-184964757D01*
X202458026Y-184964757D02*
X202386597Y-184893328D01*
X202386597Y-184893328D02*
X202386597Y-185036185D01*
X203743741Y-186321900D02*
X203600883Y-186393328D01*
X203600883Y-186393328D02*
X203315169Y-186393328D01*
X203315169Y-186393328D02*
X203172312Y-186321900D01*
X203172312Y-186321900D02*
X203100883Y-186250471D01*
X203100883Y-186250471D02*
X203029455Y-186107614D01*
X203029455Y-186107614D02*
X203029455Y-185679042D01*
X203029455Y-185679042D02*
X203100883Y-185536185D01*
X203100883Y-185536185D02*
X203172312Y-185464757D01*
X203172312Y-185464757D02*
X203315169Y-185393328D01*
X203315169Y-185393328D02*
X203600883Y-185393328D01*
X203600883Y-185393328D02*
X203743741Y-185464757D01*
X205029455Y-186393328D02*
X205029455Y-185607614D01*
X205029455Y-185607614D02*
X204958026Y-185464757D01*
X204958026Y-185464757D02*
X204815169Y-185393328D01*
X204815169Y-185393328D02*
X204529455Y-185393328D01*
X204529455Y-185393328D02*
X204386597Y-185464757D01*
X205029455Y-186321900D02*
X204886597Y-186393328D01*
X204886597Y-186393328D02*
X204529455Y-186393328D01*
X204529455Y-186393328D02*
X204386597Y-186321900D01*
X204386597Y-186321900D02*
X204315169Y-186179042D01*
X204315169Y-186179042D02*
X204315169Y-186036185D01*
X204315169Y-186036185D02*
X204386597Y-185893328D01*
X204386597Y-185893328D02*
X204529455Y-185821900D01*
X204529455Y-185821900D02*
X204886597Y-185821900D01*
X204886597Y-185821900D02*
X205029455Y-185750471D01*
X206386598Y-186393328D02*
X206386598Y-184893328D01*
X206386598Y-186321900D02*
X206243740Y-186393328D01*
X206243740Y-186393328D02*
X205958026Y-186393328D01*
X205958026Y-186393328D02*
X205815169Y-186321900D01*
X205815169Y-186321900D02*
X205743740Y-186250471D01*
X205743740Y-186250471D02*
X205672312Y-186107614D01*
X205672312Y-186107614D02*
X205672312Y-185679042D01*
X205672312Y-185679042D02*
X205743740Y-185536185D01*
X205743740Y-185536185D02*
X205815169Y-185464757D01*
X205815169Y-185464757D02*
X205958026Y-185393328D01*
X205958026Y-185393328D02*
X206243740Y-185393328D01*
X206243740Y-185393328D02*
X206386598Y-185464757D01*
X206743741Y-186536185D02*
X207886598Y-186536185D01*
X208243740Y-185393328D02*
X208243740Y-186893328D01*
X208243740Y-185464757D02*
X208386598Y-185393328D01*
X208386598Y-185393328D02*
X208672312Y-185393328D01*
X208672312Y-185393328D02*
X208815169Y-185464757D01*
X208815169Y-185464757D02*
X208886598Y-185536185D01*
X208886598Y-185536185D02*
X208958026Y-185679042D01*
X208958026Y-185679042D02*
X208958026Y-186107614D01*
X208958026Y-186107614D02*
X208886598Y-186250471D01*
X208886598Y-186250471D02*
X208815169Y-186321900D01*
X208815169Y-186321900D02*
X208672312Y-186393328D01*
X208672312Y-186393328D02*
X208386598Y-186393328D01*
X208386598Y-186393328D02*
X208243740Y-186321900D01*
X210243741Y-186321900D02*
X210100883Y-186393328D01*
X210100883Y-186393328D02*
X209815169Y-186393328D01*
X209815169Y-186393328D02*
X209672312Y-186321900D01*
X209672312Y-186321900D02*
X209600883Y-186250471D01*
X209600883Y-186250471D02*
X209529455Y-186107614D01*
X209529455Y-186107614D02*
X209529455Y-185679042D01*
X209529455Y-185679042D02*
X209600883Y-185536185D01*
X209600883Y-185536185D02*
X209672312Y-185464757D01*
X209672312Y-185464757D02*
X209815169Y-185393328D01*
X209815169Y-185393328D02*
X210100883Y-185393328D01*
X210100883Y-185393328D02*
X210243741Y-185464757D01*
X210886597Y-186393328D02*
X210886597Y-184893328D01*
X210886597Y-185464757D02*
X211029455Y-185393328D01*
X211029455Y-185393328D02*
X211315169Y-185393328D01*
X211315169Y-185393328D02*
X211458026Y-185464757D01*
X211458026Y-185464757D02*
X211529455Y-185536185D01*
X211529455Y-185536185D02*
X211600883Y-185679042D01*
X211600883Y-185679042D02*
X211600883Y-186107614D01*
X211600883Y-186107614D02*
X211529455Y-186250471D01*
X211529455Y-186250471D02*
X211458026Y-186321900D01*
X211458026Y-186321900D02*
X211315169Y-186393328D01*
X211315169Y-186393328D02*
X211029455Y-186393328D01*
X211029455Y-186393328D02*
X210886597Y-186321900D01*
X177002200Y-181507200D02*
X285002200Y-181507200D01*
X178386598Y-183621900D02*
X178600884Y-183693328D01*
X178600884Y-183693328D02*
X178958026Y-183693328D01*
X178958026Y-183693328D02*
X179100884Y-183621900D01*
X179100884Y-183621900D02*
X179172312Y-183550471D01*
X179172312Y-183550471D02*
X179243741Y-183407614D01*
X179243741Y-183407614D02*
X179243741Y-183264757D01*
X179243741Y-183264757D02*
X179172312Y-183121900D01*
X179172312Y-183121900D02*
X179100884Y-183050471D01*
X179100884Y-183050471D02*
X178958026Y-182979042D01*
X178958026Y-182979042D02*
X178672312Y-182907614D01*
X178672312Y-182907614D02*
X178529455Y-182836185D01*
X178529455Y-182836185D02*
X178458026Y-182764757D01*
X178458026Y-182764757D02*
X178386598Y-182621900D01*
X178386598Y-182621900D02*
X178386598Y-182479042D01*
X178386598Y-182479042D02*
X178458026Y-182336185D01*
X178458026Y-182336185D02*
X178529455Y-182264757D01*
X178529455Y-182264757D02*
X178672312Y-182193328D01*
X178672312Y-182193328D02*
X179029455Y-182193328D01*
X179029455Y-182193328D02*
X179243741Y-182264757D01*
X179886597Y-183693328D02*
X179886597Y-182193328D01*
X180529455Y-183693328D02*
X180529455Y-182907614D01*
X180529455Y-182907614D02*
X180458026Y-182764757D01*
X180458026Y-182764757D02*
X180315169Y-182693328D01*
X180315169Y-182693328D02*
X180100883Y-182693328D01*
X180100883Y-182693328D02*
X179958026Y-182764757D01*
X179958026Y-182764757D02*
X179886597Y-182836185D01*
X181815169Y-183621900D02*
X181672312Y-183693328D01*
X181672312Y-183693328D02*
X181386598Y-183693328D01*
X181386598Y-183693328D02*
X181243740Y-183621900D01*
X181243740Y-183621900D02*
X181172312Y-183479042D01*
X181172312Y-183479042D02*
X181172312Y-182907614D01*
X181172312Y-182907614D02*
X181243740Y-182764757D01*
X181243740Y-182764757D02*
X181386598Y-182693328D01*
X181386598Y-182693328D02*
X181672312Y-182693328D01*
X181672312Y-182693328D02*
X181815169Y-182764757D01*
X181815169Y-182764757D02*
X181886598Y-182907614D01*
X181886598Y-182907614D02*
X181886598Y-183050471D01*
X181886598Y-183050471D02*
X181172312Y-183193328D01*
X183100883Y-183621900D02*
X182958026Y-183693328D01*
X182958026Y-183693328D02*
X182672312Y-183693328D01*
X182672312Y-183693328D02*
X182529454Y-183621900D01*
X182529454Y-183621900D02*
X182458026Y-183479042D01*
X182458026Y-183479042D02*
X182458026Y-182907614D01*
X182458026Y-182907614D02*
X182529454Y-182764757D01*
X182529454Y-182764757D02*
X182672312Y-182693328D01*
X182672312Y-182693328D02*
X182958026Y-182693328D01*
X182958026Y-182693328D02*
X183100883Y-182764757D01*
X183100883Y-182764757D02*
X183172312Y-182907614D01*
X183172312Y-182907614D02*
X183172312Y-183050471D01*
X183172312Y-183050471D02*
X182458026Y-183193328D01*
X183600883Y-182693328D02*
X184172311Y-182693328D01*
X183815168Y-182193328D02*
X183815168Y-183479042D01*
X183815168Y-183479042D02*
X183886597Y-183621900D01*
X183886597Y-183621900D02*
X184029454Y-183693328D01*
X184029454Y-183693328D02*
X184172311Y-183693328D01*
X184672311Y-183550471D02*
X184743740Y-183621900D01*
X184743740Y-183621900D02*
X184672311Y-183693328D01*
X184672311Y-183693328D02*
X184600883Y-183621900D01*
X184600883Y-183621900D02*
X184672311Y-183550471D01*
X184672311Y-183550471D02*
X184672311Y-183693328D01*
X184672311Y-182764757D02*
X184743740Y-182836185D01*
X184743740Y-182836185D02*
X184672311Y-182907614D01*
X184672311Y-182907614D02*
X184600883Y-182836185D01*
X184600883Y-182836185D02*
X184672311Y-182764757D01*
X184672311Y-182764757D02*
X184672311Y-182907614D01*
X197002200Y-191507200D02*
X197002200Y-194507200D01*
X261002200Y-191507200D02*
X261002200Y-198007200D01*
D13*
%TO.C,J5*%
X150033275Y-43736508D03*
D14*
X150033275Y-41736508D03*
X150033275Y-39736508D03*
X150033275Y-37736508D03*
X150033275Y-35736508D03*
X150033275Y-33736508D03*
%TD*%
D15*
%TO.C,R44*%
X74782275Y-45255508D03*
X74782275Y-43605508D03*
%TD*%
D16*
%TO.C,CR3*%
X84340925Y-70633508D03*
X81733625Y-70633508D03*
%TD*%
D17*
%TO.C,C16*%
X72558275Y-35650508D03*
X74108275Y-35650508D03*
%TD*%
D18*
%TO.C,C41*%
X91692267Y-53791516D03*
X92788283Y-52695500D03*
%TD*%
D19*
%TO.C,R14*%
X72533275Y-29311508D03*
X72533275Y-30861508D03*
%TD*%
D20*
%TO.C,Q3*%
X114713650Y-33930508D03*
D21*
X114713650Y-32660508D03*
X114713650Y-31390508D03*
X114713650Y-30120508D03*
D22*
X110904375Y-30120508D03*
D23*
X109078150Y-31390508D03*
X109078150Y-32660508D03*
X109078150Y-33930508D03*
%TD*%
D24*
%TO.C,J7*%
X149008955Y-51409508D03*
%TD*%
D25*
%TO.C,C11*%
X89507275Y-33364508D03*
X91407275Y-33364508D03*
%TD*%
D26*
%TO.C,J8*%
X45919175Y-52282508D03*
X45919175Y-54282507D03*
X45919175Y-56282508D03*
X45919175Y-58282509D03*
X45919175Y-60282507D03*
X43919174Y-52282508D03*
X43919174Y-54282507D03*
X43919174Y-56282508D03*
X43919174Y-58282509D03*
X43919174Y-60282507D03*
%TD*%
D27*
%TO.C,FB1*%
X61606775Y-45145508D03*
X60031775Y-45145508D03*
%TD*%
D20*
%TO.C,Q2*%
X114713650Y-50821508D03*
D21*
X114713650Y-49551508D03*
X114713650Y-48281508D03*
X114713650Y-47011508D03*
D22*
X110904375Y-47011508D03*
D23*
X109078150Y-48281508D03*
X109078150Y-49551508D03*
X109078150Y-50821508D03*
%TD*%
D28*
%TO.C,R76*%
X134599275Y-40136508D03*
X134599275Y-34036508D03*
%TD*%
D29*
%TO.C,R26*%
X83170275Y-47646508D03*
X84820275Y-47646508D03*
%TD*%
D20*
%TO.C,Q7*%
X59669275Y-32491508D03*
D21*
X59669275Y-31221508D03*
X59669275Y-29951508D03*
X59669275Y-28681508D03*
D22*
X55860000Y-28681508D03*
D23*
X54033775Y-29951508D03*
X54033775Y-31221508D03*
X54033775Y-32491508D03*
%TD*%
D29*
%TO.C,R78*%
X58660275Y-55594508D03*
X60310275Y-55594508D03*
%TD*%
D30*
%TO.C,R81*%
X70309276Y-43589508D03*
X70309276Y-45239508D03*
%TD*%
D15*
%TO.C,R11*%
X73935274Y-65011508D03*
X73935274Y-63361508D03*
%TD*%
D31*
%TO.C,C82*%
X127101275Y-40114508D03*
X130051275Y-40114508D03*
%TD*%
D32*
%TO.C,R25*%
X90472275Y-40459145D03*
X91639001Y-41625871D03*
%TD*%
%TO.C,R27*%
X85694912Y-45203145D03*
X86861638Y-46369871D03*
%TD*%
D31*
%TO.C,C25*%
X75635274Y-63845508D03*
X78585274Y-63845508D03*
%TD*%
D33*
%TO.C,C73*%
X68058275Y-45131508D03*
X68058275Y-42181508D03*
%TD*%
D34*
%TO.C,C12*%
X89739775Y-31078508D03*
X92444775Y-31078508D03*
%TD*%
D35*
%TO.C,Y1*%
X82452275Y-56952508D03*
X84652275Y-56952508D03*
X84652275Y-55252508D03*
X82452275Y-55252508D03*
%TD*%
D29*
%TO.C,R79*%
X58660275Y-57118508D03*
X60310275Y-57118508D03*
%TD*%
D30*
%TO.C,R40*%
X67007276Y-63472508D03*
X67007276Y-65122508D03*
%TD*%
D36*
%TO.C,C1*%
X80588275Y-56789508D03*
X80588275Y-55239508D03*
%TD*%
D16*
%TO.C,CR4*%
X84340925Y-74951508D03*
X81733625Y-74951508D03*
%TD*%
D37*
%TO.C,C44*%
X93938026Y-39174259D03*
X92594524Y-37830757D03*
%TD*%
D17*
%TO.C,C51*%
X85663276Y-61813508D03*
X87213276Y-61813508D03*
%TD*%
D38*
%TO.C,FB2*%
X88526428Y-54679661D03*
X89640122Y-55793355D03*
%TD*%
D39*
%TO.C,R33*%
X82267276Y-53454508D03*
X80617276Y-53454508D03*
%TD*%
D40*
%TO.C,U2*%
X86703275Y-33491508D03*
X86703275Y-32221508D03*
X86703275Y-30951508D03*
X86703275Y-29681508D03*
X81763275Y-29681508D03*
X81763275Y-30951508D03*
X81763275Y-32221508D03*
X81763275Y-33491508D03*
%TD*%
D19*
%TO.C,C76*%
X73512275Y-72652508D03*
X73512275Y-74202508D03*
%TD*%
D41*
%TO.C,H4*%
X154350000Y-27000000D03*
X154833274Y-25833274D03*
X154833274Y-28166726D03*
X156000000Y-25350000D03*
D42*
X156000000Y-27000000D03*
D41*
X156000000Y-28650000D03*
X157166726Y-25833274D03*
X157166726Y-28166726D03*
X157650000Y-27000000D03*
%TD*%
D43*
%TO.C,R24*%
X87475912Y-49753871D03*
X88642638Y-48587145D03*
%TD*%
D44*
%TO.C,C24*%
X77583275Y-49940508D03*
X77583275Y-48040508D03*
%TD*%
D45*
%TO.C,U16*%
X62457425Y-39264508D03*
X62457425Y-37994508D03*
X62457425Y-36724508D03*
X62457425Y-35454508D03*
X57009125Y-35454508D03*
X57009125Y-36724508D03*
X57009125Y-37994508D03*
X57009125Y-39264508D03*
%TD*%
D41*
%TO.C,H2*%
X36850000Y-27000000D03*
X37333274Y-25833274D03*
X37333274Y-28166726D03*
X38500000Y-25350000D03*
D42*
X38500000Y-27000000D03*
D41*
X38500000Y-28650000D03*
X39666726Y-25833274D03*
X39666726Y-28166726D03*
X40150000Y-27000000D03*
%TD*%
D46*
%TO.C,U6*%
X96392893Y-50907108D03*
X96746446Y-50553555D03*
X97100000Y-50200000D03*
X97453553Y-49846448D03*
X97807107Y-49492894D03*
X98160661Y-49139340D03*
X98514213Y-48785788D03*
X98867767Y-48432233D03*
X99221320Y-48078681D03*
X99574875Y-47725126D03*
D47*
X99574875Y-46805890D03*
X99221322Y-46452337D03*
X98867767Y-46098783D03*
X98514215Y-45745230D03*
X98160661Y-45391676D03*
X97807107Y-45038122D03*
X97453555Y-44684570D03*
X97100000Y-44331016D03*
X96746448Y-43977463D03*
X96392893Y-43623908D03*
D46*
X95473657Y-43623908D03*
X95120102Y-43977463D03*
X94766550Y-44331016D03*
X94412995Y-44684570D03*
X94059443Y-45038122D03*
X93705889Y-45391676D03*
X93352335Y-45745230D03*
X92998783Y-46098783D03*
X92645228Y-46452337D03*
X92291675Y-46805890D03*
D47*
X92291675Y-47725126D03*
X92645230Y-48078681D03*
X92998783Y-48432233D03*
X93352337Y-48785788D03*
X93705889Y-49139340D03*
X94059443Y-49492894D03*
X94412997Y-49846448D03*
X94766550Y-50200000D03*
X95120104Y-50553555D03*
X95473657Y-50907108D03*
D48*
X95933275Y-47265508D03*
%TD*%
D24*
%TO.C,J1*%
X149008955Y-70713508D03*
%TD*%
D49*
%TO.C,C90*%
X50840275Y-28977508D03*
X48940275Y-28977508D03*
%TD*%
D41*
%TO.C,H3*%
X154350000Y-79000000D03*
X154833274Y-77833274D03*
X154833274Y-80166726D03*
X156000000Y-77350000D03*
D42*
X156000000Y-79000000D03*
D41*
X156000000Y-80650000D03*
X157166726Y-77833274D03*
X157166726Y-80166726D03*
X157650000Y-79000000D03*
%TD*%
D16*
%TO.C,CR2*%
X84340925Y-72792508D03*
X81733625Y-72792508D03*
%TD*%
D50*
%TO.C,R71*%
X134001150Y-47595508D03*
X139926150Y-47595508D03*
%TD*%
D33*
%TO.C,C14*%
X42350000Y-79175000D03*
X42350000Y-76225000D03*
%TD*%
D24*
%TO.C,J2*%
X149008955Y-61061508D03*
%TD*%
D51*
%TO.C,C22*%
X65137275Y-61248508D03*
X65137275Y-63148508D03*
%TD*%
D44*
%TO.C,C87*%
X48239275Y-52236508D03*
X48239275Y-50336508D03*
%TD*%
D32*
%TO.C,R32*%
X91539912Y-39316145D03*
X92706638Y-40482871D03*
%TD*%
D44*
%TO.C,C57*%
X59542275Y-75266508D03*
X59542275Y-73366508D03*
%TD*%
D32*
%TO.C,R29*%
X86894912Y-44003145D03*
X88061638Y-45169871D03*
%TD*%
D52*
%TO.C,J3*%
X44458275Y-65838508D03*
X44458275Y-71618508D03*
D53*
X45533275Y-65528508D03*
X45533275Y-66328508D03*
D54*
X45533275Y-67478508D03*
X45533275Y-68478508D03*
X45533275Y-68978508D03*
X45533275Y-69978508D03*
D53*
X45533275Y-71128508D03*
X45533275Y-71928508D03*
D54*
X45533275Y-70478508D03*
X45533275Y-69478508D03*
X45533275Y-67978508D03*
X45533275Y-66978508D03*
D55*
X44958275Y-64408508D03*
D56*
X40778275Y-64408508D03*
D55*
X44958275Y-73048508D03*
D56*
X40778275Y-73048508D03*
%TD*%
D31*
%TO.C,C80*%
X127558275Y-57350508D03*
X130508275Y-57350508D03*
%TD*%
D19*
%TO.C,R13*%
X72533275Y-32335508D03*
X72533275Y-33885508D03*
%TD*%
D16*
%TO.C,CR5*%
X96846625Y-73935508D03*
X99453925Y-73935508D03*
%TD*%
D31*
%TO.C,C81*%
X111768636Y-41108508D03*
X114718636Y-41108508D03*
%TD*%
D44*
%TO.C,C74*%
X58152275Y-45206508D03*
X58152275Y-43306508D03*
%TD*%
%TO.C,C72*%
X63486275Y-45206508D03*
X63486275Y-43306508D03*
%TD*%
D15*
%TO.C,R21*%
X73300274Y-45255508D03*
X73300274Y-43605508D03*
%TD*%
D17*
%TO.C,C52*%
X85663276Y-59273508D03*
X87213276Y-59273508D03*
%TD*%
D30*
%TO.C,R41*%
X68658276Y-63472508D03*
X68658276Y-65122508D03*
%TD*%
D57*
%TO.C,U9*%
X49641775Y-66508508D03*
X49641775Y-67458508D03*
X49641775Y-68408508D03*
X51916775Y-68408508D03*
X51916775Y-67458508D03*
X51916775Y-66508508D03*
%TD*%
D58*
%TO.C,C40*%
X102069283Y-53274516D03*
X100973267Y-52178500D03*
%TD*%
D50*
%TO.C,R74*%
X134001150Y-30792508D03*
X139926150Y-30792508D03*
%TD*%
D20*
%TO.C,Q1*%
X114713650Y-67712508D03*
D21*
X114713650Y-66442508D03*
X114713650Y-65172508D03*
X114713650Y-63902508D03*
D22*
X110904375Y-63902508D03*
D23*
X109078150Y-65172508D03*
X109078150Y-66442508D03*
X109078150Y-67712508D03*
%TD*%
D28*
%TO.C,R72*%
X118499636Y-58136508D03*
X118499636Y-52036508D03*
%TD*%
D30*
%TO.C,R67*%
X56501275Y-52420508D03*
X56501275Y-54070508D03*
%TD*%
D59*
%TO.C,SW1*%
X62231275Y-71177508D03*
X71331275Y-71177508D03*
X62231275Y-75677508D03*
X71331275Y-75677508D03*
%TD*%
D28*
%TO.C,R22*%
X134733275Y-74436508D03*
X134733275Y-68336508D03*
%TD*%
D43*
%TO.C,R23*%
X88618912Y-50896871D03*
X89785638Y-49730145D03*
%TD*%
D31*
%TO.C,C79*%
X111758275Y-58186508D03*
X114708275Y-58186508D03*
%TD*%
D20*
%TO.C,Q4*%
X130188025Y-33891508D03*
D21*
X130188025Y-32621508D03*
X130188025Y-31351508D03*
X130188025Y-30081508D03*
D22*
X126378750Y-30081508D03*
D23*
X124552525Y-31351508D03*
X124552525Y-32621508D03*
X124552525Y-33891508D03*
%TD*%
D30*
%TO.C,R42*%
X70887274Y-63345508D03*
X70887274Y-64995508D03*
%TD*%
D41*
%TO.C,H1*%
X36850000Y-79000000D03*
X37333274Y-77833274D03*
X37333274Y-80166726D03*
X38500000Y-77350000D03*
D42*
X38500000Y-79000000D03*
D41*
X38500000Y-80650000D03*
X39666726Y-77833274D03*
X39666726Y-80166726D03*
X40150000Y-79000000D03*
%TD*%
D31*
%TO.C,C77*%
X111658275Y-74886508D03*
X114608275Y-74886508D03*
%TD*%
D44*
%TO.C,C21*%
X63105275Y-48924508D03*
X63105275Y-47024508D03*
%TD*%
D15*
%TO.C,R43*%
X57764275Y-75141508D03*
X57764275Y-73491508D03*
%TD*%
D28*
%TO.C,R73*%
X134599275Y-57236508D03*
X134599275Y-51136508D03*
%TD*%
D29*
%TO.C,R77*%
X58660275Y-54070508D03*
X60310275Y-54070508D03*
%TD*%
D20*
%TO.C,Q6*%
X129988025Y-67691508D03*
D21*
X129988025Y-66421508D03*
X129988025Y-65151508D03*
X129988025Y-63881508D03*
D22*
X126178750Y-63881508D03*
D23*
X124352525Y-65151508D03*
X124352525Y-66421508D03*
X124352525Y-67691508D03*
%TD*%
D49*
%TO.C,C46*%
X105577275Y-64664508D03*
X103677275Y-64664508D03*
%TD*%
D31*
%TO.C,C78*%
X127458275Y-74586508D03*
X130408275Y-74586508D03*
%TD*%
D44*
%TO.C,C75*%
X65645275Y-45206508D03*
X65645275Y-43306508D03*
%TD*%
D39*
%TO.C,R70*%
X60310275Y-52546508D03*
X58660275Y-52546508D03*
%TD*%
D30*
%TO.C,R80*%
X71833276Y-43589508D03*
X71833276Y-45239508D03*
%TD*%
D60*
%TO.C,FL1*%
X78646275Y-32086508D03*
X78646275Y-31086508D03*
X75596275Y-31086508D03*
X75596275Y-32086508D03*
%TD*%
D15*
%TO.C,R68*%
X56501275Y-50768508D03*
X56501275Y-49118508D03*
%TD*%
D49*
%TO.C,C45*%
X105577275Y-67674508D03*
X103677275Y-67674508D03*
%TD*%
D19*
%TO.C,C2*%
X86684275Y-55112508D03*
X86684275Y-56662508D03*
%TD*%
D28*
%TO.C,R75*%
X118704636Y-41237508D03*
X118704636Y-35137508D03*
%TD*%
D18*
%TO.C,C43*%
X92835267Y-54934516D03*
X93931283Y-53838500D03*
%TD*%
D20*
%TO.C,Q5*%
X130116525Y-50791508D03*
D21*
X130116525Y-49521508D03*
X130116525Y-48251508D03*
X130116525Y-46981508D03*
D22*
X126307250Y-46981508D03*
D23*
X124481025Y-48251508D03*
X124481025Y-49521508D03*
X124481025Y-50791508D03*
%TD*%
D61*
%TO.C,Y2*%
X83263276Y-61793508D03*
X83263276Y-59293508D03*
%TD*%
D29*
%TO.C,R12*%
X89505275Y-29046508D03*
X91155275Y-29046508D03*
%TD*%
%TO.C,R28*%
X83170275Y-49170508D03*
X84820275Y-49170508D03*
%TD*%
D15*
%TO.C,R39*%
X47477275Y-67013508D03*
X47477275Y-65363508D03*
%TD*%
D24*
%TO.C,J9*%
X45064275Y-44471508D03*
%TD*%
D32*
%TO.C,R31*%
X89329275Y-41602145D03*
X90496001Y-42768871D03*
%TD*%
D16*
%TO.C,CR6*%
X48586625Y-58441508D03*
X51193925Y-58441508D03*
%TD*%
D30*
%TO.C,R82*%
X78973275Y-60156508D03*
X78973275Y-61806508D03*
%TD*%
D36*
%TO.C,C13*%
X72411274Y-64961508D03*
X72411274Y-63411508D03*
%TD*%
D62*
%TO.C,J4*%
X93451275Y-71390508D03*
D63*
X93451275Y-73930508D03*
X90911275Y-71390508D03*
X90911275Y-73930508D03*
X88371275Y-71390508D03*
X88371275Y-73930508D03*
%TD*%
D32*
%TO.C,R30*%
X88186275Y-42745145D03*
X89353001Y-43911871D03*
%TD*%
D28*
%TO.C,R8*%
X118433275Y-74936508D03*
X118433275Y-68836508D03*
%TD*%
D51*
%TO.C,C20*%
X62978275Y-61248508D03*
X62978275Y-63148508D03*
%TD*%
D39*
%TO.C,R69*%
X60310275Y-51022508D03*
X58660275Y-51022508D03*
%TD*%
D64*
%TO.C,C38*%
X98055524Y-55229757D03*
X99399026Y-56573259D03*
%TD*%
D65*
%TO.C,R9*%
X45680000Y-79182500D03*
X45680000Y-76257500D03*
%TD*%
D30*
%TO.C,R16*%
X76306275Y-43605508D03*
X76306275Y-45255508D03*
%TD*%
D25*
%TO.C,C18*%
X75652274Y-66385508D03*
X77552274Y-66385508D03*
%TD*%
D44*
%TO.C,C23*%
X79615275Y-49940508D03*
X79615275Y-48040508D03*
%TD*%
D30*
%TO.C,R38*%
X47477275Y-70443508D03*
X47477275Y-72093508D03*
%TD*%
D50*
%TO.C,R7*%
X134001150Y-64719508D03*
X139926150Y-64719508D03*
%TD*%
D44*
%TO.C,C89*%
X64733275Y-37809508D03*
X64733275Y-35909508D03*
%TD*%
D66*
%TO.C,C39*%
X101802258Y-55801491D03*
X99716292Y-53715525D03*
%TD*%
D44*
%TO.C,C19*%
X65264275Y-48924508D03*
X65264275Y-47024508D03*
%TD*%
D67*
%TO.C,U4*%
X76983274Y-58836508D03*
X76983274Y-58336509D03*
X76983274Y-57836508D03*
X76983274Y-57336509D03*
X76983274Y-56836507D03*
X76983274Y-56336508D03*
X76983274Y-55836509D03*
X76983274Y-55336508D03*
X76983274Y-54836508D03*
X76983274Y-54336507D03*
X76983274Y-53836508D03*
X76983274Y-53336509D03*
X76983274Y-52836507D03*
X76983274Y-52336508D03*
X76983274Y-51836507D03*
X76983274Y-51336508D03*
D68*
X74983275Y-49336509D03*
X74483276Y-49336509D03*
X73983275Y-49336509D03*
X73483276Y-49336509D03*
X72983274Y-49336509D03*
X72483275Y-49336509D03*
X71983276Y-49336509D03*
X71483275Y-49336509D03*
X70983275Y-49336509D03*
X70483274Y-49336509D03*
X69983275Y-49336509D03*
X69483276Y-49336509D03*
X68983274Y-49336509D03*
X68483275Y-49336509D03*
X67983274Y-49336509D03*
X67483275Y-49336509D03*
D67*
X65483276Y-51336508D03*
X65483276Y-51836507D03*
X65483276Y-52336508D03*
X65483276Y-52836507D03*
X65483276Y-53336509D03*
X65483276Y-53836508D03*
X65483276Y-54336507D03*
X65483276Y-54836508D03*
X65483276Y-55336508D03*
X65483276Y-55836509D03*
X65483276Y-56336508D03*
X65483276Y-56836507D03*
X65483276Y-57336509D03*
X65483276Y-57836508D03*
X65483276Y-58336509D03*
X65483276Y-58836508D03*
D68*
X67483275Y-60836507D03*
X67983274Y-60836507D03*
X68483275Y-60836507D03*
X68983274Y-60836507D03*
X69483276Y-60836507D03*
X69983275Y-60836507D03*
X70483274Y-60836507D03*
X70983275Y-60836507D03*
X71483275Y-60836507D03*
X71983276Y-60836507D03*
X72483275Y-60836507D03*
X72983274Y-60836507D03*
X73483276Y-60836507D03*
X73983275Y-60836507D03*
X74483276Y-60836507D03*
X74983275Y-60836507D03*
%TD*%
D24*
%TO.C,J6*%
X45064275Y-35962508D03*
%TD*%
D69*
%TO.C,C42*%
X97751283Y-52686500D03*
X96655267Y-53782516D03*
%TD*%
D25*
%TO.C,C31*%
X73883275Y-70686508D03*
X75783275Y-70686508D03*
%TD*%
G36*
X36811980Y-31102383D02*
G01*
X36871480Y-31114218D01*
X36916179Y-31132732D01*
X36956268Y-31159518D01*
X36990481Y-31193731D01*
X37017267Y-31233820D01*
X37035781Y-31278517D01*
X37047617Y-31338017D01*
X37050000Y-31362210D01*
X37050000Y-31999032D01*
X37030315Y-32066071D01*
X36977511Y-32111826D01*
X36965775Y-32115616D01*
X36956799Y-32119334D01*
X36874395Y-32174395D01*
X36819335Y-32256798D01*
X36819333Y-32256802D01*
X36800000Y-32353995D01*
X36800000Y-73750461D01*
X36819333Y-73847654D01*
X36819335Y-73847658D01*
X36874395Y-73930061D01*
X36956799Y-73985122D01*
X36968084Y-73989797D01*
X36966936Y-73992567D01*
X37012097Y-74016187D01*
X37046675Y-74076901D01*
X37050000Y-74105425D01*
X37050000Y-74687789D01*
X37047617Y-74711982D01*
X37035781Y-74771482D01*
X37017267Y-74816179D01*
X36990481Y-74856268D01*
X36956268Y-74890481D01*
X36916179Y-74917267D01*
X36871482Y-74935781D01*
X36811982Y-74947617D01*
X36787789Y-74950000D01*
X35674000Y-74950000D01*
X35606961Y-74930315D01*
X35561206Y-74877511D01*
X35550000Y-74826000D01*
X35550000Y-31224000D01*
X35569685Y-31156961D01*
X35622489Y-31111206D01*
X35674000Y-31100000D01*
X36787789Y-31100000D01*
X36811980Y-31102383D01*
G37*
G36*
X158943039Y-31469685D02*
G01*
X158988794Y-31522489D01*
X159000000Y-31574000D01*
X159000000Y-74826000D01*
X158980315Y-74893039D01*
X158927511Y-74938794D01*
X158876000Y-74950000D01*
X157762211Y-74950000D01*
X157738019Y-74947617D01*
X157678518Y-74935781D01*
X157633820Y-74917267D01*
X157593731Y-74890481D01*
X157559518Y-74856268D01*
X157532732Y-74816179D01*
X157514218Y-74771480D01*
X157502383Y-74711980D01*
X157500000Y-74687789D01*
X157500000Y-74105425D01*
X157519685Y-74038386D01*
X157572489Y-73992631D01*
X157584218Y-73988843D01*
X157593200Y-73985122D01*
X157675604Y-73930061D01*
X157730664Y-73847658D01*
X157730666Y-73847654D01*
X157749999Y-73750461D01*
X157750000Y-73750459D01*
X157750000Y-32353997D01*
X157749999Y-32353995D01*
X157730666Y-32256802D01*
X157730664Y-32256798D01*
X157675604Y-32174395D01*
X157593200Y-32119334D01*
X157581920Y-32114662D01*
X157583066Y-32111892D01*
X157537891Y-32088257D01*
X157503321Y-32027539D01*
X157500000Y-31999032D01*
X157500000Y-31712210D01*
X157502383Y-31688019D01*
X157514218Y-31628519D01*
X157532732Y-31583820D01*
X157559518Y-31543731D01*
X157593731Y-31509518D01*
X157633820Y-31482732D01*
X157678520Y-31464217D01*
X157738021Y-31452382D01*
X157762211Y-31450000D01*
X158876000Y-31450000D01*
X158943039Y-31469685D01*
G37*
G36*
X37466071Y-79769685D02*
G01*
X37511826Y-79822489D01*
X37515613Y-79834218D01*
X37519334Y-79843200D01*
X37574395Y-79925604D01*
X37656798Y-79980664D01*
X37656802Y-79980666D01*
X37753995Y-79999999D01*
X37753998Y-80000000D01*
X156796002Y-80000000D01*
X156796004Y-79999999D01*
X156893197Y-79980666D01*
X156893201Y-79980664D01*
X156975604Y-79925604D01*
X157030665Y-79843200D01*
X157035340Y-79831916D01*
X157038110Y-79833063D01*
X157061730Y-79787903D01*
X157122444Y-79753325D01*
X157150968Y-79750000D01*
X158738661Y-79750000D01*
X158805700Y-79769685D01*
X158851455Y-79822489D01*
X158861399Y-79891647D01*
X158855702Y-79914955D01*
X158779108Y-80133846D01*
X158777915Y-80137109D01*
X158774692Y-80145553D01*
X158772030Y-80151981D01*
X158768351Y-80160203D01*
X158766885Y-80163359D01*
X158634678Y-80437888D01*
X158633129Y-80440993D01*
X158628990Y-80449006D01*
X158625624Y-80455097D01*
X158621038Y-80462872D01*
X158619227Y-80465846D01*
X158457114Y-80723846D01*
X158455226Y-80726759D01*
X158450228Y-80734240D01*
X158446194Y-80739925D01*
X158440737Y-80747175D01*
X158438613Y-80749917D01*
X158248692Y-80988073D01*
X158246483Y-80990764D01*
X158240625Y-80997701D01*
X158235988Y-81002889D01*
X158229795Y-81009439D01*
X158227374Y-81011929D01*
X158011929Y-81227374D01*
X158009439Y-81229795D01*
X158002889Y-81235988D01*
X157997701Y-81240625D01*
X157990764Y-81246483D01*
X157988073Y-81248692D01*
X157749917Y-81438613D01*
X157747175Y-81440737D01*
X157739925Y-81446194D01*
X157734240Y-81450228D01*
X157726759Y-81455226D01*
X157723846Y-81457114D01*
X157465846Y-81619227D01*
X157462872Y-81621038D01*
X157455097Y-81625624D01*
X157449006Y-81628990D01*
X157440993Y-81633129D01*
X157437888Y-81634678D01*
X157163359Y-81766885D01*
X157160203Y-81768351D01*
X157151981Y-81772030D01*
X157145553Y-81774692D01*
X157137109Y-81777915D01*
X157133846Y-81779108D01*
X156846282Y-81879732D01*
X156842968Y-81880840D01*
X156834352Y-81883585D01*
X156827689Y-81885504D01*
X156818941Y-81887761D01*
X156815556Y-81888584D01*
X156518505Y-81956384D01*
X156515103Y-81957110D01*
X156506265Y-81958868D01*
X156499412Y-81960033D01*
X156490461Y-81961297D01*
X156487007Y-81961735D01*
X156182258Y-81996072D01*
X156179219Y-81996377D01*
X156171360Y-81997067D01*
X156165304Y-81997449D01*
X156157387Y-81997755D01*
X156154336Y-81997836D01*
X156001953Y-81999972D01*
X156001525Y-81999977D01*
X156000389Y-81999989D01*
X155999585Y-81999995D01*
X155998605Y-81999999D01*
X155998099Y-82000000D01*
X38501901Y-82000000D01*
X38501395Y-81999999D01*
X38500414Y-81999995D01*
X38499610Y-81999989D01*
X38498474Y-81999977D01*
X38498046Y-81999972D01*
X38345663Y-81997836D01*
X38342612Y-81997755D01*
X38334695Y-81997449D01*
X38328639Y-81997067D01*
X38320780Y-81996377D01*
X38317741Y-81996072D01*
X38012992Y-81961735D01*
X38009538Y-81961297D01*
X38000587Y-81960033D01*
X37993734Y-81958868D01*
X37984896Y-81957110D01*
X37981494Y-81956384D01*
X37684443Y-81888584D01*
X37681058Y-81887761D01*
X37672310Y-81885504D01*
X37665647Y-81883585D01*
X37657031Y-81880840D01*
X37653717Y-81879732D01*
X37366153Y-81779108D01*
X37362890Y-81777915D01*
X37354446Y-81774692D01*
X37348018Y-81772030D01*
X37339796Y-81768351D01*
X37336640Y-81766885D01*
X37062111Y-81634678D01*
X37059006Y-81633129D01*
X37050993Y-81628990D01*
X37044902Y-81625624D01*
X37037127Y-81621038D01*
X37034153Y-81619227D01*
X36776153Y-81457114D01*
X36773240Y-81455226D01*
X36765759Y-81450228D01*
X36760074Y-81446194D01*
X36752824Y-81440737D01*
X36750082Y-81438613D01*
X36511926Y-81248692D01*
X36509235Y-81246483D01*
X36502298Y-81240625D01*
X36497110Y-81235988D01*
X36490560Y-81229795D01*
X36488070Y-81227374D01*
X36272625Y-81011929D01*
X36270204Y-81009439D01*
X36264011Y-81002889D01*
X36259374Y-80997701D01*
X36253516Y-80990764D01*
X36251307Y-80988072D01*
X36210327Y-80936683D01*
X36183919Y-80871996D01*
X36183275Y-80859372D01*
X36183275Y-80012210D01*
X36185658Y-79988019D01*
X36197493Y-79928519D01*
X36216007Y-79883820D01*
X36242793Y-79843731D01*
X36277006Y-79809518D01*
X36317095Y-79782732D01*
X36361795Y-79764217D01*
X36421296Y-79752382D01*
X36445486Y-79750000D01*
X37399032Y-79750000D01*
X37466071Y-79769685D01*
G37*
G36*
X36766071Y-73774142D02*
G01*
X36811826Y-73826946D01*
X36815613Y-73838675D01*
X36819334Y-73847657D01*
X36874395Y-73930061D01*
X36956798Y-73985121D01*
X36956802Y-73985123D01*
X37053995Y-74004456D01*
X37053998Y-74004457D01*
X37233788Y-74004457D01*
X37257980Y-74006840D01*
X37319011Y-74018980D01*
X37363708Y-74037494D01*
X37405095Y-74065147D01*
X37439309Y-74099361D01*
X37466962Y-74140748D01*
X37485476Y-74185444D01*
X37497617Y-74246476D01*
X37500000Y-74270669D01*
X37500000Y-79746004D01*
X37519333Y-79843197D01*
X37519335Y-79843201D01*
X37574395Y-79925604D01*
X37656799Y-79980665D01*
X37668084Y-79985340D01*
X37666936Y-79988110D01*
X37712097Y-80011730D01*
X37746675Y-80072444D01*
X37750000Y-80100968D01*
X37750000Y-81738661D01*
X37730315Y-81805700D01*
X37677511Y-81851455D01*
X37608353Y-81861399D01*
X37585045Y-81855702D01*
X37366153Y-81779108D01*
X37362890Y-81777915D01*
X37354446Y-81774692D01*
X37348018Y-81772030D01*
X37339796Y-81768351D01*
X37336640Y-81766885D01*
X37062111Y-81634678D01*
X37059006Y-81633129D01*
X37050993Y-81628990D01*
X37044902Y-81625624D01*
X37037127Y-81621038D01*
X37034153Y-81619227D01*
X36776153Y-81457114D01*
X36773240Y-81455226D01*
X36765759Y-81450228D01*
X36760074Y-81446194D01*
X36752824Y-81440737D01*
X36750082Y-81438613D01*
X36511926Y-81248692D01*
X36509235Y-81246483D01*
X36502298Y-81240625D01*
X36497110Y-81235988D01*
X36490560Y-81229795D01*
X36488070Y-81227374D01*
X36272625Y-81011929D01*
X36270204Y-81009439D01*
X36264011Y-81002889D01*
X36259374Y-80997701D01*
X36253516Y-80990764D01*
X36251307Y-80988073D01*
X36061386Y-80749917D01*
X36059262Y-80747175D01*
X36053805Y-80739925D01*
X36049771Y-80734240D01*
X36044773Y-80726759D01*
X36042885Y-80723846D01*
X35880772Y-80465846D01*
X35878961Y-80462872D01*
X35874375Y-80455097D01*
X35871009Y-80449006D01*
X35866870Y-80440993D01*
X35865321Y-80437888D01*
X35733114Y-80163359D01*
X35731648Y-80160203D01*
X35727969Y-80151981D01*
X35725307Y-80145553D01*
X35722084Y-80137109D01*
X35720891Y-80133846D01*
X35620267Y-79846282D01*
X35619159Y-79842968D01*
X35616414Y-79834352D01*
X35614495Y-79827689D01*
X35612238Y-79818941D01*
X35611415Y-79815556D01*
X35557141Y-79577768D01*
X35555784Y-79570945D01*
X35552763Y-79553164D01*
X35551206Y-79539342D01*
X35550195Y-79521327D01*
X35550000Y-79514379D01*
X35550000Y-73878457D01*
X35569685Y-73811418D01*
X35622489Y-73765663D01*
X35674000Y-73754457D01*
X36699032Y-73754457D01*
X36766071Y-73774142D01*
G37*
G36*
X158943039Y-73774142D02*
G01*
X158988794Y-73826946D01*
X159000000Y-73878457D01*
X159000000Y-78998220D01*
X158999999Y-78998797D01*
X158999995Y-78999656D01*
X158999989Y-79000389D01*
X158999977Y-79001525D01*
X158999972Y-79001953D01*
X158997836Y-79154336D01*
X158997755Y-79157387D01*
X158997449Y-79165304D01*
X158997067Y-79171360D01*
X158996377Y-79179219D01*
X158996072Y-79182258D01*
X158961735Y-79487007D01*
X158961297Y-79490461D01*
X158960033Y-79499412D01*
X158958868Y-79506265D01*
X158957110Y-79515103D01*
X158956384Y-79518505D01*
X158888584Y-79815556D01*
X158887761Y-79818941D01*
X158885504Y-79827689D01*
X158883585Y-79834352D01*
X158880840Y-79842968D01*
X158879732Y-79846282D01*
X158779108Y-80133846D01*
X158777915Y-80137109D01*
X158774692Y-80145553D01*
X158772030Y-80151981D01*
X158768351Y-80160203D01*
X158766885Y-80163359D01*
X158634678Y-80437888D01*
X158633129Y-80440993D01*
X158628990Y-80449006D01*
X158625624Y-80455097D01*
X158621038Y-80462872D01*
X158619227Y-80465846D01*
X158457114Y-80723846D01*
X158455226Y-80726759D01*
X158450228Y-80734240D01*
X158446194Y-80739925D01*
X158440737Y-80747175D01*
X158438613Y-80749917D01*
X158248692Y-80988073D01*
X158246483Y-80990764D01*
X158240625Y-80997701D01*
X158235988Y-81002889D01*
X158229795Y-81009439D01*
X158227374Y-81011929D01*
X158011929Y-81227374D01*
X158009439Y-81229795D01*
X158002889Y-81235988D01*
X157997701Y-81240625D01*
X157990764Y-81246483D01*
X157988073Y-81248692D01*
X157749917Y-81438613D01*
X157747175Y-81440737D01*
X157739925Y-81446194D01*
X157734240Y-81450228D01*
X157726759Y-81455226D01*
X157723846Y-81457114D01*
X157465846Y-81619227D01*
X157462872Y-81621038D01*
X157455097Y-81625624D01*
X157449006Y-81628990D01*
X157440993Y-81633129D01*
X157437888Y-81634678D01*
X157163359Y-81766885D01*
X157160203Y-81768351D01*
X157151981Y-81772030D01*
X157145553Y-81774692D01*
X157137109Y-81777915D01*
X157133846Y-81779108D01*
X156964955Y-81838206D01*
X156895176Y-81841768D01*
X156834549Y-81807040D01*
X156802321Y-81745046D01*
X156800000Y-81721165D01*
X156800000Y-80100968D01*
X156819685Y-80033929D01*
X156872489Y-79988174D01*
X156884218Y-79984386D01*
X156893200Y-79980665D01*
X156975604Y-79925604D01*
X157030664Y-79843201D01*
X157030666Y-79843197D01*
X157049999Y-79746004D01*
X157050000Y-79746002D01*
X157050000Y-74270669D01*
X157052383Y-74246478D01*
X157064523Y-74185446D01*
X157083037Y-74140748D01*
X157110690Y-74099361D01*
X157144904Y-74065147D01*
X157186291Y-74037494D01*
X157230989Y-74018980D01*
X157292021Y-74006840D01*
X157316212Y-74004457D01*
X157496002Y-74004457D01*
X157496004Y-74004456D01*
X157593197Y-73985123D01*
X157593201Y-73985121D01*
X157675604Y-73930061D01*
X157730665Y-73847657D01*
X157735340Y-73836373D01*
X157738110Y-73837520D01*
X157761730Y-73792360D01*
X157822444Y-73757782D01*
X157850968Y-73754457D01*
X158876000Y-73754457D01*
X158943039Y-73774142D01*
G37*
G36*
X155998479Y-24000001D02*
G01*
X155999459Y-24000004D01*
X156000389Y-24000010D01*
X156001525Y-24000022D01*
X156001953Y-24000027D01*
X156154336Y-24002163D01*
X156157387Y-24002244D01*
X156165304Y-24002550D01*
X156171360Y-24002932D01*
X156179219Y-24003622D01*
X156182258Y-24003927D01*
X156487007Y-24038264D01*
X156490461Y-24038702D01*
X156499412Y-24039966D01*
X156506265Y-24041131D01*
X156515103Y-24042889D01*
X156518505Y-24043615D01*
X156815556Y-24111415D01*
X156818941Y-24112238D01*
X156827689Y-24114495D01*
X156834352Y-24116414D01*
X156842968Y-24119159D01*
X156846282Y-24120267D01*
X157133846Y-24220891D01*
X157137109Y-24222084D01*
X157145553Y-24225307D01*
X157151981Y-24227969D01*
X157160203Y-24231648D01*
X157163359Y-24233114D01*
X157437888Y-24365321D01*
X157440993Y-24366870D01*
X157449006Y-24371009D01*
X157455097Y-24374375D01*
X157462872Y-24378961D01*
X157465846Y-24380772D01*
X157723846Y-24542885D01*
X157726759Y-24544773D01*
X157734240Y-24549771D01*
X157739925Y-24553805D01*
X157747175Y-24559262D01*
X157749917Y-24561386D01*
X157988073Y-24751307D01*
X157990764Y-24753516D01*
X157997701Y-24759374D01*
X158002889Y-24764011D01*
X158009439Y-24770204D01*
X158011929Y-24772625D01*
X158227374Y-24988070D01*
X158229795Y-24990560D01*
X158235988Y-24997110D01*
X158240625Y-25002298D01*
X158246483Y-25009235D01*
X158248692Y-25011926D01*
X158438613Y-25250082D01*
X158440737Y-25252824D01*
X158446194Y-25260074D01*
X158450228Y-25265759D01*
X158455226Y-25273240D01*
X158457114Y-25276153D01*
X158619227Y-25534153D01*
X158621038Y-25537127D01*
X158625624Y-25544902D01*
X158628990Y-25550993D01*
X158633129Y-25559006D01*
X158634678Y-25562111D01*
X158766885Y-25836640D01*
X158768351Y-25839796D01*
X158772030Y-25848018D01*
X158774692Y-25854446D01*
X158777915Y-25862890D01*
X158779109Y-25866153D01*
X158838207Y-26035045D01*
X158841768Y-26104824D01*
X158807039Y-26165452D01*
X158745046Y-26197679D01*
X158721165Y-26200000D01*
X157150968Y-26200000D01*
X157083929Y-26180315D01*
X157038174Y-26127511D01*
X157034386Y-26115781D01*
X157030665Y-26106799D01*
X156975604Y-26024395D01*
X156893201Y-25969335D01*
X156893197Y-25969333D01*
X156796003Y-25950000D01*
X37753997Y-25950000D01*
X37656802Y-25969333D01*
X37656798Y-25969335D01*
X37574395Y-26024395D01*
X37519334Y-26106799D01*
X37514660Y-26118084D01*
X37511889Y-26116936D01*
X37488270Y-26162097D01*
X37427556Y-26196675D01*
X37399032Y-26200000D01*
X35778835Y-26200000D01*
X35711796Y-26180315D01*
X35666041Y-26127511D01*
X35656097Y-26058353D01*
X35661793Y-26035046D01*
X35720890Y-25866154D01*
X35722084Y-25862890D01*
X35725307Y-25854446D01*
X35727969Y-25848018D01*
X35731648Y-25839796D01*
X35733114Y-25836640D01*
X35865321Y-25562111D01*
X35866870Y-25559006D01*
X35871009Y-25550993D01*
X35874375Y-25544902D01*
X35878961Y-25537127D01*
X35880772Y-25534153D01*
X36042885Y-25276153D01*
X36044773Y-25273240D01*
X36049771Y-25265759D01*
X36053805Y-25260074D01*
X36059262Y-25252824D01*
X36061386Y-25250082D01*
X36251307Y-25011926D01*
X36253516Y-25009235D01*
X36259374Y-25002298D01*
X36264011Y-24997110D01*
X36270204Y-24990560D01*
X36272625Y-24988070D01*
X36488070Y-24772625D01*
X36490560Y-24770204D01*
X36497110Y-24764011D01*
X36502298Y-24759374D01*
X36509235Y-24753516D01*
X36511926Y-24751307D01*
X36750082Y-24561386D01*
X36752824Y-24559262D01*
X36760074Y-24553805D01*
X36765759Y-24549771D01*
X36773240Y-24544773D01*
X36776153Y-24542885D01*
X37034153Y-24380772D01*
X37037127Y-24378961D01*
X37044902Y-24374375D01*
X37050993Y-24371009D01*
X37059006Y-24366870D01*
X37062111Y-24365321D01*
X37336640Y-24233114D01*
X37339796Y-24231648D01*
X37348018Y-24227969D01*
X37354446Y-24225307D01*
X37362890Y-24222084D01*
X37366153Y-24220891D01*
X37653717Y-24120267D01*
X37657031Y-24119159D01*
X37665647Y-24116414D01*
X37672310Y-24114495D01*
X37681058Y-24112238D01*
X37684443Y-24111415D01*
X37981494Y-24043615D01*
X37984896Y-24042889D01*
X37993734Y-24041131D01*
X38000587Y-24039966D01*
X38009538Y-24038702D01*
X38012992Y-24038264D01*
X38317741Y-24003927D01*
X38320780Y-24003622D01*
X38328639Y-24002932D01*
X38334695Y-24002550D01*
X38342612Y-24002244D01*
X38345663Y-24002163D01*
X38498046Y-24000027D01*
X38498474Y-24000022D01*
X38499610Y-24000010D01*
X38500541Y-24000004D01*
X38501522Y-24000001D01*
X38501901Y-24000000D01*
X155998099Y-24000000D01*
X155998479Y-24000001D01*
G37*
G36*
X37715451Y-24175463D02*
G01*
X37747679Y-24237457D01*
X37750000Y-24261338D01*
X37750000Y-25849032D01*
X37730315Y-25916071D01*
X37677511Y-25961826D01*
X37665775Y-25965616D01*
X37656799Y-25969334D01*
X37574395Y-26024395D01*
X37519335Y-26106798D01*
X37519333Y-26106802D01*
X37500000Y-26203995D01*
X37500000Y-31833787D01*
X37497617Y-31857980D01*
X37485476Y-31919012D01*
X37466962Y-31963708D01*
X37439309Y-32005095D01*
X37405095Y-32039309D01*
X37363708Y-32066962D01*
X37319012Y-32085476D01*
X37257981Y-32097617D01*
X37233788Y-32100000D01*
X37053997Y-32100000D01*
X36956802Y-32119333D01*
X36956798Y-32119335D01*
X36874395Y-32174395D01*
X36819334Y-32256799D01*
X36814660Y-32268084D01*
X36811889Y-32266936D01*
X36788270Y-32312097D01*
X36727556Y-32346675D01*
X36699032Y-32350000D01*
X35674000Y-32350000D01*
X35606961Y-32330315D01*
X35561206Y-32277511D01*
X35550000Y-32226000D01*
X35550000Y-26485619D01*
X35550195Y-26478671D01*
X35551206Y-26460656D01*
X35552763Y-26446834D01*
X35555784Y-26429053D01*
X35557141Y-26422230D01*
X35611415Y-26184443D01*
X35612238Y-26181058D01*
X35614495Y-26172310D01*
X35616414Y-26165647D01*
X35619159Y-26157031D01*
X35620267Y-26153717D01*
X35720891Y-25866153D01*
X35722084Y-25862890D01*
X35725307Y-25854446D01*
X35727969Y-25848018D01*
X35731648Y-25839796D01*
X35733114Y-25836640D01*
X35865321Y-25562111D01*
X35866870Y-25559006D01*
X35871009Y-25550993D01*
X35874375Y-25544902D01*
X35878961Y-25537127D01*
X35880772Y-25534153D01*
X36042885Y-25276153D01*
X36044773Y-25273240D01*
X36049771Y-25265759D01*
X36053805Y-25260074D01*
X36059262Y-25252824D01*
X36061386Y-25250082D01*
X36251307Y-25011926D01*
X36253516Y-25009235D01*
X36259374Y-25002298D01*
X36264011Y-24997110D01*
X36270204Y-24990560D01*
X36272625Y-24988070D01*
X36488070Y-24772625D01*
X36490560Y-24770204D01*
X36497110Y-24764011D01*
X36502298Y-24759374D01*
X36509235Y-24753516D01*
X36511926Y-24751307D01*
X36750082Y-24561386D01*
X36752824Y-24559262D01*
X36760074Y-24553805D01*
X36765759Y-24549771D01*
X36773240Y-24544773D01*
X36776153Y-24542885D01*
X37034153Y-24380772D01*
X37037127Y-24378961D01*
X37044902Y-24374375D01*
X37050993Y-24371009D01*
X37059006Y-24366870D01*
X37062111Y-24365321D01*
X37336640Y-24233114D01*
X37339796Y-24231648D01*
X37348018Y-24227969D01*
X37354446Y-24225307D01*
X37362890Y-24222084D01*
X37366153Y-24220891D01*
X37585045Y-24144297D01*
X37654824Y-24140735D01*
X37715451Y-24175463D01*
G37*
G36*
X156964955Y-24161793D02*
G01*
X157133846Y-24220891D01*
X157137109Y-24222084D01*
X157145553Y-24225307D01*
X157151981Y-24227969D01*
X157160203Y-24231648D01*
X157163359Y-24233114D01*
X157437888Y-24365321D01*
X157440993Y-24366870D01*
X157449006Y-24371009D01*
X157455097Y-24374375D01*
X157462872Y-24378961D01*
X157465846Y-24380772D01*
X157723846Y-24542885D01*
X157726759Y-24544773D01*
X157734240Y-24549771D01*
X157739925Y-24553805D01*
X157747175Y-24559262D01*
X157749917Y-24561386D01*
X157988073Y-24751307D01*
X157990764Y-24753516D01*
X157997701Y-24759374D01*
X158002889Y-24764011D01*
X158009439Y-24770204D01*
X158011929Y-24772625D01*
X158227374Y-24988070D01*
X158229795Y-24990560D01*
X158235988Y-24997110D01*
X158240625Y-25002298D01*
X158246483Y-25009235D01*
X158248692Y-25011926D01*
X158438613Y-25250082D01*
X158440737Y-25252824D01*
X158446194Y-25260074D01*
X158450228Y-25265759D01*
X158455226Y-25273240D01*
X158457114Y-25276153D01*
X158619227Y-25534153D01*
X158621038Y-25537127D01*
X158625624Y-25544902D01*
X158628990Y-25550993D01*
X158633129Y-25559006D01*
X158634678Y-25562111D01*
X158766885Y-25836640D01*
X158768351Y-25839796D01*
X158772030Y-25848018D01*
X158774692Y-25854446D01*
X158777915Y-25862890D01*
X158779108Y-25866153D01*
X158879732Y-26153717D01*
X158880840Y-26157031D01*
X158883585Y-26165647D01*
X158885504Y-26172310D01*
X158887761Y-26181058D01*
X158888584Y-26184443D01*
X158956384Y-26481494D01*
X158957110Y-26484896D01*
X158958868Y-26493734D01*
X158960033Y-26500587D01*
X158961297Y-26509538D01*
X158961735Y-26512992D01*
X158996072Y-26817741D01*
X158996377Y-26820780D01*
X158997067Y-26828639D01*
X158997449Y-26834695D01*
X158997755Y-26842612D01*
X158997836Y-26845663D01*
X158999972Y-26998046D01*
X158999977Y-26998474D01*
X158999989Y-26999610D01*
X158999995Y-27000343D01*
X158999999Y-27001203D01*
X159000000Y-27001780D01*
X159000000Y-32226000D01*
X158980315Y-32293039D01*
X158927511Y-32338794D01*
X158876000Y-32350000D01*
X157850968Y-32350000D01*
X157783929Y-32330315D01*
X157738174Y-32277511D01*
X157734386Y-32265781D01*
X157730665Y-32256799D01*
X157675604Y-32174395D01*
X157593201Y-32119335D01*
X157593197Y-32119333D01*
X157496003Y-32100000D01*
X157316212Y-32100000D01*
X157292019Y-32097617D01*
X157230987Y-32085476D01*
X157186291Y-32066962D01*
X157144904Y-32039309D01*
X157110690Y-32005095D01*
X157083037Y-31963708D01*
X157064523Y-31919010D01*
X157052383Y-31857978D01*
X157050000Y-31833787D01*
X157050000Y-26203997D01*
X157049999Y-26203995D01*
X157030666Y-26106802D01*
X157030664Y-26106798D01*
X156975604Y-26024395D01*
X156893200Y-25969334D01*
X156881920Y-25964662D01*
X156883066Y-25961892D01*
X156837891Y-25938257D01*
X156803321Y-25877539D01*
X156800000Y-25849032D01*
X156800000Y-24278834D01*
X156819685Y-24211795D01*
X156872489Y-24166040D01*
X156941647Y-24156096D01*
X156964955Y-24161793D01*
G37*
M02*
