%TF.GenerationSoftware,KiCad,Pcbnew,10.0.5*%
%TF.CreationDate,2026-08-19T20:51:23+08:00*%
%TF.ProjectId,BLDC_MC_V1.0,424c4443-5f4d-4435-9f56-312e302e6b69,V1.0*%
%TF.SameCoordinates,Original*%
%TF.FileFunction,Other,User*%
%FSLAX46Y46*%
G04 Gerber Fmt 4.6, Leading zero omitted, Abs format (unit mm)*
G04 Created by KiCad (PCBNEW 10.0.5) date 2026-08-19 20:51:23*
%MOMM*%
%LPD*%
G01*
G04 APERTURE LIST*
%ADD10C,0.150000*%
%ADD11C,0.300000*%
%ADD12C,0.400000*%
%ADD13C,0.050000*%
%ADD14C,0.152400*%
G04 APERTURE END LIST*
D10*
X177002200Y-166007200D02*
X285002200Y-166007200D01*
X285002200Y-198007200D01*
X177002200Y-198007200D01*
X177002200Y-166007200D01*
X10000000Y-10000000D02*
X287002200Y-10000000D01*
X287002200Y-200007200D01*
X10000000Y-200007200D01*
X10000000Y-10000000D01*
X12000000Y-12000000D02*
X285002200Y-12000000D01*
X285002200Y-198007200D01*
X12000000Y-198007200D01*
X12000000Y-12000000D01*
X60000000Y-12000000D02*
X60000000Y-10000000D01*
X110000000Y-12000000D02*
X110000000Y-10000000D01*
X160000000Y-12000000D02*
X160000000Y-10000000D01*
X210000000Y-12000000D02*
X210000000Y-10000000D01*
X260000000Y-12000000D02*
X260000000Y-10000000D01*
X36089160Y-11593604D02*
X35346303Y-11593604D01*
X35717731Y-11593604D02*
X35717731Y-10293604D01*
X35717731Y-10293604D02*
X35593922Y-10479319D01*
X35593922Y-10479319D02*
X35470112Y-10603128D01*
X35470112Y-10603128D02*
X35346303Y-10665033D01*
X85346303Y-10417414D02*
X85408207Y-10355509D01*
X85408207Y-10355509D02*
X85532017Y-10293604D01*
X85532017Y-10293604D02*
X85841541Y-10293604D01*
X85841541Y-10293604D02*
X85965350Y-10355509D01*
X85965350Y-10355509D02*
X86027255Y-10417414D01*
X86027255Y-10417414D02*
X86089160Y-10541223D01*
X86089160Y-10541223D02*
X86089160Y-10665033D01*
X86089160Y-10665033D02*
X86027255Y-10850747D01*
X86027255Y-10850747D02*
X85284398Y-11593604D01*
X85284398Y-11593604D02*
X86089160Y-11593604D01*
X135284398Y-10293604D02*
X136089160Y-10293604D01*
X136089160Y-10293604D02*
X135655826Y-10788842D01*
X135655826Y-10788842D02*
X135841541Y-10788842D01*
X135841541Y-10788842D02*
X135965350Y-10850747D01*
X135965350Y-10850747D02*
X136027255Y-10912652D01*
X136027255Y-10912652D02*
X136089160Y-11036461D01*
X136089160Y-11036461D02*
X136089160Y-11345985D01*
X136089160Y-11345985D02*
X136027255Y-11469795D01*
X136027255Y-11469795D02*
X135965350Y-11531700D01*
X135965350Y-11531700D02*
X135841541Y-11593604D01*
X135841541Y-11593604D02*
X135470112Y-11593604D01*
X135470112Y-11593604D02*
X135346303Y-11531700D01*
X135346303Y-11531700D02*
X135284398Y-11469795D01*
X185965350Y-10726938D02*
X185965350Y-11593604D01*
X185655826Y-10231700D02*
X185346303Y-11160271D01*
X185346303Y-11160271D02*
X186151064Y-11160271D01*
X236027255Y-10293604D02*
X235408207Y-10293604D01*
X235408207Y-10293604D02*
X235346303Y-10912652D01*
X235346303Y-10912652D02*
X235408207Y-10850747D01*
X235408207Y-10850747D02*
X235532017Y-10788842D01*
X235532017Y-10788842D02*
X235841541Y-10788842D01*
X235841541Y-10788842D02*
X235965350Y-10850747D01*
X235965350Y-10850747D02*
X236027255Y-10912652D01*
X236027255Y-10912652D02*
X236089160Y-11036461D01*
X236089160Y-11036461D02*
X236089160Y-11345985D01*
X236089160Y-11345985D02*
X236027255Y-11469795D01*
X236027255Y-11469795D02*
X235965350Y-11531700D01*
X235965350Y-11531700D02*
X235841541Y-11593604D01*
X235841541Y-11593604D02*
X235532017Y-11593604D01*
X235532017Y-11593604D02*
X235408207Y-11531700D01*
X235408207Y-11531700D02*
X235346303Y-11469795D01*
X285965350Y-10293604D02*
X285717731Y-10293604D01*
X285717731Y-10293604D02*
X285593922Y-10355509D01*
X285593922Y-10355509D02*
X285532017Y-10417414D01*
X285532017Y-10417414D02*
X285408207Y-10603128D01*
X285408207Y-10603128D02*
X285346303Y-10850747D01*
X285346303Y-10850747D02*
X285346303Y-11345985D01*
X285346303Y-11345985D02*
X285408207Y-11469795D01*
X285408207Y-11469795D02*
X285470112Y-11531700D01*
X285470112Y-11531700D02*
X285593922Y-11593604D01*
X285593922Y-11593604D02*
X285841541Y-11593604D01*
X285841541Y-11593604D02*
X285965350Y-11531700D01*
X285965350Y-11531700D02*
X286027255Y-11469795D01*
X286027255Y-11469795D02*
X286089160Y-11345985D01*
X286089160Y-11345985D02*
X286089160Y-11036461D01*
X286089160Y-11036461D02*
X286027255Y-10912652D01*
X286027255Y-10912652D02*
X285965350Y-10850747D01*
X285965350Y-10850747D02*
X285841541Y-10788842D01*
X285841541Y-10788842D02*
X285593922Y-10788842D01*
X285593922Y-10788842D02*
X285470112Y-10850747D01*
X285470112Y-10850747D02*
X285408207Y-10912652D01*
X285408207Y-10912652D02*
X285346303Y-11036461D01*
X60000000Y-198007200D02*
X60000000Y-200007200D01*
X110000000Y-198007200D02*
X110000000Y-200007200D01*
X160000000Y-198007200D02*
X160000000Y-200007200D01*
X210000000Y-198007200D02*
X210000000Y-200007200D01*
X260000000Y-198007200D02*
X260000000Y-200007200D01*
X36089160Y-199600804D02*
X35346303Y-199600804D01*
X35717731Y-199600804D02*
X35717731Y-198300804D01*
X35717731Y-198300804D02*
X35593922Y-198486519D01*
X35593922Y-198486519D02*
X35470112Y-198610328D01*
X35470112Y-198610328D02*
X35346303Y-198672233D01*
X85346303Y-198424614D02*
X85408207Y-198362709D01*
X85408207Y-198362709D02*
X85532017Y-198300804D01*
X85532017Y-198300804D02*
X85841541Y-198300804D01*
X85841541Y-198300804D02*
X85965350Y-198362709D01*
X85965350Y-198362709D02*
X86027255Y-198424614D01*
X86027255Y-198424614D02*
X86089160Y-198548423D01*
X86089160Y-198548423D02*
X86089160Y-198672233D01*
X86089160Y-198672233D02*
X86027255Y-198857947D01*
X86027255Y-198857947D02*
X85284398Y-199600804D01*
X85284398Y-199600804D02*
X86089160Y-199600804D01*
X135284398Y-198300804D02*
X136089160Y-198300804D01*
X136089160Y-198300804D02*
X135655826Y-198796042D01*
X135655826Y-198796042D02*
X135841541Y-198796042D01*
X135841541Y-198796042D02*
X135965350Y-198857947D01*
X135965350Y-198857947D02*
X136027255Y-198919852D01*
X136027255Y-198919852D02*
X136089160Y-199043661D01*
X136089160Y-199043661D02*
X136089160Y-199353185D01*
X136089160Y-199353185D02*
X136027255Y-199476995D01*
X136027255Y-199476995D02*
X135965350Y-199538900D01*
X135965350Y-199538900D02*
X135841541Y-199600804D01*
X135841541Y-199600804D02*
X135470112Y-199600804D01*
X135470112Y-199600804D02*
X135346303Y-199538900D01*
X135346303Y-199538900D02*
X135284398Y-199476995D01*
X185965350Y-198734138D02*
X185965350Y-199600804D01*
X185655826Y-198238900D02*
X185346303Y-199167471D01*
X185346303Y-199167471D02*
X186151064Y-199167471D01*
X236027255Y-198300804D02*
X235408207Y-198300804D01*
X235408207Y-198300804D02*
X235346303Y-198919852D01*
X235346303Y-198919852D02*
X235408207Y-198857947D01*
X235408207Y-198857947D02*
X235532017Y-198796042D01*
X235532017Y-198796042D02*
X235841541Y-198796042D01*
X235841541Y-198796042D02*
X235965350Y-198857947D01*
X235965350Y-198857947D02*
X236027255Y-198919852D01*
X236027255Y-198919852D02*
X236089160Y-199043661D01*
X236089160Y-199043661D02*
X236089160Y-199353185D01*
X236089160Y-199353185D02*
X236027255Y-199476995D01*
X236027255Y-199476995D02*
X235965350Y-199538900D01*
X235965350Y-199538900D02*
X235841541Y-199600804D01*
X235841541Y-199600804D02*
X235532017Y-199600804D01*
X235532017Y-199600804D02*
X235408207Y-199538900D01*
X235408207Y-199538900D02*
X235346303Y-199476995D01*
X285965350Y-198300804D02*
X285717731Y-198300804D01*
X285717731Y-198300804D02*
X285593922Y-198362709D01*
X285593922Y-198362709D02*
X285532017Y-198424614D01*
X285532017Y-198424614D02*
X285408207Y-198610328D01*
X285408207Y-198610328D02*
X285346303Y-198857947D01*
X285346303Y-198857947D02*
X285346303Y-199353185D01*
X285346303Y-199353185D02*
X285408207Y-199476995D01*
X285408207Y-199476995D02*
X285470112Y-199538900D01*
X285470112Y-199538900D02*
X285593922Y-199600804D01*
X285593922Y-199600804D02*
X285841541Y-199600804D01*
X285841541Y-199600804D02*
X285965350Y-199538900D01*
X285965350Y-199538900D02*
X286027255Y-199476995D01*
X286027255Y-199476995D02*
X286089160Y-199353185D01*
X286089160Y-199353185D02*
X286089160Y-199043661D01*
X286089160Y-199043661D02*
X286027255Y-198919852D01*
X286027255Y-198919852D02*
X285965350Y-198857947D01*
X285965350Y-198857947D02*
X285841541Y-198796042D01*
X285841541Y-198796042D02*
X285593922Y-198796042D01*
X285593922Y-198796042D02*
X285470112Y-198857947D01*
X285470112Y-198857947D02*
X285408207Y-198919852D01*
X285408207Y-198919852D02*
X285346303Y-199043661D01*
X10000000Y-60000000D02*
X12000000Y-60000000D01*
X10000000Y-110000000D02*
X12000000Y-110000000D01*
X10000000Y-160000000D02*
X12000000Y-160000000D01*
X10690476Y-35222176D02*
X11309523Y-35222176D01*
X10566666Y-35593604D02*
X10999999Y-34293604D01*
X10999999Y-34293604D02*
X11433333Y-35593604D01*
X11092857Y-84912652D02*
X11278571Y-84974557D01*
X11278571Y-84974557D02*
X11340476Y-85036461D01*
X11340476Y-85036461D02*
X11402380Y-85160271D01*
X11402380Y-85160271D02*
X11402380Y-85345985D01*
X11402380Y-85345985D02*
X11340476Y-85469795D01*
X11340476Y-85469795D02*
X11278571Y-85531700D01*
X11278571Y-85531700D02*
X11154761Y-85593604D01*
X11154761Y-85593604D02*
X10659523Y-85593604D01*
X10659523Y-85593604D02*
X10659523Y-84293604D01*
X10659523Y-84293604D02*
X11092857Y-84293604D01*
X11092857Y-84293604D02*
X11216666Y-84355509D01*
X11216666Y-84355509D02*
X11278571Y-84417414D01*
X11278571Y-84417414D02*
X11340476Y-84541223D01*
X11340476Y-84541223D02*
X11340476Y-84665033D01*
X11340476Y-84665033D02*
X11278571Y-84788842D01*
X11278571Y-84788842D02*
X11216666Y-84850747D01*
X11216666Y-84850747D02*
X11092857Y-84912652D01*
X11092857Y-84912652D02*
X10659523Y-84912652D01*
X11402380Y-135469795D02*
X11340476Y-135531700D01*
X11340476Y-135531700D02*
X11154761Y-135593604D01*
X11154761Y-135593604D02*
X11030952Y-135593604D01*
X11030952Y-135593604D02*
X10845238Y-135531700D01*
X10845238Y-135531700D02*
X10721428Y-135407890D01*
X10721428Y-135407890D02*
X10659523Y-135284080D01*
X10659523Y-135284080D02*
X10597619Y-135036461D01*
X10597619Y-135036461D02*
X10597619Y-134850747D01*
X10597619Y-134850747D02*
X10659523Y-134603128D01*
X10659523Y-134603128D02*
X10721428Y-134479319D01*
X10721428Y-134479319D02*
X10845238Y-134355509D01*
X10845238Y-134355509D02*
X11030952Y-134293604D01*
X11030952Y-134293604D02*
X11154761Y-134293604D01*
X11154761Y-134293604D02*
X11340476Y-134355509D01*
X11340476Y-134355509D02*
X11402380Y-134417414D01*
X10659523Y-185593604D02*
X10659523Y-184293604D01*
X10659523Y-184293604D02*
X10969047Y-184293604D01*
X10969047Y-184293604D02*
X11154761Y-184355509D01*
X11154761Y-184355509D02*
X11278571Y-184479319D01*
X11278571Y-184479319D02*
X11340476Y-184603128D01*
X11340476Y-184603128D02*
X11402380Y-184850747D01*
X11402380Y-184850747D02*
X11402380Y-185036461D01*
X11402380Y-185036461D02*
X11340476Y-185284080D01*
X11340476Y-185284080D02*
X11278571Y-185407890D01*
X11278571Y-185407890D02*
X11154761Y-185531700D01*
X11154761Y-185531700D02*
X10969047Y-185593604D01*
X10969047Y-185593604D02*
X10659523Y-185593604D01*
X287002200Y-60000000D02*
X285002200Y-60000000D01*
X287002200Y-110000000D02*
X285002200Y-110000000D01*
X287002200Y-160000000D02*
X285002200Y-160000000D01*
X285692676Y-35222176D02*
X286311723Y-35222176D01*
X285568866Y-35593604D02*
X286002199Y-34293604D01*
X286002199Y-34293604D02*
X286435533Y-35593604D01*
X286095057Y-84912652D02*
X286280771Y-84974557D01*
X286280771Y-84974557D02*
X286342676Y-85036461D01*
X286342676Y-85036461D02*
X286404580Y-85160271D01*
X286404580Y-85160271D02*
X286404580Y-85345985D01*
X286404580Y-85345985D02*
X286342676Y-85469795D01*
X286342676Y-85469795D02*
X286280771Y-85531700D01*
X286280771Y-85531700D02*
X286156961Y-85593604D01*
X286156961Y-85593604D02*
X285661723Y-85593604D01*
X285661723Y-85593604D02*
X285661723Y-84293604D01*
X285661723Y-84293604D02*
X286095057Y-84293604D01*
X286095057Y-84293604D02*
X286218866Y-84355509D01*
X286218866Y-84355509D02*
X286280771Y-84417414D01*
X286280771Y-84417414D02*
X286342676Y-84541223D01*
X286342676Y-84541223D02*
X286342676Y-84665033D01*
X286342676Y-84665033D02*
X286280771Y-84788842D01*
X286280771Y-84788842D02*
X286218866Y-84850747D01*
X286218866Y-84850747D02*
X286095057Y-84912652D01*
X286095057Y-84912652D02*
X285661723Y-84912652D01*
X286404580Y-135469795D02*
X286342676Y-135531700D01*
X286342676Y-135531700D02*
X286156961Y-135593604D01*
X286156961Y-135593604D02*
X286033152Y-135593604D01*
X286033152Y-135593604D02*
X285847438Y-135531700D01*
X285847438Y-135531700D02*
X285723628Y-135407890D01*
X285723628Y-135407890D02*
X285661723Y-135284080D01*
X285661723Y-135284080D02*
X285599819Y-135036461D01*
X285599819Y-135036461D02*
X285599819Y-134850747D01*
X285599819Y-134850747D02*
X285661723Y-134603128D01*
X285661723Y-134603128D02*
X285723628Y-134479319D01*
X285723628Y-134479319D02*
X285847438Y-134355509D01*
X285847438Y-134355509D02*
X286033152Y-134293604D01*
X286033152Y-134293604D02*
X286156961Y-134293604D01*
X286156961Y-134293604D02*
X286342676Y-134355509D01*
X286342676Y-134355509D02*
X286404580Y-134417414D01*
X285661723Y-185593604D02*
X285661723Y-184293604D01*
X285661723Y-184293604D02*
X285971247Y-184293604D01*
X285971247Y-184293604D02*
X286156961Y-184355509D01*
X286156961Y-184355509D02*
X286280771Y-184479319D01*
X286280771Y-184479319D02*
X286342676Y-184603128D01*
X286342676Y-184603128D02*
X286404580Y-184850747D01*
X286404580Y-184850747D02*
X286404580Y-185036461D01*
X286404580Y-185036461D02*
X286342676Y-185284080D01*
X286342676Y-185284080D02*
X286280771Y-185407890D01*
X286280771Y-185407890D02*
X286156961Y-185531700D01*
X286156961Y-185531700D02*
X285971247Y-185593604D01*
X285971247Y-185593604D02*
X285661723Y-185593604D01*
X200458026Y-193793328D02*
X200458026Y-192293328D01*
X200458026Y-192293328D02*
X200815169Y-192293328D01*
X200815169Y-192293328D02*
X201029455Y-192364757D01*
X201029455Y-192364757D02*
X201172312Y-192507614D01*
X201172312Y-192507614D02*
X201243741Y-192650471D01*
X201243741Y-192650471D02*
X201315169Y-192936185D01*
X201315169Y-192936185D02*
X201315169Y-193150471D01*
X201315169Y-193150471D02*
X201243741Y-193436185D01*
X201243741Y-193436185D02*
X201172312Y-193579042D01*
X201172312Y-193579042D02*
X201029455Y-193721900D01*
X201029455Y-193721900D02*
X200815169Y-193793328D01*
X200815169Y-193793328D02*
X200458026Y-193793328D01*
X202600884Y-193793328D02*
X202600884Y-193007614D01*
X202600884Y-193007614D02*
X202529455Y-192864757D01*
X202529455Y-192864757D02*
X202386598Y-192793328D01*
X202386598Y-192793328D02*
X202100884Y-192793328D01*
X202100884Y-192793328D02*
X201958026Y-192864757D01*
X202600884Y-193721900D02*
X202458026Y-193793328D01*
X202458026Y-193793328D02*
X202100884Y-193793328D01*
X202100884Y-193793328D02*
X201958026Y-193721900D01*
X201958026Y-193721900D02*
X201886598Y-193579042D01*
X201886598Y-193579042D02*
X201886598Y-193436185D01*
X201886598Y-193436185D02*
X201958026Y-193293328D01*
X201958026Y-193293328D02*
X202100884Y-193221900D01*
X202100884Y-193221900D02*
X202458026Y-193221900D01*
X202458026Y-193221900D02*
X202600884Y-193150471D01*
X203100884Y-192793328D02*
X203672312Y-192793328D01*
X203315169Y-192293328D02*
X203315169Y-193579042D01*
X203315169Y-193579042D02*
X203386598Y-193721900D01*
X203386598Y-193721900D02*
X203529455Y-193793328D01*
X203529455Y-193793328D02*
X203672312Y-193793328D01*
X204743741Y-193721900D02*
X204600884Y-193793328D01*
X204600884Y-193793328D02*
X204315170Y-193793328D01*
X204315170Y-193793328D02*
X204172312Y-193721900D01*
X204172312Y-193721900D02*
X204100884Y-193579042D01*
X204100884Y-193579042D02*
X204100884Y-193007614D01*
X204100884Y-193007614D02*
X204172312Y-192864757D01*
X204172312Y-192864757D02*
X204315170Y-192793328D01*
X204315170Y-192793328D02*
X204600884Y-192793328D01*
X204600884Y-192793328D02*
X204743741Y-192864757D01*
X204743741Y-192864757D02*
X204815170Y-193007614D01*
X204815170Y-193007614D02*
X204815170Y-193150471D01*
X204815170Y-193150471D02*
X204100884Y-193293328D01*
X205458026Y-193650471D02*
X205529455Y-193721900D01*
X205529455Y-193721900D02*
X205458026Y-193793328D01*
X205458026Y-193793328D02*
X205386598Y-193721900D01*
X205386598Y-193721900D02*
X205458026Y-193650471D01*
X205458026Y-193650471D02*
X205458026Y-193793328D01*
X205458026Y-192864757D02*
X205529455Y-192936185D01*
X205529455Y-192936185D02*
X205458026Y-193007614D01*
X205458026Y-193007614D02*
X205386598Y-192936185D01*
X205386598Y-192936185D02*
X205458026Y-192864757D01*
X205458026Y-192864757D02*
X205458026Y-193007614D01*
X207243741Y-192436185D02*
X207315169Y-192364757D01*
X207315169Y-192364757D02*
X207458027Y-192293328D01*
X207458027Y-192293328D02*
X207815169Y-192293328D01*
X207815169Y-192293328D02*
X207958027Y-192364757D01*
X207958027Y-192364757D02*
X208029455Y-192436185D01*
X208029455Y-192436185D02*
X208100884Y-192579042D01*
X208100884Y-192579042D02*
X208100884Y-192721900D01*
X208100884Y-192721900D02*
X208029455Y-192936185D01*
X208029455Y-192936185D02*
X207172312Y-193793328D01*
X207172312Y-193793328D02*
X208100884Y-193793328D01*
X209029455Y-192293328D02*
X209172312Y-192293328D01*
X209172312Y-192293328D02*
X209315169Y-192364757D01*
X209315169Y-192364757D02*
X209386598Y-192436185D01*
X209386598Y-192436185D02*
X209458026Y-192579042D01*
X209458026Y-192579042D02*
X209529455Y-192864757D01*
X209529455Y-192864757D02*
X209529455Y-193221900D01*
X209529455Y-193221900D02*
X209458026Y-193507614D01*
X209458026Y-193507614D02*
X209386598Y-193650471D01*
X209386598Y-193650471D02*
X209315169Y-193721900D01*
X209315169Y-193721900D02*
X209172312Y-193793328D01*
X209172312Y-193793328D02*
X209029455Y-193793328D01*
X209029455Y-193793328D02*
X208886598Y-193721900D01*
X208886598Y-193721900D02*
X208815169Y-193650471D01*
X208815169Y-193650471D02*
X208743740Y-193507614D01*
X208743740Y-193507614D02*
X208672312Y-193221900D01*
X208672312Y-193221900D02*
X208672312Y-192864757D01*
X208672312Y-192864757D02*
X208743740Y-192579042D01*
X208743740Y-192579042D02*
X208815169Y-192436185D01*
X208815169Y-192436185D02*
X208886598Y-192364757D01*
X208886598Y-192364757D02*
X209029455Y-192293328D01*
X210100883Y-192436185D02*
X210172311Y-192364757D01*
X210172311Y-192364757D02*
X210315169Y-192293328D01*
X210315169Y-192293328D02*
X210672311Y-192293328D01*
X210672311Y-192293328D02*
X210815169Y-192364757D01*
X210815169Y-192364757D02*
X210886597Y-192436185D01*
X210886597Y-192436185D02*
X210958026Y-192579042D01*
X210958026Y-192579042D02*
X210958026Y-192721900D01*
X210958026Y-192721900D02*
X210886597Y-192936185D01*
X210886597Y-192936185D02*
X210029454Y-193793328D01*
X210029454Y-193793328D02*
X210958026Y-193793328D01*
X212243740Y-192293328D02*
X211958025Y-192293328D01*
X211958025Y-192293328D02*
X211815168Y-192364757D01*
X211815168Y-192364757D02*
X211743740Y-192436185D01*
X211743740Y-192436185D02*
X211600882Y-192650471D01*
X211600882Y-192650471D02*
X211529454Y-192936185D01*
X211529454Y-192936185D02*
X211529454Y-193507614D01*
X211529454Y-193507614D02*
X211600882Y-193650471D01*
X211600882Y-193650471D02*
X211672311Y-193721900D01*
X211672311Y-193721900D02*
X211815168Y-193793328D01*
X211815168Y-193793328D02*
X212100882Y-193793328D01*
X212100882Y-193793328D02*
X212243740Y-193721900D01*
X212243740Y-193721900D02*
X212315168Y-193650471D01*
X212315168Y-193650471D02*
X212386597Y-193507614D01*
X212386597Y-193507614D02*
X212386597Y-193150471D01*
X212386597Y-193150471D02*
X212315168Y-193007614D01*
X212315168Y-193007614D02*
X212243740Y-192936185D01*
X212243740Y-192936185D02*
X212100882Y-192864757D01*
X212100882Y-192864757D02*
X211815168Y-192864757D01*
X211815168Y-192864757D02*
X211672311Y-192936185D01*
X211672311Y-192936185D02*
X211600882Y-193007614D01*
X211600882Y-193007614D02*
X211529454Y-193150471D01*
X213029453Y-193221900D02*
X214172311Y-193221900D01*
X215172311Y-192293328D02*
X215315168Y-192293328D01*
X215315168Y-192293328D02*
X215458025Y-192364757D01*
X215458025Y-192364757D02*
X215529454Y-192436185D01*
X215529454Y-192436185D02*
X215600882Y-192579042D01*
X215600882Y-192579042D02*
X215672311Y-192864757D01*
X215672311Y-192864757D02*
X215672311Y-193221900D01*
X215672311Y-193221900D02*
X215600882Y-193507614D01*
X215600882Y-193507614D02*
X215529454Y-193650471D01*
X215529454Y-193650471D02*
X215458025Y-193721900D01*
X215458025Y-193721900D02*
X215315168Y-193793328D01*
X215315168Y-193793328D02*
X215172311Y-193793328D01*
X215172311Y-193793328D02*
X215029454Y-193721900D01*
X215029454Y-193721900D02*
X214958025Y-193650471D01*
X214958025Y-193650471D02*
X214886596Y-193507614D01*
X214886596Y-193507614D02*
X214815168Y-193221900D01*
X214815168Y-193221900D02*
X214815168Y-192864757D01*
X214815168Y-192864757D02*
X214886596Y-192579042D01*
X214886596Y-192579042D02*
X214958025Y-192436185D01*
X214958025Y-192436185D02*
X215029454Y-192364757D01*
X215029454Y-192364757D02*
X215172311Y-192293328D01*
X216529453Y-192936185D02*
X216386596Y-192864757D01*
X216386596Y-192864757D02*
X216315167Y-192793328D01*
X216315167Y-192793328D02*
X216243739Y-192650471D01*
X216243739Y-192650471D02*
X216243739Y-192579042D01*
X216243739Y-192579042D02*
X216315167Y-192436185D01*
X216315167Y-192436185D02*
X216386596Y-192364757D01*
X216386596Y-192364757D02*
X216529453Y-192293328D01*
X216529453Y-192293328D02*
X216815167Y-192293328D01*
X216815167Y-192293328D02*
X216958025Y-192364757D01*
X216958025Y-192364757D02*
X217029453Y-192436185D01*
X217029453Y-192436185D02*
X217100882Y-192579042D01*
X217100882Y-192579042D02*
X217100882Y-192650471D01*
X217100882Y-192650471D02*
X217029453Y-192793328D01*
X217029453Y-192793328D02*
X216958025Y-192864757D01*
X216958025Y-192864757D02*
X216815167Y-192936185D01*
X216815167Y-192936185D02*
X216529453Y-192936185D01*
X216529453Y-192936185D02*
X216386596Y-193007614D01*
X216386596Y-193007614D02*
X216315167Y-193079042D01*
X216315167Y-193079042D02*
X216243739Y-193221900D01*
X216243739Y-193221900D02*
X216243739Y-193507614D01*
X216243739Y-193507614D02*
X216315167Y-193650471D01*
X216315167Y-193650471D02*
X216386596Y-193721900D01*
X216386596Y-193721900D02*
X216529453Y-193793328D01*
X216529453Y-193793328D02*
X216815167Y-193793328D01*
X216815167Y-193793328D02*
X216958025Y-193721900D01*
X216958025Y-193721900D02*
X217029453Y-193650471D01*
X217029453Y-193650471D02*
X217100882Y-193507614D01*
X217100882Y-193507614D02*
X217100882Y-193221900D01*
X217100882Y-193221900D02*
X217029453Y-193079042D01*
X217029453Y-193079042D02*
X216958025Y-193007614D01*
X216958025Y-193007614D02*
X216815167Y-192936185D01*
X217743738Y-193221900D02*
X218886596Y-193221900D01*
X220386596Y-193793328D02*
X219529453Y-193793328D01*
X219958024Y-193793328D02*
X219958024Y-192293328D01*
X219958024Y-192293328D02*
X219815167Y-192507614D01*
X219815167Y-192507614D02*
X219672310Y-192650471D01*
X219672310Y-192650471D02*
X219529453Y-192721900D01*
X221100881Y-193793328D02*
X221386595Y-193793328D01*
X221386595Y-193793328D02*
X221529452Y-193721900D01*
X221529452Y-193721900D02*
X221600881Y-193650471D01*
X221600881Y-193650471D02*
X221743738Y-193436185D01*
X221743738Y-193436185D02*
X221815167Y-193150471D01*
X221815167Y-193150471D02*
X221815167Y-192579042D01*
X221815167Y-192579042D02*
X221743738Y-192436185D01*
X221743738Y-192436185D02*
X221672310Y-192364757D01*
X221672310Y-192364757D02*
X221529452Y-192293328D01*
X221529452Y-192293328D02*
X221243738Y-192293328D01*
X221243738Y-192293328D02*
X221100881Y-192364757D01*
X221100881Y-192364757D02*
X221029452Y-192436185D01*
X221029452Y-192436185D02*
X220958024Y-192579042D01*
X220958024Y-192579042D02*
X220958024Y-192936185D01*
X220958024Y-192936185D02*
X221029452Y-193079042D01*
X221029452Y-193079042D02*
X221100881Y-193150471D01*
X221100881Y-193150471D02*
X221243738Y-193221900D01*
X221243738Y-193221900D02*
X221529452Y-193221900D01*
X221529452Y-193221900D02*
X221672310Y-193150471D01*
X221672310Y-193150471D02*
X221743738Y-193079042D01*
X221743738Y-193079042D02*
X221815167Y-192936185D01*
X177002200Y-194507200D02*
X285002200Y-194507200D01*
X178458026Y-196593328D02*
X178458026Y-195093328D01*
X179315169Y-196593328D02*
X178672312Y-195736185D01*
X179315169Y-195093328D02*
X178458026Y-195950471D01*
X179958026Y-196593328D02*
X179958026Y-195593328D01*
X179958026Y-195093328D02*
X179886598Y-195164757D01*
X179886598Y-195164757D02*
X179958026Y-195236185D01*
X179958026Y-195236185D02*
X180029455Y-195164757D01*
X180029455Y-195164757D02*
X179958026Y-195093328D01*
X179958026Y-195093328D02*
X179958026Y-195236185D01*
X181529455Y-196450471D02*
X181458027Y-196521900D01*
X181458027Y-196521900D02*
X181243741Y-196593328D01*
X181243741Y-196593328D02*
X181100884Y-196593328D01*
X181100884Y-196593328D02*
X180886598Y-196521900D01*
X180886598Y-196521900D02*
X180743741Y-196379042D01*
X180743741Y-196379042D02*
X180672312Y-196236185D01*
X180672312Y-196236185D02*
X180600884Y-195950471D01*
X180600884Y-195950471D02*
X180600884Y-195736185D01*
X180600884Y-195736185D02*
X180672312Y-195450471D01*
X180672312Y-195450471D02*
X180743741Y-195307614D01*
X180743741Y-195307614D02*
X180886598Y-195164757D01*
X180886598Y-195164757D02*
X181100884Y-195093328D01*
X181100884Y-195093328D02*
X181243741Y-195093328D01*
X181243741Y-195093328D02*
X181458027Y-195164757D01*
X181458027Y-195164757D02*
X181529455Y-195236185D01*
X182815170Y-196593328D02*
X182815170Y-195807614D01*
X182815170Y-195807614D02*
X182743741Y-195664757D01*
X182743741Y-195664757D02*
X182600884Y-195593328D01*
X182600884Y-195593328D02*
X182315170Y-195593328D01*
X182315170Y-195593328D02*
X182172312Y-195664757D01*
X182815170Y-196521900D02*
X182672312Y-196593328D01*
X182672312Y-196593328D02*
X182315170Y-196593328D01*
X182315170Y-196593328D02*
X182172312Y-196521900D01*
X182172312Y-196521900D02*
X182100884Y-196379042D01*
X182100884Y-196379042D02*
X182100884Y-196236185D01*
X182100884Y-196236185D02*
X182172312Y-196093328D01*
X182172312Y-196093328D02*
X182315170Y-196021900D01*
X182315170Y-196021900D02*
X182672312Y-196021900D01*
X182672312Y-196021900D02*
X182815170Y-195950471D01*
X184172313Y-196593328D02*
X184172313Y-195093328D01*
X184172313Y-196521900D02*
X184029455Y-196593328D01*
X184029455Y-196593328D02*
X183743741Y-196593328D01*
X183743741Y-196593328D02*
X183600884Y-196521900D01*
X183600884Y-196521900D02*
X183529455Y-196450471D01*
X183529455Y-196450471D02*
X183458027Y-196307614D01*
X183458027Y-196307614D02*
X183458027Y-195879042D01*
X183458027Y-195879042D02*
X183529455Y-195736185D01*
X183529455Y-195736185D02*
X183600884Y-195664757D01*
X183600884Y-195664757D02*
X183743741Y-195593328D01*
X183743741Y-195593328D02*
X184029455Y-195593328D01*
X184029455Y-195593328D02*
X184172313Y-195664757D01*
X186029455Y-195807614D02*
X186529455Y-195807614D01*
X186743741Y-196593328D02*
X186029455Y-196593328D01*
X186029455Y-196593328D02*
X186029455Y-195093328D01*
X186029455Y-195093328D02*
X186743741Y-195093328D01*
X187386598Y-196450471D02*
X187458027Y-196521900D01*
X187458027Y-196521900D02*
X187386598Y-196593328D01*
X187386598Y-196593328D02*
X187315170Y-196521900D01*
X187315170Y-196521900D02*
X187386598Y-196450471D01*
X187386598Y-196450471D02*
X187386598Y-196593328D01*
X188100884Y-196593328D02*
X188100884Y-195093328D01*
X188100884Y-195093328D02*
X188458027Y-195093328D01*
X188458027Y-195093328D02*
X188672313Y-195164757D01*
X188672313Y-195164757D02*
X188815170Y-195307614D01*
X188815170Y-195307614D02*
X188886599Y-195450471D01*
X188886599Y-195450471D02*
X188958027Y-195736185D01*
X188958027Y-195736185D02*
X188958027Y-195950471D01*
X188958027Y-195950471D02*
X188886599Y-196236185D01*
X188886599Y-196236185D02*
X188815170Y-196379042D01*
X188815170Y-196379042D02*
X188672313Y-196521900D01*
X188672313Y-196521900D02*
X188458027Y-196593328D01*
X188458027Y-196593328D02*
X188100884Y-196593328D01*
X189600884Y-196450471D02*
X189672313Y-196521900D01*
X189672313Y-196521900D02*
X189600884Y-196593328D01*
X189600884Y-196593328D02*
X189529456Y-196521900D01*
X189529456Y-196521900D02*
X189600884Y-196450471D01*
X189600884Y-196450471D02*
X189600884Y-196593328D01*
X190243742Y-196164757D02*
X190958028Y-196164757D01*
X190100885Y-196593328D02*
X190600885Y-195093328D01*
X190600885Y-195093328D02*
X191100885Y-196593328D01*
X191600884Y-196450471D02*
X191672313Y-196521900D01*
X191672313Y-196521900D02*
X191600884Y-196593328D01*
X191600884Y-196593328D02*
X191529456Y-196521900D01*
X191529456Y-196521900D02*
X191600884Y-196450471D01*
X191600884Y-196450471D02*
X191600884Y-196593328D01*
X194243742Y-196593328D02*
X193386599Y-196593328D01*
X193815170Y-196593328D02*
X193815170Y-195093328D01*
X193815170Y-195093328D02*
X193672313Y-195307614D01*
X193672313Y-195307614D02*
X193529456Y-195450471D01*
X193529456Y-195450471D02*
X193386599Y-195521900D01*
X195172313Y-195093328D02*
X195315170Y-195093328D01*
X195315170Y-195093328D02*
X195458027Y-195164757D01*
X195458027Y-195164757D02*
X195529456Y-195236185D01*
X195529456Y-195236185D02*
X195600884Y-195379042D01*
X195600884Y-195379042D02*
X195672313Y-195664757D01*
X195672313Y-195664757D02*
X195672313Y-196021900D01*
X195672313Y-196021900D02*
X195600884Y-196307614D01*
X195600884Y-196307614D02*
X195529456Y-196450471D01*
X195529456Y-196450471D02*
X195458027Y-196521900D01*
X195458027Y-196521900D02*
X195315170Y-196593328D01*
X195315170Y-196593328D02*
X195172313Y-196593328D01*
X195172313Y-196593328D02*
X195029456Y-196521900D01*
X195029456Y-196521900D02*
X194958027Y-196450471D01*
X194958027Y-196450471D02*
X194886598Y-196307614D01*
X194886598Y-196307614D02*
X194815170Y-196021900D01*
X194815170Y-196021900D02*
X194815170Y-195664757D01*
X194815170Y-195664757D02*
X194886598Y-195379042D01*
X194886598Y-195379042D02*
X194958027Y-195236185D01*
X194958027Y-195236185D02*
X195029456Y-195164757D01*
X195029456Y-195164757D02*
X195172313Y-195093328D01*
X196315169Y-196450471D02*
X196386598Y-196521900D01*
X196386598Y-196521900D02*
X196315169Y-196593328D01*
X196315169Y-196593328D02*
X196243741Y-196521900D01*
X196243741Y-196521900D02*
X196315169Y-196450471D01*
X196315169Y-196450471D02*
X196315169Y-196593328D01*
X197315170Y-195093328D02*
X197458027Y-195093328D01*
X197458027Y-195093328D02*
X197600884Y-195164757D01*
X197600884Y-195164757D02*
X197672313Y-195236185D01*
X197672313Y-195236185D02*
X197743741Y-195379042D01*
X197743741Y-195379042D02*
X197815170Y-195664757D01*
X197815170Y-195664757D02*
X197815170Y-196021900D01*
X197815170Y-196021900D02*
X197743741Y-196307614D01*
X197743741Y-196307614D02*
X197672313Y-196450471D01*
X197672313Y-196450471D02*
X197600884Y-196521900D01*
X197600884Y-196521900D02*
X197458027Y-196593328D01*
X197458027Y-196593328D02*
X197315170Y-196593328D01*
X197315170Y-196593328D02*
X197172313Y-196521900D01*
X197172313Y-196521900D02*
X197100884Y-196450471D01*
X197100884Y-196450471D02*
X197029455Y-196307614D01*
X197029455Y-196307614D02*
X196958027Y-196021900D01*
X196958027Y-196021900D02*
X196958027Y-195664757D01*
X196958027Y-195664757D02*
X197029455Y-195379042D01*
X197029455Y-195379042D02*
X197100884Y-195236185D01*
X197100884Y-195236185D02*
X197172313Y-195164757D01*
X197172313Y-195164757D02*
X197315170Y-195093328D01*
X198458026Y-196450471D02*
X198529455Y-196521900D01*
X198529455Y-196521900D02*
X198458026Y-196593328D01*
X198458026Y-196593328D02*
X198386598Y-196521900D01*
X198386598Y-196521900D02*
X198458026Y-196450471D01*
X198458026Y-196450471D02*
X198458026Y-196593328D01*
X199886598Y-195093328D02*
X199172312Y-195093328D01*
X199172312Y-195093328D02*
X199100884Y-195807614D01*
X199100884Y-195807614D02*
X199172312Y-195736185D01*
X199172312Y-195736185D02*
X199315170Y-195664757D01*
X199315170Y-195664757D02*
X199672312Y-195664757D01*
X199672312Y-195664757D02*
X199815170Y-195736185D01*
X199815170Y-195736185D02*
X199886598Y-195807614D01*
X199886598Y-195807614D02*
X199958027Y-195950471D01*
X199958027Y-195950471D02*
X199958027Y-196307614D01*
X199958027Y-196307614D02*
X199886598Y-196450471D01*
X199886598Y-196450471D02*
X199815170Y-196521900D01*
X199815170Y-196521900D02*
X199672312Y-196593328D01*
X199672312Y-196593328D02*
X199315170Y-196593328D01*
X199315170Y-196593328D02*
X199172312Y-196521900D01*
X199172312Y-196521900D02*
X199100884Y-196450471D01*
X177002200Y-191507200D02*
X285002200Y-191507200D01*
D11*
X264413853Y-193785528D02*
X263913853Y-193071242D01*
X263556710Y-193785528D02*
X263556710Y-192285528D01*
X263556710Y-192285528D02*
X264128139Y-192285528D01*
X264128139Y-192285528D02*
X264270996Y-192356957D01*
X264270996Y-192356957D02*
X264342425Y-192428385D01*
X264342425Y-192428385D02*
X264413853Y-192571242D01*
X264413853Y-192571242D02*
X264413853Y-192785528D01*
X264413853Y-192785528D02*
X264342425Y-192928385D01*
X264342425Y-192928385D02*
X264270996Y-192999814D01*
X264270996Y-192999814D02*
X264128139Y-193071242D01*
X264128139Y-193071242D02*
X263556710Y-193071242D01*
X265628139Y-193714100D02*
X265485282Y-193785528D01*
X265485282Y-193785528D02*
X265199568Y-193785528D01*
X265199568Y-193785528D02*
X265056710Y-193714100D01*
X265056710Y-193714100D02*
X264985282Y-193571242D01*
X264985282Y-193571242D02*
X264985282Y-192999814D01*
X264985282Y-192999814D02*
X265056710Y-192856957D01*
X265056710Y-192856957D02*
X265199568Y-192785528D01*
X265199568Y-192785528D02*
X265485282Y-192785528D01*
X265485282Y-192785528D02*
X265628139Y-192856957D01*
X265628139Y-192856957D02*
X265699568Y-192999814D01*
X265699568Y-192999814D02*
X265699568Y-193142671D01*
X265699568Y-193142671D02*
X264985282Y-193285528D01*
X266199567Y-192785528D02*
X266556710Y-193785528D01*
X266556710Y-193785528D02*
X266913853Y-192785528D01*
X267485281Y-193642671D02*
X267556710Y-193714100D01*
X267556710Y-193714100D02*
X267485281Y-193785528D01*
X267485281Y-193785528D02*
X267413853Y-193714100D01*
X267413853Y-193714100D02*
X267485281Y-193642671D01*
X267485281Y-193642671D02*
X267485281Y-193785528D01*
X267485281Y-192856957D02*
X267556710Y-192928385D01*
X267556710Y-192928385D02*
X267485281Y-192999814D01*
X267485281Y-192999814D02*
X267413853Y-192928385D01*
X267413853Y-192928385D02*
X267485281Y-192856957D01*
X267485281Y-192856957D02*
X267485281Y-192999814D01*
X269128139Y-192285528D02*
X269628139Y-193785528D01*
X269628139Y-193785528D02*
X270128139Y-192285528D01*
X271413853Y-193785528D02*
X270556710Y-193785528D01*
X270985281Y-193785528D02*
X270985281Y-192285528D01*
X270985281Y-192285528D02*
X270842424Y-192499814D01*
X270842424Y-192499814D02*
X270699567Y-192642671D01*
X270699567Y-192642671D02*
X270556710Y-192714100D01*
X272056709Y-193642671D02*
X272128138Y-193714100D01*
X272128138Y-193714100D02*
X272056709Y-193785528D01*
X272056709Y-193785528D02*
X271985281Y-193714100D01*
X271985281Y-193714100D02*
X272056709Y-193642671D01*
X272056709Y-193642671D02*
X272056709Y-193785528D01*
X273056710Y-192285528D02*
X273199567Y-192285528D01*
X273199567Y-192285528D02*
X273342424Y-192356957D01*
X273342424Y-192356957D02*
X273413853Y-192428385D01*
X273413853Y-192428385D02*
X273485281Y-192571242D01*
X273485281Y-192571242D02*
X273556710Y-192856957D01*
X273556710Y-192856957D02*
X273556710Y-193214100D01*
X273556710Y-193214100D02*
X273485281Y-193499814D01*
X273485281Y-193499814D02*
X273413853Y-193642671D01*
X273413853Y-193642671D02*
X273342424Y-193714100D01*
X273342424Y-193714100D02*
X273199567Y-193785528D01*
X273199567Y-193785528D02*
X273056710Y-193785528D01*
X273056710Y-193785528D02*
X272913853Y-193714100D01*
X272913853Y-193714100D02*
X272842424Y-193642671D01*
X272842424Y-193642671D02*
X272770995Y-193499814D01*
X272770995Y-193499814D02*
X272699567Y-193214100D01*
X272699567Y-193214100D02*
X272699567Y-192856957D01*
X272699567Y-192856957D02*
X272770995Y-192571242D01*
X272770995Y-192571242D02*
X272842424Y-192428385D01*
X272842424Y-192428385D02*
X272913853Y-192356957D01*
X272913853Y-192356957D02*
X273056710Y-192285528D01*
D10*
X178386598Y-193721900D02*
X178600884Y-193793328D01*
X178600884Y-193793328D02*
X178958026Y-193793328D01*
X178958026Y-193793328D02*
X179100884Y-193721900D01*
X179100884Y-193721900D02*
X179172312Y-193650471D01*
X179172312Y-193650471D02*
X179243741Y-193507614D01*
X179243741Y-193507614D02*
X179243741Y-193364757D01*
X179243741Y-193364757D02*
X179172312Y-193221900D01*
X179172312Y-193221900D02*
X179100884Y-193150471D01*
X179100884Y-193150471D02*
X178958026Y-193079042D01*
X178958026Y-193079042D02*
X178672312Y-193007614D01*
X178672312Y-193007614D02*
X178529455Y-192936185D01*
X178529455Y-192936185D02*
X178458026Y-192864757D01*
X178458026Y-192864757D02*
X178386598Y-192721900D01*
X178386598Y-192721900D02*
X178386598Y-192579042D01*
X178386598Y-192579042D02*
X178458026Y-192436185D01*
X178458026Y-192436185D02*
X178529455Y-192364757D01*
X178529455Y-192364757D02*
X178672312Y-192293328D01*
X178672312Y-192293328D02*
X179029455Y-192293328D01*
X179029455Y-192293328D02*
X179243741Y-192364757D01*
X179886597Y-193793328D02*
X179886597Y-192793328D01*
X179886597Y-192293328D02*
X179815169Y-192364757D01*
X179815169Y-192364757D02*
X179886597Y-192436185D01*
X179886597Y-192436185D02*
X179958026Y-192364757D01*
X179958026Y-192364757D02*
X179886597Y-192293328D01*
X179886597Y-192293328D02*
X179886597Y-192436185D01*
X180458026Y-192793328D02*
X181243741Y-192793328D01*
X181243741Y-192793328D02*
X180458026Y-193793328D01*
X180458026Y-193793328D02*
X181243741Y-193793328D01*
X182386598Y-193721900D02*
X182243741Y-193793328D01*
X182243741Y-193793328D02*
X181958027Y-193793328D01*
X181958027Y-193793328D02*
X181815169Y-193721900D01*
X181815169Y-193721900D02*
X181743741Y-193579042D01*
X181743741Y-193579042D02*
X181743741Y-193007614D01*
X181743741Y-193007614D02*
X181815169Y-192864757D01*
X181815169Y-192864757D02*
X181958027Y-192793328D01*
X181958027Y-192793328D02*
X182243741Y-192793328D01*
X182243741Y-192793328D02*
X182386598Y-192864757D01*
X182386598Y-192864757D02*
X182458027Y-193007614D01*
X182458027Y-193007614D02*
X182458027Y-193150471D01*
X182458027Y-193150471D02*
X181743741Y-193293328D01*
X183100883Y-193650471D02*
X183172312Y-193721900D01*
X183172312Y-193721900D02*
X183100883Y-193793328D01*
X183100883Y-193793328D02*
X183029455Y-193721900D01*
X183029455Y-193721900D02*
X183100883Y-193650471D01*
X183100883Y-193650471D02*
X183100883Y-193793328D01*
X183100883Y-192864757D02*
X183172312Y-192936185D01*
X183172312Y-192936185D02*
X183100883Y-193007614D01*
X183100883Y-193007614D02*
X183029455Y-192936185D01*
X183029455Y-192936185D02*
X183100883Y-192864757D01*
X183100883Y-192864757D02*
X183100883Y-193007614D01*
X184886598Y-193364757D02*
X185600884Y-193364757D01*
X184743741Y-193793328D02*
X185243741Y-192293328D01*
X185243741Y-192293328D02*
X185743741Y-193793328D01*
X186886598Y-192793328D02*
X186886598Y-193793328D01*
X186529455Y-192221900D02*
X186172312Y-193293328D01*
X186172312Y-193293328D02*
X187100883Y-193293328D01*
X263458026Y-196593328D02*
X263458026Y-195093328D01*
X264815170Y-196593328D02*
X264815170Y-195093328D01*
X264815170Y-196521900D02*
X264672312Y-196593328D01*
X264672312Y-196593328D02*
X264386598Y-196593328D01*
X264386598Y-196593328D02*
X264243741Y-196521900D01*
X264243741Y-196521900D02*
X264172312Y-196450471D01*
X264172312Y-196450471D02*
X264100884Y-196307614D01*
X264100884Y-196307614D02*
X264100884Y-195879042D01*
X264100884Y-195879042D02*
X264172312Y-195736185D01*
X264172312Y-195736185D02*
X264243741Y-195664757D01*
X264243741Y-195664757D02*
X264386598Y-195593328D01*
X264386598Y-195593328D02*
X264672312Y-195593328D01*
X264672312Y-195593328D02*
X264815170Y-195664757D01*
X265529455Y-196450471D02*
X265600884Y-196521900D01*
X265600884Y-196521900D02*
X265529455Y-196593328D01*
X265529455Y-196593328D02*
X265458027Y-196521900D01*
X265458027Y-196521900D02*
X265529455Y-196450471D01*
X265529455Y-196450471D02*
X265529455Y-196593328D01*
X265529455Y-195664757D02*
X265600884Y-195736185D01*
X265600884Y-195736185D02*
X265529455Y-195807614D01*
X265529455Y-195807614D02*
X265458027Y-195736185D01*
X265458027Y-195736185D02*
X265529455Y-195664757D01*
X265529455Y-195664757D02*
X265529455Y-195807614D01*
X268172313Y-196593328D02*
X267315170Y-196593328D01*
X267743741Y-196593328D02*
X267743741Y-195093328D01*
X267743741Y-195093328D02*
X267600884Y-195307614D01*
X267600884Y-195307614D02*
X267458027Y-195450471D01*
X267458027Y-195450471D02*
X267315170Y-195521900D01*
X269029455Y-195736185D02*
X268886598Y-195664757D01*
X268886598Y-195664757D02*
X268815169Y-195593328D01*
X268815169Y-195593328D02*
X268743741Y-195450471D01*
X268743741Y-195450471D02*
X268743741Y-195379042D01*
X268743741Y-195379042D02*
X268815169Y-195236185D01*
X268815169Y-195236185D02*
X268886598Y-195164757D01*
X268886598Y-195164757D02*
X269029455Y-195093328D01*
X269029455Y-195093328D02*
X269315169Y-195093328D01*
X269315169Y-195093328D02*
X269458027Y-195164757D01*
X269458027Y-195164757D02*
X269529455Y-195236185D01*
X269529455Y-195236185D02*
X269600884Y-195379042D01*
X269600884Y-195379042D02*
X269600884Y-195450471D01*
X269600884Y-195450471D02*
X269529455Y-195593328D01*
X269529455Y-195593328D02*
X269458027Y-195664757D01*
X269458027Y-195664757D02*
X269315169Y-195736185D01*
X269315169Y-195736185D02*
X269029455Y-195736185D01*
X269029455Y-195736185D02*
X268886598Y-195807614D01*
X268886598Y-195807614D02*
X268815169Y-195879042D01*
X268815169Y-195879042D02*
X268743741Y-196021900D01*
X268743741Y-196021900D02*
X268743741Y-196307614D01*
X268743741Y-196307614D02*
X268815169Y-196450471D01*
X268815169Y-196450471D02*
X268886598Y-196521900D01*
X268886598Y-196521900D02*
X269029455Y-196593328D01*
X269029455Y-196593328D02*
X269315169Y-196593328D01*
X269315169Y-196593328D02*
X269458027Y-196521900D01*
X269458027Y-196521900D02*
X269529455Y-196450471D01*
X269529455Y-196450471D02*
X269600884Y-196307614D01*
X269600884Y-196307614D02*
X269600884Y-196021900D01*
X269600884Y-196021900D02*
X269529455Y-195879042D01*
X269529455Y-195879042D02*
X269458027Y-195807614D01*
X269458027Y-195807614D02*
X269315169Y-195736185D01*
X271315169Y-195021900D02*
X270029455Y-196950471D01*
X272600884Y-196593328D02*
X271743741Y-196593328D01*
X272172312Y-196593328D02*
X272172312Y-195093328D01*
X272172312Y-195093328D02*
X272029455Y-195307614D01*
X272029455Y-195307614D02*
X271886598Y-195450471D01*
X271886598Y-195450471D02*
X271743741Y-195521900D01*
X273315169Y-196593328D02*
X273600883Y-196593328D01*
X273600883Y-196593328D02*
X273743740Y-196521900D01*
X273743740Y-196521900D02*
X273815169Y-196450471D01*
X273815169Y-196450471D02*
X273958026Y-196236185D01*
X273958026Y-196236185D02*
X274029455Y-195950471D01*
X274029455Y-195950471D02*
X274029455Y-195379042D01*
X274029455Y-195379042D02*
X273958026Y-195236185D01*
X273958026Y-195236185D02*
X273886598Y-195164757D01*
X273886598Y-195164757D02*
X273743740Y-195093328D01*
X273743740Y-195093328D02*
X273458026Y-195093328D01*
X273458026Y-195093328D02*
X273315169Y-195164757D01*
X273315169Y-195164757D02*
X273243740Y-195236185D01*
X273243740Y-195236185D02*
X273172312Y-195379042D01*
X273172312Y-195379042D02*
X273172312Y-195736185D01*
X273172312Y-195736185D02*
X273243740Y-195879042D01*
X273243740Y-195879042D02*
X273315169Y-195950471D01*
X273315169Y-195950471D02*
X273458026Y-196021900D01*
X273458026Y-196021900D02*
X273743740Y-196021900D01*
X273743740Y-196021900D02*
X273886598Y-195950471D01*
X273886598Y-195950471D02*
X273958026Y-195879042D01*
X273958026Y-195879042D02*
X274029455Y-195736185D01*
X177002200Y-187507200D02*
X285002200Y-187507200D01*
D12*
X178693928Y-188211638D02*
X179836785Y-188211638D01*
X179015357Y-190211638D02*
X179265357Y-188211638D01*
X180253452Y-190211638D02*
X180420119Y-188878304D01*
X180503452Y-188211638D02*
X180396309Y-188306876D01*
X180396309Y-188306876D02*
X180479643Y-188402114D01*
X180479643Y-188402114D02*
X180586786Y-188306876D01*
X180586786Y-188306876D02*
X180503452Y-188211638D01*
X180503452Y-188211638D02*
X180479643Y-188402114D01*
X181086786Y-188878304D02*
X181848690Y-188878304D01*
X181455833Y-188211638D02*
X181241548Y-189925923D01*
X181241548Y-189925923D02*
X181312976Y-190116400D01*
X181312976Y-190116400D02*
X181491548Y-190211638D01*
X181491548Y-190211638D02*
X181682024Y-190211638D01*
X182634405Y-190211638D02*
X182455833Y-190116400D01*
X182455833Y-190116400D02*
X182384405Y-189925923D01*
X182384405Y-189925923D02*
X182598690Y-188211638D01*
X184170119Y-190116400D02*
X183967738Y-190211638D01*
X183967738Y-190211638D02*
X183586785Y-190211638D01*
X183586785Y-190211638D02*
X183408214Y-190116400D01*
X183408214Y-190116400D02*
X183336785Y-189925923D01*
X183336785Y-189925923D02*
X183432024Y-189164019D01*
X183432024Y-189164019D02*
X183551071Y-188973542D01*
X183551071Y-188973542D02*
X183753452Y-188878304D01*
X183753452Y-188878304D02*
X184134404Y-188878304D01*
X184134404Y-188878304D02*
X184312976Y-188973542D01*
X184312976Y-188973542D02*
X184384404Y-189164019D01*
X184384404Y-189164019D02*
X184360595Y-189354495D01*
X184360595Y-189354495D02*
X183384404Y-189544971D01*
X185134405Y-190021161D02*
X185217738Y-190116400D01*
X185217738Y-190116400D02*
X185110595Y-190211638D01*
X185110595Y-190211638D02*
X185027262Y-190116400D01*
X185027262Y-190116400D02*
X185134405Y-190021161D01*
X185134405Y-190021161D02*
X185110595Y-190211638D01*
X185265357Y-188973542D02*
X185348690Y-189068780D01*
X185348690Y-189068780D02*
X185241548Y-189164019D01*
X185241548Y-189164019D02*
X185158214Y-189068780D01*
X185158214Y-189068780D02*
X185265357Y-188973542D01*
X185265357Y-188973542D02*
X185241548Y-189164019D01*
X188384405Y-189164019D02*
X188658215Y-189259257D01*
X188658215Y-189259257D02*
X188741548Y-189354495D01*
X188741548Y-189354495D02*
X188812977Y-189544971D01*
X188812977Y-189544971D02*
X188777262Y-189830685D01*
X188777262Y-189830685D02*
X188658215Y-190021161D01*
X188658215Y-190021161D02*
X188551072Y-190116400D01*
X188551072Y-190116400D02*
X188348691Y-190211638D01*
X188348691Y-190211638D02*
X187586786Y-190211638D01*
X187586786Y-190211638D02*
X187836786Y-188211638D01*
X187836786Y-188211638D02*
X188503453Y-188211638D01*
X188503453Y-188211638D02*
X188682024Y-188306876D01*
X188682024Y-188306876D02*
X188765358Y-188402114D01*
X188765358Y-188402114D02*
X188836786Y-188592590D01*
X188836786Y-188592590D02*
X188812977Y-188783066D01*
X188812977Y-188783066D02*
X188693929Y-188973542D01*
X188693929Y-188973542D02*
X188586786Y-189068780D01*
X188586786Y-189068780D02*
X188384405Y-189164019D01*
X188384405Y-189164019D02*
X187717739Y-189164019D01*
X190539167Y-190211638D02*
X189586786Y-190211638D01*
X189586786Y-190211638D02*
X189836786Y-188211638D01*
X191205834Y-190211638D02*
X191455834Y-188211638D01*
X191455834Y-188211638D02*
X191932025Y-188211638D01*
X191932025Y-188211638D02*
X192205834Y-188306876D01*
X192205834Y-188306876D02*
X192372501Y-188497352D01*
X192372501Y-188497352D02*
X192443929Y-188687828D01*
X192443929Y-188687828D02*
X192491549Y-189068780D01*
X192491549Y-189068780D02*
X192455834Y-189354495D01*
X192455834Y-189354495D02*
X192312977Y-189735447D01*
X192312977Y-189735447D02*
X192193929Y-189925923D01*
X192193929Y-189925923D02*
X191979644Y-190116400D01*
X191979644Y-190116400D02*
X191682025Y-190211638D01*
X191682025Y-190211638D02*
X191205834Y-190211638D01*
X194372501Y-190021161D02*
X194265358Y-190116400D01*
X194265358Y-190116400D02*
X193967739Y-190211638D01*
X193967739Y-190211638D02*
X193777263Y-190211638D01*
X193777263Y-190211638D02*
X193503453Y-190116400D01*
X193503453Y-190116400D02*
X193336787Y-189925923D01*
X193336787Y-189925923D02*
X193265358Y-189735447D01*
X193265358Y-189735447D02*
X193217739Y-189354495D01*
X193217739Y-189354495D02*
X193253453Y-189068780D01*
X193253453Y-189068780D02*
X193396310Y-188687828D01*
X193396310Y-188687828D02*
X193515358Y-188497352D01*
X193515358Y-188497352D02*
X193729644Y-188306876D01*
X193729644Y-188306876D02*
X194027263Y-188211638D01*
X194027263Y-188211638D02*
X194217739Y-188211638D01*
X194217739Y-188211638D02*
X194491549Y-188306876D01*
X194491549Y-188306876D02*
X194574882Y-188402114D01*
X194705834Y-190402114D02*
X196229644Y-190402114D01*
X196729644Y-190211638D02*
X196979644Y-188211638D01*
X196979644Y-188211638D02*
X197467739Y-189640209D01*
X197467739Y-189640209D02*
X198312978Y-188211638D01*
X198312978Y-188211638D02*
X198062978Y-190211638D01*
X200182025Y-190021161D02*
X200074882Y-190116400D01*
X200074882Y-190116400D02*
X199777263Y-190211638D01*
X199777263Y-190211638D02*
X199586787Y-190211638D01*
X199586787Y-190211638D02*
X199312977Y-190116400D01*
X199312977Y-190116400D02*
X199146311Y-189925923D01*
X199146311Y-189925923D02*
X199074882Y-189735447D01*
X199074882Y-189735447D02*
X199027263Y-189354495D01*
X199027263Y-189354495D02*
X199062977Y-189068780D01*
X199062977Y-189068780D02*
X199205834Y-188687828D01*
X199205834Y-188687828D02*
X199324882Y-188497352D01*
X199324882Y-188497352D02*
X199539168Y-188306876D01*
X199539168Y-188306876D02*
X199836787Y-188211638D01*
X199836787Y-188211638D02*
X200027263Y-188211638D01*
X200027263Y-188211638D02*
X200301073Y-188306876D01*
X200301073Y-188306876D02*
X200384406Y-188402114D01*
D10*
X178958026Y-185607614D02*
X178458026Y-185607614D01*
X178458026Y-186393328D02*
X178458026Y-184893328D01*
X178458026Y-184893328D02*
X179172312Y-184893328D01*
X179743740Y-186393328D02*
X179743740Y-185393328D01*
X179743740Y-184893328D02*
X179672312Y-184964757D01*
X179672312Y-184964757D02*
X179743740Y-185036185D01*
X179743740Y-185036185D02*
X179815169Y-184964757D01*
X179815169Y-184964757D02*
X179743740Y-184893328D01*
X179743740Y-184893328D02*
X179743740Y-185036185D01*
X180672312Y-186393328D02*
X180529455Y-186321900D01*
X180529455Y-186321900D02*
X180458026Y-186179042D01*
X180458026Y-186179042D02*
X180458026Y-184893328D01*
X181815169Y-186321900D02*
X181672312Y-186393328D01*
X181672312Y-186393328D02*
X181386598Y-186393328D01*
X181386598Y-186393328D02*
X181243740Y-186321900D01*
X181243740Y-186321900D02*
X181172312Y-186179042D01*
X181172312Y-186179042D02*
X181172312Y-185607614D01*
X181172312Y-185607614D02*
X181243740Y-185464757D01*
X181243740Y-185464757D02*
X181386598Y-185393328D01*
X181386598Y-185393328D02*
X181672312Y-185393328D01*
X181672312Y-185393328D02*
X181815169Y-185464757D01*
X181815169Y-185464757D02*
X181886598Y-185607614D01*
X181886598Y-185607614D02*
X181886598Y-185750471D01*
X181886598Y-185750471D02*
X181172312Y-185893328D01*
X182529454Y-186250471D02*
X182600883Y-186321900D01*
X182600883Y-186321900D02*
X182529454Y-186393328D01*
X182529454Y-186393328D02*
X182458026Y-186321900D01*
X182458026Y-186321900D02*
X182529454Y-186250471D01*
X182529454Y-186250471D02*
X182529454Y-186393328D01*
X182529454Y-185464757D02*
X182600883Y-185536185D01*
X182600883Y-185536185D02*
X182529454Y-185607614D01*
X182529454Y-185607614D02*
X182458026Y-185536185D01*
X182458026Y-185536185D02*
X182529454Y-185464757D01*
X182529454Y-185464757D02*
X182529454Y-185607614D01*
X184886597Y-185607614D02*
X185100883Y-185679042D01*
X185100883Y-185679042D02*
X185172312Y-185750471D01*
X185172312Y-185750471D02*
X185243740Y-185893328D01*
X185243740Y-185893328D02*
X185243740Y-186107614D01*
X185243740Y-186107614D02*
X185172312Y-186250471D01*
X185172312Y-186250471D02*
X185100883Y-186321900D01*
X185100883Y-186321900D02*
X184958026Y-186393328D01*
X184958026Y-186393328D02*
X184386597Y-186393328D01*
X184386597Y-186393328D02*
X184386597Y-184893328D01*
X184386597Y-184893328D02*
X184886597Y-184893328D01*
X184886597Y-184893328D02*
X185029455Y-184964757D01*
X185029455Y-184964757D02*
X185100883Y-185036185D01*
X185100883Y-185036185D02*
X185172312Y-185179042D01*
X185172312Y-185179042D02*
X185172312Y-185321900D01*
X185172312Y-185321900D02*
X185100883Y-185464757D01*
X185100883Y-185464757D02*
X185029455Y-185536185D01*
X185029455Y-185536185D02*
X184886597Y-185607614D01*
X184886597Y-185607614D02*
X184386597Y-185607614D01*
X186600883Y-186393328D02*
X185886597Y-186393328D01*
X185886597Y-186393328D02*
X185886597Y-184893328D01*
X187100883Y-186393328D02*
X187100883Y-184893328D01*
X187100883Y-184893328D02*
X187458026Y-184893328D01*
X187458026Y-184893328D02*
X187672312Y-184964757D01*
X187672312Y-184964757D02*
X187815169Y-185107614D01*
X187815169Y-185107614D02*
X187886598Y-185250471D01*
X187886598Y-185250471D02*
X187958026Y-185536185D01*
X187958026Y-185536185D02*
X187958026Y-185750471D01*
X187958026Y-185750471D02*
X187886598Y-186036185D01*
X187886598Y-186036185D02*
X187815169Y-186179042D01*
X187815169Y-186179042D02*
X187672312Y-186321900D01*
X187672312Y-186321900D02*
X187458026Y-186393328D01*
X187458026Y-186393328D02*
X187100883Y-186393328D01*
X189458026Y-186250471D02*
X189386598Y-186321900D01*
X189386598Y-186321900D02*
X189172312Y-186393328D01*
X189172312Y-186393328D02*
X189029455Y-186393328D01*
X189029455Y-186393328D02*
X188815169Y-186321900D01*
X188815169Y-186321900D02*
X188672312Y-186179042D01*
X188672312Y-186179042D02*
X188600883Y-186036185D01*
X188600883Y-186036185D02*
X188529455Y-185750471D01*
X188529455Y-185750471D02*
X188529455Y-185536185D01*
X188529455Y-185536185D02*
X188600883Y-185250471D01*
X188600883Y-185250471D02*
X188672312Y-185107614D01*
X188672312Y-185107614D02*
X188815169Y-184964757D01*
X188815169Y-184964757D02*
X189029455Y-184893328D01*
X189029455Y-184893328D02*
X189172312Y-184893328D01*
X189172312Y-184893328D02*
X189386598Y-184964757D01*
X189386598Y-184964757D02*
X189458026Y-185036185D01*
X189743741Y-186536185D02*
X190886598Y-186536185D01*
X191243740Y-186393328D02*
X191243740Y-184893328D01*
X191243740Y-184893328D02*
X191743740Y-185964757D01*
X191743740Y-185964757D02*
X192243740Y-184893328D01*
X192243740Y-184893328D02*
X192243740Y-186393328D01*
X193815169Y-186250471D02*
X193743741Y-186321900D01*
X193743741Y-186321900D02*
X193529455Y-186393328D01*
X193529455Y-186393328D02*
X193386598Y-186393328D01*
X193386598Y-186393328D02*
X193172312Y-186321900D01*
X193172312Y-186321900D02*
X193029455Y-186179042D01*
X193029455Y-186179042D02*
X192958026Y-186036185D01*
X192958026Y-186036185D02*
X192886598Y-185750471D01*
X192886598Y-185750471D02*
X192886598Y-185536185D01*
X192886598Y-185536185D02*
X192958026Y-185250471D01*
X192958026Y-185250471D02*
X193029455Y-185107614D01*
X193029455Y-185107614D02*
X193172312Y-184964757D01*
X193172312Y-184964757D02*
X193386598Y-184893328D01*
X193386598Y-184893328D02*
X193529455Y-184893328D01*
X193529455Y-184893328D02*
X193743741Y-184964757D01*
X193743741Y-184964757D02*
X193815169Y-185036185D01*
X194100884Y-186536185D02*
X195243741Y-186536185D01*
X195386598Y-184893328D02*
X195886598Y-186393328D01*
X195886598Y-186393328D02*
X196386598Y-184893328D01*
X197672312Y-186393328D02*
X196815169Y-186393328D01*
X197243740Y-186393328D02*
X197243740Y-184893328D01*
X197243740Y-184893328D02*
X197100883Y-185107614D01*
X197100883Y-185107614D02*
X196958026Y-185250471D01*
X196958026Y-185250471D02*
X196815169Y-185321900D01*
X198315168Y-186250471D02*
X198386597Y-186321900D01*
X198386597Y-186321900D02*
X198315168Y-186393328D01*
X198315168Y-186393328D02*
X198243740Y-186321900D01*
X198243740Y-186321900D02*
X198315168Y-186250471D01*
X198315168Y-186250471D02*
X198315168Y-186393328D01*
X199315169Y-184893328D02*
X199458026Y-184893328D01*
X199458026Y-184893328D02*
X199600883Y-184964757D01*
X199600883Y-184964757D02*
X199672312Y-185036185D01*
X199672312Y-185036185D02*
X199743740Y-185179042D01*
X199743740Y-185179042D02*
X199815169Y-185464757D01*
X199815169Y-185464757D02*
X199815169Y-185821900D01*
X199815169Y-185821900D02*
X199743740Y-186107614D01*
X199743740Y-186107614D02*
X199672312Y-186250471D01*
X199672312Y-186250471D02*
X199600883Y-186321900D01*
X199600883Y-186321900D02*
X199458026Y-186393328D01*
X199458026Y-186393328D02*
X199315169Y-186393328D01*
X199315169Y-186393328D02*
X199172312Y-186321900D01*
X199172312Y-186321900D02*
X199100883Y-186250471D01*
X199100883Y-186250471D02*
X199029454Y-186107614D01*
X199029454Y-186107614D02*
X198958026Y-185821900D01*
X198958026Y-185821900D02*
X198958026Y-185464757D01*
X198958026Y-185464757D02*
X199029454Y-185179042D01*
X199029454Y-185179042D02*
X199100883Y-185036185D01*
X199100883Y-185036185D02*
X199172312Y-184964757D01*
X199172312Y-184964757D02*
X199315169Y-184893328D01*
X200458025Y-186250471D02*
X200529454Y-186321900D01*
X200529454Y-186321900D02*
X200458025Y-186393328D01*
X200458025Y-186393328D02*
X200386597Y-186321900D01*
X200386597Y-186321900D02*
X200458025Y-186250471D01*
X200458025Y-186250471D02*
X200458025Y-186393328D01*
X201172311Y-186393328D02*
X201172311Y-184893328D01*
X201315169Y-185821900D02*
X201743740Y-186393328D01*
X201743740Y-185393328D02*
X201172311Y-185964757D01*
X202386597Y-186393328D02*
X202386597Y-185393328D01*
X202386597Y-184893328D02*
X202315169Y-184964757D01*
X202315169Y-184964757D02*
X202386597Y-185036185D01*
X202386597Y-185036185D02*
X202458026Y-184964757D01*
X202458026Y-184964757D02*
X202386597Y-184893328D01*
X202386597Y-184893328D02*
X202386597Y-185036185D01*
X203743741Y-186321900D02*
X203600883Y-186393328D01*
X203600883Y-186393328D02*
X203315169Y-186393328D01*
X203315169Y-186393328D02*
X203172312Y-186321900D01*
X203172312Y-186321900D02*
X203100883Y-186250471D01*
X203100883Y-186250471D02*
X203029455Y-186107614D01*
X203029455Y-186107614D02*
X203029455Y-185679042D01*
X203029455Y-185679042D02*
X203100883Y-185536185D01*
X203100883Y-185536185D02*
X203172312Y-185464757D01*
X203172312Y-185464757D02*
X203315169Y-185393328D01*
X203315169Y-185393328D02*
X203600883Y-185393328D01*
X203600883Y-185393328D02*
X203743741Y-185464757D01*
X205029455Y-186393328D02*
X205029455Y-185607614D01*
X205029455Y-185607614D02*
X204958026Y-185464757D01*
X204958026Y-185464757D02*
X204815169Y-185393328D01*
X204815169Y-185393328D02*
X204529455Y-185393328D01*
X204529455Y-185393328D02*
X204386597Y-185464757D01*
X205029455Y-186321900D02*
X204886597Y-186393328D01*
X204886597Y-186393328D02*
X204529455Y-186393328D01*
X204529455Y-186393328D02*
X204386597Y-186321900D01*
X204386597Y-186321900D02*
X204315169Y-186179042D01*
X204315169Y-186179042D02*
X204315169Y-186036185D01*
X204315169Y-186036185D02*
X204386597Y-185893328D01*
X204386597Y-185893328D02*
X204529455Y-185821900D01*
X204529455Y-185821900D02*
X204886597Y-185821900D01*
X204886597Y-185821900D02*
X205029455Y-185750471D01*
X206386598Y-186393328D02*
X206386598Y-184893328D01*
X206386598Y-186321900D02*
X206243740Y-186393328D01*
X206243740Y-186393328D02*
X205958026Y-186393328D01*
X205958026Y-186393328D02*
X205815169Y-186321900D01*
X205815169Y-186321900D02*
X205743740Y-186250471D01*
X205743740Y-186250471D02*
X205672312Y-186107614D01*
X205672312Y-186107614D02*
X205672312Y-185679042D01*
X205672312Y-185679042D02*
X205743740Y-185536185D01*
X205743740Y-185536185D02*
X205815169Y-185464757D01*
X205815169Y-185464757D02*
X205958026Y-185393328D01*
X205958026Y-185393328D02*
X206243740Y-185393328D01*
X206243740Y-185393328D02*
X206386598Y-185464757D01*
X206743741Y-186536185D02*
X207886598Y-186536185D01*
X208243740Y-185393328D02*
X208243740Y-186893328D01*
X208243740Y-185464757D02*
X208386598Y-185393328D01*
X208386598Y-185393328D02*
X208672312Y-185393328D01*
X208672312Y-185393328D02*
X208815169Y-185464757D01*
X208815169Y-185464757D02*
X208886598Y-185536185D01*
X208886598Y-185536185D02*
X208958026Y-185679042D01*
X208958026Y-185679042D02*
X208958026Y-186107614D01*
X208958026Y-186107614D02*
X208886598Y-186250471D01*
X208886598Y-186250471D02*
X208815169Y-186321900D01*
X208815169Y-186321900D02*
X208672312Y-186393328D01*
X208672312Y-186393328D02*
X208386598Y-186393328D01*
X208386598Y-186393328D02*
X208243740Y-186321900D01*
X210243741Y-186321900D02*
X210100883Y-186393328D01*
X210100883Y-186393328D02*
X209815169Y-186393328D01*
X209815169Y-186393328D02*
X209672312Y-186321900D01*
X209672312Y-186321900D02*
X209600883Y-186250471D01*
X209600883Y-186250471D02*
X209529455Y-186107614D01*
X209529455Y-186107614D02*
X209529455Y-185679042D01*
X209529455Y-185679042D02*
X209600883Y-185536185D01*
X209600883Y-185536185D02*
X209672312Y-185464757D01*
X209672312Y-185464757D02*
X209815169Y-185393328D01*
X209815169Y-185393328D02*
X210100883Y-185393328D01*
X210100883Y-185393328D02*
X210243741Y-185464757D01*
X210886597Y-186393328D02*
X210886597Y-184893328D01*
X210886597Y-185464757D02*
X211029455Y-185393328D01*
X211029455Y-185393328D02*
X211315169Y-185393328D01*
X211315169Y-185393328D02*
X211458026Y-185464757D01*
X211458026Y-185464757D02*
X211529455Y-185536185D01*
X211529455Y-185536185D02*
X211600883Y-185679042D01*
X211600883Y-185679042D02*
X211600883Y-186107614D01*
X211600883Y-186107614D02*
X211529455Y-186250471D01*
X211529455Y-186250471D02*
X211458026Y-186321900D01*
X211458026Y-186321900D02*
X211315169Y-186393328D01*
X211315169Y-186393328D02*
X211029455Y-186393328D01*
X211029455Y-186393328D02*
X210886597Y-186321900D01*
X177002200Y-181507200D02*
X285002200Y-181507200D01*
X178386598Y-183621900D02*
X178600884Y-183693328D01*
X178600884Y-183693328D02*
X178958026Y-183693328D01*
X178958026Y-183693328D02*
X179100884Y-183621900D01*
X179100884Y-183621900D02*
X179172312Y-183550471D01*
X179172312Y-183550471D02*
X179243741Y-183407614D01*
X179243741Y-183407614D02*
X179243741Y-183264757D01*
X179243741Y-183264757D02*
X179172312Y-183121900D01*
X179172312Y-183121900D02*
X179100884Y-183050471D01*
X179100884Y-183050471D02*
X178958026Y-182979042D01*
X178958026Y-182979042D02*
X178672312Y-182907614D01*
X178672312Y-182907614D02*
X178529455Y-182836185D01*
X178529455Y-182836185D02*
X178458026Y-182764757D01*
X178458026Y-182764757D02*
X178386598Y-182621900D01*
X178386598Y-182621900D02*
X178386598Y-182479042D01*
X178386598Y-182479042D02*
X178458026Y-182336185D01*
X178458026Y-182336185D02*
X178529455Y-182264757D01*
X178529455Y-182264757D02*
X178672312Y-182193328D01*
X178672312Y-182193328D02*
X179029455Y-182193328D01*
X179029455Y-182193328D02*
X179243741Y-182264757D01*
X179886597Y-183693328D02*
X179886597Y-182193328D01*
X180529455Y-183693328D02*
X180529455Y-182907614D01*
X180529455Y-182907614D02*
X180458026Y-182764757D01*
X180458026Y-182764757D02*
X180315169Y-182693328D01*
X180315169Y-182693328D02*
X180100883Y-182693328D01*
X180100883Y-182693328D02*
X179958026Y-182764757D01*
X179958026Y-182764757D02*
X179886597Y-182836185D01*
X181815169Y-183621900D02*
X181672312Y-183693328D01*
X181672312Y-183693328D02*
X181386598Y-183693328D01*
X181386598Y-183693328D02*
X181243740Y-183621900D01*
X181243740Y-183621900D02*
X181172312Y-183479042D01*
X181172312Y-183479042D02*
X181172312Y-182907614D01*
X181172312Y-182907614D02*
X181243740Y-182764757D01*
X181243740Y-182764757D02*
X181386598Y-182693328D01*
X181386598Y-182693328D02*
X181672312Y-182693328D01*
X181672312Y-182693328D02*
X181815169Y-182764757D01*
X181815169Y-182764757D02*
X181886598Y-182907614D01*
X181886598Y-182907614D02*
X181886598Y-183050471D01*
X181886598Y-183050471D02*
X181172312Y-183193328D01*
X183100883Y-183621900D02*
X182958026Y-183693328D01*
X182958026Y-183693328D02*
X182672312Y-183693328D01*
X182672312Y-183693328D02*
X182529454Y-183621900D01*
X182529454Y-183621900D02*
X182458026Y-183479042D01*
X182458026Y-183479042D02*
X182458026Y-182907614D01*
X182458026Y-182907614D02*
X182529454Y-182764757D01*
X182529454Y-182764757D02*
X182672312Y-182693328D01*
X182672312Y-182693328D02*
X182958026Y-182693328D01*
X182958026Y-182693328D02*
X183100883Y-182764757D01*
X183100883Y-182764757D02*
X183172312Y-182907614D01*
X183172312Y-182907614D02*
X183172312Y-183050471D01*
X183172312Y-183050471D02*
X182458026Y-183193328D01*
X183600883Y-182693328D02*
X184172311Y-182693328D01*
X183815168Y-182193328D02*
X183815168Y-183479042D01*
X183815168Y-183479042D02*
X183886597Y-183621900D01*
X183886597Y-183621900D02*
X184029454Y-183693328D01*
X184029454Y-183693328D02*
X184172311Y-183693328D01*
X184672311Y-183550471D02*
X184743740Y-183621900D01*
X184743740Y-183621900D02*
X184672311Y-183693328D01*
X184672311Y-183693328D02*
X184600883Y-183621900D01*
X184600883Y-183621900D02*
X184672311Y-183550471D01*
X184672311Y-183550471D02*
X184672311Y-183693328D01*
X184672311Y-182764757D02*
X184743740Y-182836185D01*
X184743740Y-182836185D02*
X184672311Y-182907614D01*
X184672311Y-182907614D02*
X184600883Y-182836185D01*
X184600883Y-182836185D02*
X184672311Y-182764757D01*
X184672311Y-182764757D02*
X184672311Y-182907614D01*
X197002200Y-191507200D02*
X197002200Y-194507200D01*
X261002200Y-191507200D02*
X261002200Y-198007200D01*
%TO.C,J5*%
D13*
X148200000Y-19450000D02*
X148200000Y-33850000D01*
X148200000Y-33850000D02*
X156300000Y-33850000D01*
X156300000Y-19450000D02*
X148200000Y-19450000D01*
X156300000Y-33850000D02*
X156300000Y-19450000D01*
%TO.C,R44*%
X73819000Y-30864000D02*
X75279000Y-30864000D01*
X75279000Y-33824000D01*
X73819000Y-33824000D01*
X73819000Y-30864000D01*
%TO.C,CR3*%
D14*
X80844400Y-58089800D02*
X81648300Y-58089800D01*
X80844400Y-59004200D02*
X80844400Y-58089800D01*
X80844400Y-59004200D02*
X81648300Y-59004200D01*
X81648300Y-57619900D02*
X83959700Y-57619900D01*
X81648300Y-58089800D02*
X81648300Y-57619900D01*
X81648300Y-59474100D02*
X81648300Y-59004200D01*
X83959700Y-57619900D02*
X83959700Y-58089800D01*
X83959700Y-59004200D02*
X83959700Y-59474100D01*
X83959700Y-59474100D02*
X81648300Y-59474100D01*
X84763600Y-58089800D02*
X83959700Y-58089800D01*
X84763600Y-58089800D02*
X84763600Y-59004200D01*
X84763600Y-59004200D02*
X83959700Y-59004200D01*
%TO.C,C16*%
D13*
X71620000Y-22834000D02*
X74580000Y-22834000D01*
X74580000Y-24294000D01*
X71620000Y-24294000D01*
X71620000Y-22834000D01*
%TO.C,C41*%
X93569706Y-40626670D02*
X91476670Y-42719706D01*
X90444294Y-41687330D01*
X92537330Y-39594294D01*
X93569706Y-40626670D01*
%TO.C,R14*%
X71570000Y-16520000D02*
X73030000Y-16520000D01*
X73030000Y-19480000D01*
X71570000Y-19480000D01*
X71570000Y-16520000D01*
%TO.C,Q3*%
D14*
X108157575Y-17513300D02*
X108474425Y-17513300D01*
X108157575Y-22364700D02*
X108157575Y-17513300D01*
X108157575Y-22364700D02*
X108474425Y-22364700D01*
X108474425Y-17183100D02*
X114976825Y-17183100D01*
X108474425Y-17513300D02*
X108474425Y-17183100D01*
X108474425Y-22694900D02*
X108474425Y-22364700D01*
X114976825Y-17183100D02*
X114976825Y-17513300D01*
X114976825Y-22364700D02*
X114976825Y-22694900D01*
X114976825Y-22694900D02*
X108474425Y-22694900D01*
X115293675Y-17513300D02*
X114976825Y-17513300D01*
X115293675Y-17513300D02*
X115293675Y-22364700D01*
X115293675Y-22364700D02*
X114976825Y-22364700D01*
%TO.C,C11*%
D13*
X88524000Y-20298000D02*
X91924000Y-20298000D01*
X91924000Y-22258000D01*
X88524000Y-22258000D01*
X88524000Y-20298000D01*
%TO.C,J8*%
D14*
X36432300Y-37985700D02*
X36432300Y-50406300D01*
X36432300Y-50406300D02*
X46574900Y-50406300D01*
X46574900Y-37985700D02*
X36432300Y-37985700D01*
X46574900Y-50406300D02*
X46574900Y-37985700D01*
%TO.C,FB1*%
D13*
X59106000Y-32329000D02*
X62066000Y-32329000D01*
X62066000Y-33789000D01*
X59106000Y-33789000D01*
X59106000Y-32329000D01*
%TO.C,Q2*%
D14*
X108157575Y-34404300D02*
X108474425Y-34404300D01*
X108157575Y-39255700D02*
X108157575Y-34404300D01*
X108157575Y-39255700D02*
X108474425Y-39255700D01*
X108474425Y-34074100D02*
X114976825Y-34074100D01*
X108474425Y-34404300D02*
X108474425Y-34074100D01*
X108474425Y-39585900D02*
X108474425Y-39255700D01*
X114976825Y-34074100D02*
X114976825Y-34404300D01*
X114976825Y-39255700D02*
X114976825Y-39585900D01*
X114976825Y-39585900D02*
X108474425Y-39585900D01*
X115293675Y-34404300D02*
X114976825Y-34404300D01*
X115293675Y-34404300D02*
X115293675Y-39255700D01*
X115293675Y-39255700D02*
X114976825Y-39255700D01*
%TO.C,R76*%
D13*
X132436000Y-21000000D02*
X136296000Y-21000000D01*
X136296000Y-29000000D01*
X132436000Y-29000000D01*
X132436000Y-21000000D01*
%TO.C,R26*%
X82282000Y-34830000D02*
X85242000Y-34830000D01*
X85242000Y-36290000D01*
X82282000Y-36290000D01*
X82282000Y-34830000D01*
%TO.C,Q7*%
D14*
X53113200Y-16074300D02*
X53430050Y-16074300D01*
X53113200Y-20925700D02*
X53113200Y-16074300D01*
X53113200Y-20925700D02*
X53430050Y-20925700D01*
X53430050Y-15744100D02*
X59932450Y-15744100D01*
X53430050Y-16074300D02*
X53430050Y-15744100D01*
X53430050Y-21255900D02*
X53430050Y-20925700D01*
X59932450Y-15744100D02*
X59932450Y-16074300D01*
X59932450Y-20925700D02*
X59932450Y-21255900D01*
X59932450Y-21255900D02*
X53430050Y-21255900D01*
X60249300Y-16074300D02*
X59932450Y-16074300D01*
X60249300Y-16074300D02*
X60249300Y-20925700D01*
X60249300Y-20925700D02*
X59932450Y-20925700D01*
%TO.C,R78*%
D13*
X57772000Y-42778000D02*
X60732000Y-42778000D01*
X60732000Y-44238000D01*
X57772000Y-44238000D01*
X57772000Y-42778000D01*
%TO.C,R81*%
X69346001Y-30848000D02*
X70806001Y-30848000D01*
X70806001Y-33808000D01*
X69346001Y-33808000D01*
X69346001Y-30848000D01*
%TO.C,R11*%
X72971999Y-50620000D02*
X74431999Y-50620000D01*
X74431999Y-53580000D01*
X72971999Y-53580000D01*
X72971999Y-50620000D01*
%TO.C,C82*%
X126043000Y-26878000D02*
X130643000Y-26878000D01*
X130643000Y-29178000D01*
X126043000Y-29178000D01*
X126043000Y-26878000D01*
%TO.C,R25*%
X90292033Y-27393294D02*
X92385069Y-29486330D01*
X91352693Y-30518706D01*
X89259657Y-28425670D01*
X90292033Y-27393294D01*
%TO.C,R27*%
X87607706Y-34230330D02*
X86575330Y-35262706D01*
X84482294Y-33169670D01*
X85514670Y-32137294D01*
X87607706Y-34230330D01*
%TO.C,C25*%
X74576999Y-50609000D02*
X79176999Y-50609000D01*
X79176999Y-52909000D01*
X74576999Y-52909000D01*
X74576999Y-50609000D01*
%TO.C,C73*%
X66675000Y-29270000D02*
X68975000Y-29270000D01*
X68975000Y-33870000D01*
X66675000Y-33870000D01*
X66675000Y-29270000D01*
%TO.C,C12*%
X88549000Y-17942000D02*
X93169000Y-17942000D01*
X93169000Y-20042000D01*
X88549000Y-20042000D01*
X88549000Y-17942000D01*
%TO.C,Y1*%
X81269000Y-42316000D02*
X85369000Y-42316000D01*
X81269000Y-45716000D02*
X81269000Y-42316000D01*
X85369000Y-42316000D02*
X85369000Y-45716000D01*
X85369000Y-45716000D02*
X81269000Y-45716000D01*
%TO.C,R79*%
X57772000Y-44302000D02*
X60732000Y-44302000D01*
X60732000Y-45762000D01*
X57772000Y-45762000D01*
X57772000Y-44302000D01*
%TO.C,R40*%
X66044001Y-50731000D02*
X67504001Y-50731000D01*
X67504001Y-53691000D01*
X66044001Y-53691000D01*
X66044001Y-50731000D01*
%TO.C,C1*%
X79625000Y-42448000D02*
X81085000Y-42448000D01*
X81085000Y-45408000D01*
X79625000Y-45408000D01*
X79625000Y-42448000D01*
%TO.C,CR4*%
D14*
X80844400Y-62407800D02*
X81648300Y-62407800D01*
X80844400Y-63322200D02*
X80844400Y-62407800D01*
X80844400Y-63322200D02*
X81648300Y-63322200D01*
X81648300Y-61937900D02*
X83959700Y-61937900D01*
X81648300Y-62407800D02*
X81648300Y-61937900D01*
X81648300Y-63792100D02*
X81648300Y-63322200D01*
X83959700Y-61937900D02*
X83959700Y-62407800D01*
X83959700Y-63322200D02*
X83959700Y-63792100D01*
X83959700Y-63792100D02*
X81648300Y-63792100D01*
X84763600Y-62407800D02*
X83959700Y-62407800D01*
X84763600Y-62407800D02*
X84763600Y-63322200D01*
X84763600Y-63322200D02*
X83959700Y-63322200D01*
D13*
%TO.C,C44*%
X91137954Y-25906883D02*
X92523883Y-24520954D01*
X94928046Y-26925117D01*
X93542117Y-28311046D01*
X91137954Y-25906883D01*
%TO.C,C51*%
X84725001Y-48997000D02*
X87685001Y-48997000D01*
X87685001Y-50457000D01*
X84725001Y-50457000D01*
X84725001Y-48997000D01*
%TO.C,FB2*%
X87287294Y-42619670D02*
X88319670Y-41587294D01*
X90412706Y-43680330D01*
X89380330Y-44712706D01*
X87287294Y-42619670D01*
%TO.C,R33*%
X79729001Y-40638000D02*
X82689001Y-40638000D01*
X82689001Y-42098000D01*
X79729001Y-42098000D01*
X79729001Y-40638000D01*
%TO.C,U2*%
X80295000Y-22202500D02*
X80295000Y-16797500D01*
X87705000Y-16797500D02*
X80295000Y-16797500D01*
X87705000Y-22202500D02*
X80295000Y-22202500D01*
X87705000Y-22202500D02*
X87705000Y-16797500D01*
%TO.C,C76*%
X72549000Y-59861000D02*
X74009000Y-59861000D01*
X74009000Y-62821000D01*
X72549000Y-62821000D01*
X72549000Y-59861000D01*
%TO.C,H4*%
X156550000Y-16100000D02*
G75*
G02*
X151650000Y-16100000I-2450000J0D01*
G01*
X151650000Y-16100000D02*
G75*
G02*
X156550000Y-16100000I2450000J0D01*
G01*
%TO.C,R24*%
X88356330Y-35521294D02*
X89388706Y-36553670D01*
X87295670Y-38646706D01*
X86263294Y-37614330D01*
X88356330Y-35521294D01*
%TO.C,C24*%
X76370000Y-35204000D02*
X78330000Y-35204000D01*
X78330000Y-38604000D01*
X76370000Y-38604000D01*
X76370000Y-35204000D01*
%TO.C,U16*%
D14*
X55791600Y-22834600D02*
X57252100Y-22834600D01*
X55791600Y-27711400D02*
X55791600Y-22834600D01*
X55791600Y-27711400D02*
X57252100Y-27711400D01*
X57252100Y-22517100D02*
X61747900Y-22517100D01*
X57252100Y-22834600D02*
X57252100Y-22517100D01*
X57252100Y-28028900D02*
X57252100Y-27711400D01*
X61747900Y-22517100D02*
X61747900Y-22834600D01*
X61747900Y-27711400D02*
X61747900Y-28028900D01*
X61747900Y-28028900D02*
X57252100Y-28028900D01*
X63208400Y-22834600D02*
X61747900Y-22834600D01*
X63208400Y-22834600D02*
X63208400Y-27711400D01*
X63208400Y-27711400D02*
X61747900Y-27711400D01*
%TO.C,H2*%
D13*
X41950000Y-16100000D02*
G75*
G02*
X37050000Y-16100000I-2450000J0D01*
G01*
X37050000Y-16100000D02*
G75*
G02*
X41950000Y-16100000I2450000J0D01*
G01*
%TO.C,C90*%
X47957000Y-15911000D02*
X51357000Y-15911000D01*
X51357000Y-17871000D01*
X47957000Y-17871000D01*
X47957000Y-15911000D01*
%TO.C,H3*%
X156550000Y-66100000D02*
G75*
G02*
X151650000Y-66100000I-2450000J0D01*
G01*
X151650000Y-66100000D02*
G75*
G02*
X156550000Y-66100000I2450000J0D01*
G01*
%TO.C,CR2*%
D14*
X80844400Y-60248800D02*
X81648300Y-60248800D01*
X80844400Y-61163200D02*
X80844400Y-60248800D01*
X80844400Y-61163200D02*
X81648300Y-61163200D01*
X81648300Y-59778900D02*
X83959700Y-59778900D01*
X81648300Y-60248800D02*
X81648300Y-59778900D01*
X81648300Y-61633100D02*
X81648300Y-61163200D01*
X83959700Y-59778900D02*
X83959700Y-60248800D01*
X83959700Y-61163200D02*
X83959700Y-61633100D01*
X83959700Y-61633100D02*
X81648300Y-61633100D01*
X84763600Y-60248800D02*
X83959700Y-60248800D01*
X84763600Y-60248800D02*
X84763600Y-61163200D01*
X84763600Y-61163200D02*
X83959700Y-61163200D01*
%TO.C,R71*%
D13*
X132900375Y-33579000D02*
X140560375Y-33579000D01*
X140560375Y-37439000D01*
X132900375Y-37439000D01*
X132900375Y-33579000D01*
%TO.C,C22*%
X63924000Y-48412000D02*
X65884000Y-48412000D01*
X65884000Y-51812000D01*
X63924000Y-51812000D01*
X63924000Y-48412000D01*
%TO.C,C87*%
X47026000Y-37500000D02*
X48986000Y-37500000D01*
X48986000Y-40900000D01*
X47026000Y-40900000D01*
X47026000Y-37500000D01*
%TO.C,R32*%
X90327294Y-27282670D02*
X91359670Y-26250294D01*
X93452706Y-28343330D01*
X92420330Y-29375706D01*
X90327294Y-27282670D01*
%TO.C,C57*%
X58329000Y-60530000D02*
X60289000Y-60530000D01*
X60289000Y-63930000D01*
X58329000Y-63930000D01*
X58329000Y-60530000D01*
%TO.C,R29*%
X88807706Y-33030330D02*
X87775330Y-34062706D01*
X85682294Y-31969670D01*
X86714670Y-30937294D01*
X88807706Y-33030330D01*
%TO.C,J3*%
X37440000Y-51322000D02*
X46380000Y-51322000D01*
X46380000Y-61962000D01*
X37440000Y-61962000D01*
X37440000Y-51322000D01*
%TO.C,C80*%
X126500000Y-44114000D02*
X131100000Y-44114000D01*
X131100000Y-46414000D01*
X126500000Y-46414000D01*
X126500000Y-44114000D01*
%TO.C,R13*%
X71570000Y-19544000D02*
X73030000Y-19544000D01*
X73030000Y-22504000D01*
X71570000Y-22504000D01*
X71570000Y-19544000D01*
%TO.C,CR5*%
D14*
X95957400Y-61391800D02*
X96761300Y-61391800D01*
X95957400Y-62306200D02*
X95957400Y-61391800D01*
X95957400Y-62306200D02*
X96761300Y-62306200D01*
X96761300Y-60921900D02*
X99072700Y-60921900D01*
X96761300Y-61391800D02*
X96761300Y-60921900D01*
X96761300Y-62776100D02*
X96761300Y-62306200D01*
X99072700Y-60921900D02*
X99072700Y-61391800D01*
X99072700Y-62306200D02*
X99072700Y-62776100D01*
X99072700Y-62776100D02*
X96761300Y-62776100D01*
X99876600Y-61391800D02*
X99072700Y-61391800D01*
X99876600Y-61391800D02*
X99876600Y-62306200D01*
X99876600Y-62306200D02*
X99072700Y-62306200D01*
%TO.C,C81*%
D13*
X110710361Y-27872000D02*
X115310361Y-27872000D01*
X115310361Y-30172000D01*
X110710361Y-30172000D01*
X110710361Y-27872000D01*
%TO.C,C74*%
X56939000Y-30470000D02*
X58899000Y-30470000D01*
X58899000Y-33870000D01*
X56939000Y-33870000D01*
X56939000Y-30470000D01*
%TO.C,C72*%
X62273000Y-30470000D02*
X64233000Y-30470000D01*
X64233000Y-33870000D01*
X62273000Y-33870000D01*
X62273000Y-30470000D01*
%TO.C,R21*%
X72336999Y-30864000D02*
X73796999Y-30864000D01*
X73796999Y-33824000D01*
X72336999Y-33824000D01*
X72336999Y-30864000D01*
%TO.C,C52*%
X84725001Y-46457000D02*
X87685001Y-46457000D01*
X87685001Y-47917000D01*
X84725001Y-47917000D01*
X84725001Y-46457000D01*
%TO.C,R41*%
X67695001Y-50731000D02*
X69155001Y-50731000D01*
X69155001Y-53691000D01*
X67695001Y-53691000D01*
X67695001Y-50731000D01*
%TO.C,U9*%
X48496000Y-53872000D02*
X49496000Y-53872000D01*
X48496000Y-56872000D02*
X48496000Y-53872000D01*
X49496000Y-53672000D02*
X51596000Y-53672000D01*
X49496000Y-53872000D02*
X49496000Y-53672000D01*
X49496000Y-56872000D02*
X48496000Y-56872000D01*
X49496000Y-57072000D02*
X49496000Y-56872000D01*
X51596000Y-53672000D02*
X51596000Y-53872000D01*
X51596000Y-53872000D02*
X52596000Y-53872000D01*
X51596000Y-56872000D02*
X51596000Y-57072000D01*
X51596000Y-57072000D02*
X49496000Y-57072000D01*
X52596000Y-53872000D02*
X52596000Y-56872000D01*
X52596000Y-56872000D02*
X51596000Y-56872000D01*
%TO.C,C40*%
X102850706Y-41170330D02*
X101818330Y-42202706D01*
X99725294Y-40109670D01*
X100757670Y-39077294D01*
X102850706Y-41170330D01*
%TO.C,R74*%
X132900375Y-16776000D02*
X140560375Y-16776000D01*
X140560375Y-20636000D01*
X132900375Y-20636000D01*
X132900375Y-16776000D01*
%TO.C,Q1*%
D14*
X108157575Y-51295300D02*
X108474425Y-51295300D01*
X108157575Y-56146700D02*
X108157575Y-51295300D01*
X108157575Y-56146700D02*
X108474425Y-56146700D01*
X108474425Y-50965100D02*
X114976825Y-50965100D01*
X108474425Y-51295300D02*
X108474425Y-50965100D01*
X108474425Y-56476900D02*
X108474425Y-56146700D01*
X114976825Y-50965100D02*
X114976825Y-51295300D01*
X114976825Y-56146700D02*
X114976825Y-56476900D01*
X114976825Y-56476900D02*
X108474425Y-56476900D01*
X115293675Y-51295300D02*
X114976825Y-51295300D01*
X115293675Y-51295300D02*
X115293675Y-56146700D01*
X115293675Y-56146700D02*
X114976825Y-56146700D01*
%TO.C,R72*%
D13*
X116336361Y-39000000D02*
X120196361Y-39000000D01*
X120196361Y-47000000D01*
X116336361Y-47000000D01*
X116336361Y-39000000D01*
%TO.C,R67*%
X55538000Y-39679000D02*
X56998000Y-39679000D01*
X56998000Y-42639000D01*
X55538000Y-42639000D01*
X55538000Y-39679000D01*
%TO.C,SW1*%
X60698000Y-58091000D02*
X72398000Y-58091000D01*
X72398000Y-64591000D01*
X60698000Y-64591000D01*
X60698000Y-58091000D01*
%TO.C,R22*%
X132570000Y-55300000D02*
X136430000Y-55300000D01*
X136430000Y-63300000D01*
X132570000Y-63300000D01*
X132570000Y-55300000D01*
%TO.C,R23*%
X89499330Y-36664294D02*
X90531706Y-37696670D01*
X88438670Y-39789706D01*
X87406294Y-38757330D01*
X89499330Y-36664294D01*
%TO.C,C79*%
X110700000Y-44950000D02*
X115300000Y-44950000D01*
X115300000Y-47250000D01*
X110700000Y-47250000D01*
X110700000Y-44950000D01*
%TO.C,Q4*%
D14*
X123631950Y-17474300D02*
X123948800Y-17474300D01*
X123631950Y-22325700D02*
X123631950Y-17474300D01*
X123631950Y-22325700D02*
X123948800Y-22325700D01*
X123948800Y-17144100D02*
X130451200Y-17144100D01*
X123948800Y-17474300D02*
X123948800Y-17144100D01*
X123948800Y-22655900D02*
X123948800Y-22325700D01*
X130451200Y-17144100D02*
X130451200Y-17474300D01*
X130451200Y-22325700D02*
X130451200Y-22655900D01*
X130451200Y-22655900D02*
X123948800Y-22655900D01*
X130768050Y-17474300D02*
X130451200Y-17474300D01*
X130768050Y-17474300D02*
X130768050Y-22325700D01*
X130768050Y-22325700D02*
X130451200Y-22325700D01*
%TO.C,R42*%
D13*
X69923999Y-50604000D02*
X71383999Y-50604000D01*
X71383999Y-53564000D01*
X69923999Y-53564000D01*
X69923999Y-50604000D01*
%TO.C,H1*%
X41950000Y-66100000D02*
G75*
G02*
X37050000Y-66100000I-2450000J0D01*
G01*
X37050000Y-66100000D02*
G75*
G02*
X41950000Y-66100000I2450000J0D01*
G01*
%TO.C,C77*%
X110600000Y-61650000D02*
X115200000Y-61650000D01*
X115200000Y-63950000D01*
X110600000Y-63950000D01*
X110600000Y-61650000D01*
%TO.C,C21*%
X61892000Y-34188000D02*
X63852000Y-34188000D01*
X63852000Y-37588000D01*
X61892000Y-37588000D01*
X61892000Y-34188000D01*
%TO.C,R43*%
X56801000Y-60750000D02*
X58261000Y-60750000D01*
X58261000Y-63710000D01*
X56801000Y-63710000D01*
X56801000Y-60750000D01*
%TO.C,R73*%
X132436000Y-38100000D02*
X136296000Y-38100000D01*
X136296000Y-46100000D01*
X132436000Y-46100000D01*
X132436000Y-38100000D01*
%TO.C,R77*%
X57772000Y-41254000D02*
X60732000Y-41254000D01*
X60732000Y-42714000D01*
X57772000Y-42714000D01*
X57772000Y-41254000D01*
%TO.C,Q6*%
D14*
X123431950Y-51274300D02*
X123748800Y-51274300D01*
X123431950Y-56125700D02*
X123431950Y-51274300D01*
X123431950Y-56125700D02*
X123748800Y-56125700D01*
X123748800Y-50944100D02*
X130251200Y-50944100D01*
X123748800Y-51274300D02*
X123748800Y-50944100D01*
X123748800Y-56455900D02*
X123748800Y-56125700D01*
X130251200Y-50944100D02*
X130251200Y-51274300D01*
X130251200Y-56125700D02*
X130251200Y-56455900D01*
X130251200Y-56455900D02*
X123748800Y-56455900D01*
X130568050Y-51274300D02*
X130251200Y-51274300D01*
X130568050Y-51274300D02*
X130568050Y-56125700D01*
X130568050Y-56125700D02*
X130251200Y-56125700D01*
%TO.C,C46*%
D13*
X102694000Y-51598000D02*
X106094000Y-51598000D01*
X106094000Y-53558000D01*
X102694000Y-53558000D01*
X102694000Y-51598000D01*
%TO.C,C78*%
X126400000Y-61350000D02*
X131000000Y-61350000D01*
X131000000Y-63650000D01*
X126400000Y-63650000D01*
X126400000Y-61350000D01*
%TO.C,C75*%
X64432000Y-30470000D02*
X66392000Y-30470000D01*
X66392000Y-33870000D01*
X64432000Y-33870000D01*
X64432000Y-30470000D01*
%TO.C,R70*%
X57772000Y-39730000D02*
X60732000Y-39730000D01*
X60732000Y-41190000D01*
X57772000Y-41190000D01*
X57772000Y-39730000D01*
%TO.C,R80*%
X70870001Y-30848000D02*
X72330001Y-30848000D01*
X72330001Y-33808000D01*
X70870001Y-33808000D01*
X70870001Y-30848000D01*
%TO.C,FL1*%
X74588000Y-18000000D02*
X79188000Y-18000000D01*
X74588000Y-21000000D02*
X74588000Y-18000000D01*
X79188000Y-21000000D02*
X74588000Y-21000000D01*
X79188000Y-21000000D02*
X79188000Y-18000000D01*
%TO.C,R68*%
X55538000Y-36377000D02*
X56998000Y-36377000D01*
X56998000Y-39337000D01*
X55538000Y-39337000D01*
X55538000Y-36377000D01*
%TO.C,C45*%
X102694000Y-54608000D02*
X106094000Y-54608000D01*
X106094000Y-56568000D01*
X102694000Y-56568000D01*
X102694000Y-54608000D01*
%TO.C,C2*%
X85721000Y-42321000D02*
X87181000Y-42321000D01*
X87181000Y-45281000D01*
X85721000Y-45281000D01*
X85721000Y-42321000D01*
%TO.C,R75*%
X116541361Y-22101000D02*
X120401361Y-22101000D01*
X120401361Y-30101000D01*
X116541361Y-30101000D01*
X116541361Y-22101000D01*
%TO.C,C43*%
X91587294Y-42830330D02*
X93680330Y-40737294D01*
X94712706Y-41769670D01*
X92619670Y-43862706D01*
X91587294Y-42830330D01*
%TO.C,Q5*%
D14*
X123560450Y-34374300D02*
X123877300Y-34374300D01*
X123560450Y-39225700D02*
X123560450Y-34374300D01*
X123560450Y-39225700D02*
X123877300Y-39225700D01*
X123877300Y-34044100D02*
X130379700Y-34044100D01*
X123877300Y-34374300D02*
X123877300Y-34044100D01*
X123877300Y-39555900D02*
X123877300Y-39225700D01*
X130379700Y-34044100D02*
X130379700Y-34374300D01*
X130379700Y-39225700D02*
X130379700Y-39555900D01*
X130379700Y-39555900D02*
X123877300Y-39555900D01*
X130696550Y-34374300D02*
X130379700Y-34374300D01*
X130696550Y-34374300D02*
X130696550Y-39225700D01*
X130696550Y-39225700D02*
X130379700Y-39225700D01*
%TO.C,Y2*%
D13*
X81830001Y-46407000D02*
X81830001Y-50507000D01*
X81830001Y-50507000D02*
X84230001Y-50507000D01*
X84230001Y-46407000D02*
X81830001Y-46407000D01*
X84230001Y-50507000D02*
X84230001Y-46407000D01*
%TO.C,R12*%
X88617000Y-16230000D02*
X91577000Y-16230000D01*
X91577000Y-17690000D01*
X88617000Y-17690000D01*
X88617000Y-16230000D01*
%TO.C,R28*%
X82282000Y-36354000D02*
X85242000Y-36354000D01*
X85242000Y-37814000D01*
X82282000Y-37814000D01*
X82282000Y-36354000D01*
%TO.C,R39*%
X46514000Y-52622000D02*
X47974000Y-52622000D01*
X47974000Y-55582000D01*
X46514000Y-55582000D01*
X46514000Y-52622000D01*
%TO.C,R31*%
X89149033Y-28536294D02*
X91242069Y-30629330D01*
X90209693Y-31661706D01*
X88116657Y-29568670D01*
X89149033Y-28536294D01*
%TO.C,CR6*%
D14*
X47697400Y-45897800D02*
X48501300Y-45897800D01*
X47697400Y-46812200D02*
X47697400Y-45897800D01*
X47697400Y-46812200D02*
X48501300Y-46812200D01*
X48501300Y-45427900D02*
X50812700Y-45427900D01*
X48501300Y-45897800D02*
X48501300Y-45427900D01*
X48501300Y-47282100D02*
X48501300Y-46812200D01*
X50812700Y-45427900D02*
X50812700Y-45897800D01*
X50812700Y-46812200D02*
X50812700Y-47282100D01*
X50812700Y-47282100D02*
X48501300Y-47282100D01*
X51616600Y-45897800D02*
X50812700Y-45897800D01*
X51616600Y-45897800D02*
X51616600Y-46812200D01*
X51616600Y-46812200D02*
X50812700Y-46812200D01*
%TO.C,R82*%
D13*
X78010000Y-47415000D02*
X79470000Y-47415000D01*
X79470000Y-50375000D01*
X78010000Y-50375000D01*
X78010000Y-47415000D01*
%TO.C,C13*%
X71447999Y-50620000D02*
X72907999Y-50620000D01*
X72907999Y-53580000D01*
X71447999Y-53580000D01*
X71447999Y-50620000D01*
%TO.C,J4*%
X86368000Y-57534000D02*
X94988000Y-57534000D01*
X94988000Y-63624000D01*
X86368000Y-63624000D01*
X86368000Y-57534000D01*
%TO.C,R30*%
X88006033Y-29679294D02*
X90099069Y-31772330D01*
X89066693Y-32804706D01*
X86973657Y-30711670D01*
X88006033Y-29679294D01*
%TO.C,R8*%
X116270000Y-55800000D02*
X120130000Y-55800000D01*
X120130000Y-63800000D01*
X116270000Y-63800000D01*
X116270000Y-55800000D01*
%TO.C,C20*%
X61765000Y-48412000D02*
X63725000Y-48412000D01*
X63725000Y-51812000D01*
X61765000Y-51812000D01*
X61765000Y-48412000D01*
%TO.C,R69*%
X57772000Y-38206000D02*
X60732000Y-38206000D01*
X60732000Y-39666000D01*
X57772000Y-39666000D01*
X57772000Y-38206000D01*
%TO.C,C38*%
X99003117Y-45710046D02*
X96598954Y-43305883D01*
X97984883Y-41919954D01*
X100389046Y-44324117D01*
X99003117Y-45710046D01*
%TO.C,R16*%
X75343000Y-30864000D02*
X76803000Y-30864000D01*
X76803000Y-33824000D01*
X75343000Y-33824000D01*
X75343000Y-30864000D01*
%TO.C,C18*%
X74668999Y-53319000D02*
X78068999Y-53319000D01*
X78068999Y-55279000D01*
X74668999Y-55279000D01*
X74668999Y-53319000D01*
%TO.C,C23*%
X78402000Y-35204000D02*
X80362000Y-35204000D01*
X80362000Y-38604000D01*
X78402000Y-38604000D01*
X78402000Y-35204000D01*
%TO.C,R38*%
X46514000Y-57702000D02*
X47974000Y-57702000D01*
X47974000Y-60662000D01*
X46514000Y-60662000D01*
X46514000Y-57702000D01*
%TO.C,R7*%
X132900375Y-50703000D02*
X140560375Y-50703000D01*
X140560375Y-54563000D01*
X132900375Y-54563000D01*
X132900375Y-50703000D01*
%TO.C,C89*%
X63520000Y-23073000D02*
X65480000Y-23073000D01*
X65480000Y-26473000D01*
X63520000Y-26473000D01*
X63520000Y-23073000D01*
%TO.C,C39*%
X99712827Y-40232482D02*
X102965518Y-43485173D01*
X101339173Y-45111518D01*
X98086482Y-41858827D01*
X99712827Y-40232482D01*
%TO.C,C19*%
X64051000Y-34188000D02*
X66011000Y-34188000D01*
X66011000Y-37588000D01*
X64051000Y-37588000D01*
X64051000Y-34188000D01*
%TO.C,U4*%
D14*
X64145100Y-38742000D02*
X65742200Y-38742000D01*
X64145100Y-47258000D02*
X64145100Y-38742000D01*
X65742200Y-37742200D02*
X66742000Y-37742200D01*
X65742200Y-38742000D02*
X65742200Y-37742200D01*
X65742200Y-47258000D02*
X64145100Y-47258000D01*
X65742200Y-48257800D02*
X65742200Y-47258000D01*
X66742000Y-36145100D02*
X75258000Y-36145100D01*
X66742000Y-37742200D02*
X66742000Y-36145100D01*
X66742000Y-48257800D02*
X65742200Y-48257800D01*
X66742000Y-49854900D02*
X66742000Y-48257800D01*
X75258000Y-36145100D02*
X75258000Y-37742200D01*
X75258000Y-37742200D02*
X76257800Y-37742200D01*
X75258000Y-48257800D02*
X75258000Y-49854900D01*
X75258000Y-49854900D02*
X66742000Y-49854900D01*
X76257800Y-37742200D02*
X76257800Y-38742000D01*
X76257800Y-38742000D02*
X77854900Y-38742000D01*
X76257800Y-47258000D02*
X76257800Y-48257800D01*
X76257800Y-48257800D02*
X75258000Y-48257800D01*
X77854900Y-38742000D02*
X77854900Y-47258000D01*
X77854900Y-47258000D02*
X76257800Y-47258000D01*
D13*
%TO.C,C42*%
X98532706Y-40617670D02*
X96439670Y-42710706D01*
X95407294Y-41678330D01*
X97500330Y-39585294D01*
X98532706Y-40617670D01*
%TO.C,C31*%
X72900000Y-57620000D02*
X76300000Y-57620000D01*
X76300000Y-59580000D01*
X72900000Y-59580000D01*
X72900000Y-57620000D01*
%TD*%
M02*
