%TF.GenerationSoftware,KiCad,Pcbnew,10.0.5*%
%TF.CreationDate,2026-08-22T17:45:41+08:00*%
%TF.ProjectId,BLDC_MC_V1.0,424c4443-5f4d-4435-9f56-312e302e6b69,V1.0*%
%TF.SameCoordinates,Original*%
%TF.FileFunction,Soldermask,Bot*%
%TF.FilePolarity,Negative*%
%FSLAX46Y46*%
G04 Gerber Fmt 4.6, Leading zero omitted, Abs format (unit mm)*
G04 Created by KiCad (PCBNEW 10.0.5) date 2026-08-22 17:45:41*
%MOMM*%
%LPD*%
G01*
G04 APERTURE LIST*
G04 Aperture macros list*
%AMRoundRect*
0 Rectangle with rounded corners*
0 $1 Rounding radius*
0 $2 $3 $4 $5 $6 $7 $8 $9 X,Y pos of 4 corners*
0 Add a 4 corners polygon primitive as box body*
4,1,4,$2,$3,$4,$5,$6,$7,$8,$9,$2,$3,0*
0 Add four circle primitives for the rounded corners*
1,1,$1+$1,$2,$3*
1,1,$1+$1,$4,$5*
1,1,$1+$1,$6,$7*
1,1,$1+$1,$8,$9*
0 Add four rect primitives between the rounded corners*
20,1,$1+$1,$2,$3,$4,$5,0*
20,1,$1+$1,$4,$5,$6,$7,0*
20,1,$1+$1,$6,$7,$8,$9,0*
20,1,$1+$1,$8,$9,$2,$3,0*%
%AMFreePoly0*
4,1,13,0.252200,0.527500,0.672800,0.527500,0.672800,0.272500,0.252200,0.272500,0.252200,-0.275000,0.672800,-0.275000,0.672800,-0.525000,0.252200,-0.525000,0.252200,-0.622300,-0.252200,-0.622300,-0.252200,0.622300,0.252200,0.622300,0.252200,0.527500,0.252200,0.527500,$1*%
G04 Aperture macros list end*
%ADD10C,0.150000*%
%ADD11C,0.300000*%
%ADD12C,0.400000*%
%ADD13RoundRect,0.102000X0.600000X-0.600000X0.600000X0.600000X-0.600000X0.600000X-0.600000X-0.600000X0*%
%ADD14C,1.404000*%
%ADD15C,1.270000*%
%ADD16C,0.700000*%
%ADD17C,4.400000*%
%ADD18C,0.650000*%
%ADD19O,2.100000X1.000000*%
%ADD20O,1.800000X1.000000*%
%ADD21R,1.700000X1.700000*%
%ADD22C,1.700000*%
%ADD23RoundRect,0.200000X-0.275000X0.200000X-0.275000X-0.200000X0.275000X-0.200000X0.275000X0.200000X0*%
%ADD24RoundRect,0.225000X0.225000X0.250000X-0.225000X0.250000X-0.225000X-0.250000X0.225000X-0.250000X0*%
%ADD25RoundRect,0.200000X0.200000X0.275000X-0.200000X0.275000X-0.200000X-0.275000X0.200000X-0.275000X0*%
%ADD26R,0.803900X0.406400*%
%ADD27RoundRect,0.200000X-0.200000X-0.275000X0.200000X-0.275000X0.200000X0.275000X-0.200000X0.275000X0*%
%ADD28RoundRect,0.249500X0.457500X0.147500X-0.457500X0.147500X-0.457500X-0.147500X0.457500X-0.147500X0*%
%ADD29RoundRect,0.250001X-0.899999X-1.449999X0.899999X-1.449999X0.899999X1.449999X-0.899999X1.449999X0*%
%ADD30RoundRect,0.250000X-0.625000X0.312500X-0.625000X-0.312500X0.625000X-0.312500X0.625000X0.312500X0*%
%ADD31RoundRect,0.250000X-0.250000X-0.475000X0.250000X-0.475000X0.250000X0.475000X-0.250000X0.475000X0*%
%ADD32RoundRect,0.218750X0.256250X-0.218750X0.256250X0.218750X-0.256250X0.218750X-0.256250X-0.218750X0*%
%ADD33RoundRect,0.250000X-0.475000X0.250000X-0.475000X-0.250000X0.475000X-0.250000X0.475000X0.250000X0*%
%ADD34RoundRect,0.250000X0.250000X0.475000X-0.250000X0.475000X-0.250000X-0.475000X0.250000X-0.475000X0*%
%ADD35RoundRect,0.250000X0.325000X0.650000X-0.325000X0.650000X-0.325000X-0.650000X0.325000X-0.650000X0*%
%ADD36RoundRect,0.250000X0.475000X-0.250000X0.475000X0.250000X-0.475000X0.250000X-0.475000X-0.250000X0*%
%ADD37RoundRect,0.250000X-0.650000X0.325000X-0.650000X-0.325000X0.650000X-0.325000X0.650000X0.325000X0*%
%ADD38RoundRect,0.250000X-1.950000X-1.000000X1.950000X-1.000000X1.950000X1.000000X-1.950000X1.000000X0*%
%ADD39RoundRect,0.225000X-0.225000X-0.250000X0.225000X-0.250000X0.225000X0.250000X-0.225000X0.250000X0*%
%ADD40RoundRect,0.250000X1.950000X1.000000X-1.950000X1.000000X-1.950000X-1.000000X1.950000X-1.000000X0*%
%ADD41R,3.200400X2.184400*%
%ADD42RoundRect,0.200000X0.275000X-0.200000X0.275000X0.200000X-0.275000X0.200000X-0.275000X-0.200000X0*%
%ADD43R,0.939800X2.489200*%
%ADD44R,6.781800X6.934200*%
%ADD45RoundRect,0.218250X0.873750X0.348750X-0.873750X0.348750X-0.873750X-0.348750X0.873750X-0.348750X0*%
%ADD46RoundRect,0.349500X0.742500X1.367500X-0.742500X1.367500X-0.742500X-1.367500X0.742500X-1.367500X0*%
%ADD47R,0.660400X0.254000*%
%ADD48FreePoly0,0.000000*%
%ADD49RoundRect,0.133250X0.343750X0.093750X-0.343750X0.093750X-0.343750X-0.093750X0.343750X-0.093750X0*%
%ADD50RoundRect,0.133250X0.093750X0.268750X-0.093750X0.268750X-0.093750X-0.268750X0.093750X-0.268750X0*%
%ADD51RoundRect,0.102000X0.900000X2.250000X-0.900000X2.250000X-0.900000X-2.250000X0.900000X-2.250000X0*%
%ADD52RoundRect,0.250000X-0.325000X-0.650000X0.325000X-0.650000X0.325000X0.650000X-0.325000X0.650000X0*%
%ADD53RoundRect,0.177000X-0.910000X-0.225000X0.910000X-0.225000X0.910000X0.225000X-0.910000X0.225000X0*%
G04 APERTURE END LIST*
D10*
X177002200Y-166007200D02*
X285002200Y-166007200D01*
X285002200Y-198007200D01*
X177002200Y-198007200D01*
X177002200Y-166007200D01*
X10000000Y-10000000D02*
X287002200Y-10000000D01*
X287002200Y-200007200D01*
X10000000Y-200007200D01*
X10000000Y-10000000D01*
X12000000Y-12000000D02*
X285002200Y-12000000D01*
X285002200Y-198007200D01*
X12000000Y-198007200D01*
X12000000Y-12000000D01*
X60000000Y-12000000D02*
X60000000Y-10000000D01*
X110000000Y-12000000D02*
X110000000Y-10000000D01*
X160000000Y-12000000D02*
X160000000Y-10000000D01*
X210000000Y-12000000D02*
X210000000Y-10000000D01*
X260000000Y-12000000D02*
X260000000Y-10000000D01*
X36089160Y-11593604D02*
X35346303Y-11593604D01*
X35717731Y-11593604D02*
X35717731Y-10293604D01*
X35717731Y-10293604D02*
X35593922Y-10479319D01*
X35593922Y-10479319D02*
X35470112Y-10603128D01*
X35470112Y-10603128D02*
X35346303Y-10665033D01*
X85346303Y-10417414D02*
X85408207Y-10355509D01*
X85408207Y-10355509D02*
X85532017Y-10293604D01*
X85532017Y-10293604D02*
X85841541Y-10293604D01*
X85841541Y-10293604D02*
X85965350Y-10355509D01*
X85965350Y-10355509D02*
X86027255Y-10417414D01*
X86027255Y-10417414D02*
X86089160Y-10541223D01*
X86089160Y-10541223D02*
X86089160Y-10665033D01*
X86089160Y-10665033D02*
X86027255Y-10850747D01*
X86027255Y-10850747D02*
X85284398Y-11593604D01*
X85284398Y-11593604D02*
X86089160Y-11593604D01*
X135284398Y-10293604D02*
X136089160Y-10293604D01*
X136089160Y-10293604D02*
X135655826Y-10788842D01*
X135655826Y-10788842D02*
X135841541Y-10788842D01*
X135841541Y-10788842D02*
X135965350Y-10850747D01*
X135965350Y-10850747D02*
X136027255Y-10912652D01*
X136027255Y-10912652D02*
X136089160Y-11036461D01*
X136089160Y-11036461D02*
X136089160Y-11345985D01*
X136089160Y-11345985D02*
X136027255Y-11469795D01*
X136027255Y-11469795D02*
X135965350Y-11531700D01*
X135965350Y-11531700D02*
X135841541Y-11593604D01*
X135841541Y-11593604D02*
X135470112Y-11593604D01*
X135470112Y-11593604D02*
X135346303Y-11531700D01*
X135346303Y-11531700D02*
X135284398Y-11469795D01*
X185965350Y-10726938D02*
X185965350Y-11593604D01*
X185655826Y-10231700D02*
X185346303Y-11160271D01*
X185346303Y-11160271D02*
X186151064Y-11160271D01*
X236027255Y-10293604D02*
X235408207Y-10293604D01*
X235408207Y-10293604D02*
X235346303Y-10912652D01*
X235346303Y-10912652D02*
X235408207Y-10850747D01*
X235408207Y-10850747D02*
X235532017Y-10788842D01*
X235532017Y-10788842D02*
X235841541Y-10788842D01*
X235841541Y-10788842D02*
X235965350Y-10850747D01*
X235965350Y-10850747D02*
X236027255Y-10912652D01*
X236027255Y-10912652D02*
X236089160Y-11036461D01*
X236089160Y-11036461D02*
X236089160Y-11345985D01*
X236089160Y-11345985D02*
X236027255Y-11469795D01*
X236027255Y-11469795D02*
X235965350Y-11531700D01*
X235965350Y-11531700D02*
X235841541Y-11593604D01*
X235841541Y-11593604D02*
X235532017Y-11593604D01*
X235532017Y-11593604D02*
X235408207Y-11531700D01*
X235408207Y-11531700D02*
X235346303Y-11469795D01*
X285965350Y-10293604D02*
X285717731Y-10293604D01*
X285717731Y-10293604D02*
X285593922Y-10355509D01*
X285593922Y-10355509D02*
X285532017Y-10417414D01*
X285532017Y-10417414D02*
X285408207Y-10603128D01*
X285408207Y-10603128D02*
X285346303Y-10850747D01*
X285346303Y-10850747D02*
X285346303Y-11345985D01*
X285346303Y-11345985D02*
X285408207Y-11469795D01*
X285408207Y-11469795D02*
X285470112Y-11531700D01*
X285470112Y-11531700D02*
X285593922Y-11593604D01*
X285593922Y-11593604D02*
X285841541Y-11593604D01*
X285841541Y-11593604D02*
X285965350Y-11531700D01*
X285965350Y-11531700D02*
X286027255Y-11469795D01*
X286027255Y-11469795D02*
X286089160Y-11345985D01*
X286089160Y-11345985D02*
X286089160Y-11036461D01*
X286089160Y-11036461D02*
X286027255Y-10912652D01*
X286027255Y-10912652D02*
X285965350Y-10850747D01*
X285965350Y-10850747D02*
X285841541Y-10788842D01*
X285841541Y-10788842D02*
X285593922Y-10788842D01*
X285593922Y-10788842D02*
X285470112Y-10850747D01*
X285470112Y-10850747D02*
X285408207Y-10912652D01*
X285408207Y-10912652D02*
X285346303Y-11036461D01*
X60000000Y-198007200D02*
X60000000Y-200007200D01*
X110000000Y-198007200D02*
X110000000Y-200007200D01*
X160000000Y-198007200D02*
X160000000Y-200007200D01*
X210000000Y-198007200D02*
X210000000Y-200007200D01*
X260000000Y-198007200D02*
X260000000Y-200007200D01*
X36089160Y-199600804D02*
X35346303Y-199600804D01*
X35717731Y-199600804D02*
X35717731Y-198300804D01*
X35717731Y-198300804D02*
X35593922Y-198486519D01*
X35593922Y-198486519D02*
X35470112Y-198610328D01*
X35470112Y-198610328D02*
X35346303Y-198672233D01*
X85346303Y-198424614D02*
X85408207Y-198362709D01*
X85408207Y-198362709D02*
X85532017Y-198300804D01*
X85532017Y-198300804D02*
X85841541Y-198300804D01*
X85841541Y-198300804D02*
X85965350Y-198362709D01*
X85965350Y-198362709D02*
X86027255Y-198424614D01*
X86027255Y-198424614D02*
X86089160Y-198548423D01*
X86089160Y-198548423D02*
X86089160Y-198672233D01*
X86089160Y-198672233D02*
X86027255Y-198857947D01*
X86027255Y-198857947D02*
X85284398Y-199600804D01*
X85284398Y-199600804D02*
X86089160Y-199600804D01*
X135284398Y-198300804D02*
X136089160Y-198300804D01*
X136089160Y-198300804D02*
X135655826Y-198796042D01*
X135655826Y-198796042D02*
X135841541Y-198796042D01*
X135841541Y-198796042D02*
X135965350Y-198857947D01*
X135965350Y-198857947D02*
X136027255Y-198919852D01*
X136027255Y-198919852D02*
X136089160Y-199043661D01*
X136089160Y-199043661D02*
X136089160Y-199353185D01*
X136089160Y-199353185D02*
X136027255Y-199476995D01*
X136027255Y-199476995D02*
X135965350Y-199538900D01*
X135965350Y-199538900D02*
X135841541Y-199600804D01*
X135841541Y-199600804D02*
X135470112Y-199600804D01*
X135470112Y-199600804D02*
X135346303Y-199538900D01*
X135346303Y-199538900D02*
X135284398Y-199476995D01*
X185965350Y-198734138D02*
X185965350Y-199600804D01*
X185655826Y-198238900D02*
X185346303Y-199167471D01*
X185346303Y-199167471D02*
X186151064Y-199167471D01*
X236027255Y-198300804D02*
X235408207Y-198300804D01*
X235408207Y-198300804D02*
X235346303Y-198919852D01*
X235346303Y-198919852D02*
X235408207Y-198857947D01*
X235408207Y-198857947D02*
X235532017Y-198796042D01*
X235532017Y-198796042D02*
X235841541Y-198796042D01*
X235841541Y-198796042D02*
X235965350Y-198857947D01*
X235965350Y-198857947D02*
X236027255Y-198919852D01*
X236027255Y-198919852D02*
X236089160Y-199043661D01*
X236089160Y-199043661D02*
X236089160Y-199353185D01*
X236089160Y-199353185D02*
X236027255Y-199476995D01*
X236027255Y-199476995D02*
X235965350Y-199538900D01*
X235965350Y-199538900D02*
X235841541Y-199600804D01*
X235841541Y-199600804D02*
X235532017Y-199600804D01*
X235532017Y-199600804D02*
X235408207Y-199538900D01*
X235408207Y-199538900D02*
X235346303Y-199476995D01*
X285965350Y-198300804D02*
X285717731Y-198300804D01*
X285717731Y-198300804D02*
X285593922Y-198362709D01*
X285593922Y-198362709D02*
X285532017Y-198424614D01*
X285532017Y-198424614D02*
X285408207Y-198610328D01*
X285408207Y-198610328D02*
X285346303Y-198857947D01*
X285346303Y-198857947D02*
X285346303Y-199353185D01*
X285346303Y-199353185D02*
X285408207Y-199476995D01*
X285408207Y-199476995D02*
X285470112Y-199538900D01*
X285470112Y-199538900D02*
X285593922Y-199600804D01*
X285593922Y-199600804D02*
X285841541Y-199600804D01*
X285841541Y-199600804D02*
X285965350Y-199538900D01*
X285965350Y-199538900D02*
X286027255Y-199476995D01*
X286027255Y-199476995D02*
X286089160Y-199353185D01*
X286089160Y-199353185D02*
X286089160Y-199043661D01*
X286089160Y-199043661D02*
X286027255Y-198919852D01*
X286027255Y-198919852D02*
X285965350Y-198857947D01*
X285965350Y-198857947D02*
X285841541Y-198796042D01*
X285841541Y-198796042D02*
X285593922Y-198796042D01*
X285593922Y-198796042D02*
X285470112Y-198857947D01*
X285470112Y-198857947D02*
X285408207Y-198919852D01*
X285408207Y-198919852D02*
X285346303Y-199043661D01*
X10000000Y-60000000D02*
X12000000Y-60000000D01*
X10000000Y-110000000D02*
X12000000Y-110000000D01*
X10000000Y-160000000D02*
X12000000Y-160000000D01*
X10690476Y-35222176D02*
X11309523Y-35222176D01*
X10566666Y-35593604D02*
X10999999Y-34293604D01*
X10999999Y-34293604D02*
X11433333Y-35593604D01*
X11092857Y-84912652D02*
X11278571Y-84974557D01*
X11278571Y-84974557D02*
X11340476Y-85036461D01*
X11340476Y-85036461D02*
X11402380Y-85160271D01*
X11402380Y-85160271D02*
X11402380Y-85345985D01*
X11402380Y-85345985D02*
X11340476Y-85469795D01*
X11340476Y-85469795D02*
X11278571Y-85531700D01*
X11278571Y-85531700D02*
X11154761Y-85593604D01*
X11154761Y-85593604D02*
X10659523Y-85593604D01*
X10659523Y-85593604D02*
X10659523Y-84293604D01*
X10659523Y-84293604D02*
X11092857Y-84293604D01*
X11092857Y-84293604D02*
X11216666Y-84355509D01*
X11216666Y-84355509D02*
X11278571Y-84417414D01*
X11278571Y-84417414D02*
X11340476Y-84541223D01*
X11340476Y-84541223D02*
X11340476Y-84665033D01*
X11340476Y-84665033D02*
X11278571Y-84788842D01*
X11278571Y-84788842D02*
X11216666Y-84850747D01*
X11216666Y-84850747D02*
X11092857Y-84912652D01*
X11092857Y-84912652D02*
X10659523Y-84912652D01*
X11402380Y-135469795D02*
X11340476Y-135531700D01*
X11340476Y-135531700D02*
X11154761Y-135593604D01*
X11154761Y-135593604D02*
X11030952Y-135593604D01*
X11030952Y-135593604D02*
X10845238Y-135531700D01*
X10845238Y-135531700D02*
X10721428Y-135407890D01*
X10721428Y-135407890D02*
X10659523Y-135284080D01*
X10659523Y-135284080D02*
X10597619Y-135036461D01*
X10597619Y-135036461D02*
X10597619Y-134850747D01*
X10597619Y-134850747D02*
X10659523Y-134603128D01*
X10659523Y-134603128D02*
X10721428Y-134479319D01*
X10721428Y-134479319D02*
X10845238Y-134355509D01*
X10845238Y-134355509D02*
X11030952Y-134293604D01*
X11030952Y-134293604D02*
X11154761Y-134293604D01*
X11154761Y-134293604D02*
X11340476Y-134355509D01*
X11340476Y-134355509D02*
X11402380Y-134417414D01*
X10659523Y-185593604D02*
X10659523Y-184293604D01*
X10659523Y-184293604D02*
X10969047Y-184293604D01*
X10969047Y-184293604D02*
X11154761Y-184355509D01*
X11154761Y-184355509D02*
X11278571Y-184479319D01*
X11278571Y-184479319D02*
X11340476Y-184603128D01*
X11340476Y-184603128D02*
X11402380Y-184850747D01*
X11402380Y-184850747D02*
X11402380Y-185036461D01*
X11402380Y-185036461D02*
X11340476Y-185284080D01*
X11340476Y-185284080D02*
X11278571Y-185407890D01*
X11278571Y-185407890D02*
X11154761Y-185531700D01*
X11154761Y-185531700D02*
X10969047Y-185593604D01*
X10969047Y-185593604D02*
X10659523Y-185593604D01*
X287002200Y-60000000D02*
X285002200Y-60000000D01*
X287002200Y-110000000D02*
X285002200Y-110000000D01*
X287002200Y-160000000D02*
X285002200Y-160000000D01*
X285692676Y-35222176D02*
X286311723Y-35222176D01*
X285568866Y-35593604D02*
X286002199Y-34293604D01*
X286002199Y-34293604D02*
X286435533Y-35593604D01*
X286095057Y-84912652D02*
X286280771Y-84974557D01*
X286280771Y-84974557D02*
X286342676Y-85036461D01*
X286342676Y-85036461D02*
X286404580Y-85160271D01*
X286404580Y-85160271D02*
X286404580Y-85345985D01*
X286404580Y-85345985D02*
X286342676Y-85469795D01*
X286342676Y-85469795D02*
X286280771Y-85531700D01*
X286280771Y-85531700D02*
X286156961Y-85593604D01*
X286156961Y-85593604D02*
X285661723Y-85593604D01*
X285661723Y-85593604D02*
X285661723Y-84293604D01*
X285661723Y-84293604D02*
X286095057Y-84293604D01*
X286095057Y-84293604D02*
X286218866Y-84355509D01*
X286218866Y-84355509D02*
X286280771Y-84417414D01*
X286280771Y-84417414D02*
X286342676Y-84541223D01*
X286342676Y-84541223D02*
X286342676Y-84665033D01*
X286342676Y-84665033D02*
X286280771Y-84788842D01*
X286280771Y-84788842D02*
X286218866Y-84850747D01*
X286218866Y-84850747D02*
X286095057Y-84912652D01*
X286095057Y-84912652D02*
X285661723Y-84912652D01*
X286404580Y-135469795D02*
X286342676Y-135531700D01*
X286342676Y-135531700D02*
X286156961Y-135593604D01*
X286156961Y-135593604D02*
X286033152Y-135593604D01*
X286033152Y-135593604D02*
X285847438Y-135531700D01*
X285847438Y-135531700D02*
X285723628Y-135407890D01*
X285723628Y-135407890D02*
X285661723Y-135284080D01*
X285661723Y-135284080D02*
X285599819Y-135036461D01*
X285599819Y-135036461D02*
X285599819Y-134850747D01*
X285599819Y-134850747D02*
X285661723Y-134603128D01*
X285661723Y-134603128D02*
X285723628Y-134479319D01*
X285723628Y-134479319D02*
X285847438Y-134355509D01*
X285847438Y-134355509D02*
X286033152Y-134293604D01*
X286033152Y-134293604D02*
X286156961Y-134293604D01*
X286156961Y-134293604D02*
X286342676Y-134355509D01*
X286342676Y-134355509D02*
X286404580Y-134417414D01*
X285661723Y-185593604D02*
X285661723Y-184293604D01*
X285661723Y-184293604D02*
X285971247Y-184293604D01*
X285971247Y-184293604D02*
X286156961Y-184355509D01*
X286156961Y-184355509D02*
X286280771Y-184479319D01*
X286280771Y-184479319D02*
X286342676Y-184603128D01*
X286342676Y-184603128D02*
X286404580Y-184850747D01*
X286404580Y-184850747D02*
X286404580Y-185036461D01*
X286404580Y-185036461D02*
X286342676Y-185284080D01*
X286342676Y-185284080D02*
X286280771Y-185407890D01*
X286280771Y-185407890D02*
X286156961Y-185531700D01*
X286156961Y-185531700D02*
X285971247Y-185593604D01*
X285971247Y-185593604D02*
X285661723Y-185593604D01*
X200458026Y-193793328D02*
X200458026Y-192293328D01*
X200458026Y-192293328D02*
X200815169Y-192293328D01*
X200815169Y-192293328D02*
X201029455Y-192364757D01*
X201029455Y-192364757D02*
X201172312Y-192507614D01*
X201172312Y-192507614D02*
X201243741Y-192650471D01*
X201243741Y-192650471D02*
X201315169Y-192936185D01*
X201315169Y-192936185D02*
X201315169Y-193150471D01*
X201315169Y-193150471D02*
X201243741Y-193436185D01*
X201243741Y-193436185D02*
X201172312Y-193579042D01*
X201172312Y-193579042D02*
X201029455Y-193721900D01*
X201029455Y-193721900D02*
X200815169Y-193793328D01*
X200815169Y-193793328D02*
X200458026Y-193793328D01*
X202600884Y-193793328D02*
X202600884Y-193007614D01*
X202600884Y-193007614D02*
X202529455Y-192864757D01*
X202529455Y-192864757D02*
X202386598Y-192793328D01*
X202386598Y-192793328D02*
X202100884Y-192793328D01*
X202100884Y-192793328D02*
X201958026Y-192864757D01*
X202600884Y-193721900D02*
X202458026Y-193793328D01*
X202458026Y-193793328D02*
X202100884Y-193793328D01*
X202100884Y-193793328D02*
X201958026Y-193721900D01*
X201958026Y-193721900D02*
X201886598Y-193579042D01*
X201886598Y-193579042D02*
X201886598Y-193436185D01*
X201886598Y-193436185D02*
X201958026Y-193293328D01*
X201958026Y-193293328D02*
X202100884Y-193221900D01*
X202100884Y-193221900D02*
X202458026Y-193221900D01*
X202458026Y-193221900D02*
X202600884Y-193150471D01*
X203100884Y-192793328D02*
X203672312Y-192793328D01*
X203315169Y-192293328D02*
X203315169Y-193579042D01*
X203315169Y-193579042D02*
X203386598Y-193721900D01*
X203386598Y-193721900D02*
X203529455Y-193793328D01*
X203529455Y-193793328D02*
X203672312Y-193793328D01*
X204743741Y-193721900D02*
X204600884Y-193793328D01*
X204600884Y-193793328D02*
X204315170Y-193793328D01*
X204315170Y-193793328D02*
X204172312Y-193721900D01*
X204172312Y-193721900D02*
X204100884Y-193579042D01*
X204100884Y-193579042D02*
X204100884Y-193007614D01*
X204100884Y-193007614D02*
X204172312Y-192864757D01*
X204172312Y-192864757D02*
X204315170Y-192793328D01*
X204315170Y-192793328D02*
X204600884Y-192793328D01*
X204600884Y-192793328D02*
X204743741Y-192864757D01*
X204743741Y-192864757D02*
X204815170Y-193007614D01*
X204815170Y-193007614D02*
X204815170Y-193150471D01*
X204815170Y-193150471D02*
X204100884Y-193293328D01*
X205458026Y-193650471D02*
X205529455Y-193721900D01*
X205529455Y-193721900D02*
X205458026Y-193793328D01*
X205458026Y-193793328D02*
X205386598Y-193721900D01*
X205386598Y-193721900D02*
X205458026Y-193650471D01*
X205458026Y-193650471D02*
X205458026Y-193793328D01*
X205458026Y-192864757D02*
X205529455Y-192936185D01*
X205529455Y-192936185D02*
X205458026Y-193007614D01*
X205458026Y-193007614D02*
X205386598Y-192936185D01*
X205386598Y-192936185D02*
X205458026Y-192864757D01*
X205458026Y-192864757D02*
X205458026Y-193007614D01*
X207243741Y-192436185D02*
X207315169Y-192364757D01*
X207315169Y-192364757D02*
X207458027Y-192293328D01*
X207458027Y-192293328D02*
X207815169Y-192293328D01*
X207815169Y-192293328D02*
X207958027Y-192364757D01*
X207958027Y-192364757D02*
X208029455Y-192436185D01*
X208029455Y-192436185D02*
X208100884Y-192579042D01*
X208100884Y-192579042D02*
X208100884Y-192721900D01*
X208100884Y-192721900D02*
X208029455Y-192936185D01*
X208029455Y-192936185D02*
X207172312Y-193793328D01*
X207172312Y-193793328D02*
X208100884Y-193793328D01*
X209029455Y-192293328D02*
X209172312Y-192293328D01*
X209172312Y-192293328D02*
X209315169Y-192364757D01*
X209315169Y-192364757D02*
X209386598Y-192436185D01*
X209386598Y-192436185D02*
X209458026Y-192579042D01*
X209458026Y-192579042D02*
X209529455Y-192864757D01*
X209529455Y-192864757D02*
X209529455Y-193221900D01*
X209529455Y-193221900D02*
X209458026Y-193507614D01*
X209458026Y-193507614D02*
X209386598Y-193650471D01*
X209386598Y-193650471D02*
X209315169Y-193721900D01*
X209315169Y-193721900D02*
X209172312Y-193793328D01*
X209172312Y-193793328D02*
X209029455Y-193793328D01*
X209029455Y-193793328D02*
X208886598Y-193721900D01*
X208886598Y-193721900D02*
X208815169Y-193650471D01*
X208815169Y-193650471D02*
X208743740Y-193507614D01*
X208743740Y-193507614D02*
X208672312Y-193221900D01*
X208672312Y-193221900D02*
X208672312Y-192864757D01*
X208672312Y-192864757D02*
X208743740Y-192579042D01*
X208743740Y-192579042D02*
X208815169Y-192436185D01*
X208815169Y-192436185D02*
X208886598Y-192364757D01*
X208886598Y-192364757D02*
X209029455Y-192293328D01*
X210100883Y-192436185D02*
X210172311Y-192364757D01*
X210172311Y-192364757D02*
X210315169Y-192293328D01*
X210315169Y-192293328D02*
X210672311Y-192293328D01*
X210672311Y-192293328D02*
X210815169Y-192364757D01*
X210815169Y-192364757D02*
X210886597Y-192436185D01*
X210886597Y-192436185D02*
X210958026Y-192579042D01*
X210958026Y-192579042D02*
X210958026Y-192721900D01*
X210958026Y-192721900D02*
X210886597Y-192936185D01*
X210886597Y-192936185D02*
X210029454Y-193793328D01*
X210029454Y-193793328D02*
X210958026Y-193793328D01*
X212243740Y-192293328D02*
X211958025Y-192293328D01*
X211958025Y-192293328D02*
X211815168Y-192364757D01*
X211815168Y-192364757D02*
X211743740Y-192436185D01*
X211743740Y-192436185D02*
X211600882Y-192650471D01*
X211600882Y-192650471D02*
X211529454Y-192936185D01*
X211529454Y-192936185D02*
X211529454Y-193507614D01*
X211529454Y-193507614D02*
X211600882Y-193650471D01*
X211600882Y-193650471D02*
X211672311Y-193721900D01*
X211672311Y-193721900D02*
X211815168Y-193793328D01*
X211815168Y-193793328D02*
X212100882Y-193793328D01*
X212100882Y-193793328D02*
X212243740Y-193721900D01*
X212243740Y-193721900D02*
X212315168Y-193650471D01*
X212315168Y-193650471D02*
X212386597Y-193507614D01*
X212386597Y-193507614D02*
X212386597Y-193150471D01*
X212386597Y-193150471D02*
X212315168Y-193007614D01*
X212315168Y-193007614D02*
X212243740Y-192936185D01*
X212243740Y-192936185D02*
X212100882Y-192864757D01*
X212100882Y-192864757D02*
X211815168Y-192864757D01*
X211815168Y-192864757D02*
X211672311Y-192936185D01*
X211672311Y-192936185D02*
X211600882Y-193007614D01*
X211600882Y-193007614D02*
X211529454Y-193150471D01*
X213029453Y-193221900D02*
X214172311Y-193221900D01*
X215172311Y-192293328D02*
X215315168Y-192293328D01*
X215315168Y-192293328D02*
X215458025Y-192364757D01*
X215458025Y-192364757D02*
X215529454Y-192436185D01*
X215529454Y-192436185D02*
X215600882Y-192579042D01*
X215600882Y-192579042D02*
X215672311Y-192864757D01*
X215672311Y-192864757D02*
X215672311Y-193221900D01*
X215672311Y-193221900D02*
X215600882Y-193507614D01*
X215600882Y-193507614D02*
X215529454Y-193650471D01*
X215529454Y-193650471D02*
X215458025Y-193721900D01*
X215458025Y-193721900D02*
X215315168Y-193793328D01*
X215315168Y-193793328D02*
X215172311Y-193793328D01*
X215172311Y-193793328D02*
X215029454Y-193721900D01*
X215029454Y-193721900D02*
X214958025Y-193650471D01*
X214958025Y-193650471D02*
X214886596Y-193507614D01*
X214886596Y-193507614D02*
X214815168Y-193221900D01*
X214815168Y-193221900D02*
X214815168Y-192864757D01*
X214815168Y-192864757D02*
X214886596Y-192579042D01*
X214886596Y-192579042D02*
X214958025Y-192436185D01*
X214958025Y-192436185D02*
X215029454Y-192364757D01*
X215029454Y-192364757D02*
X215172311Y-192293328D01*
X216529453Y-192936185D02*
X216386596Y-192864757D01*
X216386596Y-192864757D02*
X216315167Y-192793328D01*
X216315167Y-192793328D02*
X216243739Y-192650471D01*
X216243739Y-192650471D02*
X216243739Y-192579042D01*
X216243739Y-192579042D02*
X216315167Y-192436185D01*
X216315167Y-192436185D02*
X216386596Y-192364757D01*
X216386596Y-192364757D02*
X216529453Y-192293328D01*
X216529453Y-192293328D02*
X216815167Y-192293328D01*
X216815167Y-192293328D02*
X216958025Y-192364757D01*
X216958025Y-192364757D02*
X217029453Y-192436185D01*
X217029453Y-192436185D02*
X217100882Y-192579042D01*
X217100882Y-192579042D02*
X217100882Y-192650471D01*
X217100882Y-192650471D02*
X217029453Y-192793328D01*
X217029453Y-192793328D02*
X216958025Y-192864757D01*
X216958025Y-192864757D02*
X216815167Y-192936185D01*
X216815167Y-192936185D02*
X216529453Y-192936185D01*
X216529453Y-192936185D02*
X216386596Y-193007614D01*
X216386596Y-193007614D02*
X216315167Y-193079042D01*
X216315167Y-193079042D02*
X216243739Y-193221900D01*
X216243739Y-193221900D02*
X216243739Y-193507614D01*
X216243739Y-193507614D02*
X216315167Y-193650471D01*
X216315167Y-193650471D02*
X216386596Y-193721900D01*
X216386596Y-193721900D02*
X216529453Y-193793328D01*
X216529453Y-193793328D02*
X216815167Y-193793328D01*
X216815167Y-193793328D02*
X216958025Y-193721900D01*
X216958025Y-193721900D02*
X217029453Y-193650471D01*
X217029453Y-193650471D02*
X217100882Y-193507614D01*
X217100882Y-193507614D02*
X217100882Y-193221900D01*
X217100882Y-193221900D02*
X217029453Y-193079042D01*
X217029453Y-193079042D02*
X216958025Y-193007614D01*
X216958025Y-193007614D02*
X216815167Y-192936185D01*
X217743738Y-193221900D02*
X218886596Y-193221900D01*
X220386596Y-193793328D02*
X219529453Y-193793328D01*
X219958024Y-193793328D02*
X219958024Y-192293328D01*
X219958024Y-192293328D02*
X219815167Y-192507614D01*
X219815167Y-192507614D02*
X219672310Y-192650471D01*
X219672310Y-192650471D02*
X219529453Y-192721900D01*
X221100881Y-193793328D02*
X221386595Y-193793328D01*
X221386595Y-193793328D02*
X221529452Y-193721900D01*
X221529452Y-193721900D02*
X221600881Y-193650471D01*
X221600881Y-193650471D02*
X221743738Y-193436185D01*
X221743738Y-193436185D02*
X221815167Y-193150471D01*
X221815167Y-193150471D02*
X221815167Y-192579042D01*
X221815167Y-192579042D02*
X221743738Y-192436185D01*
X221743738Y-192436185D02*
X221672310Y-192364757D01*
X221672310Y-192364757D02*
X221529452Y-192293328D01*
X221529452Y-192293328D02*
X221243738Y-192293328D01*
X221243738Y-192293328D02*
X221100881Y-192364757D01*
X221100881Y-192364757D02*
X221029452Y-192436185D01*
X221029452Y-192436185D02*
X220958024Y-192579042D01*
X220958024Y-192579042D02*
X220958024Y-192936185D01*
X220958024Y-192936185D02*
X221029452Y-193079042D01*
X221029452Y-193079042D02*
X221100881Y-193150471D01*
X221100881Y-193150471D02*
X221243738Y-193221900D01*
X221243738Y-193221900D02*
X221529452Y-193221900D01*
X221529452Y-193221900D02*
X221672310Y-193150471D01*
X221672310Y-193150471D02*
X221743738Y-193079042D01*
X221743738Y-193079042D02*
X221815167Y-192936185D01*
X177002200Y-194507200D02*
X285002200Y-194507200D01*
X178458026Y-196593328D02*
X178458026Y-195093328D01*
X179315169Y-196593328D02*
X178672312Y-195736185D01*
X179315169Y-195093328D02*
X178458026Y-195950471D01*
X179958026Y-196593328D02*
X179958026Y-195593328D01*
X179958026Y-195093328D02*
X179886598Y-195164757D01*
X179886598Y-195164757D02*
X179958026Y-195236185D01*
X179958026Y-195236185D02*
X180029455Y-195164757D01*
X180029455Y-195164757D02*
X179958026Y-195093328D01*
X179958026Y-195093328D02*
X179958026Y-195236185D01*
X181529455Y-196450471D02*
X181458027Y-196521900D01*
X181458027Y-196521900D02*
X181243741Y-196593328D01*
X181243741Y-196593328D02*
X181100884Y-196593328D01*
X181100884Y-196593328D02*
X180886598Y-196521900D01*
X180886598Y-196521900D02*
X180743741Y-196379042D01*
X180743741Y-196379042D02*
X180672312Y-196236185D01*
X180672312Y-196236185D02*
X180600884Y-195950471D01*
X180600884Y-195950471D02*
X180600884Y-195736185D01*
X180600884Y-195736185D02*
X180672312Y-195450471D01*
X180672312Y-195450471D02*
X180743741Y-195307614D01*
X180743741Y-195307614D02*
X180886598Y-195164757D01*
X180886598Y-195164757D02*
X181100884Y-195093328D01*
X181100884Y-195093328D02*
X181243741Y-195093328D01*
X181243741Y-195093328D02*
X181458027Y-195164757D01*
X181458027Y-195164757D02*
X181529455Y-195236185D01*
X182815170Y-196593328D02*
X182815170Y-195807614D01*
X182815170Y-195807614D02*
X182743741Y-195664757D01*
X182743741Y-195664757D02*
X182600884Y-195593328D01*
X182600884Y-195593328D02*
X182315170Y-195593328D01*
X182315170Y-195593328D02*
X182172312Y-195664757D01*
X182815170Y-196521900D02*
X182672312Y-196593328D01*
X182672312Y-196593328D02*
X182315170Y-196593328D01*
X182315170Y-196593328D02*
X182172312Y-196521900D01*
X182172312Y-196521900D02*
X182100884Y-196379042D01*
X182100884Y-196379042D02*
X182100884Y-196236185D01*
X182100884Y-196236185D02*
X182172312Y-196093328D01*
X182172312Y-196093328D02*
X182315170Y-196021900D01*
X182315170Y-196021900D02*
X182672312Y-196021900D01*
X182672312Y-196021900D02*
X182815170Y-195950471D01*
X184172313Y-196593328D02*
X184172313Y-195093328D01*
X184172313Y-196521900D02*
X184029455Y-196593328D01*
X184029455Y-196593328D02*
X183743741Y-196593328D01*
X183743741Y-196593328D02*
X183600884Y-196521900D01*
X183600884Y-196521900D02*
X183529455Y-196450471D01*
X183529455Y-196450471D02*
X183458027Y-196307614D01*
X183458027Y-196307614D02*
X183458027Y-195879042D01*
X183458027Y-195879042D02*
X183529455Y-195736185D01*
X183529455Y-195736185D02*
X183600884Y-195664757D01*
X183600884Y-195664757D02*
X183743741Y-195593328D01*
X183743741Y-195593328D02*
X184029455Y-195593328D01*
X184029455Y-195593328D02*
X184172313Y-195664757D01*
X186029455Y-195807614D02*
X186529455Y-195807614D01*
X186743741Y-196593328D02*
X186029455Y-196593328D01*
X186029455Y-196593328D02*
X186029455Y-195093328D01*
X186029455Y-195093328D02*
X186743741Y-195093328D01*
X187386598Y-196450471D02*
X187458027Y-196521900D01*
X187458027Y-196521900D02*
X187386598Y-196593328D01*
X187386598Y-196593328D02*
X187315170Y-196521900D01*
X187315170Y-196521900D02*
X187386598Y-196450471D01*
X187386598Y-196450471D02*
X187386598Y-196593328D01*
X188100884Y-196593328D02*
X188100884Y-195093328D01*
X188100884Y-195093328D02*
X188458027Y-195093328D01*
X188458027Y-195093328D02*
X188672313Y-195164757D01*
X188672313Y-195164757D02*
X188815170Y-195307614D01*
X188815170Y-195307614D02*
X188886599Y-195450471D01*
X188886599Y-195450471D02*
X188958027Y-195736185D01*
X188958027Y-195736185D02*
X188958027Y-195950471D01*
X188958027Y-195950471D02*
X188886599Y-196236185D01*
X188886599Y-196236185D02*
X188815170Y-196379042D01*
X188815170Y-196379042D02*
X188672313Y-196521900D01*
X188672313Y-196521900D02*
X188458027Y-196593328D01*
X188458027Y-196593328D02*
X188100884Y-196593328D01*
X189600884Y-196450471D02*
X189672313Y-196521900D01*
X189672313Y-196521900D02*
X189600884Y-196593328D01*
X189600884Y-196593328D02*
X189529456Y-196521900D01*
X189529456Y-196521900D02*
X189600884Y-196450471D01*
X189600884Y-196450471D02*
X189600884Y-196593328D01*
X190243742Y-196164757D02*
X190958028Y-196164757D01*
X190100885Y-196593328D02*
X190600885Y-195093328D01*
X190600885Y-195093328D02*
X191100885Y-196593328D01*
X191600884Y-196450471D02*
X191672313Y-196521900D01*
X191672313Y-196521900D02*
X191600884Y-196593328D01*
X191600884Y-196593328D02*
X191529456Y-196521900D01*
X191529456Y-196521900D02*
X191600884Y-196450471D01*
X191600884Y-196450471D02*
X191600884Y-196593328D01*
X194243742Y-196593328D02*
X193386599Y-196593328D01*
X193815170Y-196593328D02*
X193815170Y-195093328D01*
X193815170Y-195093328D02*
X193672313Y-195307614D01*
X193672313Y-195307614D02*
X193529456Y-195450471D01*
X193529456Y-195450471D02*
X193386599Y-195521900D01*
X195172313Y-195093328D02*
X195315170Y-195093328D01*
X195315170Y-195093328D02*
X195458027Y-195164757D01*
X195458027Y-195164757D02*
X195529456Y-195236185D01*
X195529456Y-195236185D02*
X195600884Y-195379042D01*
X195600884Y-195379042D02*
X195672313Y-195664757D01*
X195672313Y-195664757D02*
X195672313Y-196021900D01*
X195672313Y-196021900D02*
X195600884Y-196307614D01*
X195600884Y-196307614D02*
X195529456Y-196450471D01*
X195529456Y-196450471D02*
X195458027Y-196521900D01*
X195458027Y-196521900D02*
X195315170Y-196593328D01*
X195315170Y-196593328D02*
X195172313Y-196593328D01*
X195172313Y-196593328D02*
X195029456Y-196521900D01*
X195029456Y-196521900D02*
X194958027Y-196450471D01*
X194958027Y-196450471D02*
X194886598Y-196307614D01*
X194886598Y-196307614D02*
X194815170Y-196021900D01*
X194815170Y-196021900D02*
X194815170Y-195664757D01*
X194815170Y-195664757D02*
X194886598Y-195379042D01*
X194886598Y-195379042D02*
X194958027Y-195236185D01*
X194958027Y-195236185D02*
X195029456Y-195164757D01*
X195029456Y-195164757D02*
X195172313Y-195093328D01*
X196315169Y-196450471D02*
X196386598Y-196521900D01*
X196386598Y-196521900D02*
X196315169Y-196593328D01*
X196315169Y-196593328D02*
X196243741Y-196521900D01*
X196243741Y-196521900D02*
X196315169Y-196450471D01*
X196315169Y-196450471D02*
X196315169Y-196593328D01*
X197315170Y-195093328D02*
X197458027Y-195093328D01*
X197458027Y-195093328D02*
X197600884Y-195164757D01*
X197600884Y-195164757D02*
X197672313Y-195236185D01*
X197672313Y-195236185D02*
X197743741Y-195379042D01*
X197743741Y-195379042D02*
X197815170Y-195664757D01*
X197815170Y-195664757D02*
X197815170Y-196021900D01*
X197815170Y-196021900D02*
X197743741Y-196307614D01*
X197743741Y-196307614D02*
X197672313Y-196450471D01*
X197672313Y-196450471D02*
X197600884Y-196521900D01*
X197600884Y-196521900D02*
X197458027Y-196593328D01*
X197458027Y-196593328D02*
X197315170Y-196593328D01*
X197315170Y-196593328D02*
X197172313Y-196521900D01*
X197172313Y-196521900D02*
X197100884Y-196450471D01*
X197100884Y-196450471D02*
X197029455Y-196307614D01*
X197029455Y-196307614D02*
X196958027Y-196021900D01*
X196958027Y-196021900D02*
X196958027Y-195664757D01*
X196958027Y-195664757D02*
X197029455Y-195379042D01*
X197029455Y-195379042D02*
X197100884Y-195236185D01*
X197100884Y-195236185D02*
X197172313Y-195164757D01*
X197172313Y-195164757D02*
X197315170Y-195093328D01*
X198458026Y-196450471D02*
X198529455Y-196521900D01*
X198529455Y-196521900D02*
X198458026Y-196593328D01*
X198458026Y-196593328D02*
X198386598Y-196521900D01*
X198386598Y-196521900D02*
X198458026Y-196450471D01*
X198458026Y-196450471D02*
X198458026Y-196593328D01*
X199886598Y-195093328D02*
X199172312Y-195093328D01*
X199172312Y-195093328D02*
X199100884Y-195807614D01*
X199100884Y-195807614D02*
X199172312Y-195736185D01*
X199172312Y-195736185D02*
X199315170Y-195664757D01*
X199315170Y-195664757D02*
X199672312Y-195664757D01*
X199672312Y-195664757D02*
X199815170Y-195736185D01*
X199815170Y-195736185D02*
X199886598Y-195807614D01*
X199886598Y-195807614D02*
X199958027Y-195950471D01*
X199958027Y-195950471D02*
X199958027Y-196307614D01*
X199958027Y-196307614D02*
X199886598Y-196450471D01*
X199886598Y-196450471D02*
X199815170Y-196521900D01*
X199815170Y-196521900D02*
X199672312Y-196593328D01*
X199672312Y-196593328D02*
X199315170Y-196593328D01*
X199315170Y-196593328D02*
X199172312Y-196521900D01*
X199172312Y-196521900D02*
X199100884Y-196450471D01*
X177002200Y-191507200D02*
X285002200Y-191507200D01*
D11*
X264413853Y-193785528D02*
X263913853Y-193071242D01*
X263556710Y-193785528D02*
X263556710Y-192285528D01*
X263556710Y-192285528D02*
X264128139Y-192285528D01*
X264128139Y-192285528D02*
X264270996Y-192356957D01*
X264270996Y-192356957D02*
X264342425Y-192428385D01*
X264342425Y-192428385D02*
X264413853Y-192571242D01*
X264413853Y-192571242D02*
X264413853Y-192785528D01*
X264413853Y-192785528D02*
X264342425Y-192928385D01*
X264342425Y-192928385D02*
X264270996Y-192999814D01*
X264270996Y-192999814D02*
X264128139Y-193071242D01*
X264128139Y-193071242D02*
X263556710Y-193071242D01*
X265628139Y-193714100D02*
X265485282Y-193785528D01*
X265485282Y-193785528D02*
X265199568Y-193785528D01*
X265199568Y-193785528D02*
X265056710Y-193714100D01*
X265056710Y-193714100D02*
X264985282Y-193571242D01*
X264985282Y-193571242D02*
X264985282Y-192999814D01*
X264985282Y-192999814D02*
X265056710Y-192856957D01*
X265056710Y-192856957D02*
X265199568Y-192785528D01*
X265199568Y-192785528D02*
X265485282Y-192785528D01*
X265485282Y-192785528D02*
X265628139Y-192856957D01*
X265628139Y-192856957D02*
X265699568Y-192999814D01*
X265699568Y-192999814D02*
X265699568Y-193142671D01*
X265699568Y-193142671D02*
X264985282Y-193285528D01*
X266199567Y-192785528D02*
X266556710Y-193785528D01*
X266556710Y-193785528D02*
X266913853Y-192785528D01*
X267485281Y-193642671D02*
X267556710Y-193714100D01*
X267556710Y-193714100D02*
X267485281Y-193785528D01*
X267485281Y-193785528D02*
X267413853Y-193714100D01*
X267413853Y-193714100D02*
X267485281Y-193642671D01*
X267485281Y-193642671D02*
X267485281Y-193785528D01*
X267485281Y-192856957D02*
X267556710Y-192928385D01*
X267556710Y-192928385D02*
X267485281Y-192999814D01*
X267485281Y-192999814D02*
X267413853Y-192928385D01*
X267413853Y-192928385D02*
X267485281Y-192856957D01*
X267485281Y-192856957D02*
X267485281Y-192999814D01*
X269128139Y-192285528D02*
X269628139Y-193785528D01*
X269628139Y-193785528D02*
X270128139Y-192285528D01*
X271413853Y-193785528D02*
X270556710Y-193785528D01*
X270985281Y-193785528D02*
X270985281Y-192285528D01*
X270985281Y-192285528D02*
X270842424Y-192499814D01*
X270842424Y-192499814D02*
X270699567Y-192642671D01*
X270699567Y-192642671D02*
X270556710Y-192714100D01*
X272056709Y-193642671D02*
X272128138Y-193714100D01*
X272128138Y-193714100D02*
X272056709Y-193785528D01*
X272056709Y-193785528D02*
X271985281Y-193714100D01*
X271985281Y-193714100D02*
X272056709Y-193642671D01*
X272056709Y-193642671D02*
X272056709Y-193785528D01*
X273056710Y-192285528D02*
X273199567Y-192285528D01*
X273199567Y-192285528D02*
X273342424Y-192356957D01*
X273342424Y-192356957D02*
X273413853Y-192428385D01*
X273413853Y-192428385D02*
X273485281Y-192571242D01*
X273485281Y-192571242D02*
X273556710Y-192856957D01*
X273556710Y-192856957D02*
X273556710Y-193214100D01*
X273556710Y-193214100D02*
X273485281Y-193499814D01*
X273485281Y-193499814D02*
X273413853Y-193642671D01*
X273413853Y-193642671D02*
X273342424Y-193714100D01*
X273342424Y-193714100D02*
X273199567Y-193785528D01*
X273199567Y-193785528D02*
X273056710Y-193785528D01*
X273056710Y-193785528D02*
X272913853Y-193714100D01*
X272913853Y-193714100D02*
X272842424Y-193642671D01*
X272842424Y-193642671D02*
X272770995Y-193499814D01*
X272770995Y-193499814D02*
X272699567Y-193214100D01*
X272699567Y-193214100D02*
X272699567Y-192856957D01*
X272699567Y-192856957D02*
X272770995Y-192571242D01*
X272770995Y-192571242D02*
X272842424Y-192428385D01*
X272842424Y-192428385D02*
X272913853Y-192356957D01*
X272913853Y-192356957D02*
X273056710Y-192285528D01*
D10*
X178386598Y-193721900D02*
X178600884Y-193793328D01*
X178600884Y-193793328D02*
X178958026Y-193793328D01*
X178958026Y-193793328D02*
X179100884Y-193721900D01*
X179100884Y-193721900D02*
X179172312Y-193650471D01*
X179172312Y-193650471D02*
X179243741Y-193507614D01*
X179243741Y-193507614D02*
X179243741Y-193364757D01*
X179243741Y-193364757D02*
X179172312Y-193221900D01*
X179172312Y-193221900D02*
X179100884Y-193150471D01*
X179100884Y-193150471D02*
X178958026Y-193079042D01*
X178958026Y-193079042D02*
X178672312Y-193007614D01*
X178672312Y-193007614D02*
X178529455Y-192936185D01*
X178529455Y-192936185D02*
X178458026Y-192864757D01*
X178458026Y-192864757D02*
X178386598Y-192721900D01*
X178386598Y-192721900D02*
X178386598Y-192579042D01*
X178386598Y-192579042D02*
X178458026Y-192436185D01*
X178458026Y-192436185D02*
X178529455Y-192364757D01*
X178529455Y-192364757D02*
X178672312Y-192293328D01*
X178672312Y-192293328D02*
X179029455Y-192293328D01*
X179029455Y-192293328D02*
X179243741Y-192364757D01*
X179886597Y-193793328D02*
X179886597Y-192793328D01*
X179886597Y-192293328D02*
X179815169Y-192364757D01*
X179815169Y-192364757D02*
X179886597Y-192436185D01*
X179886597Y-192436185D02*
X179958026Y-192364757D01*
X179958026Y-192364757D02*
X179886597Y-192293328D01*
X179886597Y-192293328D02*
X179886597Y-192436185D01*
X180458026Y-192793328D02*
X181243741Y-192793328D01*
X181243741Y-192793328D02*
X180458026Y-193793328D01*
X180458026Y-193793328D02*
X181243741Y-193793328D01*
X182386598Y-193721900D02*
X182243741Y-193793328D01*
X182243741Y-193793328D02*
X181958027Y-193793328D01*
X181958027Y-193793328D02*
X181815169Y-193721900D01*
X181815169Y-193721900D02*
X181743741Y-193579042D01*
X181743741Y-193579042D02*
X181743741Y-193007614D01*
X181743741Y-193007614D02*
X181815169Y-192864757D01*
X181815169Y-192864757D02*
X181958027Y-192793328D01*
X181958027Y-192793328D02*
X182243741Y-192793328D01*
X182243741Y-192793328D02*
X182386598Y-192864757D01*
X182386598Y-192864757D02*
X182458027Y-193007614D01*
X182458027Y-193007614D02*
X182458027Y-193150471D01*
X182458027Y-193150471D02*
X181743741Y-193293328D01*
X183100883Y-193650471D02*
X183172312Y-193721900D01*
X183172312Y-193721900D02*
X183100883Y-193793328D01*
X183100883Y-193793328D02*
X183029455Y-193721900D01*
X183029455Y-193721900D02*
X183100883Y-193650471D01*
X183100883Y-193650471D02*
X183100883Y-193793328D01*
X183100883Y-192864757D02*
X183172312Y-192936185D01*
X183172312Y-192936185D02*
X183100883Y-193007614D01*
X183100883Y-193007614D02*
X183029455Y-192936185D01*
X183029455Y-192936185D02*
X183100883Y-192864757D01*
X183100883Y-192864757D02*
X183100883Y-193007614D01*
X184886598Y-193364757D02*
X185600884Y-193364757D01*
X184743741Y-193793328D02*
X185243741Y-192293328D01*
X185243741Y-192293328D02*
X185743741Y-193793328D01*
X186886598Y-192793328D02*
X186886598Y-193793328D01*
X186529455Y-192221900D02*
X186172312Y-193293328D01*
X186172312Y-193293328D02*
X187100883Y-193293328D01*
X263458026Y-196593328D02*
X263458026Y-195093328D01*
X264815170Y-196593328D02*
X264815170Y-195093328D01*
X264815170Y-196521900D02*
X264672312Y-196593328D01*
X264672312Y-196593328D02*
X264386598Y-196593328D01*
X264386598Y-196593328D02*
X264243741Y-196521900D01*
X264243741Y-196521900D02*
X264172312Y-196450471D01*
X264172312Y-196450471D02*
X264100884Y-196307614D01*
X264100884Y-196307614D02*
X264100884Y-195879042D01*
X264100884Y-195879042D02*
X264172312Y-195736185D01*
X264172312Y-195736185D02*
X264243741Y-195664757D01*
X264243741Y-195664757D02*
X264386598Y-195593328D01*
X264386598Y-195593328D02*
X264672312Y-195593328D01*
X264672312Y-195593328D02*
X264815170Y-195664757D01*
X265529455Y-196450471D02*
X265600884Y-196521900D01*
X265600884Y-196521900D02*
X265529455Y-196593328D01*
X265529455Y-196593328D02*
X265458027Y-196521900D01*
X265458027Y-196521900D02*
X265529455Y-196450471D01*
X265529455Y-196450471D02*
X265529455Y-196593328D01*
X265529455Y-195664757D02*
X265600884Y-195736185D01*
X265600884Y-195736185D02*
X265529455Y-195807614D01*
X265529455Y-195807614D02*
X265458027Y-195736185D01*
X265458027Y-195736185D02*
X265529455Y-195664757D01*
X265529455Y-195664757D02*
X265529455Y-195807614D01*
X268172313Y-196593328D02*
X267315170Y-196593328D01*
X267743741Y-196593328D02*
X267743741Y-195093328D01*
X267743741Y-195093328D02*
X267600884Y-195307614D01*
X267600884Y-195307614D02*
X267458027Y-195450471D01*
X267458027Y-195450471D02*
X267315170Y-195521900D01*
X269458027Y-195093328D02*
X269172312Y-195093328D01*
X269172312Y-195093328D02*
X269029455Y-195164757D01*
X269029455Y-195164757D02*
X268958027Y-195236185D01*
X268958027Y-195236185D02*
X268815169Y-195450471D01*
X268815169Y-195450471D02*
X268743741Y-195736185D01*
X268743741Y-195736185D02*
X268743741Y-196307614D01*
X268743741Y-196307614D02*
X268815169Y-196450471D01*
X268815169Y-196450471D02*
X268886598Y-196521900D01*
X268886598Y-196521900D02*
X269029455Y-196593328D01*
X269029455Y-196593328D02*
X269315169Y-196593328D01*
X269315169Y-196593328D02*
X269458027Y-196521900D01*
X269458027Y-196521900D02*
X269529455Y-196450471D01*
X269529455Y-196450471D02*
X269600884Y-196307614D01*
X269600884Y-196307614D02*
X269600884Y-195950471D01*
X269600884Y-195950471D02*
X269529455Y-195807614D01*
X269529455Y-195807614D02*
X269458027Y-195736185D01*
X269458027Y-195736185D02*
X269315169Y-195664757D01*
X269315169Y-195664757D02*
X269029455Y-195664757D01*
X269029455Y-195664757D02*
X268886598Y-195736185D01*
X268886598Y-195736185D02*
X268815169Y-195807614D01*
X268815169Y-195807614D02*
X268743741Y-195950471D01*
X271315169Y-195021900D02*
X270029455Y-196950471D01*
X272600884Y-196593328D02*
X271743741Y-196593328D01*
X272172312Y-196593328D02*
X272172312Y-195093328D01*
X272172312Y-195093328D02*
X272029455Y-195307614D01*
X272029455Y-195307614D02*
X271886598Y-195450471D01*
X271886598Y-195450471D02*
X271743741Y-195521900D01*
X273315169Y-196593328D02*
X273600883Y-196593328D01*
X273600883Y-196593328D02*
X273743740Y-196521900D01*
X273743740Y-196521900D02*
X273815169Y-196450471D01*
X273815169Y-196450471D02*
X273958026Y-196236185D01*
X273958026Y-196236185D02*
X274029455Y-195950471D01*
X274029455Y-195950471D02*
X274029455Y-195379042D01*
X274029455Y-195379042D02*
X273958026Y-195236185D01*
X273958026Y-195236185D02*
X273886598Y-195164757D01*
X273886598Y-195164757D02*
X273743740Y-195093328D01*
X273743740Y-195093328D02*
X273458026Y-195093328D01*
X273458026Y-195093328D02*
X273315169Y-195164757D01*
X273315169Y-195164757D02*
X273243740Y-195236185D01*
X273243740Y-195236185D02*
X273172312Y-195379042D01*
X273172312Y-195379042D02*
X273172312Y-195736185D01*
X273172312Y-195736185D02*
X273243740Y-195879042D01*
X273243740Y-195879042D02*
X273315169Y-195950471D01*
X273315169Y-195950471D02*
X273458026Y-196021900D01*
X273458026Y-196021900D02*
X273743740Y-196021900D01*
X273743740Y-196021900D02*
X273886598Y-195950471D01*
X273886598Y-195950471D02*
X273958026Y-195879042D01*
X273958026Y-195879042D02*
X274029455Y-195736185D01*
X177002200Y-187507200D02*
X285002200Y-187507200D01*
D12*
X178693928Y-188211638D02*
X179836785Y-188211638D01*
X179015357Y-190211638D02*
X179265357Y-188211638D01*
X180253452Y-190211638D02*
X180420119Y-188878304D01*
X180503452Y-188211638D02*
X180396309Y-188306876D01*
X180396309Y-188306876D02*
X180479643Y-188402114D01*
X180479643Y-188402114D02*
X180586786Y-188306876D01*
X180586786Y-188306876D02*
X180503452Y-188211638D01*
X180503452Y-188211638D02*
X180479643Y-188402114D01*
X181086786Y-188878304D02*
X181848690Y-188878304D01*
X181455833Y-188211638D02*
X181241548Y-189925923D01*
X181241548Y-189925923D02*
X181312976Y-190116400D01*
X181312976Y-190116400D02*
X181491548Y-190211638D01*
X181491548Y-190211638D02*
X181682024Y-190211638D01*
X182634405Y-190211638D02*
X182455833Y-190116400D01*
X182455833Y-190116400D02*
X182384405Y-189925923D01*
X182384405Y-189925923D02*
X182598690Y-188211638D01*
X184170119Y-190116400D02*
X183967738Y-190211638D01*
X183967738Y-190211638D02*
X183586785Y-190211638D01*
X183586785Y-190211638D02*
X183408214Y-190116400D01*
X183408214Y-190116400D02*
X183336785Y-189925923D01*
X183336785Y-189925923D02*
X183432024Y-189164019D01*
X183432024Y-189164019D02*
X183551071Y-188973542D01*
X183551071Y-188973542D02*
X183753452Y-188878304D01*
X183753452Y-188878304D02*
X184134404Y-188878304D01*
X184134404Y-188878304D02*
X184312976Y-188973542D01*
X184312976Y-188973542D02*
X184384404Y-189164019D01*
X184384404Y-189164019D02*
X184360595Y-189354495D01*
X184360595Y-189354495D02*
X183384404Y-189544971D01*
X185134405Y-190021161D02*
X185217738Y-190116400D01*
X185217738Y-190116400D02*
X185110595Y-190211638D01*
X185110595Y-190211638D02*
X185027262Y-190116400D01*
X185027262Y-190116400D02*
X185134405Y-190021161D01*
X185134405Y-190021161D02*
X185110595Y-190211638D01*
X185265357Y-188973542D02*
X185348690Y-189068780D01*
X185348690Y-189068780D02*
X185241548Y-189164019D01*
X185241548Y-189164019D02*
X185158214Y-189068780D01*
X185158214Y-189068780D02*
X185265357Y-188973542D01*
X185265357Y-188973542D02*
X185241548Y-189164019D01*
X188384405Y-189164019D02*
X188658215Y-189259257D01*
X188658215Y-189259257D02*
X188741548Y-189354495D01*
X188741548Y-189354495D02*
X188812977Y-189544971D01*
X188812977Y-189544971D02*
X188777262Y-189830685D01*
X188777262Y-189830685D02*
X188658215Y-190021161D01*
X188658215Y-190021161D02*
X188551072Y-190116400D01*
X188551072Y-190116400D02*
X188348691Y-190211638D01*
X188348691Y-190211638D02*
X187586786Y-190211638D01*
X187586786Y-190211638D02*
X187836786Y-188211638D01*
X187836786Y-188211638D02*
X188503453Y-188211638D01*
X188503453Y-188211638D02*
X188682024Y-188306876D01*
X188682024Y-188306876D02*
X188765358Y-188402114D01*
X188765358Y-188402114D02*
X188836786Y-188592590D01*
X188836786Y-188592590D02*
X188812977Y-188783066D01*
X188812977Y-188783066D02*
X188693929Y-188973542D01*
X188693929Y-188973542D02*
X188586786Y-189068780D01*
X188586786Y-189068780D02*
X188384405Y-189164019D01*
X188384405Y-189164019D02*
X187717739Y-189164019D01*
X190539167Y-190211638D02*
X189586786Y-190211638D01*
X189586786Y-190211638D02*
X189836786Y-188211638D01*
X191205834Y-190211638D02*
X191455834Y-188211638D01*
X191455834Y-188211638D02*
X191932025Y-188211638D01*
X191932025Y-188211638D02*
X192205834Y-188306876D01*
X192205834Y-188306876D02*
X192372501Y-188497352D01*
X192372501Y-188497352D02*
X192443929Y-188687828D01*
X192443929Y-188687828D02*
X192491549Y-189068780D01*
X192491549Y-189068780D02*
X192455834Y-189354495D01*
X192455834Y-189354495D02*
X192312977Y-189735447D01*
X192312977Y-189735447D02*
X192193929Y-189925923D01*
X192193929Y-189925923D02*
X191979644Y-190116400D01*
X191979644Y-190116400D02*
X191682025Y-190211638D01*
X191682025Y-190211638D02*
X191205834Y-190211638D01*
X194372501Y-190021161D02*
X194265358Y-190116400D01*
X194265358Y-190116400D02*
X193967739Y-190211638D01*
X193967739Y-190211638D02*
X193777263Y-190211638D01*
X193777263Y-190211638D02*
X193503453Y-190116400D01*
X193503453Y-190116400D02*
X193336787Y-189925923D01*
X193336787Y-189925923D02*
X193265358Y-189735447D01*
X193265358Y-189735447D02*
X193217739Y-189354495D01*
X193217739Y-189354495D02*
X193253453Y-189068780D01*
X193253453Y-189068780D02*
X193396310Y-188687828D01*
X193396310Y-188687828D02*
X193515358Y-188497352D01*
X193515358Y-188497352D02*
X193729644Y-188306876D01*
X193729644Y-188306876D02*
X194027263Y-188211638D01*
X194027263Y-188211638D02*
X194217739Y-188211638D01*
X194217739Y-188211638D02*
X194491549Y-188306876D01*
X194491549Y-188306876D02*
X194574882Y-188402114D01*
X194705834Y-190402114D02*
X196229644Y-190402114D01*
X196729644Y-190211638D02*
X196979644Y-188211638D01*
X196979644Y-188211638D02*
X197467739Y-189640209D01*
X197467739Y-189640209D02*
X198312978Y-188211638D01*
X198312978Y-188211638D02*
X198062978Y-190211638D01*
X200182025Y-190021161D02*
X200074882Y-190116400D01*
X200074882Y-190116400D02*
X199777263Y-190211638D01*
X199777263Y-190211638D02*
X199586787Y-190211638D01*
X199586787Y-190211638D02*
X199312977Y-190116400D01*
X199312977Y-190116400D02*
X199146311Y-189925923D01*
X199146311Y-189925923D02*
X199074882Y-189735447D01*
X199074882Y-189735447D02*
X199027263Y-189354495D01*
X199027263Y-189354495D02*
X199062977Y-189068780D01*
X199062977Y-189068780D02*
X199205834Y-188687828D01*
X199205834Y-188687828D02*
X199324882Y-188497352D01*
X199324882Y-188497352D02*
X199539168Y-188306876D01*
X199539168Y-188306876D02*
X199836787Y-188211638D01*
X199836787Y-188211638D02*
X200027263Y-188211638D01*
X200027263Y-188211638D02*
X200301073Y-188306876D01*
X200301073Y-188306876D02*
X200384406Y-188402114D01*
D10*
X178958026Y-185607614D02*
X178458026Y-185607614D01*
X178458026Y-186393328D02*
X178458026Y-184893328D01*
X178458026Y-184893328D02*
X179172312Y-184893328D01*
X179743740Y-186393328D02*
X179743740Y-185393328D01*
X179743740Y-184893328D02*
X179672312Y-184964757D01*
X179672312Y-184964757D02*
X179743740Y-185036185D01*
X179743740Y-185036185D02*
X179815169Y-184964757D01*
X179815169Y-184964757D02*
X179743740Y-184893328D01*
X179743740Y-184893328D02*
X179743740Y-185036185D01*
X180672312Y-186393328D02*
X180529455Y-186321900D01*
X180529455Y-186321900D02*
X180458026Y-186179042D01*
X180458026Y-186179042D02*
X180458026Y-184893328D01*
X181815169Y-186321900D02*
X181672312Y-186393328D01*
X181672312Y-186393328D02*
X181386598Y-186393328D01*
X181386598Y-186393328D02*
X181243740Y-186321900D01*
X181243740Y-186321900D02*
X181172312Y-186179042D01*
X181172312Y-186179042D02*
X181172312Y-185607614D01*
X181172312Y-185607614D02*
X181243740Y-185464757D01*
X181243740Y-185464757D02*
X181386598Y-185393328D01*
X181386598Y-185393328D02*
X181672312Y-185393328D01*
X181672312Y-185393328D02*
X181815169Y-185464757D01*
X181815169Y-185464757D02*
X181886598Y-185607614D01*
X181886598Y-185607614D02*
X181886598Y-185750471D01*
X181886598Y-185750471D02*
X181172312Y-185893328D01*
X182529454Y-186250471D02*
X182600883Y-186321900D01*
X182600883Y-186321900D02*
X182529454Y-186393328D01*
X182529454Y-186393328D02*
X182458026Y-186321900D01*
X182458026Y-186321900D02*
X182529454Y-186250471D01*
X182529454Y-186250471D02*
X182529454Y-186393328D01*
X182529454Y-185464757D02*
X182600883Y-185536185D01*
X182600883Y-185536185D02*
X182529454Y-185607614D01*
X182529454Y-185607614D02*
X182458026Y-185536185D01*
X182458026Y-185536185D02*
X182529454Y-185464757D01*
X182529454Y-185464757D02*
X182529454Y-185607614D01*
X184886597Y-185607614D02*
X185100883Y-185679042D01*
X185100883Y-185679042D02*
X185172312Y-185750471D01*
X185172312Y-185750471D02*
X185243740Y-185893328D01*
X185243740Y-185893328D02*
X185243740Y-186107614D01*
X185243740Y-186107614D02*
X185172312Y-186250471D01*
X185172312Y-186250471D02*
X185100883Y-186321900D01*
X185100883Y-186321900D02*
X184958026Y-186393328D01*
X184958026Y-186393328D02*
X184386597Y-186393328D01*
X184386597Y-186393328D02*
X184386597Y-184893328D01*
X184386597Y-184893328D02*
X184886597Y-184893328D01*
X184886597Y-184893328D02*
X185029455Y-184964757D01*
X185029455Y-184964757D02*
X185100883Y-185036185D01*
X185100883Y-185036185D02*
X185172312Y-185179042D01*
X185172312Y-185179042D02*
X185172312Y-185321900D01*
X185172312Y-185321900D02*
X185100883Y-185464757D01*
X185100883Y-185464757D02*
X185029455Y-185536185D01*
X185029455Y-185536185D02*
X184886597Y-185607614D01*
X184886597Y-185607614D02*
X184386597Y-185607614D01*
X186600883Y-186393328D02*
X185886597Y-186393328D01*
X185886597Y-186393328D02*
X185886597Y-184893328D01*
X187100883Y-186393328D02*
X187100883Y-184893328D01*
X187100883Y-184893328D02*
X187458026Y-184893328D01*
X187458026Y-184893328D02*
X187672312Y-184964757D01*
X187672312Y-184964757D02*
X187815169Y-185107614D01*
X187815169Y-185107614D02*
X187886598Y-185250471D01*
X187886598Y-185250471D02*
X187958026Y-185536185D01*
X187958026Y-185536185D02*
X187958026Y-185750471D01*
X187958026Y-185750471D02*
X187886598Y-186036185D01*
X187886598Y-186036185D02*
X187815169Y-186179042D01*
X187815169Y-186179042D02*
X187672312Y-186321900D01*
X187672312Y-186321900D02*
X187458026Y-186393328D01*
X187458026Y-186393328D02*
X187100883Y-186393328D01*
X189458026Y-186250471D02*
X189386598Y-186321900D01*
X189386598Y-186321900D02*
X189172312Y-186393328D01*
X189172312Y-186393328D02*
X189029455Y-186393328D01*
X189029455Y-186393328D02*
X188815169Y-186321900D01*
X188815169Y-186321900D02*
X188672312Y-186179042D01*
X188672312Y-186179042D02*
X188600883Y-186036185D01*
X188600883Y-186036185D02*
X188529455Y-185750471D01*
X188529455Y-185750471D02*
X188529455Y-185536185D01*
X188529455Y-185536185D02*
X188600883Y-185250471D01*
X188600883Y-185250471D02*
X188672312Y-185107614D01*
X188672312Y-185107614D02*
X188815169Y-184964757D01*
X188815169Y-184964757D02*
X189029455Y-184893328D01*
X189029455Y-184893328D02*
X189172312Y-184893328D01*
X189172312Y-184893328D02*
X189386598Y-184964757D01*
X189386598Y-184964757D02*
X189458026Y-185036185D01*
X189743741Y-186536185D02*
X190886598Y-186536185D01*
X191243740Y-186393328D02*
X191243740Y-184893328D01*
X191243740Y-184893328D02*
X191743740Y-185964757D01*
X191743740Y-185964757D02*
X192243740Y-184893328D01*
X192243740Y-184893328D02*
X192243740Y-186393328D01*
X193815169Y-186250471D02*
X193743741Y-186321900D01*
X193743741Y-186321900D02*
X193529455Y-186393328D01*
X193529455Y-186393328D02*
X193386598Y-186393328D01*
X193386598Y-186393328D02*
X193172312Y-186321900D01*
X193172312Y-186321900D02*
X193029455Y-186179042D01*
X193029455Y-186179042D02*
X192958026Y-186036185D01*
X192958026Y-186036185D02*
X192886598Y-185750471D01*
X192886598Y-185750471D02*
X192886598Y-185536185D01*
X192886598Y-185536185D02*
X192958026Y-185250471D01*
X192958026Y-185250471D02*
X193029455Y-185107614D01*
X193029455Y-185107614D02*
X193172312Y-184964757D01*
X193172312Y-184964757D02*
X193386598Y-184893328D01*
X193386598Y-184893328D02*
X193529455Y-184893328D01*
X193529455Y-184893328D02*
X193743741Y-184964757D01*
X193743741Y-184964757D02*
X193815169Y-185036185D01*
X194100884Y-186536185D02*
X195243741Y-186536185D01*
X195386598Y-184893328D02*
X195886598Y-186393328D01*
X195886598Y-186393328D02*
X196386598Y-184893328D01*
X197672312Y-186393328D02*
X196815169Y-186393328D01*
X197243740Y-186393328D02*
X197243740Y-184893328D01*
X197243740Y-184893328D02*
X197100883Y-185107614D01*
X197100883Y-185107614D02*
X196958026Y-185250471D01*
X196958026Y-185250471D02*
X196815169Y-185321900D01*
X198315168Y-186250471D02*
X198386597Y-186321900D01*
X198386597Y-186321900D02*
X198315168Y-186393328D01*
X198315168Y-186393328D02*
X198243740Y-186321900D01*
X198243740Y-186321900D02*
X198315168Y-186250471D01*
X198315168Y-186250471D02*
X198315168Y-186393328D01*
X199315169Y-184893328D02*
X199458026Y-184893328D01*
X199458026Y-184893328D02*
X199600883Y-184964757D01*
X199600883Y-184964757D02*
X199672312Y-185036185D01*
X199672312Y-185036185D02*
X199743740Y-185179042D01*
X199743740Y-185179042D02*
X199815169Y-185464757D01*
X199815169Y-185464757D02*
X199815169Y-185821900D01*
X199815169Y-185821900D02*
X199743740Y-186107614D01*
X199743740Y-186107614D02*
X199672312Y-186250471D01*
X199672312Y-186250471D02*
X199600883Y-186321900D01*
X199600883Y-186321900D02*
X199458026Y-186393328D01*
X199458026Y-186393328D02*
X199315169Y-186393328D01*
X199315169Y-186393328D02*
X199172312Y-186321900D01*
X199172312Y-186321900D02*
X199100883Y-186250471D01*
X199100883Y-186250471D02*
X199029454Y-186107614D01*
X199029454Y-186107614D02*
X198958026Y-185821900D01*
X198958026Y-185821900D02*
X198958026Y-185464757D01*
X198958026Y-185464757D02*
X199029454Y-185179042D01*
X199029454Y-185179042D02*
X199100883Y-185036185D01*
X199100883Y-185036185D02*
X199172312Y-184964757D01*
X199172312Y-184964757D02*
X199315169Y-184893328D01*
X200458025Y-186250471D02*
X200529454Y-186321900D01*
X200529454Y-186321900D02*
X200458025Y-186393328D01*
X200458025Y-186393328D02*
X200386597Y-186321900D01*
X200386597Y-186321900D02*
X200458025Y-186250471D01*
X200458025Y-186250471D02*
X200458025Y-186393328D01*
X201172311Y-186393328D02*
X201172311Y-184893328D01*
X201315169Y-185821900D02*
X201743740Y-186393328D01*
X201743740Y-185393328D02*
X201172311Y-185964757D01*
X202386597Y-186393328D02*
X202386597Y-185393328D01*
X202386597Y-184893328D02*
X202315169Y-184964757D01*
X202315169Y-184964757D02*
X202386597Y-185036185D01*
X202386597Y-185036185D02*
X202458026Y-184964757D01*
X202458026Y-184964757D02*
X202386597Y-184893328D01*
X202386597Y-184893328D02*
X202386597Y-185036185D01*
X203743741Y-186321900D02*
X203600883Y-186393328D01*
X203600883Y-186393328D02*
X203315169Y-186393328D01*
X203315169Y-186393328D02*
X203172312Y-186321900D01*
X203172312Y-186321900D02*
X203100883Y-186250471D01*
X203100883Y-186250471D02*
X203029455Y-186107614D01*
X203029455Y-186107614D02*
X203029455Y-185679042D01*
X203029455Y-185679042D02*
X203100883Y-185536185D01*
X203100883Y-185536185D02*
X203172312Y-185464757D01*
X203172312Y-185464757D02*
X203315169Y-185393328D01*
X203315169Y-185393328D02*
X203600883Y-185393328D01*
X203600883Y-185393328D02*
X203743741Y-185464757D01*
X205029455Y-186393328D02*
X205029455Y-185607614D01*
X205029455Y-185607614D02*
X204958026Y-185464757D01*
X204958026Y-185464757D02*
X204815169Y-185393328D01*
X204815169Y-185393328D02*
X204529455Y-185393328D01*
X204529455Y-185393328D02*
X204386597Y-185464757D01*
X205029455Y-186321900D02*
X204886597Y-186393328D01*
X204886597Y-186393328D02*
X204529455Y-186393328D01*
X204529455Y-186393328D02*
X204386597Y-186321900D01*
X204386597Y-186321900D02*
X204315169Y-186179042D01*
X204315169Y-186179042D02*
X204315169Y-186036185D01*
X204315169Y-186036185D02*
X204386597Y-185893328D01*
X204386597Y-185893328D02*
X204529455Y-185821900D01*
X204529455Y-185821900D02*
X204886597Y-185821900D01*
X204886597Y-185821900D02*
X205029455Y-185750471D01*
X206386598Y-186393328D02*
X206386598Y-184893328D01*
X206386598Y-186321900D02*
X206243740Y-186393328D01*
X206243740Y-186393328D02*
X205958026Y-186393328D01*
X205958026Y-186393328D02*
X205815169Y-186321900D01*
X205815169Y-186321900D02*
X205743740Y-186250471D01*
X205743740Y-186250471D02*
X205672312Y-186107614D01*
X205672312Y-186107614D02*
X205672312Y-185679042D01*
X205672312Y-185679042D02*
X205743740Y-185536185D01*
X205743740Y-185536185D02*
X205815169Y-185464757D01*
X205815169Y-185464757D02*
X205958026Y-185393328D01*
X205958026Y-185393328D02*
X206243740Y-185393328D01*
X206243740Y-185393328D02*
X206386598Y-185464757D01*
X206743741Y-186536185D02*
X207886598Y-186536185D01*
X208243740Y-185393328D02*
X208243740Y-186893328D01*
X208243740Y-185464757D02*
X208386598Y-185393328D01*
X208386598Y-185393328D02*
X208672312Y-185393328D01*
X208672312Y-185393328D02*
X208815169Y-185464757D01*
X208815169Y-185464757D02*
X208886598Y-185536185D01*
X208886598Y-185536185D02*
X208958026Y-185679042D01*
X208958026Y-185679042D02*
X208958026Y-186107614D01*
X208958026Y-186107614D02*
X208886598Y-186250471D01*
X208886598Y-186250471D02*
X208815169Y-186321900D01*
X208815169Y-186321900D02*
X208672312Y-186393328D01*
X208672312Y-186393328D02*
X208386598Y-186393328D01*
X208386598Y-186393328D02*
X208243740Y-186321900D01*
X210243741Y-186321900D02*
X210100883Y-186393328D01*
X210100883Y-186393328D02*
X209815169Y-186393328D01*
X209815169Y-186393328D02*
X209672312Y-186321900D01*
X209672312Y-186321900D02*
X209600883Y-186250471D01*
X209600883Y-186250471D02*
X209529455Y-186107614D01*
X209529455Y-186107614D02*
X209529455Y-185679042D01*
X209529455Y-185679042D02*
X209600883Y-185536185D01*
X209600883Y-185536185D02*
X209672312Y-185464757D01*
X209672312Y-185464757D02*
X209815169Y-185393328D01*
X209815169Y-185393328D02*
X210100883Y-185393328D01*
X210100883Y-185393328D02*
X210243741Y-185464757D01*
X210886597Y-186393328D02*
X210886597Y-184893328D01*
X210886597Y-185464757D02*
X211029455Y-185393328D01*
X211029455Y-185393328D02*
X211315169Y-185393328D01*
X211315169Y-185393328D02*
X211458026Y-185464757D01*
X211458026Y-185464757D02*
X211529455Y-185536185D01*
X211529455Y-185536185D02*
X211600883Y-185679042D01*
X211600883Y-185679042D02*
X211600883Y-186107614D01*
X211600883Y-186107614D02*
X211529455Y-186250471D01*
X211529455Y-186250471D02*
X211458026Y-186321900D01*
X211458026Y-186321900D02*
X211315169Y-186393328D01*
X211315169Y-186393328D02*
X211029455Y-186393328D01*
X211029455Y-186393328D02*
X210886597Y-186321900D01*
X177002200Y-181507200D02*
X285002200Y-181507200D01*
X178386598Y-183621900D02*
X178600884Y-183693328D01*
X178600884Y-183693328D02*
X178958026Y-183693328D01*
X178958026Y-183693328D02*
X179100884Y-183621900D01*
X179100884Y-183621900D02*
X179172312Y-183550471D01*
X179172312Y-183550471D02*
X179243741Y-183407614D01*
X179243741Y-183407614D02*
X179243741Y-183264757D01*
X179243741Y-183264757D02*
X179172312Y-183121900D01*
X179172312Y-183121900D02*
X179100884Y-183050471D01*
X179100884Y-183050471D02*
X178958026Y-182979042D01*
X178958026Y-182979042D02*
X178672312Y-182907614D01*
X178672312Y-182907614D02*
X178529455Y-182836185D01*
X178529455Y-182836185D02*
X178458026Y-182764757D01*
X178458026Y-182764757D02*
X178386598Y-182621900D01*
X178386598Y-182621900D02*
X178386598Y-182479042D01*
X178386598Y-182479042D02*
X178458026Y-182336185D01*
X178458026Y-182336185D02*
X178529455Y-182264757D01*
X178529455Y-182264757D02*
X178672312Y-182193328D01*
X178672312Y-182193328D02*
X179029455Y-182193328D01*
X179029455Y-182193328D02*
X179243741Y-182264757D01*
X179886597Y-183693328D02*
X179886597Y-182193328D01*
X180529455Y-183693328D02*
X180529455Y-182907614D01*
X180529455Y-182907614D02*
X180458026Y-182764757D01*
X180458026Y-182764757D02*
X180315169Y-182693328D01*
X180315169Y-182693328D02*
X180100883Y-182693328D01*
X180100883Y-182693328D02*
X179958026Y-182764757D01*
X179958026Y-182764757D02*
X179886597Y-182836185D01*
X181815169Y-183621900D02*
X181672312Y-183693328D01*
X181672312Y-183693328D02*
X181386598Y-183693328D01*
X181386598Y-183693328D02*
X181243740Y-183621900D01*
X181243740Y-183621900D02*
X181172312Y-183479042D01*
X181172312Y-183479042D02*
X181172312Y-182907614D01*
X181172312Y-182907614D02*
X181243740Y-182764757D01*
X181243740Y-182764757D02*
X181386598Y-182693328D01*
X181386598Y-182693328D02*
X181672312Y-182693328D01*
X181672312Y-182693328D02*
X181815169Y-182764757D01*
X181815169Y-182764757D02*
X181886598Y-182907614D01*
X181886598Y-182907614D02*
X181886598Y-183050471D01*
X181886598Y-183050471D02*
X181172312Y-183193328D01*
X183100883Y-183621900D02*
X182958026Y-183693328D01*
X182958026Y-183693328D02*
X182672312Y-183693328D01*
X182672312Y-183693328D02*
X182529454Y-183621900D01*
X182529454Y-183621900D02*
X182458026Y-183479042D01*
X182458026Y-183479042D02*
X182458026Y-182907614D01*
X182458026Y-182907614D02*
X182529454Y-182764757D01*
X182529454Y-182764757D02*
X182672312Y-182693328D01*
X182672312Y-182693328D02*
X182958026Y-182693328D01*
X182958026Y-182693328D02*
X183100883Y-182764757D01*
X183100883Y-182764757D02*
X183172312Y-182907614D01*
X183172312Y-182907614D02*
X183172312Y-183050471D01*
X183172312Y-183050471D02*
X182458026Y-183193328D01*
X183600883Y-182693328D02*
X184172311Y-182693328D01*
X183815168Y-182193328D02*
X183815168Y-183479042D01*
X183815168Y-183479042D02*
X183886597Y-183621900D01*
X183886597Y-183621900D02*
X184029454Y-183693328D01*
X184029454Y-183693328D02*
X184172311Y-183693328D01*
X184672311Y-183550471D02*
X184743740Y-183621900D01*
X184743740Y-183621900D02*
X184672311Y-183693328D01*
X184672311Y-183693328D02*
X184600883Y-183621900D01*
X184600883Y-183621900D02*
X184672311Y-183550471D01*
X184672311Y-183550471D02*
X184672311Y-183693328D01*
X184672311Y-182764757D02*
X184743740Y-182836185D01*
X184743740Y-182836185D02*
X184672311Y-182907614D01*
X184672311Y-182907614D02*
X184600883Y-182836185D01*
X184600883Y-182836185D02*
X184672311Y-182764757D01*
X184672311Y-182764757D02*
X184672311Y-182907614D01*
X197002200Y-191507200D02*
X197002200Y-194507200D01*
X261002200Y-191507200D02*
X261002200Y-198007200D01*
D13*
%TO.C,J5*%
X150033275Y-43736508D03*
D14*
X150033275Y-41736508D03*
X150033275Y-39736508D03*
X150033275Y-37736508D03*
X150033275Y-35736508D03*
X150033275Y-33736508D03*
%TD*%
D15*
%TO.C,J8*%
X45919175Y-52282508D03*
X45919175Y-54282507D03*
X45919175Y-56282508D03*
X45919175Y-58282509D03*
X45919175Y-60282507D03*
X43919174Y-52282508D03*
X43919174Y-54282507D03*
X43919174Y-56282508D03*
X43919174Y-58282509D03*
X43919174Y-60282507D03*
%TD*%
D16*
%TO.C,H4*%
X154350000Y-27000000D03*
X154833274Y-25833274D03*
X154833274Y-28166726D03*
X156000000Y-25350000D03*
D17*
X156000000Y-27000000D03*
D16*
X156000000Y-28650000D03*
X157166726Y-25833274D03*
X157166726Y-28166726D03*
X157650000Y-27000000D03*
%TD*%
%TO.C,H2*%
X36850000Y-27000000D03*
X37333274Y-25833274D03*
X37333274Y-28166726D03*
X38500000Y-25350000D03*
D17*
X38500000Y-27000000D03*
D16*
X38500000Y-28650000D03*
X39666726Y-25833274D03*
X39666726Y-28166726D03*
X40150000Y-27000000D03*
%TD*%
%TO.C,H3*%
X154350000Y-79000000D03*
X154833274Y-77833274D03*
X154833274Y-80166726D03*
X156000000Y-77350000D03*
D17*
X156000000Y-79000000D03*
D16*
X156000000Y-80650000D03*
X157166726Y-77833274D03*
X157166726Y-80166726D03*
X157650000Y-79000000D03*
%TD*%
D18*
%TO.C,J3*%
X44458275Y-65838508D03*
X44458275Y-71618508D03*
D19*
X44958275Y-64408508D03*
D20*
X40778275Y-64408508D03*
D19*
X44958275Y-73048508D03*
D20*
X40778275Y-73048508D03*
%TD*%
D16*
%TO.C,H1*%
X36850000Y-79000000D03*
X37333274Y-77833274D03*
X37333274Y-80166726D03*
X38500000Y-77350000D03*
D17*
X38500000Y-79000000D03*
D16*
X38500000Y-80650000D03*
X39666726Y-77833274D03*
X39666726Y-80166726D03*
X40150000Y-79000000D03*
%TD*%
D21*
%TO.C,J4*%
X93451275Y-71390508D03*
D22*
X93451275Y-73930508D03*
X90911275Y-71390508D03*
X90911275Y-73930508D03*
X88371275Y-71390508D03*
X88371275Y-73930508D03*
%TD*%
D23*
%TO.C,R34*%
X81470942Y-72348508D03*
X81470942Y-73998508D03*
%TD*%
D24*
%TO.C,C60*%
X92702275Y-33803508D03*
X91152275Y-33803508D03*
%TD*%
D25*
%TO.C,R17*%
X69788275Y-31270508D03*
X68138275Y-31270508D03*
%TD*%
%TO.C,R50*%
X92752275Y-30755508D03*
X91102275Y-30755508D03*
%TD*%
D26*
%TO.C,CR9*%
X42303925Y-58314508D03*
X39696625Y-58314508D03*
%TD*%
D23*
%TO.C,R35*%
X86466275Y-72348508D03*
X86466275Y-73998508D03*
%TD*%
D27*
%TO.C,R20*%
X68138275Y-32921508D03*
X69788275Y-32921508D03*
%TD*%
D28*
%TO.C,U13*%
X106136275Y-54824508D03*
X106136275Y-55774508D03*
X106136275Y-56724508D03*
X103626275Y-56724508D03*
X103626275Y-54824508D03*
%TD*%
D29*
%TO.C,L1*%
X73633275Y-61986508D03*
X79333275Y-61986508D03*
%TD*%
D27*
%TO.C,R1*%
X73558275Y-71486508D03*
X75208275Y-71486508D03*
%TD*%
D30*
%TO.C,R61*%
X109333275Y-31224008D03*
X109333275Y-34149008D03*
%TD*%
D31*
%TO.C,C3*%
X81983275Y-55186508D03*
X83883275Y-55186508D03*
%TD*%
D32*
%TO.C,D2*%
X81470942Y-77313008D03*
X81470942Y-75738008D03*
%TD*%
D33*
%TO.C,C70*%
X104158275Y-46823508D03*
X104158275Y-48723508D03*
%TD*%
D34*
%TO.C,C86*%
X89790275Y-58144508D03*
X87890275Y-58144508D03*
%TD*%
D35*
%TO.C,C6*%
X85008275Y-62486508D03*
X82058275Y-62486508D03*
%TD*%
D25*
%TO.C,R46*%
X92514775Y-49170508D03*
X90864775Y-49170508D03*
%TD*%
D28*
%TO.C,U3*%
X88499775Y-49998508D03*
X88499775Y-50948508D03*
X88499775Y-51898508D03*
X85989775Y-51898508D03*
X85989775Y-49998508D03*
%TD*%
D36*
%TO.C,C64*%
X152633275Y-35586508D03*
X152633275Y-33686508D03*
%TD*%
D37*
%TO.C,C67*%
X96333275Y-62511508D03*
X96333275Y-65461508D03*
%TD*%
D28*
%TO.C,U10*%
X88748011Y-41447508D03*
X88748011Y-42397508D03*
X88748011Y-43347508D03*
X86238011Y-43347508D03*
X86238011Y-41447508D03*
%TD*%
D26*
%TO.C,CR8*%
X42303925Y-56282508D03*
X39696625Y-56282508D03*
%TD*%
D30*
%TO.C,R55*%
X109333275Y-54824008D03*
X109333275Y-57749008D03*
%TD*%
D36*
%TO.C,C7*%
X64943275Y-66646508D03*
X64943275Y-64746508D03*
%TD*%
D35*
%TO.C,C26*%
X85008275Y-65186508D03*
X82058275Y-65186508D03*
%TD*%
D38*
%TO.C,C48*%
X117572275Y-57948508D03*
X125972275Y-57948508D03*
%TD*%
D36*
%TO.C,C8*%
X62933275Y-66646508D03*
X62933275Y-64746508D03*
%TD*%
D39*
%TO.C,C33*%
X73608275Y-72986508D03*
X75158275Y-72986508D03*
%TD*%
D27*
%TO.C,R60*%
X100158275Y-45233508D03*
X101808275Y-45233508D03*
%TD*%
D25*
%TO.C,R15*%
X92514775Y-52218508D03*
X90864775Y-52218508D03*
%TD*%
D27*
%TO.C,R56*%
X108043275Y-60219508D03*
X109693275Y-60219508D03*
%TD*%
D28*
%TO.C,U12*%
X94302775Y-58464508D03*
X94302775Y-59414508D03*
X94302775Y-60364508D03*
X91792775Y-60364508D03*
X91792775Y-58464508D03*
%TD*%
D31*
%TO.C,C17*%
X86300539Y-47881508D03*
X88200539Y-47881508D03*
%TD*%
%TO.C,C65*%
X152083275Y-43686508D03*
X153983275Y-43686508D03*
%TD*%
D38*
%TO.C,C49*%
X117572275Y-45898508D03*
X125972275Y-45898508D03*
%TD*%
D40*
%TO.C,C30*%
X59678275Y-69998508D03*
X51278275Y-69998508D03*
%TD*%
D31*
%TO.C,C61*%
X79755275Y-34318508D03*
X81655275Y-34318508D03*
%TD*%
D37*
%TO.C,C55*%
X108633275Y-68511508D03*
X108633275Y-71461508D03*
%TD*%
D27*
%TO.C,R65*%
X100158275Y-56790508D03*
X101808275Y-56790508D03*
%TD*%
D40*
%TO.C,C29*%
X59678275Y-57948508D03*
X51278275Y-57948508D03*
%TD*%
D27*
%TO.C,R6*%
X73558275Y-69986508D03*
X75208275Y-69986508D03*
%TD*%
D34*
%TO.C,C32*%
X75583275Y-66686508D03*
X73683275Y-66686508D03*
%TD*%
D24*
%TO.C,C59*%
X92696511Y-42331508D03*
X91146511Y-42331508D03*
%TD*%
D31*
%TO.C,C85*%
X104058275Y-29612508D03*
X105958275Y-29612508D03*
%TD*%
%TO.C,C84*%
X104058275Y-41042508D03*
X105958275Y-41042508D03*
%TD*%
D27*
%TO.C,R66*%
X100285275Y-33803508D03*
X101935275Y-33803508D03*
%TD*%
D40*
%TO.C,C10*%
X59678275Y-45898508D03*
X51278275Y-45898508D03*
%TD*%
D34*
%TO.C,C88*%
X41823275Y-51964508D03*
X39923275Y-51964508D03*
%TD*%
D27*
%TO.C,R62*%
X108170275Y-36470508D03*
X109820275Y-36470508D03*
%TD*%
D32*
%TO.C,D4*%
X83968608Y-77313008D03*
X83968608Y-75738008D03*
%TD*%
D25*
%TO.C,R49*%
X92746511Y-43855508D03*
X91096511Y-43855508D03*
%TD*%
D36*
%TO.C,C36*%
X77703275Y-51263508D03*
X77703275Y-49363508D03*
%TD*%
D38*
%TO.C,C47*%
X117572275Y-69998508D03*
X125972275Y-69998508D03*
%TD*%
D23*
%TO.C,R57*%
X106134775Y-58378508D03*
X106134775Y-60028508D03*
%TD*%
D31*
%TO.C,C35*%
X71083275Y-42786508D03*
X72983275Y-42786508D03*
%TD*%
D32*
%TO.C,D3*%
X86466275Y-77313008D03*
X86466275Y-75738008D03*
%TD*%
D38*
%TO.C,C50*%
X117572275Y-33848508D03*
X125972275Y-33848508D03*
%TD*%
D25*
%TO.C,R45*%
X92514775Y-47646508D03*
X90864775Y-47646508D03*
%TD*%
D26*
%TO.C,CR7*%
X42303925Y-54123508D03*
X39696625Y-54123508D03*
%TD*%
D24*
%TO.C,C28*%
X74208275Y-74586508D03*
X72658275Y-74586508D03*
%TD*%
D33*
%TO.C,C69*%
X104334275Y-35393508D03*
X104334275Y-37293508D03*
%TD*%
D25*
%TO.C,R51*%
X92752275Y-32279508D03*
X91102275Y-32279508D03*
%TD*%
D23*
%TO.C,R37*%
X78973275Y-72348508D03*
X78973275Y-73998508D03*
%TD*%
D24*
%TO.C,C58*%
X92464775Y-50694508D03*
X90914775Y-50694508D03*
%TD*%
D41*
%TO.C,CR10*%
X43413275Y-37410308D03*
X43413275Y-43658708D03*
%TD*%
D25*
%TO.C,R48*%
X92746511Y-40807508D03*
X91096511Y-40807508D03*
%TD*%
D23*
%TO.C,R53*%
X90872275Y-62526508D03*
X90872275Y-64176508D03*
%TD*%
D25*
%TO.C,R2*%
X74258275Y-76186508D03*
X72608275Y-76186508D03*
%TD*%
D42*
%TO.C,R3*%
X64876275Y-70569508D03*
X64876275Y-68919508D03*
%TD*%
D43*
%TO.C,U7*%
X101043274Y-67868508D03*
D44*
X103333275Y-74282008D03*
D43*
X105623276Y-67868508D03*
%TD*%
D27*
%TO.C,R18*%
X80233775Y-32434508D03*
X81883775Y-32434508D03*
%TD*%
D35*
%TO.C,C27*%
X85008275Y-67886508D03*
X82058275Y-67886508D03*
%TD*%
D28*
%TO.C,U11*%
X88737275Y-32726508D03*
X88737275Y-33676508D03*
X88737275Y-34626508D03*
X86227275Y-34626508D03*
X86227275Y-32726508D03*
%TD*%
D45*
%TO.C,U5*%
X74948275Y-47686508D03*
X74948275Y-49986508D03*
X74948275Y-52286508D03*
D46*
X68918275Y-49986508D03*
%TD*%
D23*
%TO.C,R63*%
X106366275Y-35391508D03*
X106366275Y-37041508D03*
%TD*%
D31*
%TO.C,C63*%
X86536275Y-30736508D03*
X88436275Y-30736508D03*
%TD*%
D40*
%TO.C,C9*%
X59678275Y-33848508D03*
X51278275Y-33848508D03*
%TD*%
D33*
%TO.C,C71*%
X96714275Y-58591508D03*
X96714275Y-60491508D03*
%TD*%
D27*
%TO.C,R59*%
X108043275Y-48662508D03*
X109693275Y-48662508D03*
%TD*%
D42*
%TO.C,R54*%
X92396275Y-64176508D03*
X92396275Y-62526508D03*
%TD*%
D25*
%TO.C,R47*%
X92746511Y-39283508D03*
X91096511Y-39283508D03*
%TD*%
D31*
%TO.C,C83*%
X103804275Y-52726508D03*
X105704275Y-52726508D03*
%TD*%
D32*
%TO.C,D1*%
X78973275Y-77313008D03*
X78973275Y-75738008D03*
%TD*%
D33*
%TO.C,C54*%
X96033275Y-68936508D03*
X96033275Y-70836508D03*
%TD*%
D25*
%TO.C,R52*%
X92752275Y-35327508D03*
X91102275Y-35327508D03*
%TD*%
D23*
%TO.C,R36*%
X83968608Y-72348508D03*
X83968608Y-73998508D03*
%TD*%
D31*
%TO.C,C62*%
X86532275Y-39391508D03*
X88432275Y-39391508D03*
%TD*%
D23*
%TO.C,R64*%
X106190275Y-46694508D03*
X106190275Y-48344508D03*
%TD*%
%TO.C,R5*%
X66908275Y-71840508D03*
X66908275Y-73490508D03*
%TD*%
D39*
%TO.C,C34*%
X73608275Y-68486508D03*
X75158275Y-68486508D03*
%TD*%
D33*
%TO.C,C68*%
X104102775Y-58507508D03*
X104102775Y-60407508D03*
%TD*%
D25*
%TO.C,R4*%
X71058275Y-74586508D03*
X69408275Y-74586508D03*
%TD*%
D30*
%TO.C,R58*%
X109333275Y-43224008D03*
X109333275Y-46149008D03*
%TD*%
D25*
%TO.C,R19*%
X69788275Y-34572508D03*
X68138275Y-34572508D03*
%TD*%
D35*
%TO.C,C5*%
X85008275Y-59836508D03*
X82058275Y-59836508D03*
%TD*%
D28*
%TO.C,U15*%
X106263275Y-31710508D03*
X106263275Y-32660508D03*
X106263275Y-33610508D03*
X103753275Y-33610508D03*
X103753275Y-31710508D03*
%TD*%
D47*
%TO.C,CR1*%
X47661775Y-55586507D03*
X47661775Y-54786509D03*
D48*
X48460475Y-55186508D03*
%TD*%
D33*
%TO.C,C53*%
X98133275Y-68936508D03*
X98133275Y-70836508D03*
%TD*%
D28*
%TO.C,U14*%
X106175275Y-43140508D03*
X106175275Y-44090508D03*
X106175275Y-45040508D03*
X103665275Y-45040508D03*
X103665275Y-43140508D03*
%TD*%
D49*
%TO.C,U1*%
X70558275Y-64986508D03*
X70558275Y-65486508D03*
X70558275Y-65986508D03*
X70558275Y-66486508D03*
X70558275Y-66986508D03*
X70558275Y-67486508D03*
X70558275Y-67986508D03*
X70558275Y-68486508D03*
X70558275Y-68986508D03*
X70558275Y-69486508D03*
X70558275Y-69986508D03*
D50*
X69483275Y-70386508D03*
X68983275Y-70386508D03*
X68483275Y-70386508D03*
X67983275Y-70386508D03*
D49*
X66908275Y-69986508D03*
X66908275Y-69486508D03*
X66908275Y-68986508D03*
X66908275Y-68486508D03*
X66908275Y-67986508D03*
X66908275Y-67486508D03*
X66908275Y-66986508D03*
X66908275Y-66486508D03*
X66908275Y-65986508D03*
X66908275Y-65486508D03*
X66908275Y-64986508D03*
D50*
X67983275Y-64586508D03*
X68483275Y-64586508D03*
X68983275Y-64586508D03*
X69483275Y-64586508D03*
D51*
X68733275Y-67486508D03*
%TD*%
D52*
%TO.C,C37*%
X70558275Y-45086508D03*
X73508275Y-45086508D03*
%TD*%
D37*
%TO.C,C56*%
X111033275Y-68511508D03*
X111033275Y-71461508D03*
%TD*%
D31*
%TO.C,C4*%
X81983275Y-57386508D03*
X83883275Y-57386508D03*
%TD*%
D53*
%TO.C,U8*%
X72463275Y-34191508D03*
X72463275Y-32921508D03*
X72463275Y-31651508D03*
X72463275Y-30381508D03*
X77403275Y-30381508D03*
X77403275Y-31651508D03*
X77403275Y-32921508D03*
X77403275Y-34191508D03*
%TD*%
D33*
%TO.C,C66*%
X94174275Y-62528508D03*
X94174275Y-64428508D03*
%TD*%
G36*
X36811980Y-31102383D02*
G01*
X36871480Y-31114218D01*
X36916179Y-31132732D01*
X36956268Y-31159518D01*
X36990481Y-31193731D01*
X37017267Y-31233820D01*
X37035781Y-31278517D01*
X37047617Y-31338017D01*
X37050000Y-31362210D01*
X37050000Y-31999032D01*
X37030315Y-32066071D01*
X36977511Y-32111826D01*
X36965775Y-32115616D01*
X36956799Y-32119334D01*
X36874395Y-32174395D01*
X36819335Y-32256798D01*
X36819333Y-32256802D01*
X36800000Y-32353995D01*
X36800000Y-73750461D01*
X36819333Y-73847654D01*
X36819335Y-73847658D01*
X36874395Y-73930061D01*
X36956799Y-73985122D01*
X36968084Y-73989797D01*
X36966936Y-73992567D01*
X37012097Y-74016187D01*
X37046675Y-74076901D01*
X37050000Y-74105425D01*
X37050000Y-74687789D01*
X37047617Y-74711982D01*
X37035781Y-74771482D01*
X37017267Y-74816179D01*
X36990481Y-74856268D01*
X36956268Y-74890481D01*
X36916179Y-74917267D01*
X36871482Y-74935781D01*
X36811982Y-74947617D01*
X36787789Y-74950000D01*
X35674000Y-74950000D01*
X35606961Y-74930315D01*
X35561206Y-74877511D01*
X35550000Y-74826000D01*
X35550000Y-31224000D01*
X35569685Y-31156961D01*
X35622489Y-31111206D01*
X35674000Y-31100000D01*
X36787789Y-31100000D01*
X36811980Y-31102383D01*
G37*
G36*
X158943039Y-31469685D02*
G01*
X158988794Y-31522489D01*
X159000000Y-31574000D01*
X159000000Y-74826000D01*
X158980315Y-74893039D01*
X158927511Y-74938794D01*
X158876000Y-74950000D01*
X157762211Y-74950000D01*
X157738019Y-74947617D01*
X157678518Y-74935781D01*
X157633820Y-74917267D01*
X157593731Y-74890481D01*
X157559518Y-74856268D01*
X157532732Y-74816179D01*
X157514218Y-74771480D01*
X157502383Y-74711980D01*
X157500000Y-74687789D01*
X157500000Y-74105425D01*
X157519685Y-74038386D01*
X157572489Y-73992631D01*
X157584218Y-73988843D01*
X157593200Y-73985122D01*
X157675604Y-73930061D01*
X157730664Y-73847658D01*
X157730666Y-73847654D01*
X157749999Y-73750461D01*
X157750000Y-73750459D01*
X157750000Y-32353997D01*
X157749999Y-32353995D01*
X157730666Y-32256802D01*
X157730664Y-32256798D01*
X157675604Y-32174395D01*
X157593200Y-32119334D01*
X157581920Y-32114662D01*
X157583066Y-32111892D01*
X157537891Y-32088257D01*
X157503321Y-32027539D01*
X157500000Y-31999032D01*
X157500000Y-31712210D01*
X157502383Y-31688019D01*
X157514218Y-31628519D01*
X157532732Y-31583820D01*
X157559518Y-31543731D01*
X157593731Y-31509518D01*
X157633820Y-31482732D01*
X157678520Y-31464217D01*
X157738021Y-31452382D01*
X157762211Y-31450000D01*
X158876000Y-31450000D01*
X158943039Y-31469685D01*
G37*
G36*
X37466071Y-79769685D02*
G01*
X37511826Y-79822489D01*
X37515613Y-79834218D01*
X37519334Y-79843200D01*
X37574395Y-79925604D01*
X37656798Y-79980664D01*
X37656802Y-79980666D01*
X37753995Y-79999999D01*
X37753998Y-80000000D01*
X156796002Y-80000000D01*
X156796004Y-79999999D01*
X156893197Y-79980666D01*
X156893201Y-79980664D01*
X156975604Y-79925604D01*
X157030665Y-79843200D01*
X157035340Y-79831916D01*
X157038110Y-79833063D01*
X157061730Y-79787903D01*
X157122444Y-79753325D01*
X157150968Y-79750000D01*
X158738661Y-79750000D01*
X158805700Y-79769685D01*
X158851455Y-79822489D01*
X158861399Y-79891647D01*
X158855702Y-79914955D01*
X158779108Y-80133846D01*
X158777915Y-80137109D01*
X158774692Y-80145553D01*
X158772030Y-80151981D01*
X158768351Y-80160203D01*
X158766885Y-80163359D01*
X158634678Y-80437888D01*
X158633129Y-80440993D01*
X158628990Y-80449006D01*
X158625624Y-80455097D01*
X158621038Y-80462872D01*
X158619227Y-80465846D01*
X158457114Y-80723846D01*
X158455226Y-80726759D01*
X158450228Y-80734240D01*
X158446194Y-80739925D01*
X158440737Y-80747175D01*
X158438613Y-80749917D01*
X158248692Y-80988073D01*
X158246483Y-80990764D01*
X158240625Y-80997701D01*
X158235988Y-81002889D01*
X158229795Y-81009439D01*
X158227374Y-81011929D01*
X158011929Y-81227374D01*
X158009439Y-81229795D01*
X158002889Y-81235988D01*
X157997701Y-81240625D01*
X157990764Y-81246483D01*
X157988073Y-81248692D01*
X157749917Y-81438613D01*
X157747175Y-81440737D01*
X157739925Y-81446194D01*
X157734240Y-81450228D01*
X157726759Y-81455226D01*
X157723846Y-81457114D01*
X157465846Y-81619227D01*
X157462872Y-81621038D01*
X157455097Y-81625624D01*
X157449006Y-81628990D01*
X157440993Y-81633129D01*
X157437888Y-81634678D01*
X157163359Y-81766885D01*
X157160203Y-81768351D01*
X157151981Y-81772030D01*
X157145553Y-81774692D01*
X157137109Y-81777915D01*
X157133846Y-81779108D01*
X156846282Y-81879732D01*
X156842968Y-81880840D01*
X156834352Y-81883585D01*
X156827689Y-81885504D01*
X156818941Y-81887761D01*
X156815556Y-81888584D01*
X156518505Y-81956384D01*
X156515103Y-81957110D01*
X156506265Y-81958868D01*
X156499412Y-81960033D01*
X156490461Y-81961297D01*
X156487007Y-81961735D01*
X156182258Y-81996072D01*
X156179219Y-81996377D01*
X156171360Y-81997067D01*
X156165304Y-81997449D01*
X156157387Y-81997755D01*
X156154336Y-81997836D01*
X156001953Y-81999972D01*
X156001525Y-81999977D01*
X156000389Y-81999989D01*
X155999585Y-81999995D01*
X155998605Y-81999999D01*
X155998099Y-82000000D01*
X38501901Y-82000000D01*
X38501395Y-81999999D01*
X38500414Y-81999995D01*
X38499610Y-81999989D01*
X38498474Y-81999977D01*
X38498046Y-81999972D01*
X38345663Y-81997836D01*
X38342612Y-81997755D01*
X38334695Y-81997449D01*
X38328639Y-81997067D01*
X38320780Y-81996377D01*
X38317741Y-81996072D01*
X38012992Y-81961735D01*
X38009538Y-81961297D01*
X38000587Y-81960033D01*
X37993734Y-81958868D01*
X37984896Y-81957110D01*
X37981494Y-81956384D01*
X37684443Y-81888584D01*
X37681058Y-81887761D01*
X37672310Y-81885504D01*
X37665647Y-81883585D01*
X37657031Y-81880840D01*
X37653717Y-81879732D01*
X37366153Y-81779108D01*
X37362890Y-81777915D01*
X37354446Y-81774692D01*
X37348018Y-81772030D01*
X37339796Y-81768351D01*
X37336640Y-81766885D01*
X37062111Y-81634678D01*
X37059006Y-81633129D01*
X37050993Y-81628990D01*
X37044902Y-81625624D01*
X37037127Y-81621038D01*
X37034153Y-81619227D01*
X36776153Y-81457114D01*
X36773240Y-81455226D01*
X36765759Y-81450228D01*
X36760074Y-81446194D01*
X36752824Y-81440737D01*
X36750082Y-81438613D01*
X36511926Y-81248692D01*
X36509235Y-81246483D01*
X36502298Y-81240625D01*
X36497110Y-81235988D01*
X36490560Y-81229795D01*
X36488070Y-81227374D01*
X36272625Y-81011929D01*
X36270204Y-81009439D01*
X36264011Y-81002889D01*
X36259374Y-80997701D01*
X36253516Y-80990764D01*
X36251307Y-80988072D01*
X36210327Y-80936683D01*
X36183919Y-80871996D01*
X36183275Y-80859372D01*
X36183275Y-80012210D01*
X36185658Y-79988019D01*
X36197493Y-79928519D01*
X36216007Y-79883820D01*
X36242793Y-79843731D01*
X36277006Y-79809518D01*
X36317095Y-79782732D01*
X36361795Y-79764217D01*
X36421296Y-79752382D01*
X36445486Y-79750000D01*
X37399032Y-79750000D01*
X37466071Y-79769685D01*
G37*
G36*
X36766071Y-73774142D02*
G01*
X36811826Y-73826946D01*
X36815613Y-73838675D01*
X36819334Y-73847657D01*
X36874395Y-73930061D01*
X36956798Y-73985121D01*
X36956802Y-73985123D01*
X37053995Y-74004456D01*
X37053998Y-74004457D01*
X37233788Y-74004457D01*
X37257980Y-74006840D01*
X37319011Y-74018980D01*
X37363708Y-74037494D01*
X37405095Y-74065147D01*
X37439309Y-74099361D01*
X37466962Y-74140748D01*
X37485476Y-74185444D01*
X37497617Y-74246476D01*
X37500000Y-74270669D01*
X37500000Y-79746004D01*
X37519333Y-79843197D01*
X37519335Y-79843201D01*
X37574395Y-79925604D01*
X37656799Y-79980665D01*
X37668084Y-79985340D01*
X37666936Y-79988110D01*
X37712097Y-80011730D01*
X37746675Y-80072444D01*
X37750000Y-80100968D01*
X37750000Y-81738661D01*
X37730315Y-81805700D01*
X37677511Y-81851455D01*
X37608353Y-81861399D01*
X37585045Y-81855702D01*
X37366153Y-81779108D01*
X37362890Y-81777915D01*
X37354446Y-81774692D01*
X37348018Y-81772030D01*
X37339796Y-81768351D01*
X37336640Y-81766885D01*
X37062111Y-81634678D01*
X37059006Y-81633129D01*
X37050993Y-81628990D01*
X37044902Y-81625624D01*
X37037127Y-81621038D01*
X37034153Y-81619227D01*
X36776153Y-81457114D01*
X36773240Y-81455226D01*
X36765759Y-81450228D01*
X36760074Y-81446194D01*
X36752824Y-81440737D01*
X36750082Y-81438613D01*
X36511926Y-81248692D01*
X36509235Y-81246483D01*
X36502298Y-81240625D01*
X36497110Y-81235988D01*
X36490560Y-81229795D01*
X36488070Y-81227374D01*
X36272625Y-81011929D01*
X36270204Y-81009439D01*
X36264011Y-81002889D01*
X36259374Y-80997701D01*
X36253516Y-80990764D01*
X36251307Y-80988073D01*
X36061386Y-80749917D01*
X36059262Y-80747175D01*
X36053805Y-80739925D01*
X36049771Y-80734240D01*
X36044773Y-80726759D01*
X36042885Y-80723846D01*
X35880772Y-80465846D01*
X35878961Y-80462872D01*
X35874375Y-80455097D01*
X35871009Y-80449006D01*
X35866870Y-80440993D01*
X35865321Y-80437888D01*
X35733114Y-80163359D01*
X35731648Y-80160203D01*
X35727969Y-80151981D01*
X35725307Y-80145553D01*
X35722084Y-80137109D01*
X35720891Y-80133846D01*
X35620267Y-79846282D01*
X35619159Y-79842968D01*
X35616414Y-79834352D01*
X35614495Y-79827689D01*
X35612238Y-79818941D01*
X35611415Y-79815556D01*
X35557141Y-79577768D01*
X35555784Y-79570945D01*
X35552763Y-79553164D01*
X35551206Y-79539342D01*
X35550195Y-79521327D01*
X35550000Y-79514379D01*
X35550000Y-73878457D01*
X35569685Y-73811418D01*
X35622489Y-73765663D01*
X35674000Y-73754457D01*
X36699032Y-73754457D01*
X36766071Y-73774142D01*
G37*
G36*
X158943039Y-73774142D02*
G01*
X158988794Y-73826946D01*
X159000000Y-73878457D01*
X159000000Y-78998220D01*
X158999999Y-78998797D01*
X158999995Y-78999656D01*
X158999989Y-79000389D01*
X158999977Y-79001525D01*
X158999972Y-79001953D01*
X158997836Y-79154336D01*
X158997755Y-79157387D01*
X158997449Y-79165304D01*
X158997067Y-79171360D01*
X158996377Y-79179219D01*
X158996072Y-79182258D01*
X158961735Y-79487007D01*
X158961297Y-79490461D01*
X158960033Y-79499412D01*
X158958868Y-79506265D01*
X158957110Y-79515103D01*
X158956384Y-79518505D01*
X158888584Y-79815556D01*
X158887761Y-79818941D01*
X158885504Y-79827689D01*
X158883585Y-79834352D01*
X158880840Y-79842968D01*
X158879732Y-79846282D01*
X158779108Y-80133846D01*
X158777915Y-80137109D01*
X158774692Y-80145553D01*
X158772030Y-80151981D01*
X158768351Y-80160203D01*
X158766885Y-80163359D01*
X158634678Y-80437888D01*
X158633129Y-80440993D01*
X158628990Y-80449006D01*
X158625624Y-80455097D01*
X158621038Y-80462872D01*
X158619227Y-80465846D01*
X158457114Y-80723846D01*
X158455226Y-80726759D01*
X158450228Y-80734240D01*
X158446194Y-80739925D01*
X158440737Y-80747175D01*
X158438613Y-80749917D01*
X158248692Y-80988073D01*
X158246483Y-80990764D01*
X158240625Y-80997701D01*
X158235988Y-81002889D01*
X158229795Y-81009439D01*
X158227374Y-81011929D01*
X158011929Y-81227374D01*
X158009439Y-81229795D01*
X158002889Y-81235988D01*
X157997701Y-81240625D01*
X157990764Y-81246483D01*
X157988073Y-81248692D01*
X157749917Y-81438613D01*
X157747175Y-81440737D01*
X157739925Y-81446194D01*
X157734240Y-81450228D01*
X157726759Y-81455226D01*
X157723846Y-81457114D01*
X157465846Y-81619227D01*
X157462872Y-81621038D01*
X157455097Y-81625624D01*
X157449006Y-81628990D01*
X157440993Y-81633129D01*
X157437888Y-81634678D01*
X157163359Y-81766885D01*
X157160203Y-81768351D01*
X157151981Y-81772030D01*
X157145553Y-81774692D01*
X157137109Y-81777915D01*
X157133846Y-81779108D01*
X156964955Y-81838206D01*
X156895176Y-81841768D01*
X156834549Y-81807040D01*
X156802321Y-81745046D01*
X156800000Y-81721165D01*
X156800000Y-80100968D01*
X156819685Y-80033929D01*
X156872489Y-79988174D01*
X156884218Y-79984386D01*
X156893200Y-79980665D01*
X156975604Y-79925604D01*
X157030664Y-79843201D01*
X157030666Y-79843197D01*
X157049999Y-79746004D01*
X157050000Y-79746002D01*
X157050000Y-74270669D01*
X157052383Y-74246478D01*
X157064523Y-74185446D01*
X157083037Y-74140748D01*
X157110690Y-74099361D01*
X157144904Y-74065147D01*
X157186291Y-74037494D01*
X157230989Y-74018980D01*
X157292021Y-74006840D01*
X157316212Y-74004457D01*
X157496002Y-74004457D01*
X157496004Y-74004456D01*
X157593197Y-73985123D01*
X157593201Y-73985121D01*
X157675604Y-73930061D01*
X157730665Y-73847657D01*
X157735340Y-73836373D01*
X157738110Y-73837520D01*
X157761730Y-73792360D01*
X157822444Y-73757782D01*
X157850968Y-73754457D01*
X158876000Y-73754457D01*
X158943039Y-73774142D01*
G37*
G36*
X155998479Y-24000001D02*
G01*
X155999459Y-24000004D01*
X156000389Y-24000010D01*
X156001525Y-24000022D01*
X156001953Y-24000027D01*
X156154336Y-24002163D01*
X156157387Y-24002244D01*
X156165304Y-24002550D01*
X156171360Y-24002932D01*
X156179219Y-24003622D01*
X156182258Y-24003927D01*
X156487007Y-24038264D01*
X156490461Y-24038702D01*
X156499412Y-24039966D01*
X156506265Y-24041131D01*
X156515103Y-24042889D01*
X156518505Y-24043615D01*
X156815556Y-24111415D01*
X156818941Y-24112238D01*
X156827689Y-24114495D01*
X156834352Y-24116414D01*
X156842968Y-24119159D01*
X156846282Y-24120267D01*
X157133846Y-24220891D01*
X157137109Y-24222084D01*
X157145553Y-24225307D01*
X157151981Y-24227969D01*
X157160203Y-24231648D01*
X157163359Y-24233114D01*
X157437888Y-24365321D01*
X157440993Y-24366870D01*
X157449006Y-24371009D01*
X157455097Y-24374375D01*
X157462872Y-24378961D01*
X157465846Y-24380772D01*
X157723846Y-24542885D01*
X157726759Y-24544773D01*
X157734240Y-24549771D01*
X157739925Y-24553805D01*
X157747175Y-24559262D01*
X157749917Y-24561386D01*
X157988073Y-24751307D01*
X157990764Y-24753516D01*
X157997701Y-24759374D01*
X158002889Y-24764011D01*
X158009439Y-24770204D01*
X158011929Y-24772625D01*
X158227374Y-24988070D01*
X158229795Y-24990560D01*
X158235988Y-24997110D01*
X158240625Y-25002298D01*
X158246483Y-25009235D01*
X158248692Y-25011926D01*
X158438613Y-25250082D01*
X158440737Y-25252824D01*
X158446194Y-25260074D01*
X158450228Y-25265759D01*
X158455226Y-25273240D01*
X158457114Y-25276153D01*
X158619227Y-25534153D01*
X158621038Y-25537127D01*
X158625624Y-25544902D01*
X158628990Y-25550993D01*
X158633129Y-25559006D01*
X158634678Y-25562111D01*
X158766885Y-25836640D01*
X158768351Y-25839796D01*
X158772030Y-25848018D01*
X158774692Y-25854446D01*
X158777915Y-25862890D01*
X158779109Y-25866153D01*
X158838207Y-26035045D01*
X158841768Y-26104824D01*
X158807039Y-26165452D01*
X158745046Y-26197679D01*
X158721165Y-26200000D01*
X157150968Y-26200000D01*
X157083929Y-26180315D01*
X157038174Y-26127511D01*
X157034386Y-26115781D01*
X157030665Y-26106799D01*
X156975604Y-26024395D01*
X156893201Y-25969335D01*
X156893197Y-25969333D01*
X156796003Y-25950000D01*
X37753997Y-25950000D01*
X37656802Y-25969333D01*
X37656798Y-25969335D01*
X37574395Y-26024395D01*
X37519334Y-26106799D01*
X37514660Y-26118084D01*
X37511889Y-26116936D01*
X37488270Y-26162097D01*
X37427556Y-26196675D01*
X37399032Y-26200000D01*
X35778835Y-26200000D01*
X35711796Y-26180315D01*
X35666041Y-26127511D01*
X35656097Y-26058353D01*
X35661793Y-26035046D01*
X35720890Y-25866154D01*
X35722084Y-25862890D01*
X35725307Y-25854446D01*
X35727969Y-25848018D01*
X35731648Y-25839796D01*
X35733114Y-25836640D01*
X35865321Y-25562111D01*
X35866870Y-25559006D01*
X35871009Y-25550993D01*
X35874375Y-25544902D01*
X35878961Y-25537127D01*
X35880772Y-25534153D01*
X36042885Y-25276153D01*
X36044773Y-25273240D01*
X36049771Y-25265759D01*
X36053805Y-25260074D01*
X36059262Y-25252824D01*
X36061386Y-25250082D01*
X36251307Y-25011926D01*
X36253516Y-25009235D01*
X36259374Y-25002298D01*
X36264011Y-24997110D01*
X36270204Y-24990560D01*
X36272625Y-24988070D01*
X36488070Y-24772625D01*
X36490560Y-24770204D01*
X36497110Y-24764011D01*
X36502298Y-24759374D01*
X36509235Y-24753516D01*
X36511926Y-24751307D01*
X36750082Y-24561386D01*
X36752824Y-24559262D01*
X36760074Y-24553805D01*
X36765759Y-24549771D01*
X36773240Y-24544773D01*
X36776153Y-24542885D01*
X37034153Y-24380772D01*
X37037127Y-24378961D01*
X37044902Y-24374375D01*
X37050993Y-24371009D01*
X37059006Y-24366870D01*
X37062111Y-24365321D01*
X37336640Y-24233114D01*
X37339796Y-24231648D01*
X37348018Y-24227969D01*
X37354446Y-24225307D01*
X37362890Y-24222084D01*
X37366153Y-24220891D01*
X37653717Y-24120267D01*
X37657031Y-24119159D01*
X37665647Y-24116414D01*
X37672310Y-24114495D01*
X37681058Y-24112238D01*
X37684443Y-24111415D01*
X37981494Y-24043615D01*
X37984896Y-24042889D01*
X37993734Y-24041131D01*
X38000587Y-24039966D01*
X38009538Y-24038702D01*
X38012992Y-24038264D01*
X38317741Y-24003927D01*
X38320780Y-24003622D01*
X38328639Y-24002932D01*
X38334695Y-24002550D01*
X38342612Y-24002244D01*
X38345663Y-24002163D01*
X38498046Y-24000027D01*
X38498474Y-24000022D01*
X38499610Y-24000010D01*
X38500541Y-24000004D01*
X38501522Y-24000001D01*
X38501901Y-24000000D01*
X155998099Y-24000000D01*
X155998479Y-24000001D01*
G37*
G36*
X37715451Y-24175463D02*
G01*
X37747679Y-24237457D01*
X37750000Y-24261338D01*
X37750000Y-25849032D01*
X37730315Y-25916071D01*
X37677511Y-25961826D01*
X37665775Y-25965616D01*
X37656799Y-25969334D01*
X37574395Y-26024395D01*
X37519335Y-26106798D01*
X37519333Y-26106802D01*
X37500000Y-26203995D01*
X37500000Y-31833787D01*
X37497617Y-31857980D01*
X37485476Y-31919012D01*
X37466962Y-31963708D01*
X37439309Y-32005095D01*
X37405095Y-32039309D01*
X37363708Y-32066962D01*
X37319012Y-32085476D01*
X37257981Y-32097617D01*
X37233788Y-32100000D01*
X37053997Y-32100000D01*
X36956802Y-32119333D01*
X36956798Y-32119335D01*
X36874395Y-32174395D01*
X36819334Y-32256799D01*
X36814660Y-32268084D01*
X36811889Y-32266936D01*
X36788270Y-32312097D01*
X36727556Y-32346675D01*
X36699032Y-32350000D01*
X35674000Y-32350000D01*
X35606961Y-32330315D01*
X35561206Y-32277511D01*
X35550000Y-32226000D01*
X35550000Y-26485619D01*
X35550195Y-26478671D01*
X35551206Y-26460656D01*
X35552763Y-26446834D01*
X35555784Y-26429053D01*
X35557141Y-26422230D01*
X35611415Y-26184443D01*
X35612238Y-26181058D01*
X35614495Y-26172310D01*
X35616414Y-26165647D01*
X35619159Y-26157031D01*
X35620267Y-26153717D01*
X35720891Y-25866153D01*
X35722084Y-25862890D01*
X35725307Y-25854446D01*
X35727969Y-25848018D01*
X35731648Y-25839796D01*
X35733114Y-25836640D01*
X35865321Y-25562111D01*
X35866870Y-25559006D01*
X35871009Y-25550993D01*
X35874375Y-25544902D01*
X35878961Y-25537127D01*
X35880772Y-25534153D01*
X36042885Y-25276153D01*
X36044773Y-25273240D01*
X36049771Y-25265759D01*
X36053805Y-25260074D01*
X36059262Y-25252824D01*
X36061386Y-25250082D01*
X36251307Y-25011926D01*
X36253516Y-25009235D01*
X36259374Y-25002298D01*
X36264011Y-24997110D01*
X36270204Y-24990560D01*
X36272625Y-24988070D01*
X36488070Y-24772625D01*
X36490560Y-24770204D01*
X36497110Y-24764011D01*
X36502298Y-24759374D01*
X36509235Y-24753516D01*
X36511926Y-24751307D01*
X36750082Y-24561386D01*
X36752824Y-24559262D01*
X36760074Y-24553805D01*
X36765759Y-24549771D01*
X36773240Y-24544773D01*
X36776153Y-24542885D01*
X37034153Y-24380772D01*
X37037127Y-24378961D01*
X37044902Y-24374375D01*
X37050993Y-24371009D01*
X37059006Y-24366870D01*
X37062111Y-24365321D01*
X37336640Y-24233114D01*
X37339796Y-24231648D01*
X37348018Y-24227969D01*
X37354446Y-24225307D01*
X37362890Y-24222084D01*
X37366153Y-24220891D01*
X37585045Y-24144297D01*
X37654824Y-24140735D01*
X37715451Y-24175463D01*
G37*
G36*
X156964955Y-24161793D02*
G01*
X157133846Y-24220891D01*
X157137109Y-24222084D01*
X157145553Y-24225307D01*
X157151981Y-24227969D01*
X157160203Y-24231648D01*
X157163359Y-24233114D01*
X157437888Y-24365321D01*
X157440993Y-24366870D01*
X157449006Y-24371009D01*
X157455097Y-24374375D01*
X157462872Y-24378961D01*
X157465846Y-24380772D01*
X157723846Y-24542885D01*
X157726759Y-24544773D01*
X157734240Y-24549771D01*
X157739925Y-24553805D01*
X157747175Y-24559262D01*
X157749917Y-24561386D01*
X157988073Y-24751307D01*
X157990764Y-24753516D01*
X157997701Y-24759374D01*
X158002889Y-24764011D01*
X158009439Y-24770204D01*
X158011929Y-24772625D01*
X158227374Y-24988070D01*
X158229795Y-24990560D01*
X158235988Y-24997110D01*
X158240625Y-25002298D01*
X158246483Y-25009235D01*
X158248692Y-25011926D01*
X158438613Y-25250082D01*
X158440737Y-25252824D01*
X158446194Y-25260074D01*
X158450228Y-25265759D01*
X158455226Y-25273240D01*
X158457114Y-25276153D01*
X158619227Y-25534153D01*
X158621038Y-25537127D01*
X158625624Y-25544902D01*
X158628990Y-25550993D01*
X158633129Y-25559006D01*
X158634678Y-25562111D01*
X158766885Y-25836640D01*
X158768351Y-25839796D01*
X158772030Y-25848018D01*
X158774692Y-25854446D01*
X158777915Y-25862890D01*
X158779108Y-25866153D01*
X158879732Y-26153717D01*
X158880840Y-26157031D01*
X158883585Y-26165647D01*
X158885504Y-26172310D01*
X158887761Y-26181058D01*
X158888584Y-26184443D01*
X158956384Y-26481494D01*
X158957110Y-26484896D01*
X158958868Y-26493734D01*
X158960033Y-26500587D01*
X158961297Y-26509538D01*
X158961735Y-26512992D01*
X158996072Y-26817741D01*
X158996377Y-26820780D01*
X158997067Y-26828639D01*
X158997449Y-26834695D01*
X158997755Y-26842612D01*
X158997836Y-26845663D01*
X158999972Y-26998046D01*
X158999977Y-26998474D01*
X158999989Y-26999610D01*
X158999995Y-27000343D01*
X158999999Y-27001203D01*
X159000000Y-27001780D01*
X159000000Y-32226000D01*
X158980315Y-32293039D01*
X158927511Y-32338794D01*
X158876000Y-32350000D01*
X157850968Y-32350000D01*
X157783929Y-32330315D01*
X157738174Y-32277511D01*
X157734386Y-32265781D01*
X157730665Y-32256799D01*
X157675604Y-32174395D01*
X157593201Y-32119335D01*
X157593197Y-32119333D01*
X157496003Y-32100000D01*
X157316212Y-32100000D01*
X157292019Y-32097617D01*
X157230987Y-32085476D01*
X157186291Y-32066962D01*
X157144904Y-32039309D01*
X157110690Y-32005095D01*
X157083037Y-31963708D01*
X157064523Y-31919010D01*
X157052383Y-31857978D01*
X157050000Y-31833787D01*
X157050000Y-26203997D01*
X157049999Y-26203995D01*
X157030666Y-26106802D01*
X157030664Y-26106798D01*
X156975604Y-26024395D01*
X156893200Y-25969334D01*
X156881920Y-25964662D01*
X156883066Y-25961892D01*
X156837891Y-25938257D01*
X156803321Y-25877539D01*
X156800000Y-25849032D01*
X156800000Y-24278834D01*
X156819685Y-24211795D01*
X156872489Y-24166040D01*
X156941647Y-24156096D01*
X156964955Y-24161793D01*
G37*
M02*
