M48
; DRILL file KiCad 10.0.5 date 2026-08-19T20:52:31
; FORMAT={-:-/ absolute / metric / decimal}
; #@! TF.CreationDate,2026-08-19T20:52:31+08:00
; #@! TF.GenerationSoftware,Kicad,Pcbnew,10.0.5
; #@! TF.FileFunction,Plated,1,8,PTH
FMAT,2
METRIC
; #@! TA.AperFunction,Plated,PTH,ViaDrill
T1C0.305
; #@! TA.AperFunction,Plated,PTH,ComponentDrill
T2C0.400
; #@! TA.AperFunction,Plated,PTH,ComponentDrill
T3C0.600
; #@! TA.AperFunction,Plated,PTH,ComponentDrill
T4C0.762
; #@! TA.AperFunction,Plated,PTH,ComponentDrill
T5C0.800
; #@! TA.AperFunction,Plated,PTH,ComponentDrill
T6C1.000
; #@! TA.AperFunction,Plated,PTH,ComponentDrill
T7C2.200
%
G90
G05
T1
X37.35Y-18.6
X37.35Y-23.6
X37.35Y-28.6
X37.35Y-33.6
X37.35Y-38.6
X37.35Y-43.6
X37.35Y-48.6
X37.35Y-53.6
X37.35Y-58.6
X37.35Y-63.6
X39.45Y-20.6
X40.908Y-21.8
X40.908Y-23.876
X40.908Y-26.1
X41.116Y-30.3
X41.148Y-32.258
X41.148Y-34.3
X42.87Y-21.8
X42.87Y-23.876
X42.87Y-26.1
X43.077Y-30.3
X43.109Y-32.258
X43.109Y-34.3
X44.5Y-16.0
X44.5Y-17.95
X44.5Y-19.9
X44.531Y-26.167
X44.831Y-21.8
X44.831Y-23.876
X45.0Y-68.0
X45.039Y-30.3
X45.071Y-32.258
X45.071Y-34.3
X45.15Y-14.05
X46.482Y-17.992
X46.5Y-16.0
X46.5Y-19.9
X46.792Y-21.8
X46.792Y-23.876
X46.792Y-26.1
X47.0Y-30.3
X47.032Y-32.258
X47.032Y-34.3
X47.244Y-52.07
X48.2Y-41.65
X48.514Y-60.198
X48.641Y-18.415
X48.668Y-26.1
X48.908Y-30.48
X50.0Y-19.0
X50.0Y-68.0
X50.15Y-14.05
X50.4Y-30.0
X50.4Y-35.0
X51.0Y-25.0
X51.0Y-27.0
X51.5Y-48.3
X52.0Y-18.0
X52.6Y-55.4
X53.0Y-25.0
X53.0Y-27.0
X54.5Y-21.5
X54.5Y-23.0
X54.8Y-42.5
X55.0Y-25.0
X55.0Y-35.0
X55.0Y-68.0
X55.15Y-14.05
X56.2Y-61.405
X56.5Y-21.5
X56.5Y-44.0
X56.5Y-44.8
X56.5Y-46.9
X56.5Y-47.794
X57.3Y-41.25
X57.3Y-42.1
X57.919Y-37.081
X58.166Y-27.178
X60.0Y-68.0
X60.15Y-14.05
X60.8Y-52.5
X61.7Y-15.8
X61.7Y-18.3
X62.9Y-56.6
X63.6Y-39.35
X63.9Y-20.4
X64.2Y-15.8
X64.2Y-18.3
X64.6Y-22.2
X64.7Y-27.2
X65.0Y-68.0
X65.15Y-14.05
X65.9Y-29.7
X66.2Y-36.838
X66.3Y-15.8
X66.3Y-18.3
X66.3Y-20.8
X66.45Y-47.141
X66.6Y-28.45
X66.641Y-38.876
X66.675Y-39.675
X66.8Y-34.7
X66.8Y-46.2
X66.9Y-43.2
X66.95Y-35.65
X67.1Y-24.75
X67.1Y-25.8
X67.1Y-31.9
X67.125Y-26.725
X68.05Y-40.894
X68.2Y-28.65
X68.25Y-60.2
X68.4Y-50.4
X68.5Y-47.0
X68.5Y-54.0
X68.5Y-55.4
X68.5Y-57.0
X68.9Y-40.8
X69.2Y-43.2
X69.55Y-23.75
X69.581Y-27.45
X69.65Y-25.6
X69.75Y-29.6
X69.8Y-40.8
X70.0Y-68.0
X70.15Y-14.05
X70.2Y-39.4
X70.4Y-18.1
X70.85Y-40.808
X70.9Y-46.6
X71.1Y-17.2
X71.15Y-23.6
X71.2Y-54.814
X71.6Y-29.55
X71.6Y-39.9
X72.0Y-25.55
X72.0Y-27.4
X72.25Y-43.7
X72.3Y-34.25
X72.3Y-35.05
X72.3Y-57.5
X72.35Y-38.654
X72.567Y-53.723
X73.225Y-40.129
X73.58Y-38.848
X73.929Y-44.917
X74.125Y-42.682
X74.203Y-47.342
X74.428Y-38.865
X74.55Y-16.55
X74.6Y-27.7
X74.7Y-29.8
X74.8Y-21.6
X74.838Y-44.808
X75.0Y-68.0
X75.1Y-47.4
X75.15Y-14.05
X75.45Y-27.85
X75.487Y-30.15
X75.653Y-45.325
X75.9Y-24.6
X75.9Y-56.2
X75.95Y-59.75
X76.135Y-48.643
X76.8Y-48.2
X77.75Y-31.0
X77.77Y-33.22
X77.9Y-59.4
X78.03Y-42.106
X78.1Y-56.15
X78.259Y-53.359
X78.695Y-39.058
X78.7Y-24.95
X78.783Y-39.853
X79.0Y-17.6
X79.014Y-40.715
X79.05Y-44.164
X79.3Y-30.1
X79.75Y-59.55
X80.0Y-68.0
X80.15Y-14.05
X80.35Y-53.1
X80.5Y-23.9
X80.8Y-36.05
X80.814Y-40.079
X82.4Y-23.9
X83.15Y-28.75
X83.45Y-23.8
X83.5Y-17.7
X83.74Y-59.25
X84.0Y-40.1
X84.397Y-20.602
X84.45Y-21.4
X84.6Y-32.2
X84.629Y-42.029
X84.85Y-25.45
X85.0Y-27.3
X85.0Y-68.0
X85.15Y-14.05
X85.45Y-24.45
X85.554Y-38.204
X86.2Y-59.25
X86.668Y-41.875
X87.162Y-39.637
X87.38Y-25.26
X87.6Y-65.3
X87.8Y-44.4
X87.85Y-47.4
X88.1Y-49.727
X88.65Y-33.9
X89.249Y-26.884
X89.55Y-42.4
X89.6Y-47.5
X89.734Y-40.478
X90.0Y-68.0
X90.15Y-14.05
X90.17Y-33.655
X90.8Y-25.7
X91.0Y-53.3
X91.2Y-43.35
X91.9Y-53.3
X92.7Y-16.8
X93.4Y-38.95
X93.413Y-29.064
X93.441Y-31.509
X93.55Y-16.8
X93.65Y-17.9
X93.726Y-20.066
X93.8Y-56.5
X94.027Y-30.644
X94.067Y-40.803
X94.2Y-23.905
X94.298Y-43.798
X94.6Y-26.35
X94.909Y-28.906
X95.0Y-68.0
X95.15Y-14.05
X95.671Y-35.15
X96.55Y-29.7
X96.55Y-28.006
X96.633Y-26.133
X97.7Y-48.4
X98.1Y-45.3
X98.85Y-21.65
X99.15Y-26.85
X99.244Y-15.983
X99.315Y-16.783
X99.415Y-39.685
X99.748Y-27.381
X100.0Y-68.0
X100.15Y-14.05
X100.55Y-32.286
X100.6Y-42.6
X100.6Y-46.2
X101.25Y-51.25
X101.45Y-30.55
X102.4Y-34.525
X102.4Y-35.375
X102.45Y-23.65
X102.55Y-32.306
X103.2Y-57.4
X104.2Y-27.4
X104.2Y-39.1
X105.0Y-68.0
X105.1Y-27.4
X105.1Y-39.2
X105.15Y-14.05
X105.281Y-53.803
X105.3Y-51.0
X105.654Y-18.829
X107.0Y-54.6
X110.0Y-68.0
X110.15Y-14.05
X111.9Y-16.8
X111.981Y-24.623
X112.0Y-27.0
X112.0Y-31.0
X112.0Y-33.0
X112.0Y-40.0
X112.0Y-42.0
X112.0Y-44.45
X112.5Y-57.0
X112.5Y-60.0
X112.5Y-62.75
X112.5Y-65.25
X115.0Y-25.0
X115.0Y-40.0
X115.0Y-42.5
X115.0Y-50.0
X115.0Y-60.0
X115.0Y-68.0
X115.15Y-14.05
X115.55Y-65.2
X117.5Y-17.5
X117.5Y-20.0
X117.5Y-25.0
X117.5Y-37.5
X117.5Y-42.5
X117.5Y-50.0
X117.5Y-52.5
X117.5Y-55.0
X117.5Y-60.0
X119.05Y-65.2
X120.0Y-17.5
X120.0Y-20.0
X120.0Y-25.0
X120.0Y-32.5
X120.0Y-37.5
X120.0Y-42.5
X120.0Y-50.0
X120.0Y-52.5
X120.0Y-55.0
X120.0Y-60.0
X120.0Y-68.0
X120.15Y-14.05
X122.5Y-17.5
X122.5Y-20.0
X122.5Y-22.5
X122.5Y-25.0
X122.5Y-27.5
X122.5Y-30.0
X122.5Y-32.5
X122.5Y-35.0
X122.5Y-37.5
X122.5Y-40.0
X122.5Y-42.5
X122.5Y-45.0
X122.5Y-50.0
X122.5Y-52.5
X122.5Y-55.0
X122.5Y-57.5
X122.5Y-60.0
X122.5Y-62.5
X122.5Y-65.0
X125.0Y-25.0
X125.0Y-27.5
X125.0Y-30.0
X125.0Y-40.0
X125.0Y-42.5
X125.0Y-50.0
X125.0Y-60.0
X125.0Y-62.5
X125.0Y-65.0
X125.0Y-68.0
X125.15Y-14.05
X127.5Y-25.0
X127.5Y-30.0
X127.5Y-40.0
X127.5Y-42.5
X127.5Y-60.0
X127.5Y-65.0
X129.883Y-34.256
X130.0Y-68.0
X130.15Y-14.05
X132.754Y-15.839
X133.0Y-16.6
X135.0Y-68.0
X135.15Y-14.05
X136.175Y-30.75
X137.025Y-30.75
X139.8Y-27.5
X139.8Y-32.5
X139.8Y-40.0
X139.8Y-45.0
X139.8Y-50.0
X139.8Y-55.0
X139.8Y-60.0
X139.8Y-65.0
X139.85Y-22.5
X140.0Y-68.0
X140.15Y-14.05
X142.3Y-27.5
X142.3Y-32.5
X142.3Y-37.5
X142.3Y-40.0
X142.3Y-45.0
X142.3Y-50.0
X142.3Y-52.5
X142.3Y-55.0
X142.3Y-60.0
X142.3Y-65.0
X142.35Y-22.5
X144.818Y-46.876
X144.818Y-49.011
X144.818Y-51.076
X144.839Y-37.126
X144.839Y-39.196
X144.839Y-41.376
X144.839Y-56.476
X144.839Y-58.5
X144.839Y-60.626
X145.0Y-68.0
X145.15Y-14.05
X146.779Y-46.876
X146.779Y-49.011
X146.779Y-51.076
X146.8Y-37.126
X146.8Y-39.196
X146.8Y-41.376
X146.8Y-56.476
X146.8Y-58.5
X146.8Y-60.626
X148.74Y-46.876
X148.74Y-49.011
X148.74Y-51.076
X148.761Y-37.126
X148.761Y-39.196
X148.761Y-41.376
X148.761Y-56.476
X148.761Y-58.5
X148.761Y-60.626
X150.0Y-68.0
X150.15Y-14.05
X150.702Y-46.876
X150.702Y-49.011
X150.702Y-51.076
X150.723Y-37.126
X150.723Y-39.196
X150.723Y-41.376
X150.723Y-56.476
X150.723Y-58.5
X150.723Y-60.626
X152.578Y-46.876
X152.578Y-49.011
X152.578Y-51.076
X152.599Y-37.126
X152.599Y-39.196
X152.599Y-41.376
X152.599Y-56.476
X152.599Y-58.5
X152.599Y-60.626
X153.75Y-30.207
X156.35Y-18.2
X156.35Y-23.2
X156.35Y-28.2
X156.35Y-33.2
X156.35Y-38.2
X156.35Y-43.2
X156.35Y-48.2
X156.35Y-53.2
X156.35Y-58.2
X156.35Y-63.2
T2
X37.85Y-16.1
X37.85Y-66.1
X38.333Y-14.933
X38.333Y-17.267
X38.333Y-64.933
X38.333Y-67.267
X39.5Y-14.45
X39.5Y-17.75
X39.5Y-64.45
X39.5Y-67.75
X40.667Y-14.933
X40.667Y-17.267
X40.667Y-64.933
X40.667Y-67.267
X41.15Y-16.1
X41.15Y-66.1
X152.45Y-16.1
X152.45Y-66.1
X152.933Y-14.933
X152.933Y-17.267
X152.933Y-64.933
X152.933Y-67.267
X154.1Y-14.45
X154.1Y-17.75
X154.1Y-64.45
X154.1Y-67.75
X155.267Y-14.933
X155.267Y-17.267
X155.267Y-64.933
X155.267Y-67.267
X155.75Y-16.1
X155.75Y-66.1
T4
X43.686Y-40.196
X43.686Y-42.196
X43.686Y-44.196
X43.686Y-46.196
X43.686Y-48.196
X45.686Y-40.196
X45.686Y-42.196
X45.686Y-44.196
X45.686Y-46.196
X45.686Y-48.196
T5
X149.8Y-21.65
X149.8Y-23.65
X149.8Y-25.65
X149.8Y-27.65
X149.8Y-29.65
X149.8Y-31.65
T6
X88.138Y-59.304
X88.138Y-61.844
X90.678Y-59.304
X90.678Y-61.844
X93.218Y-59.304
X93.218Y-61.844
T7
X39.5Y-16.1
X39.5Y-66.1
X154.1Y-16.1
X154.1Y-66.1
T3
G00X40.945Y-52.322
M15
G01X40.145Y-52.322
M16
G05
G00X40.945Y-60.962
M15
G01X40.145Y-60.962
M16
G05
G00X45.275Y-52.322
M15
G01X44.175Y-52.322
M16
G05
G00X45.275Y-60.962
M15
G01X44.175Y-60.962
M16
G05
M30
