%TF.GenerationSoftware,KiCad,Pcbnew,10.0.5*%
%TF.CreationDate,2026-08-22T17:45:41+08:00*%
%TF.ProjectId,BLDC_MC_V1.0,424c4443-5f4d-4435-9f56-312e302e6b69,V1.0*%
%TF.SameCoordinates,Original*%
%TF.FileFunction,Paste,Top*%
%TF.FilePolarity,Positive*%
%FSLAX46Y46*%
G04 Gerber Fmt 4.6, Leading zero omitted, Abs format (unit mm)*
G04 Created by KiCad (PCBNEW 10.0.5) date 2026-08-22 17:45:41*
%MOMM*%
%LPD*%
G01*
G04 APERTURE LIST*
G04 Aperture macros list*
%AMRoundRect*
0 Rectangle with rounded corners*
0 $1 Rounding radius*
0 $2 $3 $4 $5 $6 $7 $8 $9 X,Y pos of 4 corners*
0 Add a 4 corners polygon primitive as box body*
4,1,4,$2,$3,$4,$5,$6,$7,$8,$9,$2,$3,0*
0 Add four circle primitives for the rounded corners*
1,1,$1+$1,$2,$3*
1,1,$1+$1,$4,$5*
1,1,$1+$1,$6,$7*
1,1,$1+$1,$8,$9*
0 Add four rect primitives between the rounded corners*
20,1,$1+$1,$2,$3,$4,$5,0*
20,1,$1+$1,$4,$5,$6,$7,0*
20,1,$1+$1,$6,$7,$8,$9,0*
20,1,$1+$1,$8,$9,$2,$3,0*%
%AMHorizOval*
0 Thick line with rounded ends*
0 $1 width*
0 $2 $3 position (X,Y) of the first rounded end (center of the circle)*
0 $4 $5 position (X,Y) of the second rounded end (center of the circle)*
0 Add line between two ends*
20,1,$1,$2,$3,$4,$5,0*
0 Add two circle primitives to create the rounded ends*
1,1,$1,$2,$3*
1,1,$1,$4,$5*%
%AMFreePoly0*
4,1,13,0.495300,-2.806700,-0.495300,-2.806700,-0.495300,-2.273300,-0.054610,-2.273300,-0.054610,-1.536700,-0.495300,-1.536700,-0.495300,-1.003300,-0.054610,-1.003300,-0.054490,-0.266700,-0.495300,-0.266700,-0.495300,0.266700,0.495300,0.266700,0.495300,-2.806700,0.495300,-2.806700,$1*%
%AMFreePoly1*
4,1,9,1.457974,0.266700,2.194525,0.266700,2.194525,-0.266700,1.457974,-0.266700,1.457974,-0.320001,-2.217024,-0.320001,-2.217024,4.130001,1.457974,4.130001,1.457974,0.266700,1.457974,0.266700,$1*%
G04 Aperture macros list end*
%ADD10C,0.150000*%
%ADD11C,0.300000*%
%ADD12C,0.400000*%
%ADD13C,0.000000*%
%ADD14RoundRect,0.200000X0.275000X-0.200000X0.275000X0.200000X-0.275000X0.200000X-0.275000X-0.200000X0*%
%ADD15R,0.803900X0.406400*%
%ADD16RoundRect,0.225000X-0.225000X-0.250000X0.225000X-0.250000X0.225000X0.250000X-0.225000X0.250000X0*%
%ADD17RoundRect,0.225000X0.017678X-0.335876X0.335876X-0.017678X-0.017678X0.335876X-0.335876X0.017678X0*%
%ADD18RoundRect,0.225000X-0.250000X0.225000X-0.250000X-0.225000X0.250000X-0.225000X0.250000X0.225000X0*%
%ADD19FreePoly0,180.000000*%
%ADD20R,0.990600X0.533400*%
%ADD21FreePoly1,180.000000*%
%ADD22R,0.736600X0.533400*%
%ADD23RoundRect,0.900000X-4.100000X-2.100000X4.100000X-2.100000X4.100000X2.100000X-4.100000X2.100000X0*%
%ADD24RoundRect,0.250000X-0.250000X-0.475000X0.250000X-0.475000X0.250000X0.475000X-0.250000X0.475000X0*%
%ADD25RoundRect,0.218750X0.218750X0.256250X-0.218750X0.256250X-0.218750X-0.256250X0.218750X-0.256250X0*%
%ADD26RoundRect,0.249999X1.425001X-0.450001X1.425001X0.450001X-1.425001X0.450001X-1.425001X-0.450001X0*%
%ADD27RoundRect,0.200000X-0.200000X-0.275000X0.200000X-0.275000X0.200000X0.275000X-0.200000X0.275000X0*%
%ADD28RoundRect,0.200000X-0.275000X0.200000X-0.275000X-0.200000X0.275000X-0.200000X0.275000X0.200000X0*%
%ADD29RoundRect,0.250000X-0.325000X-0.650000X0.325000X-0.650000X0.325000X0.650000X-0.325000X0.650000X0*%
%ADD30RoundRect,0.200000X-0.335876X-0.053033X-0.053033X-0.335876X0.335876X0.053033X0.053033X0.335876X0*%
%ADD31RoundRect,0.250000X0.650000X-0.325000X0.650000X0.325000X-0.650000X0.325000X-0.650000X-0.325000X0*%
%ADD32RoundRect,0.250000X-0.457500X-0.445000X0.457500X-0.445000X0.457500X0.445000X-0.457500X0.445000X0*%
%ADD33R,1.400000X1.200000*%
%ADD34RoundRect,0.225000X0.250000X-0.225000X0.250000X0.225000X-0.250000X0.225000X-0.250000X-0.225000X0*%
%ADD35RoundRect,0.250000X0.512652X0.159099X0.159099X0.512652X-0.512652X-0.159099X-0.159099X-0.512652X0*%
%ADD36RoundRect,0.218750X-0.335876X-0.026517X-0.026517X-0.335876X0.335876X0.026517X0.026517X0.335876X0*%
%ADD37RoundRect,0.200000X0.200000X0.275000X-0.200000X0.275000X-0.200000X-0.275000X0.200000X-0.275000X0*%
%ADD38RoundRect,0.075000X0.910000X0.225000X-0.910000X0.225000X-0.910000X-0.225000X0.910000X-0.225000X0*%
%ADD39RoundRect,0.200000X0.053033X-0.335876X0.335876X-0.053033X-0.053033X0.335876X-0.335876X0.053033X0*%
%ADD40RoundRect,0.250000X0.475000X-0.250000X0.475000X0.250000X-0.475000X0.250000X-0.475000X-0.250000X0*%
%ADD41R,1.460500X0.558800*%
%ADD42HorizOval,0.230000X-0.130814X0.130814X0.130814X-0.130814X0*%
%ADD43HorizOval,0.230000X0.130814X0.130814X-0.130814X-0.130814X0*%
%ADD44RoundRect,0.250000X0.250000X0.475000X-0.250000X0.475000X-0.250000X-0.475000X0.250000X-0.475000X0*%
%ADD45RoundRect,0.250000X-0.362500X-1.425000X0.362500X-1.425000X0.362500X1.425000X-0.362500X1.425000X0*%
%ADD46RoundRect,0.250000X-0.475000X0.250000X-0.475000X-0.250000X0.475000X-0.250000X0.475000X0.250000X0*%
%ADD47RoundRect,0.150000X-0.425000X0.150000X-0.425000X-0.150000X0.425000X-0.150000X0.425000X0.150000X0*%
%ADD48RoundRect,0.075000X-0.500000X0.075000X-0.500000X-0.075000X0.500000X-0.075000X0.500000X0.075000X0*%
%ADD49O,2.100000X1.000000*%
%ADD50O,1.800000X1.000000*%
%ADD51RoundRect,0.150000X-0.512500X-0.150000X0.512500X-0.150000X0.512500X0.150000X-0.512500X0.150000X0*%
%ADD52RoundRect,0.225000X0.335876X0.017678X0.017678X0.335876X-0.335876X-0.017678X-0.017678X-0.335876X0*%
%ADD53RoundRect,0.250000X-0.800000X-0.450000X0.800000X-0.450000X0.800000X0.450000X-0.800000X0.450000X0*%
%ADD54R,1.050000X0.600000*%
%ADD55R,1.900000X1.100000*%
%ADD56RoundRect,0.250000X-0.512652X-0.159099X-0.159099X-0.512652X0.512652X0.159099X0.159099X0.512652X0*%
%ADD57RoundRect,0.250000X0.625000X-0.312500X0.625000X0.312500X-0.625000X0.312500X-0.625000X-0.312500X0*%
%ADD58RoundRect,0.250000X0.689429X0.229810X0.229810X0.689429X-0.689429X-0.229810X-0.229810X-0.689429X0*%
%ADD59RoundRect,0.152400X0.596900X0.152400X-0.596900X0.152400X-0.596900X-0.152400X0.596900X-0.152400X0*%
%ADD60RoundRect,0.152400X-0.152400X0.596900X-0.152400X-0.596900X0.152400X-0.596900X0.152400X0.596900X0*%
%ADD61RoundRect,0.225000X-0.017678X0.335876X-0.335876X0.017678X0.017678X-0.335876X0.335876X-0.017678X0*%
G04 APERTURE END LIST*
D10*
X177002200Y-166007200D02*
X285002200Y-166007200D01*
X285002200Y-198007200D01*
X177002200Y-198007200D01*
X177002200Y-166007200D01*
X10000000Y-10000000D02*
X287002200Y-10000000D01*
X287002200Y-200007200D01*
X10000000Y-200007200D01*
X10000000Y-10000000D01*
X12000000Y-12000000D02*
X285002200Y-12000000D01*
X285002200Y-198007200D01*
X12000000Y-198007200D01*
X12000000Y-12000000D01*
X60000000Y-12000000D02*
X60000000Y-10000000D01*
X110000000Y-12000000D02*
X110000000Y-10000000D01*
X160000000Y-12000000D02*
X160000000Y-10000000D01*
X210000000Y-12000000D02*
X210000000Y-10000000D01*
X260000000Y-12000000D02*
X260000000Y-10000000D01*
X36089160Y-11593604D02*
X35346303Y-11593604D01*
X35717731Y-11593604D02*
X35717731Y-10293604D01*
X35717731Y-10293604D02*
X35593922Y-10479319D01*
X35593922Y-10479319D02*
X35470112Y-10603128D01*
X35470112Y-10603128D02*
X35346303Y-10665033D01*
X85346303Y-10417414D02*
X85408207Y-10355509D01*
X85408207Y-10355509D02*
X85532017Y-10293604D01*
X85532017Y-10293604D02*
X85841541Y-10293604D01*
X85841541Y-10293604D02*
X85965350Y-10355509D01*
X85965350Y-10355509D02*
X86027255Y-10417414D01*
X86027255Y-10417414D02*
X86089160Y-10541223D01*
X86089160Y-10541223D02*
X86089160Y-10665033D01*
X86089160Y-10665033D02*
X86027255Y-10850747D01*
X86027255Y-10850747D02*
X85284398Y-11593604D01*
X85284398Y-11593604D02*
X86089160Y-11593604D01*
X135284398Y-10293604D02*
X136089160Y-10293604D01*
X136089160Y-10293604D02*
X135655826Y-10788842D01*
X135655826Y-10788842D02*
X135841541Y-10788842D01*
X135841541Y-10788842D02*
X135965350Y-10850747D01*
X135965350Y-10850747D02*
X136027255Y-10912652D01*
X136027255Y-10912652D02*
X136089160Y-11036461D01*
X136089160Y-11036461D02*
X136089160Y-11345985D01*
X136089160Y-11345985D02*
X136027255Y-11469795D01*
X136027255Y-11469795D02*
X135965350Y-11531700D01*
X135965350Y-11531700D02*
X135841541Y-11593604D01*
X135841541Y-11593604D02*
X135470112Y-11593604D01*
X135470112Y-11593604D02*
X135346303Y-11531700D01*
X135346303Y-11531700D02*
X135284398Y-11469795D01*
X185965350Y-10726938D02*
X185965350Y-11593604D01*
X185655826Y-10231700D02*
X185346303Y-11160271D01*
X185346303Y-11160271D02*
X186151064Y-11160271D01*
X236027255Y-10293604D02*
X235408207Y-10293604D01*
X235408207Y-10293604D02*
X235346303Y-10912652D01*
X235346303Y-10912652D02*
X235408207Y-10850747D01*
X235408207Y-10850747D02*
X235532017Y-10788842D01*
X235532017Y-10788842D02*
X235841541Y-10788842D01*
X235841541Y-10788842D02*
X235965350Y-10850747D01*
X235965350Y-10850747D02*
X236027255Y-10912652D01*
X236027255Y-10912652D02*
X236089160Y-11036461D01*
X236089160Y-11036461D02*
X236089160Y-11345985D01*
X236089160Y-11345985D02*
X236027255Y-11469795D01*
X236027255Y-11469795D02*
X235965350Y-11531700D01*
X235965350Y-11531700D02*
X235841541Y-11593604D01*
X235841541Y-11593604D02*
X235532017Y-11593604D01*
X235532017Y-11593604D02*
X235408207Y-11531700D01*
X235408207Y-11531700D02*
X235346303Y-11469795D01*
X285965350Y-10293604D02*
X285717731Y-10293604D01*
X285717731Y-10293604D02*
X285593922Y-10355509D01*
X285593922Y-10355509D02*
X285532017Y-10417414D01*
X285532017Y-10417414D02*
X285408207Y-10603128D01*
X285408207Y-10603128D02*
X285346303Y-10850747D01*
X285346303Y-10850747D02*
X285346303Y-11345985D01*
X285346303Y-11345985D02*
X285408207Y-11469795D01*
X285408207Y-11469795D02*
X285470112Y-11531700D01*
X285470112Y-11531700D02*
X285593922Y-11593604D01*
X285593922Y-11593604D02*
X285841541Y-11593604D01*
X285841541Y-11593604D02*
X285965350Y-11531700D01*
X285965350Y-11531700D02*
X286027255Y-11469795D01*
X286027255Y-11469795D02*
X286089160Y-11345985D01*
X286089160Y-11345985D02*
X286089160Y-11036461D01*
X286089160Y-11036461D02*
X286027255Y-10912652D01*
X286027255Y-10912652D02*
X285965350Y-10850747D01*
X285965350Y-10850747D02*
X285841541Y-10788842D01*
X285841541Y-10788842D02*
X285593922Y-10788842D01*
X285593922Y-10788842D02*
X285470112Y-10850747D01*
X285470112Y-10850747D02*
X285408207Y-10912652D01*
X285408207Y-10912652D02*
X285346303Y-11036461D01*
X60000000Y-198007200D02*
X60000000Y-200007200D01*
X110000000Y-198007200D02*
X110000000Y-200007200D01*
X160000000Y-198007200D02*
X160000000Y-200007200D01*
X210000000Y-198007200D02*
X210000000Y-200007200D01*
X260000000Y-198007200D02*
X260000000Y-200007200D01*
X36089160Y-199600804D02*
X35346303Y-199600804D01*
X35717731Y-199600804D02*
X35717731Y-198300804D01*
X35717731Y-198300804D02*
X35593922Y-198486519D01*
X35593922Y-198486519D02*
X35470112Y-198610328D01*
X35470112Y-198610328D02*
X35346303Y-198672233D01*
X85346303Y-198424614D02*
X85408207Y-198362709D01*
X85408207Y-198362709D02*
X85532017Y-198300804D01*
X85532017Y-198300804D02*
X85841541Y-198300804D01*
X85841541Y-198300804D02*
X85965350Y-198362709D01*
X85965350Y-198362709D02*
X86027255Y-198424614D01*
X86027255Y-198424614D02*
X86089160Y-198548423D01*
X86089160Y-198548423D02*
X86089160Y-198672233D01*
X86089160Y-198672233D02*
X86027255Y-198857947D01*
X86027255Y-198857947D02*
X85284398Y-199600804D01*
X85284398Y-199600804D02*
X86089160Y-199600804D01*
X135284398Y-198300804D02*
X136089160Y-198300804D01*
X136089160Y-198300804D02*
X135655826Y-198796042D01*
X135655826Y-198796042D02*
X135841541Y-198796042D01*
X135841541Y-198796042D02*
X135965350Y-198857947D01*
X135965350Y-198857947D02*
X136027255Y-198919852D01*
X136027255Y-198919852D02*
X136089160Y-199043661D01*
X136089160Y-199043661D02*
X136089160Y-199353185D01*
X136089160Y-199353185D02*
X136027255Y-199476995D01*
X136027255Y-199476995D02*
X135965350Y-199538900D01*
X135965350Y-199538900D02*
X135841541Y-199600804D01*
X135841541Y-199600804D02*
X135470112Y-199600804D01*
X135470112Y-199600804D02*
X135346303Y-199538900D01*
X135346303Y-199538900D02*
X135284398Y-199476995D01*
X185965350Y-198734138D02*
X185965350Y-199600804D01*
X185655826Y-198238900D02*
X185346303Y-199167471D01*
X185346303Y-199167471D02*
X186151064Y-199167471D01*
X236027255Y-198300804D02*
X235408207Y-198300804D01*
X235408207Y-198300804D02*
X235346303Y-198919852D01*
X235346303Y-198919852D02*
X235408207Y-198857947D01*
X235408207Y-198857947D02*
X235532017Y-198796042D01*
X235532017Y-198796042D02*
X235841541Y-198796042D01*
X235841541Y-198796042D02*
X235965350Y-198857947D01*
X235965350Y-198857947D02*
X236027255Y-198919852D01*
X236027255Y-198919852D02*
X236089160Y-199043661D01*
X236089160Y-199043661D02*
X236089160Y-199353185D01*
X236089160Y-199353185D02*
X236027255Y-199476995D01*
X236027255Y-199476995D02*
X235965350Y-199538900D01*
X235965350Y-199538900D02*
X235841541Y-199600804D01*
X235841541Y-199600804D02*
X235532017Y-199600804D01*
X235532017Y-199600804D02*
X235408207Y-199538900D01*
X235408207Y-199538900D02*
X235346303Y-199476995D01*
X285965350Y-198300804D02*
X285717731Y-198300804D01*
X285717731Y-198300804D02*
X285593922Y-198362709D01*
X285593922Y-198362709D02*
X285532017Y-198424614D01*
X285532017Y-198424614D02*
X285408207Y-198610328D01*
X285408207Y-198610328D02*
X285346303Y-198857947D01*
X285346303Y-198857947D02*
X285346303Y-199353185D01*
X285346303Y-199353185D02*
X285408207Y-199476995D01*
X285408207Y-199476995D02*
X285470112Y-199538900D01*
X285470112Y-199538900D02*
X285593922Y-199600804D01*
X285593922Y-199600804D02*
X285841541Y-199600804D01*
X285841541Y-199600804D02*
X285965350Y-199538900D01*
X285965350Y-199538900D02*
X286027255Y-199476995D01*
X286027255Y-199476995D02*
X286089160Y-199353185D01*
X286089160Y-199353185D02*
X286089160Y-199043661D01*
X286089160Y-199043661D02*
X286027255Y-198919852D01*
X286027255Y-198919852D02*
X285965350Y-198857947D01*
X285965350Y-198857947D02*
X285841541Y-198796042D01*
X285841541Y-198796042D02*
X285593922Y-198796042D01*
X285593922Y-198796042D02*
X285470112Y-198857947D01*
X285470112Y-198857947D02*
X285408207Y-198919852D01*
X285408207Y-198919852D02*
X285346303Y-199043661D01*
X10000000Y-60000000D02*
X12000000Y-60000000D01*
X10000000Y-110000000D02*
X12000000Y-110000000D01*
X10000000Y-160000000D02*
X12000000Y-160000000D01*
X10690476Y-35222176D02*
X11309523Y-35222176D01*
X10566666Y-35593604D02*
X10999999Y-34293604D01*
X10999999Y-34293604D02*
X11433333Y-35593604D01*
X11092857Y-84912652D02*
X11278571Y-84974557D01*
X11278571Y-84974557D02*
X11340476Y-85036461D01*
X11340476Y-85036461D02*
X11402380Y-85160271D01*
X11402380Y-85160271D02*
X11402380Y-85345985D01*
X11402380Y-85345985D02*
X11340476Y-85469795D01*
X11340476Y-85469795D02*
X11278571Y-85531700D01*
X11278571Y-85531700D02*
X11154761Y-85593604D01*
X11154761Y-85593604D02*
X10659523Y-85593604D01*
X10659523Y-85593604D02*
X10659523Y-84293604D01*
X10659523Y-84293604D02*
X11092857Y-84293604D01*
X11092857Y-84293604D02*
X11216666Y-84355509D01*
X11216666Y-84355509D02*
X11278571Y-84417414D01*
X11278571Y-84417414D02*
X11340476Y-84541223D01*
X11340476Y-84541223D02*
X11340476Y-84665033D01*
X11340476Y-84665033D02*
X11278571Y-84788842D01*
X11278571Y-84788842D02*
X11216666Y-84850747D01*
X11216666Y-84850747D02*
X11092857Y-84912652D01*
X11092857Y-84912652D02*
X10659523Y-84912652D01*
X11402380Y-135469795D02*
X11340476Y-135531700D01*
X11340476Y-135531700D02*
X11154761Y-135593604D01*
X11154761Y-135593604D02*
X11030952Y-135593604D01*
X11030952Y-135593604D02*
X10845238Y-135531700D01*
X10845238Y-135531700D02*
X10721428Y-135407890D01*
X10721428Y-135407890D02*
X10659523Y-135284080D01*
X10659523Y-135284080D02*
X10597619Y-135036461D01*
X10597619Y-135036461D02*
X10597619Y-134850747D01*
X10597619Y-134850747D02*
X10659523Y-134603128D01*
X10659523Y-134603128D02*
X10721428Y-134479319D01*
X10721428Y-134479319D02*
X10845238Y-134355509D01*
X10845238Y-134355509D02*
X11030952Y-134293604D01*
X11030952Y-134293604D02*
X11154761Y-134293604D01*
X11154761Y-134293604D02*
X11340476Y-134355509D01*
X11340476Y-134355509D02*
X11402380Y-134417414D01*
X10659523Y-185593604D02*
X10659523Y-184293604D01*
X10659523Y-184293604D02*
X10969047Y-184293604D01*
X10969047Y-184293604D02*
X11154761Y-184355509D01*
X11154761Y-184355509D02*
X11278571Y-184479319D01*
X11278571Y-184479319D02*
X11340476Y-184603128D01*
X11340476Y-184603128D02*
X11402380Y-184850747D01*
X11402380Y-184850747D02*
X11402380Y-185036461D01*
X11402380Y-185036461D02*
X11340476Y-185284080D01*
X11340476Y-185284080D02*
X11278571Y-185407890D01*
X11278571Y-185407890D02*
X11154761Y-185531700D01*
X11154761Y-185531700D02*
X10969047Y-185593604D01*
X10969047Y-185593604D02*
X10659523Y-185593604D01*
X287002200Y-60000000D02*
X285002200Y-60000000D01*
X287002200Y-110000000D02*
X285002200Y-110000000D01*
X287002200Y-160000000D02*
X285002200Y-160000000D01*
X285692676Y-35222176D02*
X286311723Y-35222176D01*
X285568866Y-35593604D02*
X286002199Y-34293604D01*
X286002199Y-34293604D02*
X286435533Y-35593604D01*
X286095057Y-84912652D02*
X286280771Y-84974557D01*
X286280771Y-84974557D02*
X286342676Y-85036461D01*
X286342676Y-85036461D02*
X286404580Y-85160271D01*
X286404580Y-85160271D02*
X286404580Y-85345985D01*
X286404580Y-85345985D02*
X286342676Y-85469795D01*
X286342676Y-85469795D02*
X286280771Y-85531700D01*
X286280771Y-85531700D02*
X286156961Y-85593604D01*
X286156961Y-85593604D02*
X285661723Y-85593604D01*
X285661723Y-85593604D02*
X285661723Y-84293604D01*
X285661723Y-84293604D02*
X286095057Y-84293604D01*
X286095057Y-84293604D02*
X286218866Y-84355509D01*
X286218866Y-84355509D02*
X286280771Y-84417414D01*
X286280771Y-84417414D02*
X286342676Y-84541223D01*
X286342676Y-84541223D02*
X286342676Y-84665033D01*
X286342676Y-84665033D02*
X286280771Y-84788842D01*
X286280771Y-84788842D02*
X286218866Y-84850747D01*
X286218866Y-84850747D02*
X286095057Y-84912652D01*
X286095057Y-84912652D02*
X285661723Y-84912652D01*
X286404580Y-135469795D02*
X286342676Y-135531700D01*
X286342676Y-135531700D02*
X286156961Y-135593604D01*
X286156961Y-135593604D02*
X286033152Y-135593604D01*
X286033152Y-135593604D02*
X285847438Y-135531700D01*
X285847438Y-135531700D02*
X285723628Y-135407890D01*
X285723628Y-135407890D02*
X285661723Y-135284080D01*
X285661723Y-135284080D02*
X285599819Y-135036461D01*
X285599819Y-135036461D02*
X285599819Y-134850747D01*
X285599819Y-134850747D02*
X285661723Y-134603128D01*
X285661723Y-134603128D02*
X285723628Y-134479319D01*
X285723628Y-134479319D02*
X285847438Y-134355509D01*
X285847438Y-134355509D02*
X286033152Y-134293604D01*
X286033152Y-134293604D02*
X286156961Y-134293604D01*
X286156961Y-134293604D02*
X286342676Y-134355509D01*
X286342676Y-134355509D02*
X286404580Y-134417414D01*
X285661723Y-185593604D02*
X285661723Y-184293604D01*
X285661723Y-184293604D02*
X285971247Y-184293604D01*
X285971247Y-184293604D02*
X286156961Y-184355509D01*
X286156961Y-184355509D02*
X286280771Y-184479319D01*
X286280771Y-184479319D02*
X286342676Y-184603128D01*
X286342676Y-184603128D02*
X286404580Y-184850747D01*
X286404580Y-184850747D02*
X286404580Y-185036461D01*
X286404580Y-185036461D02*
X286342676Y-185284080D01*
X286342676Y-185284080D02*
X286280771Y-185407890D01*
X286280771Y-185407890D02*
X286156961Y-185531700D01*
X286156961Y-185531700D02*
X285971247Y-185593604D01*
X285971247Y-185593604D02*
X285661723Y-185593604D01*
X200458026Y-193793328D02*
X200458026Y-192293328D01*
X200458026Y-192293328D02*
X200815169Y-192293328D01*
X200815169Y-192293328D02*
X201029455Y-192364757D01*
X201029455Y-192364757D02*
X201172312Y-192507614D01*
X201172312Y-192507614D02*
X201243741Y-192650471D01*
X201243741Y-192650471D02*
X201315169Y-192936185D01*
X201315169Y-192936185D02*
X201315169Y-193150471D01*
X201315169Y-193150471D02*
X201243741Y-193436185D01*
X201243741Y-193436185D02*
X201172312Y-193579042D01*
X201172312Y-193579042D02*
X201029455Y-193721900D01*
X201029455Y-193721900D02*
X200815169Y-193793328D01*
X200815169Y-193793328D02*
X200458026Y-193793328D01*
X202600884Y-193793328D02*
X202600884Y-193007614D01*
X202600884Y-193007614D02*
X202529455Y-192864757D01*
X202529455Y-192864757D02*
X202386598Y-192793328D01*
X202386598Y-192793328D02*
X202100884Y-192793328D01*
X202100884Y-192793328D02*
X201958026Y-192864757D01*
X202600884Y-193721900D02*
X202458026Y-193793328D01*
X202458026Y-193793328D02*
X202100884Y-193793328D01*
X202100884Y-193793328D02*
X201958026Y-193721900D01*
X201958026Y-193721900D02*
X201886598Y-193579042D01*
X201886598Y-193579042D02*
X201886598Y-193436185D01*
X201886598Y-193436185D02*
X201958026Y-193293328D01*
X201958026Y-193293328D02*
X202100884Y-193221900D01*
X202100884Y-193221900D02*
X202458026Y-193221900D01*
X202458026Y-193221900D02*
X202600884Y-193150471D01*
X203100884Y-192793328D02*
X203672312Y-192793328D01*
X203315169Y-192293328D02*
X203315169Y-193579042D01*
X203315169Y-193579042D02*
X203386598Y-193721900D01*
X203386598Y-193721900D02*
X203529455Y-193793328D01*
X203529455Y-193793328D02*
X203672312Y-193793328D01*
X204743741Y-193721900D02*
X204600884Y-193793328D01*
X204600884Y-193793328D02*
X204315170Y-193793328D01*
X204315170Y-193793328D02*
X204172312Y-193721900D01*
X204172312Y-193721900D02*
X204100884Y-193579042D01*
X204100884Y-193579042D02*
X204100884Y-193007614D01*
X204100884Y-193007614D02*
X204172312Y-192864757D01*
X204172312Y-192864757D02*
X204315170Y-192793328D01*
X204315170Y-192793328D02*
X204600884Y-192793328D01*
X204600884Y-192793328D02*
X204743741Y-192864757D01*
X204743741Y-192864757D02*
X204815170Y-193007614D01*
X204815170Y-193007614D02*
X204815170Y-193150471D01*
X204815170Y-193150471D02*
X204100884Y-193293328D01*
X205458026Y-193650471D02*
X205529455Y-193721900D01*
X205529455Y-193721900D02*
X205458026Y-193793328D01*
X205458026Y-193793328D02*
X205386598Y-193721900D01*
X205386598Y-193721900D02*
X205458026Y-193650471D01*
X205458026Y-193650471D02*
X205458026Y-193793328D01*
X205458026Y-192864757D02*
X205529455Y-192936185D01*
X205529455Y-192936185D02*
X205458026Y-193007614D01*
X205458026Y-193007614D02*
X205386598Y-192936185D01*
X205386598Y-192936185D02*
X205458026Y-192864757D01*
X205458026Y-192864757D02*
X205458026Y-193007614D01*
X207243741Y-192436185D02*
X207315169Y-192364757D01*
X207315169Y-192364757D02*
X207458027Y-192293328D01*
X207458027Y-192293328D02*
X207815169Y-192293328D01*
X207815169Y-192293328D02*
X207958027Y-192364757D01*
X207958027Y-192364757D02*
X208029455Y-192436185D01*
X208029455Y-192436185D02*
X208100884Y-192579042D01*
X208100884Y-192579042D02*
X208100884Y-192721900D01*
X208100884Y-192721900D02*
X208029455Y-192936185D01*
X208029455Y-192936185D02*
X207172312Y-193793328D01*
X207172312Y-193793328D02*
X208100884Y-193793328D01*
X209029455Y-192293328D02*
X209172312Y-192293328D01*
X209172312Y-192293328D02*
X209315169Y-192364757D01*
X209315169Y-192364757D02*
X209386598Y-192436185D01*
X209386598Y-192436185D02*
X209458026Y-192579042D01*
X209458026Y-192579042D02*
X209529455Y-192864757D01*
X209529455Y-192864757D02*
X209529455Y-193221900D01*
X209529455Y-193221900D02*
X209458026Y-193507614D01*
X209458026Y-193507614D02*
X209386598Y-193650471D01*
X209386598Y-193650471D02*
X209315169Y-193721900D01*
X209315169Y-193721900D02*
X209172312Y-193793328D01*
X209172312Y-193793328D02*
X209029455Y-193793328D01*
X209029455Y-193793328D02*
X208886598Y-193721900D01*
X208886598Y-193721900D02*
X208815169Y-193650471D01*
X208815169Y-193650471D02*
X208743740Y-193507614D01*
X208743740Y-193507614D02*
X208672312Y-193221900D01*
X208672312Y-193221900D02*
X208672312Y-192864757D01*
X208672312Y-192864757D02*
X208743740Y-192579042D01*
X208743740Y-192579042D02*
X208815169Y-192436185D01*
X208815169Y-192436185D02*
X208886598Y-192364757D01*
X208886598Y-192364757D02*
X209029455Y-192293328D01*
X210100883Y-192436185D02*
X210172311Y-192364757D01*
X210172311Y-192364757D02*
X210315169Y-192293328D01*
X210315169Y-192293328D02*
X210672311Y-192293328D01*
X210672311Y-192293328D02*
X210815169Y-192364757D01*
X210815169Y-192364757D02*
X210886597Y-192436185D01*
X210886597Y-192436185D02*
X210958026Y-192579042D01*
X210958026Y-192579042D02*
X210958026Y-192721900D01*
X210958026Y-192721900D02*
X210886597Y-192936185D01*
X210886597Y-192936185D02*
X210029454Y-193793328D01*
X210029454Y-193793328D02*
X210958026Y-193793328D01*
X212243740Y-192293328D02*
X211958025Y-192293328D01*
X211958025Y-192293328D02*
X211815168Y-192364757D01*
X211815168Y-192364757D02*
X211743740Y-192436185D01*
X211743740Y-192436185D02*
X211600882Y-192650471D01*
X211600882Y-192650471D02*
X211529454Y-192936185D01*
X211529454Y-192936185D02*
X211529454Y-193507614D01*
X211529454Y-193507614D02*
X211600882Y-193650471D01*
X211600882Y-193650471D02*
X211672311Y-193721900D01*
X211672311Y-193721900D02*
X211815168Y-193793328D01*
X211815168Y-193793328D02*
X212100882Y-193793328D01*
X212100882Y-193793328D02*
X212243740Y-193721900D01*
X212243740Y-193721900D02*
X212315168Y-193650471D01*
X212315168Y-193650471D02*
X212386597Y-193507614D01*
X212386597Y-193507614D02*
X212386597Y-193150471D01*
X212386597Y-193150471D02*
X212315168Y-193007614D01*
X212315168Y-193007614D02*
X212243740Y-192936185D01*
X212243740Y-192936185D02*
X212100882Y-192864757D01*
X212100882Y-192864757D02*
X211815168Y-192864757D01*
X211815168Y-192864757D02*
X211672311Y-192936185D01*
X211672311Y-192936185D02*
X211600882Y-193007614D01*
X211600882Y-193007614D02*
X211529454Y-193150471D01*
X213029453Y-193221900D02*
X214172311Y-193221900D01*
X215172311Y-192293328D02*
X215315168Y-192293328D01*
X215315168Y-192293328D02*
X215458025Y-192364757D01*
X215458025Y-192364757D02*
X215529454Y-192436185D01*
X215529454Y-192436185D02*
X215600882Y-192579042D01*
X215600882Y-192579042D02*
X215672311Y-192864757D01*
X215672311Y-192864757D02*
X215672311Y-193221900D01*
X215672311Y-193221900D02*
X215600882Y-193507614D01*
X215600882Y-193507614D02*
X215529454Y-193650471D01*
X215529454Y-193650471D02*
X215458025Y-193721900D01*
X215458025Y-193721900D02*
X215315168Y-193793328D01*
X215315168Y-193793328D02*
X215172311Y-193793328D01*
X215172311Y-193793328D02*
X215029454Y-193721900D01*
X215029454Y-193721900D02*
X214958025Y-193650471D01*
X214958025Y-193650471D02*
X214886596Y-193507614D01*
X214886596Y-193507614D02*
X214815168Y-193221900D01*
X214815168Y-193221900D02*
X214815168Y-192864757D01*
X214815168Y-192864757D02*
X214886596Y-192579042D01*
X214886596Y-192579042D02*
X214958025Y-192436185D01*
X214958025Y-192436185D02*
X215029454Y-192364757D01*
X215029454Y-192364757D02*
X215172311Y-192293328D01*
X216529453Y-192936185D02*
X216386596Y-192864757D01*
X216386596Y-192864757D02*
X216315167Y-192793328D01*
X216315167Y-192793328D02*
X216243739Y-192650471D01*
X216243739Y-192650471D02*
X216243739Y-192579042D01*
X216243739Y-192579042D02*
X216315167Y-192436185D01*
X216315167Y-192436185D02*
X216386596Y-192364757D01*
X216386596Y-192364757D02*
X216529453Y-192293328D01*
X216529453Y-192293328D02*
X216815167Y-192293328D01*
X216815167Y-192293328D02*
X216958025Y-192364757D01*
X216958025Y-192364757D02*
X217029453Y-192436185D01*
X217029453Y-192436185D02*
X217100882Y-192579042D01*
X217100882Y-192579042D02*
X217100882Y-192650471D01*
X217100882Y-192650471D02*
X217029453Y-192793328D01*
X217029453Y-192793328D02*
X216958025Y-192864757D01*
X216958025Y-192864757D02*
X216815167Y-192936185D01*
X216815167Y-192936185D02*
X216529453Y-192936185D01*
X216529453Y-192936185D02*
X216386596Y-193007614D01*
X216386596Y-193007614D02*
X216315167Y-193079042D01*
X216315167Y-193079042D02*
X216243739Y-193221900D01*
X216243739Y-193221900D02*
X216243739Y-193507614D01*
X216243739Y-193507614D02*
X216315167Y-193650471D01*
X216315167Y-193650471D02*
X216386596Y-193721900D01*
X216386596Y-193721900D02*
X216529453Y-193793328D01*
X216529453Y-193793328D02*
X216815167Y-193793328D01*
X216815167Y-193793328D02*
X216958025Y-193721900D01*
X216958025Y-193721900D02*
X217029453Y-193650471D01*
X217029453Y-193650471D02*
X217100882Y-193507614D01*
X217100882Y-193507614D02*
X217100882Y-193221900D01*
X217100882Y-193221900D02*
X217029453Y-193079042D01*
X217029453Y-193079042D02*
X216958025Y-193007614D01*
X216958025Y-193007614D02*
X216815167Y-192936185D01*
X217743738Y-193221900D02*
X218886596Y-193221900D01*
X220386596Y-193793328D02*
X219529453Y-193793328D01*
X219958024Y-193793328D02*
X219958024Y-192293328D01*
X219958024Y-192293328D02*
X219815167Y-192507614D01*
X219815167Y-192507614D02*
X219672310Y-192650471D01*
X219672310Y-192650471D02*
X219529453Y-192721900D01*
X221100881Y-193793328D02*
X221386595Y-193793328D01*
X221386595Y-193793328D02*
X221529452Y-193721900D01*
X221529452Y-193721900D02*
X221600881Y-193650471D01*
X221600881Y-193650471D02*
X221743738Y-193436185D01*
X221743738Y-193436185D02*
X221815167Y-193150471D01*
X221815167Y-193150471D02*
X221815167Y-192579042D01*
X221815167Y-192579042D02*
X221743738Y-192436185D01*
X221743738Y-192436185D02*
X221672310Y-192364757D01*
X221672310Y-192364757D02*
X221529452Y-192293328D01*
X221529452Y-192293328D02*
X221243738Y-192293328D01*
X221243738Y-192293328D02*
X221100881Y-192364757D01*
X221100881Y-192364757D02*
X221029452Y-192436185D01*
X221029452Y-192436185D02*
X220958024Y-192579042D01*
X220958024Y-192579042D02*
X220958024Y-192936185D01*
X220958024Y-192936185D02*
X221029452Y-193079042D01*
X221029452Y-193079042D02*
X221100881Y-193150471D01*
X221100881Y-193150471D02*
X221243738Y-193221900D01*
X221243738Y-193221900D02*
X221529452Y-193221900D01*
X221529452Y-193221900D02*
X221672310Y-193150471D01*
X221672310Y-193150471D02*
X221743738Y-193079042D01*
X221743738Y-193079042D02*
X221815167Y-192936185D01*
X177002200Y-194507200D02*
X285002200Y-194507200D01*
X178458026Y-196593328D02*
X178458026Y-195093328D01*
X179315169Y-196593328D02*
X178672312Y-195736185D01*
X179315169Y-195093328D02*
X178458026Y-195950471D01*
X179958026Y-196593328D02*
X179958026Y-195593328D01*
X179958026Y-195093328D02*
X179886598Y-195164757D01*
X179886598Y-195164757D02*
X179958026Y-195236185D01*
X179958026Y-195236185D02*
X180029455Y-195164757D01*
X180029455Y-195164757D02*
X179958026Y-195093328D01*
X179958026Y-195093328D02*
X179958026Y-195236185D01*
X181529455Y-196450471D02*
X181458027Y-196521900D01*
X181458027Y-196521900D02*
X181243741Y-196593328D01*
X181243741Y-196593328D02*
X181100884Y-196593328D01*
X181100884Y-196593328D02*
X180886598Y-196521900D01*
X180886598Y-196521900D02*
X180743741Y-196379042D01*
X180743741Y-196379042D02*
X180672312Y-196236185D01*
X180672312Y-196236185D02*
X180600884Y-195950471D01*
X180600884Y-195950471D02*
X180600884Y-195736185D01*
X180600884Y-195736185D02*
X180672312Y-195450471D01*
X180672312Y-195450471D02*
X180743741Y-195307614D01*
X180743741Y-195307614D02*
X180886598Y-195164757D01*
X180886598Y-195164757D02*
X181100884Y-195093328D01*
X181100884Y-195093328D02*
X181243741Y-195093328D01*
X181243741Y-195093328D02*
X181458027Y-195164757D01*
X181458027Y-195164757D02*
X181529455Y-195236185D01*
X182815170Y-196593328D02*
X182815170Y-195807614D01*
X182815170Y-195807614D02*
X182743741Y-195664757D01*
X182743741Y-195664757D02*
X182600884Y-195593328D01*
X182600884Y-195593328D02*
X182315170Y-195593328D01*
X182315170Y-195593328D02*
X182172312Y-195664757D01*
X182815170Y-196521900D02*
X182672312Y-196593328D01*
X182672312Y-196593328D02*
X182315170Y-196593328D01*
X182315170Y-196593328D02*
X182172312Y-196521900D01*
X182172312Y-196521900D02*
X182100884Y-196379042D01*
X182100884Y-196379042D02*
X182100884Y-196236185D01*
X182100884Y-196236185D02*
X182172312Y-196093328D01*
X182172312Y-196093328D02*
X182315170Y-196021900D01*
X182315170Y-196021900D02*
X182672312Y-196021900D01*
X182672312Y-196021900D02*
X182815170Y-195950471D01*
X184172313Y-196593328D02*
X184172313Y-195093328D01*
X184172313Y-196521900D02*
X184029455Y-196593328D01*
X184029455Y-196593328D02*
X183743741Y-196593328D01*
X183743741Y-196593328D02*
X183600884Y-196521900D01*
X183600884Y-196521900D02*
X183529455Y-196450471D01*
X183529455Y-196450471D02*
X183458027Y-196307614D01*
X183458027Y-196307614D02*
X183458027Y-195879042D01*
X183458027Y-195879042D02*
X183529455Y-195736185D01*
X183529455Y-195736185D02*
X183600884Y-195664757D01*
X183600884Y-195664757D02*
X183743741Y-195593328D01*
X183743741Y-195593328D02*
X184029455Y-195593328D01*
X184029455Y-195593328D02*
X184172313Y-195664757D01*
X186029455Y-195807614D02*
X186529455Y-195807614D01*
X186743741Y-196593328D02*
X186029455Y-196593328D01*
X186029455Y-196593328D02*
X186029455Y-195093328D01*
X186029455Y-195093328D02*
X186743741Y-195093328D01*
X187386598Y-196450471D02*
X187458027Y-196521900D01*
X187458027Y-196521900D02*
X187386598Y-196593328D01*
X187386598Y-196593328D02*
X187315170Y-196521900D01*
X187315170Y-196521900D02*
X187386598Y-196450471D01*
X187386598Y-196450471D02*
X187386598Y-196593328D01*
X188100884Y-196593328D02*
X188100884Y-195093328D01*
X188100884Y-195093328D02*
X188458027Y-195093328D01*
X188458027Y-195093328D02*
X188672313Y-195164757D01*
X188672313Y-195164757D02*
X188815170Y-195307614D01*
X188815170Y-195307614D02*
X188886599Y-195450471D01*
X188886599Y-195450471D02*
X188958027Y-195736185D01*
X188958027Y-195736185D02*
X188958027Y-195950471D01*
X188958027Y-195950471D02*
X188886599Y-196236185D01*
X188886599Y-196236185D02*
X188815170Y-196379042D01*
X188815170Y-196379042D02*
X188672313Y-196521900D01*
X188672313Y-196521900D02*
X188458027Y-196593328D01*
X188458027Y-196593328D02*
X188100884Y-196593328D01*
X189600884Y-196450471D02*
X189672313Y-196521900D01*
X189672313Y-196521900D02*
X189600884Y-196593328D01*
X189600884Y-196593328D02*
X189529456Y-196521900D01*
X189529456Y-196521900D02*
X189600884Y-196450471D01*
X189600884Y-196450471D02*
X189600884Y-196593328D01*
X190243742Y-196164757D02*
X190958028Y-196164757D01*
X190100885Y-196593328D02*
X190600885Y-195093328D01*
X190600885Y-195093328D02*
X191100885Y-196593328D01*
X191600884Y-196450471D02*
X191672313Y-196521900D01*
X191672313Y-196521900D02*
X191600884Y-196593328D01*
X191600884Y-196593328D02*
X191529456Y-196521900D01*
X191529456Y-196521900D02*
X191600884Y-196450471D01*
X191600884Y-196450471D02*
X191600884Y-196593328D01*
X194243742Y-196593328D02*
X193386599Y-196593328D01*
X193815170Y-196593328D02*
X193815170Y-195093328D01*
X193815170Y-195093328D02*
X193672313Y-195307614D01*
X193672313Y-195307614D02*
X193529456Y-195450471D01*
X193529456Y-195450471D02*
X193386599Y-195521900D01*
X195172313Y-195093328D02*
X195315170Y-195093328D01*
X195315170Y-195093328D02*
X195458027Y-195164757D01*
X195458027Y-195164757D02*
X195529456Y-195236185D01*
X195529456Y-195236185D02*
X195600884Y-195379042D01*
X195600884Y-195379042D02*
X195672313Y-195664757D01*
X195672313Y-195664757D02*
X195672313Y-196021900D01*
X195672313Y-196021900D02*
X195600884Y-196307614D01*
X195600884Y-196307614D02*
X195529456Y-196450471D01*
X195529456Y-196450471D02*
X195458027Y-196521900D01*
X195458027Y-196521900D02*
X195315170Y-196593328D01*
X195315170Y-196593328D02*
X195172313Y-196593328D01*
X195172313Y-196593328D02*
X195029456Y-196521900D01*
X195029456Y-196521900D02*
X194958027Y-196450471D01*
X194958027Y-196450471D02*
X194886598Y-196307614D01*
X194886598Y-196307614D02*
X194815170Y-196021900D01*
X194815170Y-196021900D02*
X194815170Y-195664757D01*
X194815170Y-195664757D02*
X194886598Y-195379042D01*
X194886598Y-195379042D02*
X194958027Y-195236185D01*
X194958027Y-195236185D02*
X195029456Y-195164757D01*
X195029456Y-195164757D02*
X195172313Y-195093328D01*
X196315169Y-196450471D02*
X196386598Y-196521900D01*
X196386598Y-196521900D02*
X196315169Y-196593328D01*
X196315169Y-196593328D02*
X196243741Y-196521900D01*
X196243741Y-196521900D02*
X196315169Y-196450471D01*
X196315169Y-196450471D02*
X196315169Y-196593328D01*
X197315170Y-195093328D02*
X197458027Y-195093328D01*
X197458027Y-195093328D02*
X197600884Y-195164757D01*
X197600884Y-195164757D02*
X197672313Y-195236185D01*
X197672313Y-195236185D02*
X197743741Y-195379042D01*
X197743741Y-195379042D02*
X197815170Y-195664757D01*
X197815170Y-195664757D02*
X197815170Y-196021900D01*
X197815170Y-196021900D02*
X197743741Y-196307614D01*
X197743741Y-196307614D02*
X197672313Y-196450471D01*
X197672313Y-196450471D02*
X197600884Y-196521900D01*
X197600884Y-196521900D02*
X197458027Y-196593328D01*
X197458027Y-196593328D02*
X197315170Y-196593328D01*
X197315170Y-196593328D02*
X197172313Y-196521900D01*
X197172313Y-196521900D02*
X197100884Y-196450471D01*
X197100884Y-196450471D02*
X197029455Y-196307614D01*
X197029455Y-196307614D02*
X196958027Y-196021900D01*
X196958027Y-196021900D02*
X196958027Y-195664757D01*
X196958027Y-195664757D02*
X197029455Y-195379042D01*
X197029455Y-195379042D02*
X197100884Y-195236185D01*
X197100884Y-195236185D02*
X197172313Y-195164757D01*
X197172313Y-195164757D02*
X197315170Y-195093328D01*
X198458026Y-196450471D02*
X198529455Y-196521900D01*
X198529455Y-196521900D02*
X198458026Y-196593328D01*
X198458026Y-196593328D02*
X198386598Y-196521900D01*
X198386598Y-196521900D02*
X198458026Y-196450471D01*
X198458026Y-196450471D02*
X198458026Y-196593328D01*
X199886598Y-195093328D02*
X199172312Y-195093328D01*
X199172312Y-195093328D02*
X199100884Y-195807614D01*
X199100884Y-195807614D02*
X199172312Y-195736185D01*
X199172312Y-195736185D02*
X199315170Y-195664757D01*
X199315170Y-195664757D02*
X199672312Y-195664757D01*
X199672312Y-195664757D02*
X199815170Y-195736185D01*
X199815170Y-195736185D02*
X199886598Y-195807614D01*
X199886598Y-195807614D02*
X199958027Y-195950471D01*
X199958027Y-195950471D02*
X199958027Y-196307614D01*
X199958027Y-196307614D02*
X199886598Y-196450471D01*
X199886598Y-196450471D02*
X199815170Y-196521900D01*
X199815170Y-196521900D02*
X199672312Y-196593328D01*
X199672312Y-196593328D02*
X199315170Y-196593328D01*
X199315170Y-196593328D02*
X199172312Y-196521900D01*
X199172312Y-196521900D02*
X199100884Y-196450471D01*
X177002200Y-191507200D02*
X285002200Y-191507200D01*
D11*
X264413853Y-193785528D02*
X263913853Y-193071242D01*
X263556710Y-193785528D02*
X263556710Y-192285528D01*
X263556710Y-192285528D02*
X264128139Y-192285528D01*
X264128139Y-192285528D02*
X264270996Y-192356957D01*
X264270996Y-192356957D02*
X264342425Y-192428385D01*
X264342425Y-192428385D02*
X264413853Y-192571242D01*
X264413853Y-192571242D02*
X264413853Y-192785528D01*
X264413853Y-192785528D02*
X264342425Y-192928385D01*
X264342425Y-192928385D02*
X264270996Y-192999814D01*
X264270996Y-192999814D02*
X264128139Y-193071242D01*
X264128139Y-193071242D02*
X263556710Y-193071242D01*
X265628139Y-193714100D02*
X265485282Y-193785528D01*
X265485282Y-193785528D02*
X265199568Y-193785528D01*
X265199568Y-193785528D02*
X265056710Y-193714100D01*
X265056710Y-193714100D02*
X264985282Y-193571242D01*
X264985282Y-193571242D02*
X264985282Y-192999814D01*
X264985282Y-192999814D02*
X265056710Y-192856957D01*
X265056710Y-192856957D02*
X265199568Y-192785528D01*
X265199568Y-192785528D02*
X265485282Y-192785528D01*
X265485282Y-192785528D02*
X265628139Y-192856957D01*
X265628139Y-192856957D02*
X265699568Y-192999814D01*
X265699568Y-192999814D02*
X265699568Y-193142671D01*
X265699568Y-193142671D02*
X264985282Y-193285528D01*
X266199567Y-192785528D02*
X266556710Y-193785528D01*
X266556710Y-193785528D02*
X266913853Y-192785528D01*
X267485281Y-193642671D02*
X267556710Y-193714100D01*
X267556710Y-193714100D02*
X267485281Y-193785528D01*
X267485281Y-193785528D02*
X267413853Y-193714100D01*
X267413853Y-193714100D02*
X267485281Y-193642671D01*
X267485281Y-193642671D02*
X267485281Y-193785528D01*
X267485281Y-192856957D02*
X267556710Y-192928385D01*
X267556710Y-192928385D02*
X267485281Y-192999814D01*
X267485281Y-192999814D02*
X267413853Y-192928385D01*
X267413853Y-192928385D02*
X267485281Y-192856957D01*
X267485281Y-192856957D02*
X267485281Y-192999814D01*
X269128139Y-192285528D02*
X269628139Y-193785528D01*
X269628139Y-193785528D02*
X270128139Y-192285528D01*
X271413853Y-193785528D02*
X270556710Y-193785528D01*
X270985281Y-193785528D02*
X270985281Y-192285528D01*
X270985281Y-192285528D02*
X270842424Y-192499814D01*
X270842424Y-192499814D02*
X270699567Y-192642671D01*
X270699567Y-192642671D02*
X270556710Y-192714100D01*
X272056709Y-193642671D02*
X272128138Y-193714100D01*
X272128138Y-193714100D02*
X272056709Y-193785528D01*
X272056709Y-193785528D02*
X271985281Y-193714100D01*
X271985281Y-193714100D02*
X272056709Y-193642671D01*
X272056709Y-193642671D02*
X272056709Y-193785528D01*
X273056710Y-192285528D02*
X273199567Y-192285528D01*
X273199567Y-192285528D02*
X273342424Y-192356957D01*
X273342424Y-192356957D02*
X273413853Y-192428385D01*
X273413853Y-192428385D02*
X273485281Y-192571242D01*
X273485281Y-192571242D02*
X273556710Y-192856957D01*
X273556710Y-192856957D02*
X273556710Y-193214100D01*
X273556710Y-193214100D02*
X273485281Y-193499814D01*
X273485281Y-193499814D02*
X273413853Y-193642671D01*
X273413853Y-193642671D02*
X273342424Y-193714100D01*
X273342424Y-193714100D02*
X273199567Y-193785528D01*
X273199567Y-193785528D02*
X273056710Y-193785528D01*
X273056710Y-193785528D02*
X272913853Y-193714100D01*
X272913853Y-193714100D02*
X272842424Y-193642671D01*
X272842424Y-193642671D02*
X272770995Y-193499814D01*
X272770995Y-193499814D02*
X272699567Y-193214100D01*
X272699567Y-193214100D02*
X272699567Y-192856957D01*
X272699567Y-192856957D02*
X272770995Y-192571242D01*
X272770995Y-192571242D02*
X272842424Y-192428385D01*
X272842424Y-192428385D02*
X272913853Y-192356957D01*
X272913853Y-192356957D02*
X273056710Y-192285528D01*
D10*
X178386598Y-193721900D02*
X178600884Y-193793328D01*
X178600884Y-193793328D02*
X178958026Y-193793328D01*
X178958026Y-193793328D02*
X179100884Y-193721900D01*
X179100884Y-193721900D02*
X179172312Y-193650471D01*
X179172312Y-193650471D02*
X179243741Y-193507614D01*
X179243741Y-193507614D02*
X179243741Y-193364757D01*
X179243741Y-193364757D02*
X179172312Y-193221900D01*
X179172312Y-193221900D02*
X179100884Y-193150471D01*
X179100884Y-193150471D02*
X178958026Y-193079042D01*
X178958026Y-193079042D02*
X178672312Y-193007614D01*
X178672312Y-193007614D02*
X178529455Y-192936185D01*
X178529455Y-192936185D02*
X178458026Y-192864757D01*
X178458026Y-192864757D02*
X178386598Y-192721900D01*
X178386598Y-192721900D02*
X178386598Y-192579042D01*
X178386598Y-192579042D02*
X178458026Y-192436185D01*
X178458026Y-192436185D02*
X178529455Y-192364757D01*
X178529455Y-192364757D02*
X178672312Y-192293328D01*
X178672312Y-192293328D02*
X179029455Y-192293328D01*
X179029455Y-192293328D02*
X179243741Y-192364757D01*
X179886597Y-193793328D02*
X179886597Y-192793328D01*
X179886597Y-192293328D02*
X179815169Y-192364757D01*
X179815169Y-192364757D02*
X179886597Y-192436185D01*
X179886597Y-192436185D02*
X179958026Y-192364757D01*
X179958026Y-192364757D02*
X179886597Y-192293328D01*
X179886597Y-192293328D02*
X179886597Y-192436185D01*
X180458026Y-192793328D02*
X181243741Y-192793328D01*
X181243741Y-192793328D02*
X180458026Y-193793328D01*
X180458026Y-193793328D02*
X181243741Y-193793328D01*
X182386598Y-193721900D02*
X182243741Y-193793328D01*
X182243741Y-193793328D02*
X181958027Y-193793328D01*
X181958027Y-193793328D02*
X181815169Y-193721900D01*
X181815169Y-193721900D02*
X181743741Y-193579042D01*
X181743741Y-193579042D02*
X181743741Y-193007614D01*
X181743741Y-193007614D02*
X181815169Y-192864757D01*
X181815169Y-192864757D02*
X181958027Y-192793328D01*
X181958027Y-192793328D02*
X182243741Y-192793328D01*
X182243741Y-192793328D02*
X182386598Y-192864757D01*
X182386598Y-192864757D02*
X182458027Y-193007614D01*
X182458027Y-193007614D02*
X182458027Y-193150471D01*
X182458027Y-193150471D02*
X181743741Y-193293328D01*
X183100883Y-193650471D02*
X183172312Y-193721900D01*
X183172312Y-193721900D02*
X183100883Y-193793328D01*
X183100883Y-193793328D02*
X183029455Y-193721900D01*
X183029455Y-193721900D02*
X183100883Y-193650471D01*
X183100883Y-193650471D02*
X183100883Y-193793328D01*
X183100883Y-192864757D02*
X183172312Y-192936185D01*
X183172312Y-192936185D02*
X183100883Y-193007614D01*
X183100883Y-193007614D02*
X183029455Y-192936185D01*
X183029455Y-192936185D02*
X183100883Y-192864757D01*
X183100883Y-192864757D02*
X183100883Y-193007614D01*
X184886598Y-193364757D02*
X185600884Y-193364757D01*
X184743741Y-193793328D02*
X185243741Y-192293328D01*
X185243741Y-192293328D02*
X185743741Y-193793328D01*
X186886598Y-192793328D02*
X186886598Y-193793328D01*
X186529455Y-192221900D02*
X186172312Y-193293328D01*
X186172312Y-193293328D02*
X187100883Y-193293328D01*
X263458026Y-196593328D02*
X263458026Y-195093328D01*
X264815170Y-196593328D02*
X264815170Y-195093328D01*
X264815170Y-196521900D02*
X264672312Y-196593328D01*
X264672312Y-196593328D02*
X264386598Y-196593328D01*
X264386598Y-196593328D02*
X264243741Y-196521900D01*
X264243741Y-196521900D02*
X264172312Y-196450471D01*
X264172312Y-196450471D02*
X264100884Y-196307614D01*
X264100884Y-196307614D02*
X264100884Y-195879042D01*
X264100884Y-195879042D02*
X264172312Y-195736185D01*
X264172312Y-195736185D02*
X264243741Y-195664757D01*
X264243741Y-195664757D02*
X264386598Y-195593328D01*
X264386598Y-195593328D02*
X264672312Y-195593328D01*
X264672312Y-195593328D02*
X264815170Y-195664757D01*
X265529455Y-196450471D02*
X265600884Y-196521900D01*
X265600884Y-196521900D02*
X265529455Y-196593328D01*
X265529455Y-196593328D02*
X265458027Y-196521900D01*
X265458027Y-196521900D02*
X265529455Y-196450471D01*
X265529455Y-196450471D02*
X265529455Y-196593328D01*
X265529455Y-195664757D02*
X265600884Y-195736185D01*
X265600884Y-195736185D02*
X265529455Y-195807614D01*
X265529455Y-195807614D02*
X265458027Y-195736185D01*
X265458027Y-195736185D02*
X265529455Y-195664757D01*
X265529455Y-195664757D02*
X265529455Y-195807614D01*
X268172313Y-196593328D02*
X267315170Y-196593328D01*
X267743741Y-196593328D02*
X267743741Y-195093328D01*
X267743741Y-195093328D02*
X267600884Y-195307614D01*
X267600884Y-195307614D02*
X267458027Y-195450471D01*
X267458027Y-195450471D02*
X267315170Y-195521900D01*
X269600884Y-196593328D02*
X268743741Y-196593328D01*
X269172312Y-196593328D02*
X269172312Y-195093328D01*
X269172312Y-195093328D02*
X269029455Y-195307614D01*
X269029455Y-195307614D02*
X268886598Y-195450471D01*
X268886598Y-195450471D02*
X268743741Y-195521900D01*
X271315169Y-195021900D02*
X270029455Y-196950471D01*
X272600884Y-196593328D02*
X271743741Y-196593328D01*
X272172312Y-196593328D02*
X272172312Y-195093328D01*
X272172312Y-195093328D02*
X272029455Y-195307614D01*
X272029455Y-195307614D02*
X271886598Y-195450471D01*
X271886598Y-195450471D02*
X271743741Y-195521900D01*
X273315169Y-196593328D02*
X273600883Y-196593328D01*
X273600883Y-196593328D02*
X273743740Y-196521900D01*
X273743740Y-196521900D02*
X273815169Y-196450471D01*
X273815169Y-196450471D02*
X273958026Y-196236185D01*
X273958026Y-196236185D02*
X274029455Y-195950471D01*
X274029455Y-195950471D02*
X274029455Y-195379042D01*
X274029455Y-195379042D02*
X273958026Y-195236185D01*
X273958026Y-195236185D02*
X273886598Y-195164757D01*
X273886598Y-195164757D02*
X273743740Y-195093328D01*
X273743740Y-195093328D02*
X273458026Y-195093328D01*
X273458026Y-195093328D02*
X273315169Y-195164757D01*
X273315169Y-195164757D02*
X273243740Y-195236185D01*
X273243740Y-195236185D02*
X273172312Y-195379042D01*
X273172312Y-195379042D02*
X273172312Y-195736185D01*
X273172312Y-195736185D02*
X273243740Y-195879042D01*
X273243740Y-195879042D02*
X273315169Y-195950471D01*
X273315169Y-195950471D02*
X273458026Y-196021900D01*
X273458026Y-196021900D02*
X273743740Y-196021900D01*
X273743740Y-196021900D02*
X273886598Y-195950471D01*
X273886598Y-195950471D02*
X273958026Y-195879042D01*
X273958026Y-195879042D02*
X274029455Y-195736185D01*
X177002200Y-187507200D02*
X285002200Y-187507200D01*
D12*
X178693928Y-188211638D02*
X179836785Y-188211638D01*
X179015357Y-190211638D02*
X179265357Y-188211638D01*
X180253452Y-190211638D02*
X180420119Y-188878304D01*
X180503452Y-188211638D02*
X180396309Y-188306876D01*
X180396309Y-188306876D02*
X180479643Y-188402114D01*
X180479643Y-188402114D02*
X180586786Y-188306876D01*
X180586786Y-188306876D02*
X180503452Y-188211638D01*
X180503452Y-188211638D02*
X180479643Y-188402114D01*
X181086786Y-188878304D02*
X181848690Y-188878304D01*
X181455833Y-188211638D02*
X181241548Y-189925923D01*
X181241548Y-189925923D02*
X181312976Y-190116400D01*
X181312976Y-190116400D02*
X181491548Y-190211638D01*
X181491548Y-190211638D02*
X181682024Y-190211638D01*
X182634405Y-190211638D02*
X182455833Y-190116400D01*
X182455833Y-190116400D02*
X182384405Y-189925923D01*
X182384405Y-189925923D02*
X182598690Y-188211638D01*
X184170119Y-190116400D02*
X183967738Y-190211638D01*
X183967738Y-190211638D02*
X183586785Y-190211638D01*
X183586785Y-190211638D02*
X183408214Y-190116400D01*
X183408214Y-190116400D02*
X183336785Y-189925923D01*
X183336785Y-189925923D02*
X183432024Y-189164019D01*
X183432024Y-189164019D02*
X183551071Y-188973542D01*
X183551071Y-188973542D02*
X183753452Y-188878304D01*
X183753452Y-188878304D02*
X184134404Y-188878304D01*
X184134404Y-188878304D02*
X184312976Y-188973542D01*
X184312976Y-188973542D02*
X184384404Y-189164019D01*
X184384404Y-189164019D02*
X184360595Y-189354495D01*
X184360595Y-189354495D02*
X183384404Y-189544971D01*
X185134405Y-190021161D02*
X185217738Y-190116400D01*
X185217738Y-190116400D02*
X185110595Y-190211638D01*
X185110595Y-190211638D02*
X185027262Y-190116400D01*
X185027262Y-190116400D02*
X185134405Y-190021161D01*
X185134405Y-190021161D02*
X185110595Y-190211638D01*
X185265357Y-188973542D02*
X185348690Y-189068780D01*
X185348690Y-189068780D02*
X185241548Y-189164019D01*
X185241548Y-189164019D02*
X185158214Y-189068780D01*
X185158214Y-189068780D02*
X185265357Y-188973542D01*
X185265357Y-188973542D02*
X185241548Y-189164019D01*
X188384405Y-189164019D02*
X188658215Y-189259257D01*
X188658215Y-189259257D02*
X188741548Y-189354495D01*
X188741548Y-189354495D02*
X188812977Y-189544971D01*
X188812977Y-189544971D02*
X188777262Y-189830685D01*
X188777262Y-189830685D02*
X188658215Y-190021161D01*
X188658215Y-190021161D02*
X188551072Y-190116400D01*
X188551072Y-190116400D02*
X188348691Y-190211638D01*
X188348691Y-190211638D02*
X187586786Y-190211638D01*
X187586786Y-190211638D02*
X187836786Y-188211638D01*
X187836786Y-188211638D02*
X188503453Y-188211638D01*
X188503453Y-188211638D02*
X188682024Y-188306876D01*
X188682024Y-188306876D02*
X188765358Y-188402114D01*
X188765358Y-188402114D02*
X188836786Y-188592590D01*
X188836786Y-188592590D02*
X188812977Y-188783066D01*
X188812977Y-188783066D02*
X188693929Y-188973542D01*
X188693929Y-188973542D02*
X188586786Y-189068780D01*
X188586786Y-189068780D02*
X188384405Y-189164019D01*
X188384405Y-189164019D02*
X187717739Y-189164019D01*
X190539167Y-190211638D02*
X189586786Y-190211638D01*
X189586786Y-190211638D02*
X189836786Y-188211638D01*
X191205834Y-190211638D02*
X191455834Y-188211638D01*
X191455834Y-188211638D02*
X191932025Y-188211638D01*
X191932025Y-188211638D02*
X192205834Y-188306876D01*
X192205834Y-188306876D02*
X192372501Y-188497352D01*
X192372501Y-188497352D02*
X192443929Y-188687828D01*
X192443929Y-188687828D02*
X192491549Y-189068780D01*
X192491549Y-189068780D02*
X192455834Y-189354495D01*
X192455834Y-189354495D02*
X192312977Y-189735447D01*
X192312977Y-189735447D02*
X192193929Y-189925923D01*
X192193929Y-189925923D02*
X191979644Y-190116400D01*
X191979644Y-190116400D02*
X191682025Y-190211638D01*
X191682025Y-190211638D02*
X191205834Y-190211638D01*
X194372501Y-190021161D02*
X194265358Y-190116400D01*
X194265358Y-190116400D02*
X193967739Y-190211638D01*
X193967739Y-190211638D02*
X193777263Y-190211638D01*
X193777263Y-190211638D02*
X193503453Y-190116400D01*
X193503453Y-190116400D02*
X193336787Y-189925923D01*
X193336787Y-189925923D02*
X193265358Y-189735447D01*
X193265358Y-189735447D02*
X193217739Y-189354495D01*
X193217739Y-189354495D02*
X193253453Y-189068780D01*
X193253453Y-189068780D02*
X193396310Y-188687828D01*
X193396310Y-188687828D02*
X193515358Y-188497352D01*
X193515358Y-188497352D02*
X193729644Y-188306876D01*
X193729644Y-188306876D02*
X194027263Y-188211638D01*
X194027263Y-188211638D02*
X194217739Y-188211638D01*
X194217739Y-188211638D02*
X194491549Y-188306876D01*
X194491549Y-188306876D02*
X194574882Y-188402114D01*
X194705834Y-190402114D02*
X196229644Y-190402114D01*
X196729644Y-190211638D02*
X196979644Y-188211638D01*
X196979644Y-188211638D02*
X197467739Y-189640209D01*
X197467739Y-189640209D02*
X198312978Y-188211638D01*
X198312978Y-188211638D02*
X198062978Y-190211638D01*
X200182025Y-190021161D02*
X200074882Y-190116400D01*
X200074882Y-190116400D02*
X199777263Y-190211638D01*
X199777263Y-190211638D02*
X199586787Y-190211638D01*
X199586787Y-190211638D02*
X199312977Y-190116400D01*
X199312977Y-190116400D02*
X199146311Y-189925923D01*
X199146311Y-189925923D02*
X199074882Y-189735447D01*
X199074882Y-189735447D02*
X199027263Y-189354495D01*
X199027263Y-189354495D02*
X199062977Y-189068780D01*
X199062977Y-189068780D02*
X199205834Y-188687828D01*
X199205834Y-188687828D02*
X199324882Y-188497352D01*
X199324882Y-188497352D02*
X199539168Y-188306876D01*
X199539168Y-188306876D02*
X199836787Y-188211638D01*
X199836787Y-188211638D02*
X200027263Y-188211638D01*
X200027263Y-188211638D02*
X200301073Y-188306876D01*
X200301073Y-188306876D02*
X200384406Y-188402114D01*
D10*
X178958026Y-185607614D02*
X178458026Y-185607614D01*
X178458026Y-186393328D02*
X178458026Y-184893328D01*
X178458026Y-184893328D02*
X179172312Y-184893328D01*
X179743740Y-186393328D02*
X179743740Y-185393328D01*
X179743740Y-184893328D02*
X179672312Y-184964757D01*
X179672312Y-184964757D02*
X179743740Y-185036185D01*
X179743740Y-185036185D02*
X179815169Y-184964757D01*
X179815169Y-184964757D02*
X179743740Y-184893328D01*
X179743740Y-184893328D02*
X179743740Y-185036185D01*
X180672312Y-186393328D02*
X180529455Y-186321900D01*
X180529455Y-186321900D02*
X180458026Y-186179042D01*
X180458026Y-186179042D02*
X180458026Y-184893328D01*
X181815169Y-186321900D02*
X181672312Y-186393328D01*
X181672312Y-186393328D02*
X181386598Y-186393328D01*
X181386598Y-186393328D02*
X181243740Y-186321900D01*
X181243740Y-186321900D02*
X181172312Y-186179042D01*
X181172312Y-186179042D02*
X181172312Y-185607614D01*
X181172312Y-185607614D02*
X181243740Y-185464757D01*
X181243740Y-185464757D02*
X181386598Y-185393328D01*
X181386598Y-185393328D02*
X181672312Y-185393328D01*
X181672312Y-185393328D02*
X181815169Y-185464757D01*
X181815169Y-185464757D02*
X181886598Y-185607614D01*
X181886598Y-185607614D02*
X181886598Y-185750471D01*
X181886598Y-185750471D02*
X181172312Y-185893328D01*
X182529454Y-186250471D02*
X182600883Y-186321900D01*
X182600883Y-186321900D02*
X182529454Y-186393328D01*
X182529454Y-186393328D02*
X182458026Y-186321900D01*
X182458026Y-186321900D02*
X182529454Y-186250471D01*
X182529454Y-186250471D02*
X182529454Y-186393328D01*
X182529454Y-185464757D02*
X182600883Y-185536185D01*
X182600883Y-185536185D02*
X182529454Y-185607614D01*
X182529454Y-185607614D02*
X182458026Y-185536185D01*
X182458026Y-185536185D02*
X182529454Y-185464757D01*
X182529454Y-185464757D02*
X182529454Y-185607614D01*
X184886597Y-185607614D02*
X185100883Y-185679042D01*
X185100883Y-185679042D02*
X185172312Y-185750471D01*
X185172312Y-185750471D02*
X185243740Y-185893328D01*
X185243740Y-185893328D02*
X185243740Y-186107614D01*
X185243740Y-186107614D02*
X185172312Y-186250471D01*
X185172312Y-186250471D02*
X185100883Y-186321900D01*
X185100883Y-186321900D02*
X184958026Y-186393328D01*
X184958026Y-186393328D02*
X184386597Y-186393328D01*
X184386597Y-186393328D02*
X184386597Y-184893328D01*
X184386597Y-184893328D02*
X184886597Y-184893328D01*
X184886597Y-184893328D02*
X185029455Y-184964757D01*
X185029455Y-184964757D02*
X185100883Y-185036185D01*
X185100883Y-185036185D02*
X185172312Y-185179042D01*
X185172312Y-185179042D02*
X185172312Y-185321900D01*
X185172312Y-185321900D02*
X185100883Y-185464757D01*
X185100883Y-185464757D02*
X185029455Y-185536185D01*
X185029455Y-185536185D02*
X184886597Y-185607614D01*
X184886597Y-185607614D02*
X184386597Y-185607614D01*
X186600883Y-186393328D02*
X185886597Y-186393328D01*
X185886597Y-186393328D02*
X185886597Y-184893328D01*
X187100883Y-186393328D02*
X187100883Y-184893328D01*
X187100883Y-184893328D02*
X187458026Y-184893328D01*
X187458026Y-184893328D02*
X187672312Y-184964757D01*
X187672312Y-184964757D02*
X187815169Y-185107614D01*
X187815169Y-185107614D02*
X187886598Y-185250471D01*
X187886598Y-185250471D02*
X187958026Y-185536185D01*
X187958026Y-185536185D02*
X187958026Y-185750471D01*
X187958026Y-185750471D02*
X187886598Y-186036185D01*
X187886598Y-186036185D02*
X187815169Y-186179042D01*
X187815169Y-186179042D02*
X187672312Y-186321900D01*
X187672312Y-186321900D02*
X187458026Y-186393328D01*
X187458026Y-186393328D02*
X187100883Y-186393328D01*
X189458026Y-186250471D02*
X189386598Y-186321900D01*
X189386598Y-186321900D02*
X189172312Y-186393328D01*
X189172312Y-186393328D02*
X189029455Y-186393328D01*
X189029455Y-186393328D02*
X188815169Y-186321900D01*
X188815169Y-186321900D02*
X188672312Y-186179042D01*
X188672312Y-186179042D02*
X188600883Y-186036185D01*
X188600883Y-186036185D02*
X188529455Y-185750471D01*
X188529455Y-185750471D02*
X188529455Y-185536185D01*
X188529455Y-185536185D02*
X188600883Y-185250471D01*
X188600883Y-185250471D02*
X188672312Y-185107614D01*
X188672312Y-185107614D02*
X188815169Y-184964757D01*
X188815169Y-184964757D02*
X189029455Y-184893328D01*
X189029455Y-184893328D02*
X189172312Y-184893328D01*
X189172312Y-184893328D02*
X189386598Y-184964757D01*
X189386598Y-184964757D02*
X189458026Y-185036185D01*
X189743741Y-186536185D02*
X190886598Y-186536185D01*
X191243740Y-186393328D02*
X191243740Y-184893328D01*
X191243740Y-184893328D02*
X191743740Y-185964757D01*
X191743740Y-185964757D02*
X192243740Y-184893328D01*
X192243740Y-184893328D02*
X192243740Y-186393328D01*
X193815169Y-186250471D02*
X193743741Y-186321900D01*
X193743741Y-186321900D02*
X193529455Y-186393328D01*
X193529455Y-186393328D02*
X193386598Y-186393328D01*
X193386598Y-186393328D02*
X193172312Y-186321900D01*
X193172312Y-186321900D02*
X193029455Y-186179042D01*
X193029455Y-186179042D02*
X192958026Y-186036185D01*
X192958026Y-186036185D02*
X192886598Y-185750471D01*
X192886598Y-185750471D02*
X192886598Y-185536185D01*
X192886598Y-185536185D02*
X192958026Y-185250471D01*
X192958026Y-185250471D02*
X193029455Y-185107614D01*
X193029455Y-185107614D02*
X193172312Y-184964757D01*
X193172312Y-184964757D02*
X193386598Y-184893328D01*
X193386598Y-184893328D02*
X193529455Y-184893328D01*
X193529455Y-184893328D02*
X193743741Y-184964757D01*
X193743741Y-184964757D02*
X193815169Y-185036185D01*
X194100884Y-186536185D02*
X195243741Y-186536185D01*
X195386598Y-184893328D02*
X195886598Y-186393328D01*
X195886598Y-186393328D02*
X196386598Y-184893328D01*
X197672312Y-186393328D02*
X196815169Y-186393328D01*
X197243740Y-186393328D02*
X197243740Y-184893328D01*
X197243740Y-184893328D02*
X197100883Y-185107614D01*
X197100883Y-185107614D02*
X196958026Y-185250471D01*
X196958026Y-185250471D02*
X196815169Y-185321900D01*
X198315168Y-186250471D02*
X198386597Y-186321900D01*
X198386597Y-186321900D02*
X198315168Y-186393328D01*
X198315168Y-186393328D02*
X198243740Y-186321900D01*
X198243740Y-186321900D02*
X198315168Y-186250471D01*
X198315168Y-186250471D02*
X198315168Y-186393328D01*
X199315169Y-184893328D02*
X199458026Y-184893328D01*
X199458026Y-184893328D02*
X199600883Y-184964757D01*
X199600883Y-184964757D02*
X199672312Y-185036185D01*
X199672312Y-185036185D02*
X199743740Y-185179042D01*
X199743740Y-185179042D02*
X199815169Y-185464757D01*
X199815169Y-185464757D02*
X199815169Y-185821900D01*
X199815169Y-185821900D02*
X199743740Y-186107614D01*
X199743740Y-186107614D02*
X199672312Y-186250471D01*
X199672312Y-186250471D02*
X199600883Y-186321900D01*
X199600883Y-186321900D02*
X199458026Y-186393328D01*
X199458026Y-186393328D02*
X199315169Y-186393328D01*
X199315169Y-186393328D02*
X199172312Y-186321900D01*
X199172312Y-186321900D02*
X199100883Y-186250471D01*
X199100883Y-186250471D02*
X199029454Y-186107614D01*
X199029454Y-186107614D02*
X198958026Y-185821900D01*
X198958026Y-185821900D02*
X198958026Y-185464757D01*
X198958026Y-185464757D02*
X199029454Y-185179042D01*
X199029454Y-185179042D02*
X199100883Y-185036185D01*
X199100883Y-185036185D02*
X199172312Y-184964757D01*
X199172312Y-184964757D02*
X199315169Y-184893328D01*
X200458025Y-186250471D02*
X200529454Y-186321900D01*
X200529454Y-186321900D02*
X200458025Y-186393328D01*
X200458025Y-186393328D02*
X200386597Y-186321900D01*
X200386597Y-186321900D02*
X200458025Y-186250471D01*
X200458025Y-186250471D02*
X200458025Y-186393328D01*
X201172311Y-186393328D02*
X201172311Y-184893328D01*
X201315169Y-185821900D02*
X201743740Y-186393328D01*
X201743740Y-185393328D02*
X201172311Y-185964757D01*
X202386597Y-186393328D02*
X202386597Y-185393328D01*
X202386597Y-184893328D02*
X202315169Y-184964757D01*
X202315169Y-184964757D02*
X202386597Y-185036185D01*
X202386597Y-185036185D02*
X202458026Y-184964757D01*
X202458026Y-184964757D02*
X202386597Y-184893328D01*
X202386597Y-184893328D02*
X202386597Y-185036185D01*
X203743741Y-186321900D02*
X203600883Y-186393328D01*
X203600883Y-186393328D02*
X203315169Y-186393328D01*
X203315169Y-186393328D02*
X203172312Y-186321900D01*
X203172312Y-186321900D02*
X203100883Y-186250471D01*
X203100883Y-186250471D02*
X203029455Y-186107614D01*
X203029455Y-186107614D02*
X203029455Y-185679042D01*
X203029455Y-185679042D02*
X203100883Y-185536185D01*
X203100883Y-185536185D02*
X203172312Y-185464757D01*
X203172312Y-185464757D02*
X203315169Y-185393328D01*
X203315169Y-185393328D02*
X203600883Y-185393328D01*
X203600883Y-185393328D02*
X203743741Y-185464757D01*
X205029455Y-186393328D02*
X205029455Y-185607614D01*
X205029455Y-185607614D02*
X204958026Y-185464757D01*
X204958026Y-185464757D02*
X204815169Y-185393328D01*
X204815169Y-185393328D02*
X204529455Y-185393328D01*
X204529455Y-185393328D02*
X204386597Y-185464757D01*
X205029455Y-186321900D02*
X204886597Y-186393328D01*
X204886597Y-186393328D02*
X204529455Y-186393328D01*
X204529455Y-186393328D02*
X204386597Y-186321900D01*
X204386597Y-186321900D02*
X204315169Y-186179042D01*
X204315169Y-186179042D02*
X204315169Y-186036185D01*
X204315169Y-186036185D02*
X204386597Y-185893328D01*
X204386597Y-185893328D02*
X204529455Y-185821900D01*
X204529455Y-185821900D02*
X204886597Y-185821900D01*
X204886597Y-185821900D02*
X205029455Y-185750471D01*
X206386598Y-186393328D02*
X206386598Y-184893328D01*
X206386598Y-186321900D02*
X206243740Y-186393328D01*
X206243740Y-186393328D02*
X205958026Y-186393328D01*
X205958026Y-186393328D02*
X205815169Y-186321900D01*
X205815169Y-186321900D02*
X205743740Y-186250471D01*
X205743740Y-186250471D02*
X205672312Y-186107614D01*
X205672312Y-186107614D02*
X205672312Y-185679042D01*
X205672312Y-185679042D02*
X205743740Y-185536185D01*
X205743740Y-185536185D02*
X205815169Y-185464757D01*
X205815169Y-185464757D02*
X205958026Y-185393328D01*
X205958026Y-185393328D02*
X206243740Y-185393328D01*
X206243740Y-185393328D02*
X206386598Y-185464757D01*
X206743741Y-186536185D02*
X207886598Y-186536185D01*
X208243740Y-185393328D02*
X208243740Y-186893328D01*
X208243740Y-185464757D02*
X208386598Y-185393328D01*
X208386598Y-185393328D02*
X208672312Y-185393328D01*
X208672312Y-185393328D02*
X208815169Y-185464757D01*
X208815169Y-185464757D02*
X208886598Y-185536185D01*
X208886598Y-185536185D02*
X208958026Y-185679042D01*
X208958026Y-185679042D02*
X208958026Y-186107614D01*
X208958026Y-186107614D02*
X208886598Y-186250471D01*
X208886598Y-186250471D02*
X208815169Y-186321900D01*
X208815169Y-186321900D02*
X208672312Y-186393328D01*
X208672312Y-186393328D02*
X208386598Y-186393328D01*
X208386598Y-186393328D02*
X208243740Y-186321900D01*
X210243741Y-186321900D02*
X210100883Y-186393328D01*
X210100883Y-186393328D02*
X209815169Y-186393328D01*
X209815169Y-186393328D02*
X209672312Y-186321900D01*
X209672312Y-186321900D02*
X209600883Y-186250471D01*
X209600883Y-186250471D02*
X209529455Y-186107614D01*
X209529455Y-186107614D02*
X209529455Y-185679042D01*
X209529455Y-185679042D02*
X209600883Y-185536185D01*
X209600883Y-185536185D02*
X209672312Y-185464757D01*
X209672312Y-185464757D02*
X209815169Y-185393328D01*
X209815169Y-185393328D02*
X210100883Y-185393328D01*
X210100883Y-185393328D02*
X210243741Y-185464757D01*
X210886597Y-186393328D02*
X210886597Y-184893328D01*
X210886597Y-185464757D02*
X211029455Y-185393328D01*
X211029455Y-185393328D02*
X211315169Y-185393328D01*
X211315169Y-185393328D02*
X211458026Y-185464757D01*
X211458026Y-185464757D02*
X211529455Y-185536185D01*
X211529455Y-185536185D02*
X211600883Y-185679042D01*
X211600883Y-185679042D02*
X211600883Y-186107614D01*
X211600883Y-186107614D02*
X211529455Y-186250471D01*
X211529455Y-186250471D02*
X211458026Y-186321900D01*
X211458026Y-186321900D02*
X211315169Y-186393328D01*
X211315169Y-186393328D02*
X211029455Y-186393328D01*
X211029455Y-186393328D02*
X210886597Y-186321900D01*
X177002200Y-181507200D02*
X285002200Y-181507200D01*
X178386598Y-183621900D02*
X178600884Y-183693328D01*
X178600884Y-183693328D02*
X178958026Y-183693328D01*
X178958026Y-183693328D02*
X179100884Y-183621900D01*
X179100884Y-183621900D02*
X179172312Y-183550471D01*
X179172312Y-183550471D02*
X179243741Y-183407614D01*
X179243741Y-183407614D02*
X179243741Y-183264757D01*
X179243741Y-183264757D02*
X179172312Y-183121900D01*
X179172312Y-183121900D02*
X179100884Y-183050471D01*
X179100884Y-183050471D02*
X178958026Y-182979042D01*
X178958026Y-182979042D02*
X178672312Y-182907614D01*
X178672312Y-182907614D02*
X178529455Y-182836185D01*
X178529455Y-182836185D02*
X178458026Y-182764757D01*
X178458026Y-182764757D02*
X178386598Y-182621900D01*
X178386598Y-182621900D02*
X178386598Y-182479042D01*
X178386598Y-182479042D02*
X178458026Y-182336185D01*
X178458026Y-182336185D02*
X178529455Y-182264757D01*
X178529455Y-182264757D02*
X178672312Y-182193328D01*
X178672312Y-182193328D02*
X179029455Y-182193328D01*
X179029455Y-182193328D02*
X179243741Y-182264757D01*
X179886597Y-183693328D02*
X179886597Y-182193328D01*
X180529455Y-183693328D02*
X180529455Y-182907614D01*
X180529455Y-182907614D02*
X180458026Y-182764757D01*
X180458026Y-182764757D02*
X180315169Y-182693328D01*
X180315169Y-182693328D02*
X180100883Y-182693328D01*
X180100883Y-182693328D02*
X179958026Y-182764757D01*
X179958026Y-182764757D02*
X179886597Y-182836185D01*
X181815169Y-183621900D02*
X181672312Y-183693328D01*
X181672312Y-183693328D02*
X181386598Y-183693328D01*
X181386598Y-183693328D02*
X181243740Y-183621900D01*
X181243740Y-183621900D02*
X181172312Y-183479042D01*
X181172312Y-183479042D02*
X181172312Y-182907614D01*
X181172312Y-182907614D02*
X181243740Y-182764757D01*
X181243740Y-182764757D02*
X181386598Y-182693328D01*
X181386598Y-182693328D02*
X181672312Y-182693328D01*
X181672312Y-182693328D02*
X181815169Y-182764757D01*
X181815169Y-182764757D02*
X181886598Y-182907614D01*
X181886598Y-182907614D02*
X181886598Y-183050471D01*
X181886598Y-183050471D02*
X181172312Y-183193328D01*
X183100883Y-183621900D02*
X182958026Y-183693328D01*
X182958026Y-183693328D02*
X182672312Y-183693328D01*
X182672312Y-183693328D02*
X182529454Y-183621900D01*
X182529454Y-183621900D02*
X182458026Y-183479042D01*
X182458026Y-183479042D02*
X182458026Y-182907614D01*
X182458026Y-182907614D02*
X182529454Y-182764757D01*
X182529454Y-182764757D02*
X182672312Y-182693328D01*
X182672312Y-182693328D02*
X182958026Y-182693328D01*
X182958026Y-182693328D02*
X183100883Y-182764757D01*
X183100883Y-182764757D02*
X183172312Y-182907614D01*
X183172312Y-182907614D02*
X183172312Y-183050471D01*
X183172312Y-183050471D02*
X182458026Y-183193328D01*
X183600883Y-182693328D02*
X184172311Y-182693328D01*
X183815168Y-182193328D02*
X183815168Y-183479042D01*
X183815168Y-183479042D02*
X183886597Y-183621900D01*
X183886597Y-183621900D02*
X184029454Y-183693328D01*
X184029454Y-183693328D02*
X184172311Y-183693328D01*
X184672311Y-183550471D02*
X184743740Y-183621900D01*
X184743740Y-183621900D02*
X184672311Y-183693328D01*
X184672311Y-183693328D02*
X184600883Y-183621900D01*
X184600883Y-183621900D02*
X184672311Y-183550471D01*
X184672311Y-183550471D02*
X184672311Y-183693328D01*
X184672311Y-182764757D02*
X184743740Y-182836185D01*
X184743740Y-182836185D02*
X184672311Y-182907614D01*
X184672311Y-182907614D02*
X184600883Y-182836185D01*
X184600883Y-182836185D02*
X184672311Y-182764757D01*
X184672311Y-182764757D02*
X184672311Y-182907614D01*
X197002200Y-191507200D02*
X197002200Y-194507200D01*
X261002200Y-191507200D02*
X261002200Y-198007200D01*
D13*
%TO.C,Q3*%
G36*
X109583600Y-30336408D02*
G01*
X108758100Y-30336408D01*
X108758100Y-29904608D01*
X109583600Y-29904608D01*
X109583600Y-30336408D01*
G37*
G36*
X109583600Y-31606408D02*
G01*
X108758100Y-31606408D01*
X108758100Y-31174608D01*
X109583600Y-31174608D01*
X109583600Y-31606408D01*
G37*
G36*
X109583600Y-32876408D02*
G01*
X108758100Y-32876408D01*
X108758100Y-32444608D01*
X109583600Y-32444608D01*
X109583600Y-32876408D01*
G37*
G36*
X109583600Y-34146408D02*
G01*
X108758100Y-34146408D01*
X108758100Y-33714608D01*
X109583600Y-33714608D01*
X109583600Y-34146408D01*
G37*
G36*
X111209200Y-31923808D02*
G01*
X109710600Y-31923808D01*
X109710600Y-30425208D01*
X111209200Y-30425208D01*
X111209200Y-31923808D01*
G37*
G36*
X111209200Y-33623808D02*
G01*
X109710600Y-33623808D01*
X109710600Y-32125208D01*
X111209200Y-32125208D01*
X111209200Y-33623808D01*
G37*
G36*
X112909200Y-31923808D02*
G01*
X111410600Y-31923808D01*
X111410600Y-30425208D01*
X112909200Y-30425208D01*
X112909200Y-31923808D01*
G37*
G36*
X112909200Y-33623808D02*
G01*
X111410600Y-33623808D01*
X111410600Y-32125208D01*
X112909200Y-32125208D01*
X112909200Y-33623808D01*
G37*
G36*
X114632450Y-30336408D02*
G01*
X114251450Y-30336408D01*
X114251450Y-29904608D01*
X114632450Y-29904608D01*
X114632450Y-30336408D01*
G37*
G36*
X114639850Y-32025508D02*
G01*
X114258850Y-32025508D01*
X114258850Y-31174758D01*
X114639850Y-31174758D01*
X114639850Y-32025508D01*
G37*
G36*
X114639850Y-33085958D02*
G01*
X114258850Y-33085958D01*
X114258850Y-32235058D01*
X114639850Y-32235058D01*
X114639850Y-33085958D01*
G37*
G36*
X114639850Y-34146658D02*
G01*
X114258850Y-34146658D01*
X114258850Y-33295758D01*
X114639850Y-33295758D01*
X114639850Y-34146658D01*
G37*
G36*
X115145450Y-30336408D02*
G01*
X114764450Y-30336408D01*
X114764450Y-29904608D01*
X115145450Y-29904608D01*
X115145450Y-30336408D01*
G37*
G36*
X115145450Y-31606408D02*
G01*
X114764450Y-31606408D01*
X114764450Y-31174608D01*
X115145450Y-31174608D01*
X115145450Y-31606408D01*
G37*
G36*
X115145450Y-32876408D02*
G01*
X114764450Y-32876408D01*
X114764450Y-32444608D01*
X115145450Y-32444608D01*
X115145450Y-32876408D01*
G37*
G36*
X115145450Y-34146408D02*
G01*
X114764450Y-34146408D01*
X114764450Y-33714608D01*
X115145450Y-33714608D01*
X115145450Y-34146408D01*
G37*
%TO.C,Q2*%
G36*
X109583600Y-47227408D02*
G01*
X108758100Y-47227408D01*
X108758100Y-46795608D01*
X109583600Y-46795608D01*
X109583600Y-47227408D01*
G37*
G36*
X109583600Y-48497408D02*
G01*
X108758100Y-48497408D01*
X108758100Y-48065608D01*
X109583600Y-48065608D01*
X109583600Y-48497408D01*
G37*
G36*
X109583600Y-49767408D02*
G01*
X108758100Y-49767408D01*
X108758100Y-49335608D01*
X109583600Y-49335608D01*
X109583600Y-49767408D01*
G37*
G36*
X109583600Y-51037408D02*
G01*
X108758100Y-51037408D01*
X108758100Y-50605608D01*
X109583600Y-50605608D01*
X109583600Y-51037408D01*
G37*
G36*
X111209200Y-48814808D02*
G01*
X109710600Y-48814808D01*
X109710600Y-47316208D01*
X111209200Y-47316208D01*
X111209200Y-48814808D01*
G37*
G36*
X111209200Y-50514808D02*
G01*
X109710600Y-50514808D01*
X109710600Y-49016208D01*
X111209200Y-49016208D01*
X111209200Y-50514808D01*
G37*
G36*
X112909200Y-48814808D02*
G01*
X111410600Y-48814808D01*
X111410600Y-47316208D01*
X112909200Y-47316208D01*
X112909200Y-48814808D01*
G37*
G36*
X112909200Y-50514808D02*
G01*
X111410600Y-50514808D01*
X111410600Y-49016208D01*
X112909200Y-49016208D01*
X112909200Y-50514808D01*
G37*
G36*
X114632450Y-47227408D02*
G01*
X114251450Y-47227408D01*
X114251450Y-46795608D01*
X114632450Y-46795608D01*
X114632450Y-47227408D01*
G37*
G36*
X114639850Y-48916508D02*
G01*
X114258850Y-48916508D01*
X114258850Y-48065758D01*
X114639850Y-48065758D01*
X114639850Y-48916508D01*
G37*
G36*
X114639850Y-49976958D02*
G01*
X114258850Y-49976958D01*
X114258850Y-49126058D01*
X114639850Y-49126058D01*
X114639850Y-49976958D01*
G37*
G36*
X114639850Y-51037658D02*
G01*
X114258850Y-51037658D01*
X114258850Y-50186758D01*
X114639850Y-50186758D01*
X114639850Y-51037658D01*
G37*
G36*
X115145450Y-47227408D02*
G01*
X114764450Y-47227408D01*
X114764450Y-46795608D01*
X115145450Y-46795608D01*
X115145450Y-47227408D01*
G37*
G36*
X115145450Y-48497408D02*
G01*
X114764450Y-48497408D01*
X114764450Y-48065608D01*
X115145450Y-48065608D01*
X115145450Y-48497408D01*
G37*
G36*
X115145450Y-49767408D02*
G01*
X114764450Y-49767408D01*
X114764450Y-49335608D01*
X115145450Y-49335608D01*
X115145450Y-49767408D01*
G37*
G36*
X115145450Y-51037408D02*
G01*
X114764450Y-51037408D01*
X114764450Y-50605608D01*
X115145450Y-50605608D01*
X115145450Y-51037408D01*
G37*
%TO.C,Q7*%
G36*
X54539225Y-28897408D02*
G01*
X53713725Y-28897408D01*
X53713725Y-28465608D01*
X54539225Y-28465608D01*
X54539225Y-28897408D01*
G37*
G36*
X54539225Y-30167408D02*
G01*
X53713725Y-30167408D01*
X53713725Y-29735608D01*
X54539225Y-29735608D01*
X54539225Y-30167408D01*
G37*
G36*
X54539225Y-31437408D02*
G01*
X53713725Y-31437408D01*
X53713725Y-31005608D01*
X54539225Y-31005608D01*
X54539225Y-31437408D01*
G37*
G36*
X54539225Y-32707408D02*
G01*
X53713725Y-32707408D01*
X53713725Y-32275608D01*
X54539225Y-32275608D01*
X54539225Y-32707408D01*
G37*
G36*
X56164825Y-30484808D02*
G01*
X54666225Y-30484808D01*
X54666225Y-28986208D01*
X56164825Y-28986208D01*
X56164825Y-30484808D01*
G37*
G36*
X56164825Y-32184808D02*
G01*
X54666225Y-32184808D01*
X54666225Y-30686208D01*
X56164825Y-30686208D01*
X56164825Y-32184808D01*
G37*
G36*
X57864825Y-30484808D02*
G01*
X56366225Y-30484808D01*
X56366225Y-28986208D01*
X57864825Y-28986208D01*
X57864825Y-30484808D01*
G37*
G36*
X57864825Y-32184808D02*
G01*
X56366225Y-32184808D01*
X56366225Y-30686208D01*
X57864825Y-30686208D01*
X57864825Y-32184808D01*
G37*
G36*
X59588075Y-28897408D02*
G01*
X59207075Y-28897408D01*
X59207075Y-28465608D01*
X59588075Y-28465608D01*
X59588075Y-28897408D01*
G37*
G36*
X59595475Y-30586508D02*
G01*
X59214475Y-30586508D01*
X59214475Y-29735758D01*
X59595475Y-29735758D01*
X59595475Y-30586508D01*
G37*
G36*
X59595475Y-31646958D02*
G01*
X59214475Y-31646958D01*
X59214475Y-30796058D01*
X59595475Y-30796058D01*
X59595475Y-31646958D01*
G37*
G36*
X59595475Y-32707658D02*
G01*
X59214475Y-32707658D01*
X59214475Y-31856758D01*
X59595475Y-31856758D01*
X59595475Y-32707658D01*
G37*
G36*
X60101075Y-28897408D02*
G01*
X59720075Y-28897408D01*
X59720075Y-28465608D01*
X60101075Y-28465608D01*
X60101075Y-28897408D01*
G37*
G36*
X60101075Y-30167408D02*
G01*
X59720075Y-30167408D01*
X59720075Y-29735608D01*
X60101075Y-29735608D01*
X60101075Y-30167408D01*
G37*
G36*
X60101075Y-31437408D02*
G01*
X59720075Y-31437408D01*
X59720075Y-31005608D01*
X60101075Y-31005608D01*
X60101075Y-31437408D01*
G37*
G36*
X60101075Y-32707408D02*
G01*
X59720075Y-32707408D01*
X59720075Y-32275608D01*
X60101075Y-32275608D01*
X60101075Y-32707408D01*
G37*
%TO.C,U6*%
G36*
X94823117Y-47265508D02*
G01*
X93995802Y-48092823D01*
X93168487Y-47265508D01*
X93995802Y-46438193D01*
X94823117Y-47265508D01*
G37*
G36*
X95791854Y-46296772D02*
G01*
X94964539Y-47124087D01*
X94137224Y-46296772D01*
X94964539Y-45469457D01*
X95791854Y-46296772D01*
G37*
G36*
X95791854Y-48234244D02*
G01*
X94964539Y-49061559D01*
X94137224Y-48234244D01*
X94964539Y-47406929D01*
X95791854Y-48234244D01*
G37*
G36*
X96760590Y-45328035D02*
G01*
X95933275Y-46155350D01*
X95105960Y-45328035D01*
X95933275Y-44500720D01*
X96760590Y-45328035D01*
G37*
G36*
X96760590Y-47265508D02*
G01*
X95933275Y-48092823D01*
X95105960Y-47265508D01*
X95933275Y-46438193D01*
X96760590Y-47265508D01*
G37*
G36*
X96760590Y-49202981D02*
G01*
X95933275Y-50030296D01*
X95105960Y-49202981D01*
X95933275Y-48375666D01*
X96760590Y-49202981D01*
G37*
G36*
X97729326Y-46296772D02*
G01*
X96902011Y-47124087D01*
X96074696Y-46296772D01*
X96902011Y-45469457D01*
X97729326Y-46296772D01*
G37*
G36*
X97729326Y-48234244D02*
G01*
X96902011Y-49061559D01*
X96074696Y-48234244D01*
X96902011Y-47406929D01*
X97729326Y-48234244D01*
G37*
G36*
X98698063Y-47265508D02*
G01*
X97870748Y-48092823D01*
X97043433Y-47265508D01*
X97870748Y-46438193D01*
X98698063Y-47265508D01*
G37*
%TO.C,Q1*%
G36*
X109583600Y-64118408D02*
G01*
X108758100Y-64118408D01*
X108758100Y-63686608D01*
X109583600Y-63686608D01*
X109583600Y-64118408D01*
G37*
G36*
X109583600Y-65388408D02*
G01*
X108758100Y-65388408D01*
X108758100Y-64956608D01*
X109583600Y-64956608D01*
X109583600Y-65388408D01*
G37*
G36*
X109583600Y-66658408D02*
G01*
X108758100Y-66658408D01*
X108758100Y-66226608D01*
X109583600Y-66226608D01*
X109583600Y-66658408D01*
G37*
G36*
X109583600Y-67928408D02*
G01*
X108758100Y-67928408D01*
X108758100Y-67496608D01*
X109583600Y-67496608D01*
X109583600Y-67928408D01*
G37*
G36*
X111209200Y-65705808D02*
G01*
X109710600Y-65705808D01*
X109710600Y-64207208D01*
X111209200Y-64207208D01*
X111209200Y-65705808D01*
G37*
G36*
X111209200Y-67405808D02*
G01*
X109710600Y-67405808D01*
X109710600Y-65907208D01*
X111209200Y-65907208D01*
X111209200Y-67405808D01*
G37*
G36*
X112909200Y-65705808D02*
G01*
X111410600Y-65705808D01*
X111410600Y-64207208D01*
X112909200Y-64207208D01*
X112909200Y-65705808D01*
G37*
G36*
X112909200Y-67405808D02*
G01*
X111410600Y-67405808D01*
X111410600Y-65907208D01*
X112909200Y-65907208D01*
X112909200Y-67405808D01*
G37*
G36*
X114632450Y-64118408D02*
G01*
X114251450Y-64118408D01*
X114251450Y-63686608D01*
X114632450Y-63686608D01*
X114632450Y-64118408D01*
G37*
G36*
X114639850Y-65807508D02*
G01*
X114258850Y-65807508D01*
X114258850Y-64956758D01*
X114639850Y-64956758D01*
X114639850Y-65807508D01*
G37*
G36*
X114639850Y-66867958D02*
G01*
X114258850Y-66867958D01*
X114258850Y-66017058D01*
X114639850Y-66017058D01*
X114639850Y-66867958D01*
G37*
G36*
X114639850Y-67928658D02*
G01*
X114258850Y-67928658D01*
X114258850Y-67077758D01*
X114639850Y-67077758D01*
X114639850Y-67928658D01*
G37*
G36*
X115145450Y-64118408D02*
G01*
X114764450Y-64118408D01*
X114764450Y-63686608D01*
X115145450Y-63686608D01*
X115145450Y-64118408D01*
G37*
G36*
X115145450Y-65388408D02*
G01*
X114764450Y-65388408D01*
X114764450Y-64956608D01*
X115145450Y-64956608D01*
X115145450Y-65388408D01*
G37*
G36*
X115145450Y-66658408D02*
G01*
X114764450Y-66658408D01*
X114764450Y-66226608D01*
X115145450Y-66226608D01*
X115145450Y-66658408D01*
G37*
G36*
X115145450Y-67928408D02*
G01*
X114764450Y-67928408D01*
X114764450Y-67496608D01*
X115145450Y-67496608D01*
X115145450Y-67928408D01*
G37*
%TO.C,Q4*%
G36*
X125057975Y-30297408D02*
G01*
X124232475Y-30297408D01*
X124232475Y-29865608D01*
X125057975Y-29865608D01*
X125057975Y-30297408D01*
G37*
G36*
X125057975Y-31567408D02*
G01*
X124232475Y-31567408D01*
X124232475Y-31135608D01*
X125057975Y-31135608D01*
X125057975Y-31567408D01*
G37*
G36*
X125057975Y-32837408D02*
G01*
X124232475Y-32837408D01*
X124232475Y-32405608D01*
X125057975Y-32405608D01*
X125057975Y-32837408D01*
G37*
G36*
X125057975Y-34107408D02*
G01*
X124232475Y-34107408D01*
X124232475Y-33675608D01*
X125057975Y-33675608D01*
X125057975Y-34107408D01*
G37*
G36*
X126683575Y-31884808D02*
G01*
X125184975Y-31884808D01*
X125184975Y-30386208D01*
X126683575Y-30386208D01*
X126683575Y-31884808D01*
G37*
G36*
X126683575Y-33584808D02*
G01*
X125184975Y-33584808D01*
X125184975Y-32086208D01*
X126683575Y-32086208D01*
X126683575Y-33584808D01*
G37*
G36*
X128383575Y-31884808D02*
G01*
X126884975Y-31884808D01*
X126884975Y-30386208D01*
X128383575Y-30386208D01*
X128383575Y-31884808D01*
G37*
G36*
X128383575Y-33584808D02*
G01*
X126884975Y-33584808D01*
X126884975Y-32086208D01*
X128383575Y-32086208D01*
X128383575Y-33584808D01*
G37*
G36*
X130106825Y-30297408D02*
G01*
X129725825Y-30297408D01*
X129725825Y-29865608D01*
X130106825Y-29865608D01*
X130106825Y-30297408D01*
G37*
G36*
X130114225Y-31986508D02*
G01*
X129733225Y-31986508D01*
X129733225Y-31135758D01*
X130114225Y-31135758D01*
X130114225Y-31986508D01*
G37*
G36*
X130114225Y-33046958D02*
G01*
X129733225Y-33046958D01*
X129733225Y-32196058D01*
X130114225Y-32196058D01*
X130114225Y-33046958D01*
G37*
G36*
X130114225Y-34107658D02*
G01*
X129733225Y-34107658D01*
X129733225Y-33256758D01*
X130114225Y-33256758D01*
X130114225Y-34107658D01*
G37*
G36*
X130619825Y-30297408D02*
G01*
X130238825Y-30297408D01*
X130238825Y-29865608D01*
X130619825Y-29865608D01*
X130619825Y-30297408D01*
G37*
G36*
X130619825Y-31567408D02*
G01*
X130238825Y-31567408D01*
X130238825Y-31135608D01*
X130619825Y-31135608D01*
X130619825Y-31567408D01*
G37*
G36*
X130619825Y-32837408D02*
G01*
X130238825Y-32837408D01*
X130238825Y-32405608D01*
X130619825Y-32405608D01*
X130619825Y-32837408D01*
G37*
G36*
X130619825Y-34107408D02*
G01*
X130238825Y-34107408D01*
X130238825Y-33675608D01*
X130619825Y-33675608D01*
X130619825Y-34107408D01*
G37*
%TO.C,Q6*%
G36*
X124857975Y-64097408D02*
G01*
X124032475Y-64097408D01*
X124032475Y-63665608D01*
X124857975Y-63665608D01*
X124857975Y-64097408D01*
G37*
G36*
X124857975Y-65367408D02*
G01*
X124032475Y-65367408D01*
X124032475Y-64935608D01*
X124857975Y-64935608D01*
X124857975Y-65367408D01*
G37*
G36*
X124857975Y-66637408D02*
G01*
X124032475Y-66637408D01*
X124032475Y-66205608D01*
X124857975Y-66205608D01*
X124857975Y-66637408D01*
G37*
G36*
X124857975Y-67907408D02*
G01*
X124032475Y-67907408D01*
X124032475Y-67475608D01*
X124857975Y-67475608D01*
X124857975Y-67907408D01*
G37*
G36*
X126483575Y-65684808D02*
G01*
X124984975Y-65684808D01*
X124984975Y-64186208D01*
X126483575Y-64186208D01*
X126483575Y-65684808D01*
G37*
G36*
X126483575Y-67384808D02*
G01*
X124984975Y-67384808D01*
X124984975Y-65886208D01*
X126483575Y-65886208D01*
X126483575Y-67384808D01*
G37*
G36*
X128183575Y-65684808D02*
G01*
X126684975Y-65684808D01*
X126684975Y-64186208D01*
X128183575Y-64186208D01*
X128183575Y-65684808D01*
G37*
G36*
X128183575Y-67384808D02*
G01*
X126684975Y-67384808D01*
X126684975Y-65886208D01*
X128183575Y-65886208D01*
X128183575Y-67384808D01*
G37*
G36*
X129906825Y-64097408D02*
G01*
X129525825Y-64097408D01*
X129525825Y-63665608D01*
X129906825Y-63665608D01*
X129906825Y-64097408D01*
G37*
G36*
X129914225Y-65786508D02*
G01*
X129533225Y-65786508D01*
X129533225Y-64935758D01*
X129914225Y-64935758D01*
X129914225Y-65786508D01*
G37*
G36*
X129914225Y-66846958D02*
G01*
X129533225Y-66846958D01*
X129533225Y-65996058D01*
X129914225Y-65996058D01*
X129914225Y-66846958D01*
G37*
G36*
X129914225Y-67907658D02*
G01*
X129533225Y-67907658D01*
X129533225Y-67056758D01*
X129914225Y-67056758D01*
X129914225Y-67907658D01*
G37*
G36*
X130419825Y-64097408D02*
G01*
X130038825Y-64097408D01*
X130038825Y-63665608D01*
X130419825Y-63665608D01*
X130419825Y-64097408D01*
G37*
G36*
X130419825Y-65367408D02*
G01*
X130038825Y-65367408D01*
X130038825Y-64935608D01*
X130419825Y-64935608D01*
X130419825Y-65367408D01*
G37*
G36*
X130419825Y-66637408D02*
G01*
X130038825Y-66637408D01*
X130038825Y-66205608D01*
X130419825Y-66205608D01*
X130419825Y-66637408D01*
G37*
G36*
X130419825Y-67907408D02*
G01*
X130038825Y-67907408D01*
X130038825Y-67475608D01*
X130419825Y-67475608D01*
X130419825Y-67907408D01*
G37*
%TO.C,Q5*%
G36*
X124986475Y-47197408D02*
G01*
X124160975Y-47197408D01*
X124160975Y-46765608D01*
X124986475Y-46765608D01*
X124986475Y-47197408D01*
G37*
G36*
X124986475Y-48467408D02*
G01*
X124160975Y-48467408D01*
X124160975Y-48035608D01*
X124986475Y-48035608D01*
X124986475Y-48467408D01*
G37*
G36*
X124986475Y-49737408D02*
G01*
X124160975Y-49737408D01*
X124160975Y-49305608D01*
X124986475Y-49305608D01*
X124986475Y-49737408D01*
G37*
G36*
X124986475Y-51007408D02*
G01*
X124160975Y-51007408D01*
X124160975Y-50575608D01*
X124986475Y-50575608D01*
X124986475Y-51007408D01*
G37*
G36*
X126612075Y-48784808D02*
G01*
X125113475Y-48784808D01*
X125113475Y-47286208D01*
X126612075Y-47286208D01*
X126612075Y-48784808D01*
G37*
G36*
X126612075Y-50484808D02*
G01*
X125113475Y-50484808D01*
X125113475Y-48986208D01*
X126612075Y-48986208D01*
X126612075Y-50484808D01*
G37*
G36*
X128312075Y-48784808D02*
G01*
X126813475Y-48784808D01*
X126813475Y-47286208D01*
X128312075Y-47286208D01*
X128312075Y-48784808D01*
G37*
G36*
X128312075Y-50484808D02*
G01*
X126813475Y-50484808D01*
X126813475Y-48986208D01*
X128312075Y-48986208D01*
X128312075Y-50484808D01*
G37*
G36*
X130035325Y-47197408D02*
G01*
X129654325Y-47197408D01*
X129654325Y-46765608D01*
X130035325Y-46765608D01*
X130035325Y-47197408D01*
G37*
G36*
X130042725Y-48886508D02*
G01*
X129661725Y-48886508D01*
X129661725Y-48035758D01*
X130042725Y-48035758D01*
X130042725Y-48886508D01*
G37*
G36*
X130042725Y-49946958D02*
G01*
X129661725Y-49946958D01*
X129661725Y-49096058D01*
X130042725Y-49096058D01*
X130042725Y-49946958D01*
G37*
G36*
X130042725Y-51007658D02*
G01*
X129661725Y-51007658D01*
X129661725Y-50156758D01*
X130042725Y-50156758D01*
X130042725Y-51007658D01*
G37*
G36*
X130548325Y-47197408D02*
G01*
X130167325Y-47197408D01*
X130167325Y-46765608D01*
X130548325Y-46765608D01*
X130548325Y-47197408D01*
G37*
G36*
X130548325Y-48467408D02*
G01*
X130167325Y-48467408D01*
X130167325Y-48035608D01*
X130548325Y-48035608D01*
X130548325Y-48467408D01*
G37*
G36*
X130548325Y-49737408D02*
G01*
X130167325Y-49737408D01*
X130167325Y-49305608D01*
X130548325Y-49305608D01*
X130548325Y-49737408D01*
G37*
G36*
X130548325Y-51007408D02*
G01*
X130167325Y-51007408D01*
X130167325Y-50575608D01*
X130548325Y-50575608D01*
X130548325Y-51007408D01*
G37*
%TD*%
D14*
%TO.C,R44*%
X74782275Y-45255508D03*
X74782275Y-43605508D03*
%TD*%
D15*
%TO.C,CR3*%
X84340925Y-70633508D03*
X81733625Y-70633508D03*
%TD*%
D16*
%TO.C,C16*%
X72558275Y-35650508D03*
X74108275Y-35650508D03*
%TD*%
D17*
%TO.C,C41*%
X91692267Y-53791516D03*
X92788283Y-52695500D03*
%TD*%
D18*
%TO.C,R14*%
X72533275Y-29311508D03*
X72533275Y-30861508D03*
%TD*%
D19*
%TO.C,Q3*%
X114713650Y-33930508D03*
D20*
X114713650Y-32660508D03*
X114713650Y-31390508D03*
X114713650Y-30120508D03*
D21*
X110904375Y-30120508D03*
D22*
X109078150Y-31390508D03*
X109078150Y-32660508D03*
X109078150Y-33930508D03*
%TD*%
D23*
%TO.C,J7*%
X149008955Y-51409508D03*
%TD*%
D24*
%TO.C,C11*%
X89507275Y-33364508D03*
X91407275Y-33364508D03*
%TD*%
D25*
%TO.C,FB1*%
X61606775Y-45145508D03*
X60031775Y-45145508D03*
%TD*%
D19*
%TO.C,Q2*%
X114713650Y-50821508D03*
D20*
X114713650Y-49551508D03*
X114713650Y-48281508D03*
X114713650Y-47011508D03*
D21*
X110904375Y-47011508D03*
D22*
X109078150Y-48281508D03*
X109078150Y-49551508D03*
X109078150Y-50821508D03*
%TD*%
D26*
%TO.C,R76*%
X134599275Y-40136508D03*
X134599275Y-34036508D03*
%TD*%
D27*
%TO.C,R26*%
X83170275Y-47646508D03*
X84820275Y-47646508D03*
%TD*%
D19*
%TO.C,Q7*%
X59669275Y-32491508D03*
D20*
X59669275Y-31221508D03*
X59669275Y-29951508D03*
X59669275Y-28681508D03*
D21*
X55860000Y-28681508D03*
D22*
X54033775Y-29951508D03*
X54033775Y-31221508D03*
X54033775Y-32491508D03*
%TD*%
D27*
%TO.C,R78*%
X58660275Y-55594508D03*
X60310275Y-55594508D03*
%TD*%
D28*
%TO.C,R81*%
X70309276Y-43589508D03*
X70309276Y-45239508D03*
%TD*%
D14*
%TO.C,R11*%
X73935274Y-65011508D03*
X73935274Y-63361508D03*
%TD*%
D29*
%TO.C,C82*%
X127101275Y-40114508D03*
X130051275Y-40114508D03*
%TD*%
D30*
%TO.C,R25*%
X90472275Y-40459145D03*
X91639001Y-41625871D03*
%TD*%
%TO.C,R27*%
X85694912Y-45203145D03*
X86861638Y-46369871D03*
%TD*%
D29*
%TO.C,C25*%
X75635274Y-63845508D03*
X78585274Y-63845508D03*
%TD*%
D31*
%TO.C,C73*%
X68058275Y-45131508D03*
X68058275Y-42181508D03*
%TD*%
D32*
%TO.C,C12*%
X89739775Y-31078508D03*
X92444775Y-31078508D03*
%TD*%
D33*
%TO.C,Y1*%
X82452275Y-56952508D03*
X84652275Y-56952508D03*
X84652275Y-55252508D03*
X82452275Y-55252508D03*
%TD*%
D27*
%TO.C,R79*%
X58660275Y-57118508D03*
X60310275Y-57118508D03*
%TD*%
D28*
%TO.C,R40*%
X67007276Y-63472508D03*
X67007276Y-65122508D03*
%TD*%
D34*
%TO.C,C1*%
X80588275Y-56789508D03*
X80588275Y-55239508D03*
%TD*%
D15*
%TO.C,CR4*%
X84340925Y-74951508D03*
X81733625Y-74951508D03*
%TD*%
D35*
%TO.C,C44*%
X93938026Y-39174259D03*
X92594524Y-37830757D03*
%TD*%
D16*
%TO.C,C51*%
X85663276Y-61813508D03*
X87213276Y-61813508D03*
%TD*%
D36*
%TO.C,FB2*%
X88526428Y-54679661D03*
X89640122Y-55793355D03*
%TD*%
D37*
%TO.C,R33*%
X82267276Y-53454508D03*
X80617276Y-53454508D03*
%TD*%
D38*
%TO.C,U2*%
X86703275Y-33491508D03*
X86703275Y-32221508D03*
X86703275Y-30951508D03*
X86703275Y-29681508D03*
X81763275Y-29681508D03*
X81763275Y-30951508D03*
X81763275Y-32221508D03*
X81763275Y-33491508D03*
%TD*%
D18*
%TO.C,C76*%
X73512275Y-72652508D03*
X73512275Y-74202508D03*
%TD*%
D39*
%TO.C,R24*%
X87475912Y-49753871D03*
X88642638Y-48587145D03*
%TD*%
D40*
%TO.C,C24*%
X77583275Y-49940508D03*
X77583275Y-48040508D03*
%TD*%
D41*
%TO.C,U16*%
X62457425Y-39264508D03*
X62457425Y-37994508D03*
X62457425Y-36724508D03*
X62457425Y-35454508D03*
X57009125Y-35454508D03*
X57009125Y-36724508D03*
X57009125Y-37994508D03*
X57009125Y-39264508D03*
%TD*%
D42*
%TO.C,U6*%
X96392893Y-50907108D03*
X96746446Y-50553555D03*
X97100000Y-50200000D03*
X97453553Y-49846448D03*
X97807107Y-49492894D03*
X98160661Y-49139340D03*
X98514213Y-48785788D03*
X98867767Y-48432233D03*
X99221320Y-48078681D03*
X99574875Y-47725126D03*
D43*
X99574875Y-46805890D03*
X99221322Y-46452337D03*
X98867767Y-46098783D03*
X98514215Y-45745230D03*
X98160661Y-45391676D03*
X97807107Y-45038122D03*
X97453555Y-44684570D03*
X97100000Y-44331016D03*
X96746448Y-43977463D03*
X96392893Y-43623908D03*
D42*
X95473657Y-43623908D03*
X95120102Y-43977463D03*
X94766550Y-44331016D03*
X94412995Y-44684570D03*
X94059443Y-45038122D03*
X93705889Y-45391676D03*
X93352335Y-45745230D03*
X92998783Y-46098783D03*
X92645228Y-46452337D03*
X92291675Y-46805890D03*
D43*
X92291675Y-47725126D03*
X92645230Y-48078681D03*
X92998783Y-48432233D03*
X93352337Y-48785788D03*
X93705889Y-49139340D03*
X94059443Y-49492894D03*
X94412997Y-49846448D03*
X94766550Y-50200000D03*
X95120104Y-50553555D03*
X95473657Y-50907108D03*
%TD*%
D23*
%TO.C,J1*%
X149008955Y-70713508D03*
%TD*%
D44*
%TO.C,C90*%
X50840275Y-28977508D03*
X48940275Y-28977508D03*
%TD*%
D15*
%TO.C,CR2*%
X84340925Y-72792508D03*
X81733625Y-72792508D03*
%TD*%
D45*
%TO.C,R71*%
X134001150Y-47595508D03*
X139926150Y-47595508D03*
%TD*%
D31*
%TO.C,C14*%
X42350000Y-79175000D03*
X42350000Y-76225000D03*
%TD*%
D23*
%TO.C,J2*%
X149008955Y-61061508D03*
%TD*%
D46*
%TO.C,C22*%
X65137275Y-61248508D03*
X65137275Y-63148508D03*
%TD*%
D40*
%TO.C,C87*%
X48239275Y-52236508D03*
X48239275Y-50336508D03*
%TD*%
D30*
%TO.C,R32*%
X91539912Y-39316145D03*
X92706638Y-40482871D03*
%TD*%
D40*
%TO.C,C57*%
X59542275Y-75266508D03*
X59542275Y-73366508D03*
%TD*%
D30*
%TO.C,R29*%
X86894912Y-44003145D03*
X88061638Y-45169871D03*
%TD*%
D47*
%TO.C,J3*%
X45533275Y-65528508D03*
X45533275Y-66328508D03*
D48*
X45533275Y-67478508D03*
X45533275Y-68478508D03*
X45533275Y-68978508D03*
X45533275Y-69978508D03*
D47*
X45533275Y-71128508D03*
X45533275Y-71928508D03*
D48*
X45533275Y-70478508D03*
X45533275Y-69478508D03*
X45533275Y-67978508D03*
X45533275Y-66978508D03*
D49*
X44958275Y-64408508D03*
D50*
X40778275Y-64408508D03*
D49*
X44958275Y-73048508D03*
D50*
X40778275Y-73048508D03*
%TD*%
D29*
%TO.C,C80*%
X127558275Y-57350508D03*
X130508275Y-57350508D03*
%TD*%
D18*
%TO.C,R13*%
X72533275Y-32335508D03*
X72533275Y-33885508D03*
%TD*%
D15*
%TO.C,CR5*%
X96846625Y-73935508D03*
X99453925Y-73935508D03*
%TD*%
D29*
%TO.C,C81*%
X111768636Y-41108508D03*
X114718636Y-41108508D03*
%TD*%
D40*
%TO.C,C74*%
X58152275Y-45206508D03*
X58152275Y-43306508D03*
%TD*%
%TO.C,C72*%
X63486275Y-45206508D03*
X63486275Y-43306508D03*
%TD*%
D14*
%TO.C,R21*%
X73300274Y-45255508D03*
X73300274Y-43605508D03*
%TD*%
D16*
%TO.C,C52*%
X85663276Y-59273508D03*
X87213276Y-59273508D03*
%TD*%
D28*
%TO.C,R41*%
X68658276Y-63472508D03*
X68658276Y-65122508D03*
%TD*%
D51*
%TO.C,U9*%
X49641775Y-66508508D03*
X49641775Y-67458508D03*
X49641775Y-68408508D03*
X51916775Y-68408508D03*
X51916775Y-67458508D03*
X51916775Y-66508508D03*
%TD*%
D52*
%TO.C,C40*%
X102069283Y-53274516D03*
X100973267Y-52178500D03*
%TD*%
D45*
%TO.C,R74*%
X134001150Y-30792508D03*
X139926150Y-30792508D03*
%TD*%
D19*
%TO.C,Q1*%
X114713650Y-67712508D03*
D20*
X114713650Y-66442508D03*
X114713650Y-65172508D03*
X114713650Y-63902508D03*
D21*
X110904375Y-63902508D03*
D22*
X109078150Y-65172508D03*
X109078150Y-66442508D03*
X109078150Y-67712508D03*
%TD*%
D26*
%TO.C,R72*%
X118499636Y-58136508D03*
X118499636Y-52036508D03*
%TD*%
D28*
%TO.C,R67*%
X56501275Y-52420508D03*
X56501275Y-54070508D03*
%TD*%
D53*
%TO.C,SW1*%
X62231275Y-71177508D03*
X71331275Y-71177508D03*
X62231275Y-75677508D03*
X71331275Y-75677508D03*
%TD*%
D26*
%TO.C,R22*%
X134733275Y-74436508D03*
X134733275Y-68336508D03*
%TD*%
D39*
%TO.C,R23*%
X88618912Y-50896871D03*
X89785638Y-49730145D03*
%TD*%
D29*
%TO.C,C79*%
X111758275Y-58186508D03*
X114708275Y-58186508D03*
%TD*%
D19*
%TO.C,Q4*%
X130188025Y-33891508D03*
D20*
X130188025Y-32621508D03*
X130188025Y-31351508D03*
X130188025Y-30081508D03*
D21*
X126378750Y-30081508D03*
D22*
X124552525Y-31351508D03*
X124552525Y-32621508D03*
X124552525Y-33891508D03*
%TD*%
D28*
%TO.C,R42*%
X70887274Y-63345508D03*
X70887274Y-64995508D03*
%TD*%
D29*
%TO.C,C77*%
X111658275Y-74886508D03*
X114608275Y-74886508D03*
%TD*%
D40*
%TO.C,C21*%
X63105275Y-48924508D03*
X63105275Y-47024508D03*
%TD*%
D14*
%TO.C,R43*%
X57764275Y-75141508D03*
X57764275Y-73491508D03*
%TD*%
D26*
%TO.C,R73*%
X134599275Y-57236508D03*
X134599275Y-51136508D03*
%TD*%
D27*
%TO.C,R77*%
X58660275Y-54070508D03*
X60310275Y-54070508D03*
%TD*%
D19*
%TO.C,Q6*%
X129988025Y-67691508D03*
D20*
X129988025Y-66421508D03*
X129988025Y-65151508D03*
X129988025Y-63881508D03*
D21*
X126178750Y-63881508D03*
D22*
X124352525Y-65151508D03*
X124352525Y-66421508D03*
X124352525Y-67691508D03*
%TD*%
D44*
%TO.C,C46*%
X105577275Y-64664508D03*
X103677275Y-64664508D03*
%TD*%
D29*
%TO.C,C78*%
X127458275Y-74586508D03*
X130408275Y-74586508D03*
%TD*%
D40*
%TO.C,C75*%
X65645275Y-45206508D03*
X65645275Y-43306508D03*
%TD*%
D37*
%TO.C,R70*%
X60310275Y-52546508D03*
X58660275Y-52546508D03*
%TD*%
D28*
%TO.C,R80*%
X71833276Y-43589508D03*
X71833276Y-45239508D03*
%TD*%
D54*
%TO.C,FL1*%
X78646275Y-32086508D03*
X78646275Y-31086508D03*
X75596275Y-31086508D03*
X75596275Y-32086508D03*
%TD*%
D14*
%TO.C,R68*%
X56501275Y-50768508D03*
X56501275Y-49118508D03*
%TD*%
D44*
%TO.C,C45*%
X105577275Y-67674508D03*
X103677275Y-67674508D03*
%TD*%
D18*
%TO.C,C2*%
X86684275Y-55112508D03*
X86684275Y-56662508D03*
%TD*%
D26*
%TO.C,R75*%
X118704636Y-41237508D03*
X118704636Y-35137508D03*
%TD*%
D17*
%TO.C,C43*%
X92835267Y-54934516D03*
X93931283Y-53838500D03*
%TD*%
D19*
%TO.C,Q5*%
X130116525Y-50791508D03*
D20*
X130116525Y-49521508D03*
X130116525Y-48251508D03*
X130116525Y-46981508D03*
D21*
X126307250Y-46981508D03*
D22*
X124481025Y-48251508D03*
X124481025Y-49521508D03*
X124481025Y-50791508D03*
%TD*%
D55*
%TO.C,Y2*%
X83263276Y-61793508D03*
X83263276Y-59293508D03*
%TD*%
D27*
%TO.C,R12*%
X89505275Y-29046508D03*
X91155275Y-29046508D03*
%TD*%
%TO.C,R28*%
X83170275Y-49170508D03*
X84820275Y-49170508D03*
%TD*%
D14*
%TO.C,R39*%
X47477275Y-67013508D03*
X47477275Y-65363508D03*
%TD*%
D23*
%TO.C,J9*%
X45064275Y-44471508D03*
%TD*%
D30*
%TO.C,R31*%
X89329275Y-41602145D03*
X90496001Y-42768871D03*
%TD*%
D15*
%TO.C,CR6*%
X48586625Y-58441508D03*
X51193925Y-58441508D03*
%TD*%
D28*
%TO.C,R82*%
X78973275Y-60156508D03*
X78973275Y-61806508D03*
%TD*%
D34*
%TO.C,C13*%
X72411274Y-64961508D03*
X72411274Y-63411508D03*
%TD*%
D30*
%TO.C,R30*%
X88186275Y-42745145D03*
X89353001Y-43911871D03*
%TD*%
D26*
%TO.C,R8*%
X118433275Y-74936508D03*
X118433275Y-68836508D03*
%TD*%
D46*
%TO.C,C20*%
X62978275Y-61248508D03*
X62978275Y-63148508D03*
%TD*%
D37*
%TO.C,R69*%
X60310275Y-51022508D03*
X58660275Y-51022508D03*
%TD*%
D56*
%TO.C,C38*%
X98055524Y-55229757D03*
X99399026Y-56573259D03*
%TD*%
D57*
%TO.C,R9*%
X45680000Y-79182500D03*
X45680000Y-76257500D03*
%TD*%
D28*
%TO.C,R16*%
X76306275Y-43605508D03*
X76306275Y-45255508D03*
%TD*%
D24*
%TO.C,C18*%
X75652274Y-66385508D03*
X77552274Y-66385508D03*
%TD*%
D40*
%TO.C,C23*%
X79615275Y-49940508D03*
X79615275Y-48040508D03*
%TD*%
D28*
%TO.C,R38*%
X47477275Y-70443508D03*
X47477275Y-72093508D03*
%TD*%
D45*
%TO.C,R7*%
X134001150Y-64719508D03*
X139926150Y-64719508D03*
%TD*%
D40*
%TO.C,C89*%
X64733275Y-37809508D03*
X64733275Y-35909508D03*
%TD*%
D58*
%TO.C,C39*%
X101802258Y-55801491D03*
X99716292Y-53715525D03*
%TD*%
D40*
%TO.C,C19*%
X65264275Y-48924508D03*
X65264275Y-47024508D03*
%TD*%
D59*
%TO.C,U4*%
X76983274Y-58836508D03*
X76983274Y-58336509D03*
X76983274Y-57836508D03*
X76983274Y-57336509D03*
X76983274Y-56836507D03*
X76983274Y-56336508D03*
X76983274Y-55836509D03*
X76983274Y-55336508D03*
X76983274Y-54836508D03*
X76983274Y-54336507D03*
X76983274Y-53836508D03*
X76983274Y-53336509D03*
X76983274Y-52836507D03*
X76983274Y-52336508D03*
X76983274Y-51836507D03*
X76983274Y-51336508D03*
D60*
X74983275Y-49336509D03*
X74483276Y-49336509D03*
X73983275Y-49336509D03*
X73483276Y-49336509D03*
X72983274Y-49336509D03*
X72483275Y-49336509D03*
X71983276Y-49336509D03*
X71483275Y-49336509D03*
X70983275Y-49336509D03*
X70483274Y-49336509D03*
X69983275Y-49336509D03*
X69483276Y-49336509D03*
X68983274Y-49336509D03*
X68483275Y-49336509D03*
X67983274Y-49336509D03*
X67483275Y-49336509D03*
D59*
X65483276Y-51336508D03*
X65483276Y-51836507D03*
X65483276Y-52336508D03*
X65483276Y-52836507D03*
X65483276Y-53336509D03*
X65483276Y-53836508D03*
X65483276Y-54336507D03*
X65483276Y-54836508D03*
X65483276Y-55336508D03*
X65483276Y-55836509D03*
X65483276Y-56336508D03*
X65483276Y-56836507D03*
X65483276Y-57336509D03*
X65483276Y-57836508D03*
X65483276Y-58336509D03*
X65483276Y-58836508D03*
D60*
X67483275Y-60836507D03*
X67983274Y-60836507D03*
X68483275Y-60836507D03*
X68983274Y-60836507D03*
X69483276Y-60836507D03*
X69983275Y-60836507D03*
X70483274Y-60836507D03*
X70983275Y-60836507D03*
X71483275Y-60836507D03*
X71983276Y-60836507D03*
X72483275Y-60836507D03*
X72983274Y-60836507D03*
X73483276Y-60836507D03*
X73983275Y-60836507D03*
X74483276Y-60836507D03*
X74983275Y-60836507D03*
%TD*%
D23*
%TO.C,J6*%
X45064275Y-35962508D03*
%TD*%
D61*
%TO.C,C42*%
X97751283Y-52686500D03*
X96655267Y-53782516D03*
%TD*%
D24*
%TO.C,C31*%
X73883275Y-70686508D03*
X75783275Y-70686508D03*
%TD*%
M02*
