%TF.GenerationSoftware,KiCad,Pcbnew,10.0.5*%
%TF.CreationDate,2026-08-22T17:45:41+08:00*%
%TF.ProjectId,BLDC_MC_V1.0,424c4443-5f4d-4435-9f56-312e302e6b69,V1.0*%
%TF.SameCoordinates,Original*%
%TF.FileFunction,Other,User*%
%FSLAX46Y46*%
G04 Gerber Fmt 4.6, Leading zero omitted, Abs format (unit mm)*
G04 Created by KiCad (PCBNEW 10.0.5) date 2026-08-22 17:45:41*
%MOMM*%
%LPD*%
G01*
G04 APERTURE LIST*
%ADD10C,0.150000*%
%ADD11C,0.300000*%
%ADD12C,0.400000*%
%ADD13C,0.050000*%
%ADD14C,0.152400*%
%ADD15C,0.100000*%
G04 APERTURE END LIST*
D10*
X177002200Y-166007200D02*
X285002200Y-166007200D01*
X285002200Y-198007200D01*
X177002200Y-198007200D01*
X177002200Y-166007200D01*
X10000000Y-10000000D02*
X287002200Y-10000000D01*
X287002200Y-200007200D01*
X10000000Y-200007200D01*
X10000000Y-10000000D01*
X12000000Y-12000000D02*
X285002200Y-12000000D01*
X285002200Y-198007200D01*
X12000000Y-198007200D01*
X12000000Y-12000000D01*
X60000000Y-12000000D02*
X60000000Y-10000000D01*
X110000000Y-12000000D02*
X110000000Y-10000000D01*
X160000000Y-12000000D02*
X160000000Y-10000000D01*
X210000000Y-12000000D02*
X210000000Y-10000000D01*
X260000000Y-12000000D02*
X260000000Y-10000000D01*
X36089160Y-11593604D02*
X35346303Y-11593604D01*
X35717731Y-11593604D02*
X35717731Y-10293604D01*
X35717731Y-10293604D02*
X35593922Y-10479319D01*
X35593922Y-10479319D02*
X35470112Y-10603128D01*
X35470112Y-10603128D02*
X35346303Y-10665033D01*
X85346303Y-10417414D02*
X85408207Y-10355509D01*
X85408207Y-10355509D02*
X85532017Y-10293604D01*
X85532017Y-10293604D02*
X85841541Y-10293604D01*
X85841541Y-10293604D02*
X85965350Y-10355509D01*
X85965350Y-10355509D02*
X86027255Y-10417414D01*
X86027255Y-10417414D02*
X86089160Y-10541223D01*
X86089160Y-10541223D02*
X86089160Y-10665033D01*
X86089160Y-10665033D02*
X86027255Y-10850747D01*
X86027255Y-10850747D02*
X85284398Y-11593604D01*
X85284398Y-11593604D02*
X86089160Y-11593604D01*
X135284398Y-10293604D02*
X136089160Y-10293604D01*
X136089160Y-10293604D02*
X135655826Y-10788842D01*
X135655826Y-10788842D02*
X135841541Y-10788842D01*
X135841541Y-10788842D02*
X135965350Y-10850747D01*
X135965350Y-10850747D02*
X136027255Y-10912652D01*
X136027255Y-10912652D02*
X136089160Y-11036461D01*
X136089160Y-11036461D02*
X136089160Y-11345985D01*
X136089160Y-11345985D02*
X136027255Y-11469795D01*
X136027255Y-11469795D02*
X135965350Y-11531700D01*
X135965350Y-11531700D02*
X135841541Y-11593604D01*
X135841541Y-11593604D02*
X135470112Y-11593604D01*
X135470112Y-11593604D02*
X135346303Y-11531700D01*
X135346303Y-11531700D02*
X135284398Y-11469795D01*
X185965350Y-10726938D02*
X185965350Y-11593604D01*
X185655826Y-10231700D02*
X185346303Y-11160271D01*
X185346303Y-11160271D02*
X186151064Y-11160271D01*
X236027255Y-10293604D02*
X235408207Y-10293604D01*
X235408207Y-10293604D02*
X235346303Y-10912652D01*
X235346303Y-10912652D02*
X235408207Y-10850747D01*
X235408207Y-10850747D02*
X235532017Y-10788842D01*
X235532017Y-10788842D02*
X235841541Y-10788842D01*
X235841541Y-10788842D02*
X235965350Y-10850747D01*
X235965350Y-10850747D02*
X236027255Y-10912652D01*
X236027255Y-10912652D02*
X236089160Y-11036461D01*
X236089160Y-11036461D02*
X236089160Y-11345985D01*
X236089160Y-11345985D02*
X236027255Y-11469795D01*
X236027255Y-11469795D02*
X235965350Y-11531700D01*
X235965350Y-11531700D02*
X235841541Y-11593604D01*
X235841541Y-11593604D02*
X235532017Y-11593604D01*
X235532017Y-11593604D02*
X235408207Y-11531700D01*
X235408207Y-11531700D02*
X235346303Y-11469795D01*
X285965350Y-10293604D02*
X285717731Y-10293604D01*
X285717731Y-10293604D02*
X285593922Y-10355509D01*
X285593922Y-10355509D02*
X285532017Y-10417414D01*
X285532017Y-10417414D02*
X285408207Y-10603128D01*
X285408207Y-10603128D02*
X285346303Y-10850747D01*
X285346303Y-10850747D02*
X285346303Y-11345985D01*
X285346303Y-11345985D02*
X285408207Y-11469795D01*
X285408207Y-11469795D02*
X285470112Y-11531700D01*
X285470112Y-11531700D02*
X285593922Y-11593604D01*
X285593922Y-11593604D02*
X285841541Y-11593604D01*
X285841541Y-11593604D02*
X285965350Y-11531700D01*
X285965350Y-11531700D02*
X286027255Y-11469795D01*
X286027255Y-11469795D02*
X286089160Y-11345985D01*
X286089160Y-11345985D02*
X286089160Y-11036461D01*
X286089160Y-11036461D02*
X286027255Y-10912652D01*
X286027255Y-10912652D02*
X285965350Y-10850747D01*
X285965350Y-10850747D02*
X285841541Y-10788842D01*
X285841541Y-10788842D02*
X285593922Y-10788842D01*
X285593922Y-10788842D02*
X285470112Y-10850747D01*
X285470112Y-10850747D02*
X285408207Y-10912652D01*
X285408207Y-10912652D02*
X285346303Y-11036461D01*
X60000000Y-198007200D02*
X60000000Y-200007200D01*
X110000000Y-198007200D02*
X110000000Y-200007200D01*
X160000000Y-198007200D02*
X160000000Y-200007200D01*
X210000000Y-198007200D02*
X210000000Y-200007200D01*
X260000000Y-198007200D02*
X260000000Y-200007200D01*
X36089160Y-199600804D02*
X35346303Y-199600804D01*
X35717731Y-199600804D02*
X35717731Y-198300804D01*
X35717731Y-198300804D02*
X35593922Y-198486519D01*
X35593922Y-198486519D02*
X35470112Y-198610328D01*
X35470112Y-198610328D02*
X35346303Y-198672233D01*
X85346303Y-198424614D02*
X85408207Y-198362709D01*
X85408207Y-198362709D02*
X85532017Y-198300804D01*
X85532017Y-198300804D02*
X85841541Y-198300804D01*
X85841541Y-198300804D02*
X85965350Y-198362709D01*
X85965350Y-198362709D02*
X86027255Y-198424614D01*
X86027255Y-198424614D02*
X86089160Y-198548423D01*
X86089160Y-198548423D02*
X86089160Y-198672233D01*
X86089160Y-198672233D02*
X86027255Y-198857947D01*
X86027255Y-198857947D02*
X85284398Y-199600804D01*
X85284398Y-199600804D02*
X86089160Y-199600804D01*
X135284398Y-198300804D02*
X136089160Y-198300804D01*
X136089160Y-198300804D02*
X135655826Y-198796042D01*
X135655826Y-198796042D02*
X135841541Y-198796042D01*
X135841541Y-198796042D02*
X135965350Y-198857947D01*
X135965350Y-198857947D02*
X136027255Y-198919852D01*
X136027255Y-198919852D02*
X136089160Y-199043661D01*
X136089160Y-199043661D02*
X136089160Y-199353185D01*
X136089160Y-199353185D02*
X136027255Y-199476995D01*
X136027255Y-199476995D02*
X135965350Y-199538900D01*
X135965350Y-199538900D02*
X135841541Y-199600804D01*
X135841541Y-199600804D02*
X135470112Y-199600804D01*
X135470112Y-199600804D02*
X135346303Y-199538900D01*
X135346303Y-199538900D02*
X135284398Y-199476995D01*
X185965350Y-198734138D02*
X185965350Y-199600804D01*
X185655826Y-198238900D02*
X185346303Y-199167471D01*
X185346303Y-199167471D02*
X186151064Y-199167471D01*
X236027255Y-198300804D02*
X235408207Y-198300804D01*
X235408207Y-198300804D02*
X235346303Y-198919852D01*
X235346303Y-198919852D02*
X235408207Y-198857947D01*
X235408207Y-198857947D02*
X235532017Y-198796042D01*
X235532017Y-198796042D02*
X235841541Y-198796042D01*
X235841541Y-198796042D02*
X235965350Y-198857947D01*
X235965350Y-198857947D02*
X236027255Y-198919852D01*
X236027255Y-198919852D02*
X236089160Y-199043661D01*
X236089160Y-199043661D02*
X236089160Y-199353185D01*
X236089160Y-199353185D02*
X236027255Y-199476995D01*
X236027255Y-199476995D02*
X235965350Y-199538900D01*
X235965350Y-199538900D02*
X235841541Y-199600804D01*
X235841541Y-199600804D02*
X235532017Y-199600804D01*
X235532017Y-199600804D02*
X235408207Y-199538900D01*
X235408207Y-199538900D02*
X235346303Y-199476995D01*
X285965350Y-198300804D02*
X285717731Y-198300804D01*
X285717731Y-198300804D02*
X285593922Y-198362709D01*
X285593922Y-198362709D02*
X285532017Y-198424614D01*
X285532017Y-198424614D02*
X285408207Y-198610328D01*
X285408207Y-198610328D02*
X285346303Y-198857947D01*
X285346303Y-198857947D02*
X285346303Y-199353185D01*
X285346303Y-199353185D02*
X285408207Y-199476995D01*
X285408207Y-199476995D02*
X285470112Y-199538900D01*
X285470112Y-199538900D02*
X285593922Y-199600804D01*
X285593922Y-199600804D02*
X285841541Y-199600804D01*
X285841541Y-199600804D02*
X285965350Y-199538900D01*
X285965350Y-199538900D02*
X286027255Y-199476995D01*
X286027255Y-199476995D02*
X286089160Y-199353185D01*
X286089160Y-199353185D02*
X286089160Y-199043661D01*
X286089160Y-199043661D02*
X286027255Y-198919852D01*
X286027255Y-198919852D02*
X285965350Y-198857947D01*
X285965350Y-198857947D02*
X285841541Y-198796042D01*
X285841541Y-198796042D02*
X285593922Y-198796042D01*
X285593922Y-198796042D02*
X285470112Y-198857947D01*
X285470112Y-198857947D02*
X285408207Y-198919852D01*
X285408207Y-198919852D02*
X285346303Y-199043661D01*
X10000000Y-60000000D02*
X12000000Y-60000000D01*
X10000000Y-110000000D02*
X12000000Y-110000000D01*
X10000000Y-160000000D02*
X12000000Y-160000000D01*
X10690476Y-35222176D02*
X11309523Y-35222176D01*
X10566666Y-35593604D02*
X10999999Y-34293604D01*
X10999999Y-34293604D02*
X11433333Y-35593604D01*
X11092857Y-84912652D02*
X11278571Y-84974557D01*
X11278571Y-84974557D02*
X11340476Y-85036461D01*
X11340476Y-85036461D02*
X11402380Y-85160271D01*
X11402380Y-85160271D02*
X11402380Y-85345985D01*
X11402380Y-85345985D02*
X11340476Y-85469795D01*
X11340476Y-85469795D02*
X11278571Y-85531700D01*
X11278571Y-85531700D02*
X11154761Y-85593604D01*
X11154761Y-85593604D02*
X10659523Y-85593604D01*
X10659523Y-85593604D02*
X10659523Y-84293604D01*
X10659523Y-84293604D02*
X11092857Y-84293604D01*
X11092857Y-84293604D02*
X11216666Y-84355509D01*
X11216666Y-84355509D02*
X11278571Y-84417414D01*
X11278571Y-84417414D02*
X11340476Y-84541223D01*
X11340476Y-84541223D02*
X11340476Y-84665033D01*
X11340476Y-84665033D02*
X11278571Y-84788842D01*
X11278571Y-84788842D02*
X11216666Y-84850747D01*
X11216666Y-84850747D02*
X11092857Y-84912652D01*
X11092857Y-84912652D02*
X10659523Y-84912652D01*
X11402380Y-135469795D02*
X11340476Y-135531700D01*
X11340476Y-135531700D02*
X11154761Y-135593604D01*
X11154761Y-135593604D02*
X11030952Y-135593604D01*
X11030952Y-135593604D02*
X10845238Y-135531700D01*
X10845238Y-135531700D02*
X10721428Y-135407890D01*
X10721428Y-135407890D02*
X10659523Y-135284080D01*
X10659523Y-135284080D02*
X10597619Y-135036461D01*
X10597619Y-135036461D02*
X10597619Y-134850747D01*
X10597619Y-134850747D02*
X10659523Y-134603128D01*
X10659523Y-134603128D02*
X10721428Y-134479319D01*
X10721428Y-134479319D02*
X10845238Y-134355509D01*
X10845238Y-134355509D02*
X11030952Y-134293604D01*
X11030952Y-134293604D02*
X11154761Y-134293604D01*
X11154761Y-134293604D02*
X11340476Y-134355509D01*
X11340476Y-134355509D02*
X11402380Y-134417414D01*
X10659523Y-185593604D02*
X10659523Y-184293604D01*
X10659523Y-184293604D02*
X10969047Y-184293604D01*
X10969047Y-184293604D02*
X11154761Y-184355509D01*
X11154761Y-184355509D02*
X11278571Y-184479319D01*
X11278571Y-184479319D02*
X11340476Y-184603128D01*
X11340476Y-184603128D02*
X11402380Y-184850747D01*
X11402380Y-184850747D02*
X11402380Y-185036461D01*
X11402380Y-185036461D02*
X11340476Y-185284080D01*
X11340476Y-185284080D02*
X11278571Y-185407890D01*
X11278571Y-185407890D02*
X11154761Y-185531700D01*
X11154761Y-185531700D02*
X10969047Y-185593604D01*
X10969047Y-185593604D02*
X10659523Y-185593604D01*
X287002200Y-60000000D02*
X285002200Y-60000000D01*
X287002200Y-110000000D02*
X285002200Y-110000000D01*
X287002200Y-160000000D02*
X285002200Y-160000000D01*
X285692676Y-35222176D02*
X286311723Y-35222176D01*
X285568866Y-35593604D02*
X286002199Y-34293604D01*
X286002199Y-34293604D02*
X286435533Y-35593604D01*
X286095057Y-84912652D02*
X286280771Y-84974557D01*
X286280771Y-84974557D02*
X286342676Y-85036461D01*
X286342676Y-85036461D02*
X286404580Y-85160271D01*
X286404580Y-85160271D02*
X286404580Y-85345985D01*
X286404580Y-85345985D02*
X286342676Y-85469795D01*
X286342676Y-85469795D02*
X286280771Y-85531700D01*
X286280771Y-85531700D02*
X286156961Y-85593604D01*
X286156961Y-85593604D02*
X285661723Y-85593604D01*
X285661723Y-85593604D02*
X285661723Y-84293604D01*
X285661723Y-84293604D02*
X286095057Y-84293604D01*
X286095057Y-84293604D02*
X286218866Y-84355509D01*
X286218866Y-84355509D02*
X286280771Y-84417414D01*
X286280771Y-84417414D02*
X286342676Y-84541223D01*
X286342676Y-84541223D02*
X286342676Y-84665033D01*
X286342676Y-84665033D02*
X286280771Y-84788842D01*
X286280771Y-84788842D02*
X286218866Y-84850747D01*
X286218866Y-84850747D02*
X286095057Y-84912652D01*
X286095057Y-84912652D02*
X285661723Y-84912652D01*
X286404580Y-135469795D02*
X286342676Y-135531700D01*
X286342676Y-135531700D02*
X286156961Y-135593604D01*
X286156961Y-135593604D02*
X286033152Y-135593604D01*
X286033152Y-135593604D02*
X285847438Y-135531700D01*
X285847438Y-135531700D02*
X285723628Y-135407890D01*
X285723628Y-135407890D02*
X285661723Y-135284080D01*
X285661723Y-135284080D02*
X285599819Y-135036461D01*
X285599819Y-135036461D02*
X285599819Y-134850747D01*
X285599819Y-134850747D02*
X285661723Y-134603128D01*
X285661723Y-134603128D02*
X285723628Y-134479319D01*
X285723628Y-134479319D02*
X285847438Y-134355509D01*
X285847438Y-134355509D02*
X286033152Y-134293604D01*
X286033152Y-134293604D02*
X286156961Y-134293604D01*
X286156961Y-134293604D02*
X286342676Y-134355509D01*
X286342676Y-134355509D02*
X286404580Y-134417414D01*
X285661723Y-185593604D02*
X285661723Y-184293604D01*
X285661723Y-184293604D02*
X285971247Y-184293604D01*
X285971247Y-184293604D02*
X286156961Y-184355509D01*
X286156961Y-184355509D02*
X286280771Y-184479319D01*
X286280771Y-184479319D02*
X286342676Y-184603128D01*
X286342676Y-184603128D02*
X286404580Y-184850747D01*
X286404580Y-184850747D02*
X286404580Y-185036461D01*
X286404580Y-185036461D02*
X286342676Y-185284080D01*
X286342676Y-185284080D02*
X286280771Y-185407890D01*
X286280771Y-185407890D02*
X286156961Y-185531700D01*
X286156961Y-185531700D02*
X285971247Y-185593604D01*
X285971247Y-185593604D02*
X285661723Y-185593604D01*
X200458026Y-193793328D02*
X200458026Y-192293328D01*
X200458026Y-192293328D02*
X200815169Y-192293328D01*
X200815169Y-192293328D02*
X201029455Y-192364757D01*
X201029455Y-192364757D02*
X201172312Y-192507614D01*
X201172312Y-192507614D02*
X201243741Y-192650471D01*
X201243741Y-192650471D02*
X201315169Y-192936185D01*
X201315169Y-192936185D02*
X201315169Y-193150471D01*
X201315169Y-193150471D02*
X201243741Y-193436185D01*
X201243741Y-193436185D02*
X201172312Y-193579042D01*
X201172312Y-193579042D02*
X201029455Y-193721900D01*
X201029455Y-193721900D02*
X200815169Y-193793328D01*
X200815169Y-193793328D02*
X200458026Y-193793328D01*
X202600884Y-193793328D02*
X202600884Y-193007614D01*
X202600884Y-193007614D02*
X202529455Y-192864757D01*
X202529455Y-192864757D02*
X202386598Y-192793328D01*
X202386598Y-192793328D02*
X202100884Y-192793328D01*
X202100884Y-192793328D02*
X201958026Y-192864757D01*
X202600884Y-193721900D02*
X202458026Y-193793328D01*
X202458026Y-193793328D02*
X202100884Y-193793328D01*
X202100884Y-193793328D02*
X201958026Y-193721900D01*
X201958026Y-193721900D02*
X201886598Y-193579042D01*
X201886598Y-193579042D02*
X201886598Y-193436185D01*
X201886598Y-193436185D02*
X201958026Y-193293328D01*
X201958026Y-193293328D02*
X202100884Y-193221900D01*
X202100884Y-193221900D02*
X202458026Y-193221900D01*
X202458026Y-193221900D02*
X202600884Y-193150471D01*
X203100884Y-192793328D02*
X203672312Y-192793328D01*
X203315169Y-192293328D02*
X203315169Y-193579042D01*
X203315169Y-193579042D02*
X203386598Y-193721900D01*
X203386598Y-193721900D02*
X203529455Y-193793328D01*
X203529455Y-193793328D02*
X203672312Y-193793328D01*
X204743741Y-193721900D02*
X204600884Y-193793328D01*
X204600884Y-193793328D02*
X204315170Y-193793328D01*
X204315170Y-193793328D02*
X204172312Y-193721900D01*
X204172312Y-193721900D02*
X204100884Y-193579042D01*
X204100884Y-193579042D02*
X204100884Y-193007614D01*
X204100884Y-193007614D02*
X204172312Y-192864757D01*
X204172312Y-192864757D02*
X204315170Y-192793328D01*
X204315170Y-192793328D02*
X204600884Y-192793328D01*
X204600884Y-192793328D02*
X204743741Y-192864757D01*
X204743741Y-192864757D02*
X204815170Y-193007614D01*
X204815170Y-193007614D02*
X204815170Y-193150471D01*
X204815170Y-193150471D02*
X204100884Y-193293328D01*
X205458026Y-193650471D02*
X205529455Y-193721900D01*
X205529455Y-193721900D02*
X205458026Y-193793328D01*
X205458026Y-193793328D02*
X205386598Y-193721900D01*
X205386598Y-193721900D02*
X205458026Y-193650471D01*
X205458026Y-193650471D02*
X205458026Y-193793328D01*
X205458026Y-192864757D02*
X205529455Y-192936185D01*
X205529455Y-192936185D02*
X205458026Y-193007614D01*
X205458026Y-193007614D02*
X205386598Y-192936185D01*
X205386598Y-192936185D02*
X205458026Y-192864757D01*
X205458026Y-192864757D02*
X205458026Y-193007614D01*
X207243741Y-192436185D02*
X207315169Y-192364757D01*
X207315169Y-192364757D02*
X207458027Y-192293328D01*
X207458027Y-192293328D02*
X207815169Y-192293328D01*
X207815169Y-192293328D02*
X207958027Y-192364757D01*
X207958027Y-192364757D02*
X208029455Y-192436185D01*
X208029455Y-192436185D02*
X208100884Y-192579042D01*
X208100884Y-192579042D02*
X208100884Y-192721900D01*
X208100884Y-192721900D02*
X208029455Y-192936185D01*
X208029455Y-192936185D02*
X207172312Y-193793328D01*
X207172312Y-193793328D02*
X208100884Y-193793328D01*
X209029455Y-192293328D02*
X209172312Y-192293328D01*
X209172312Y-192293328D02*
X209315169Y-192364757D01*
X209315169Y-192364757D02*
X209386598Y-192436185D01*
X209386598Y-192436185D02*
X209458026Y-192579042D01*
X209458026Y-192579042D02*
X209529455Y-192864757D01*
X209529455Y-192864757D02*
X209529455Y-193221900D01*
X209529455Y-193221900D02*
X209458026Y-193507614D01*
X209458026Y-193507614D02*
X209386598Y-193650471D01*
X209386598Y-193650471D02*
X209315169Y-193721900D01*
X209315169Y-193721900D02*
X209172312Y-193793328D01*
X209172312Y-193793328D02*
X209029455Y-193793328D01*
X209029455Y-193793328D02*
X208886598Y-193721900D01*
X208886598Y-193721900D02*
X208815169Y-193650471D01*
X208815169Y-193650471D02*
X208743740Y-193507614D01*
X208743740Y-193507614D02*
X208672312Y-193221900D01*
X208672312Y-193221900D02*
X208672312Y-192864757D01*
X208672312Y-192864757D02*
X208743740Y-192579042D01*
X208743740Y-192579042D02*
X208815169Y-192436185D01*
X208815169Y-192436185D02*
X208886598Y-192364757D01*
X208886598Y-192364757D02*
X209029455Y-192293328D01*
X210100883Y-192436185D02*
X210172311Y-192364757D01*
X210172311Y-192364757D02*
X210315169Y-192293328D01*
X210315169Y-192293328D02*
X210672311Y-192293328D01*
X210672311Y-192293328D02*
X210815169Y-192364757D01*
X210815169Y-192364757D02*
X210886597Y-192436185D01*
X210886597Y-192436185D02*
X210958026Y-192579042D01*
X210958026Y-192579042D02*
X210958026Y-192721900D01*
X210958026Y-192721900D02*
X210886597Y-192936185D01*
X210886597Y-192936185D02*
X210029454Y-193793328D01*
X210029454Y-193793328D02*
X210958026Y-193793328D01*
X212243740Y-192293328D02*
X211958025Y-192293328D01*
X211958025Y-192293328D02*
X211815168Y-192364757D01*
X211815168Y-192364757D02*
X211743740Y-192436185D01*
X211743740Y-192436185D02*
X211600882Y-192650471D01*
X211600882Y-192650471D02*
X211529454Y-192936185D01*
X211529454Y-192936185D02*
X211529454Y-193507614D01*
X211529454Y-193507614D02*
X211600882Y-193650471D01*
X211600882Y-193650471D02*
X211672311Y-193721900D01*
X211672311Y-193721900D02*
X211815168Y-193793328D01*
X211815168Y-193793328D02*
X212100882Y-193793328D01*
X212100882Y-193793328D02*
X212243740Y-193721900D01*
X212243740Y-193721900D02*
X212315168Y-193650471D01*
X212315168Y-193650471D02*
X212386597Y-193507614D01*
X212386597Y-193507614D02*
X212386597Y-193150471D01*
X212386597Y-193150471D02*
X212315168Y-193007614D01*
X212315168Y-193007614D02*
X212243740Y-192936185D01*
X212243740Y-192936185D02*
X212100882Y-192864757D01*
X212100882Y-192864757D02*
X211815168Y-192864757D01*
X211815168Y-192864757D02*
X211672311Y-192936185D01*
X211672311Y-192936185D02*
X211600882Y-193007614D01*
X211600882Y-193007614D02*
X211529454Y-193150471D01*
X213029453Y-193221900D02*
X214172311Y-193221900D01*
X215172311Y-192293328D02*
X215315168Y-192293328D01*
X215315168Y-192293328D02*
X215458025Y-192364757D01*
X215458025Y-192364757D02*
X215529454Y-192436185D01*
X215529454Y-192436185D02*
X215600882Y-192579042D01*
X215600882Y-192579042D02*
X215672311Y-192864757D01*
X215672311Y-192864757D02*
X215672311Y-193221900D01*
X215672311Y-193221900D02*
X215600882Y-193507614D01*
X215600882Y-193507614D02*
X215529454Y-193650471D01*
X215529454Y-193650471D02*
X215458025Y-193721900D01*
X215458025Y-193721900D02*
X215315168Y-193793328D01*
X215315168Y-193793328D02*
X215172311Y-193793328D01*
X215172311Y-193793328D02*
X215029454Y-193721900D01*
X215029454Y-193721900D02*
X214958025Y-193650471D01*
X214958025Y-193650471D02*
X214886596Y-193507614D01*
X214886596Y-193507614D02*
X214815168Y-193221900D01*
X214815168Y-193221900D02*
X214815168Y-192864757D01*
X214815168Y-192864757D02*
X214886596Y-192579042D01*
X214886596Y-192579042D02*
X214958025Y-192436185D01*
X214958025Y-192436185D02*
X215029454Y-192364757D01*
X215029454Y-192364757D02*
X215172311Y-192293328D01*
X216529453Y-192936185D02*
X216386596Y-192864757D01*
X216386596Y-192864757D02*
X216315167Y-192793328D01*
X216315167Y-192793328D02*
X216243739Y-192650471D01*
X216243739Y-192650471D02*
X216243739Y-192579042D01*
X216243739Y-192579042D02*
X216315167Y-192436185D01*
X216315167Y-192436185D02*
X216386596Y-192364757D01*
X216386596Y-192364757D02*
X216529453Y-192293328D01*
X216529453Y-192293328D02*
X216815167Y-192293328D01*
X216815167Y-192293328D02*
X216958025Y-192364757D01*
X216958025Y-192364757D02*
X217029453Y-192436185D01*
X217029453Y-192436185D02*
X217100882Y-192579042D01*
X217100882Y-192579042D02*
X217100882Y-192650471D01*
X217100882Y-192650471D02*
X217029453Y-192793328D01*
X217029453Y-192793328D02*
X216958025Y-192864757D01*
X216958025Y-192864757D02*
X216815167Y-192936185D01*
X216815167Y-192936185D02*
X216529453Y-192936185D01*
X216529453Y-192936185D02*
X216386596Y-193007614D01*
X216386596Y-193007614D02*
X216315167Y-193079042D01*
X216315167Y-193079042D02*
X216243739Y-193221900D01*
X216243739Y-193221900D02*
X216243739Y-193507614D01*
X216243739Y-193507614D02*
X216315167Y-193650471D01*
X216315167Y-193650471D02*
X216386596Y-193721900D01*
X216386596Y-193721900D02*
X216529453Y-193793328D01*
X216529453Y-193793328D02*
X216815167Y-193793328D01*
X216815167Y-193793328D02*
X216958025Y-193721900D01*
X216958025Y-193721900D02*
X217029453Y-193650471D01*
X217029453Y-193650471D02*
X217100882Y-193507614D01*
X217100882Y-193507614D02*
X217100882Y-193221900D01*
X217100882Y-193221900D02*
X217029453Y-193079042D01*
X217029453Y-193079042D02*
X216958025Y-193007614D01*
X216958025Y-193007614D02*
X216815167Y-192936185D01*
X217743738Y-193221900D02*
X218886596Y-193221900D01*
X220386596Y-193793328D02*
X219529453Y-193793328D01*
X219958024Y-193793328D02*
X219958024Y-192293328D01*
X219958024Y-192293328D02*
X219815167Y-192507614D01*
X219815167Y-192507614D02*
X219672310Y-192650471D01*
X219672310Y-192650471D02*
X219529453Y-192721900D01*
X221100881Y-193793328D02*
X221386595Y-193793328D01*
X221386595Y-193793328D02*
X221529452Y-193721900D01*
X221529452Y-193721900D02*
X221600881Y-193650471D01*
X221600881Y-193650471D02*
X221743738Y-193436185D01*
X221743738Y-193436185D02*
X221815167Y-193150471D01*
X221815167Y-193150471D02*
X221815167Y-192579042D01*
X221815167Y-192579042D02*
X221743738Y-192436185D01*
X221743738Y-192436185D02*
X221672310Y-192364757D01*
X221672310Y-192364757D02*
X221529452Y-192293328D01*
X221529452Y-192293328D02*
X221243738Y-192293328D01*
X221243738Y-192293328D02*
X221100881Y-192364757D01*
X221100881Y-192364757D02*
X221029452Y-192436185D01*
X221029452Y-192436185D02*
X220958024Y-192579042D01*
X220958024Y-192579042D02*
X220958024Y-192936185D01*
X220958024Y-192936185D02*
X221029452Y-193079042D01*
X221029452Y-193079042D02*
X221100881Y-193150471D01*
X221100881Y-193150471D02*
X221243738Y-193221900D01*
X221243738Y-193221900D02*
X221529452Y-193221900D01*
X221529452Y-193221900D02*
X221672310Y-193150471D01*
X221672310Y-193150471D02*
X221743738Y-193079042D01*
X221743738Y-193079042D02*
X221815167Y-192936185D01*
X177002200Y-194507200D02*
X285002200Y-194507200D01*
X178458026Y-196593328D02*
X178458026Y-195093328D01*
X179315169Y-196593328D02*
X178672312Y-195736185D01*
X179315169Y-195093328D02*
X178458026Y-195950471D01*
X179958026Y-196593328D02*
X179958026Y-195593328D01*
X179958026Y-195093328D02*
X179886598Y-195164757D01*
X179886598Y-195164757D02*
X179958026Y-195236185D01*
X179958026Y-195236185D02*
X180029455Y-195164757D01*
X180029455Y-195164757D02*
X179958026Y-195093328D01*
X179958026Y-195093328D02*
X179958026Y-195236185D01*
X181529455Y-196450471D02*
X181458027Y-196521900D01*
X181458027Y-196521900D02*
X181243741Y-196593328D01*
X181243741Y-196593328D02*
X181100884Y-196593328D01*
X181100884Y-196593328D02*
X180886598Y-196521900D01*
X180886598Y-196521900D02*
X180743741Y-196379042D01*
X180743741Y-196379042D02*
X180672312Y-196236185D01*
X180672312Y-196236185D02*
X180600884Y-195950471D01*
X180600884Y-195950471D02*
X180600884Y-195736185D01*
X180600884Y-195736185D02*
X180672312Y-195450471D01*
X180672312Y-195450471D02*
X180743741Y-195307614D01*
X180743741Y-195307614D02*
X180886598Y-195164757D01*
X180886598Y-195164757D02*
X181100884Y-195093328D01*
X181100884Y-195093328D02*
X181243741Y-195093328D01*
X181243741Y-195093328D02*
X181458027Y-195164757D01*
X181458027Y-195164757D02*
X181529455Y-195236185D01*
X182815170Y-196593328D02*
X182815170Y-195807614D01*
X182815170Y-195807614D02*
X182743741Y-195664757D01*
X182743741Y-195664757D02*
X182600884Y-195593328D01*
X182600884Y-195593328D02*
X182315170Y-195593328D01*
X182315170Y-195593328D02*
X182172312Y-195664757D01*
X182815170Y-196521900D02*
X182672312Y-196593328D01*
X182672312Y-196593328D02*
X182315170Y-196593328D01*
X182315170Y-196593328D02*
X182172312Y-196521900D01*
X182172312Y-196521900D02*
X182100884Y-196379042D01*
X182100884Y-196379042D02*
X182100884Y-196236185D01*
X182100884Y-196236185D02*
X182172312Y-196093328D01*
X182172312Y-196093328D02*
X182315170Y-196021900D01*
X182315170Y-196021900D02*
X182672312Y-196021900D01*
X182672312Y-196021900D02*
X182815170Y-195950471D01*
X184172313Y-196593328D02*
X184172313Y-195093328D01*
X184172313Y-196521900D02*
X184029455Y-196593328D01*
X184029455Y-196593328D02*
X183743741Y-196593328D01*
X183743741Y-196593328D02*
X183600884Y-196521900D01*
X183600884Y-196521900D02*
X183529455Y-196450471D01*
X183529455Y-196450471D02*
X183458027Y-196307614D01*
X183458027Y-196307614D02*
X183458027Y-195879042D01*
X183458027Y-195879042D02*
X183529455Y-195736185D01*
X183529455Y-195736185D02*
X183600884Y-195664757D01*
X183600884Y-195664757D02*
X183743741Y-195593328D01*
X183743741Y-195593328D02*
X184029455Y-195593328D01*
X184029455Y-195593328D02*
X184172313Y-195664757D01*
X186029455Y-195807614D02*
X186529455Y-195807614D01*
X186743741Y-196593328D02*
X186029455Y-196593328D01*
X186029455Y-196593328D02*
X186029455Y-195093328D01*
X186029455Y-195093328D02*
X186743741Y-195093328D01*
X187386598Y-196450471D02*
X187458027Y-196521900D01*
X187458027Y-196521900D02*
X187386598Y-196593328D01*
X187386598Y-196593328D02*
X187315170Y-196521900D01*
X187315170Y-196521900D02*
X187386598Y-196450471D01*
X187386598Y-196450471D02*
X187386598Y-196593328D01*
X188100884Y-196593328D02*
X188100884Y-195093328D01*
X188100884Y-195093328D02*
X188458027Y-195093328D01*
X188458027Y-195093328D02*
X188672313Y-195164757D01*
X188672313Y-195164757D02*
X188815170Y-195307614D01*
X188815170Y-195307614D02*
X188886599Y-195450471D01*
X188886599Y-195450471D02*
X188958027Y-195736185D01*
X188958027Y-195736185D02*
X188958027Y-195950471D01*
X188958027Y-195950471D02*
X188886599Y-196236185D01*
X188886599Y-196236185D02*
X188815170Y-196379042D01*
X188815170Y-196379042D02*
X188672313Y-196521900D01*
X188672313Y-196521900D02*
X188458027Y-196593328D01*
X188458027Y-196593328D02*
X188100884Y-196593328D01*
X189600884Y-196450471D02*
X189672313Y-196521900D01*
X189672313Y-196521900D02*
X189600884Y-196593328D01*
X189600884Y-196593328D02*
X189529456Y-196521900D01*
X189529456Y-196521900D02*
X189600884Y-196450471D01*
X189600884Y-196450471D02*
X189600884Y-196593328D01*
X190243742Y-196164757D02*
X190958028Y-196164757D01*
X190100885Y-196593328D02*
X190600885Y-195093328D01*
X190600885Y-195093328D02*
X191100885Y-196593328D01*
X191600884Y-196450471D02*
X191672313Y-196521900D01*
X191672313Y-196521900D02*
X191600884Y-196593328D01*
X191600884Y-196593328D02*
X191529456Y-196521900D01*
X191529456Y-196521900D02*
X191600884Y-196450471D01*
X191600884Y-196450471D02*
X191600884Y-196593328D01*
X194243742Y-196593328D02*
X193386599Y-196593328D01*
X193815170Y-196593328D02*
X193815170Y-195093328D01*
X193815170Y-195093328D02*
X193672313Y-195307614D01*
X193672313Y-195307614D02*
X193529456Y-195450471D01*
X193529456Y-195450471D02*
X193386599Y-195521900D01*
X195172313Y-195093328D02*
X195315170Y-195093328D01*
X195315170Y-195093328D02*
X195458027Y-195164757D01*
X195458027Y-195164757D02*
X195529456Y-195236185D01*
X195529456Y-195236185D02*
X195600884Y-195379042D01*
X195600884Y-195379042D02*
X195672313Y-195664757D01*
X195672313Y-195664757D02*
X195672313Y-196021900D01*
X195672313Y-196021900D02*
X195600884Y-196307614D01*
X195600884Y-196307614D02*
X195529456Y-196450471D01*
X195529456Y-196450471D02*
X195458027Y-196521900D01*
X195458027Y-196521900D02*
X195315170Y-196593328D01*
X195315170Y-196593328D02*
X195172313Y-196593328D01*
X195172313Y-196593328D02*
X195029456Y-196521900D01*
X195029456Y-196521900D02*
X194958027Y-196450471D01*
X194958027Y-196450471D02*
X194886598Y-196307614D01*
X194886598Y-196307614D02*
X194815170Y-196021900D01*
X194815170Y-196021900D02*
X194815170Y-195664757D01*
X194815170Y-195664757D02*
X194886598Y-195379042D01*
X194886598Y-195379042D02*
X194958027Y-195236185D01*
X194958027Y-195236185D02*
X195029456Y-195164757D01*
X195029456Y-195164757D02*
X195172313Y-195093328D01*
X196315169Y-196450471D02*
X196386598Y-196521900D01*
X196386598Y-196521900D02*
X196315169Y-196593328D01*
X196315169Y-196593328D02*
X196243741Y-196521900D01*
X196243741Y-196521900D02*
X196315169Y-196450471D01*
X196315169Y-196450471D02*
X196315169Y-196593328D01*
X197315170Y-195093328D02*
X197458027Y-195093328D01*
X197458027Y-195093328D02*
X197600884Y-195164757D01*
X197600884Y-195164757D02*
X197672313Y-195236185D01*
X197672313Y-195236185D02*
X197743741Y-195379042D01*
X197743741Y-195379042D02*
X197815170Y-195664757D01*
X197815170Y-195664757D02*
X197815170Y-196021900D01*
X197815170Y-196021900D02*
X197743741Y-196307614D01*
X197743741Y-196307614D02*
X197672313Y-196450471D01*
X197672313Y-196450471D02*
X197600884Y-196521900D01*
X197600884Y-196521900D02*
X197458027Y-196593328D01*
X197458027Y-196593328D02*
X197315170Y-196593328D01*
X197315170Y-196593328D02*
X197172313Y-196521900D01*
X197172313Y-196521900D02*
X197100884Y-196450471D01*
X197100884Y-196450471D02*
X197029455Y-196307614D01*
X197029455Y-196307614D02*
X196958027Y-196021900D01*
X196958027Y-196021900D02*
X196958027Y-195664757D01*
X196958027Y-195664757D02*
X197029455Y-195379042D01*
X197029455Y-195379042D02*
X197100884Y-195236185D01*
X197100884Y-195236185D02*
X197172313Y-195164757D01*
X197172313Y-195164757D02*
X197315170Y-195093328D01*
X198458026Y-196450471D02*
X198529455Y-196521900D01*
X198529455Y-196521900D02*
X198458026Y-196593328D01*
X198458026Y-196593328D02*
X198386598Y-196521900D01*
X198386598Y-196521900D02*
X198458026Y-196450471D01*
X198458026Y-196450471D02*
X198458026Y-196593328D01*
X199886598Y-195093328D02*
X199172312Y-195093328D01*
X199172312Y-195093328D02*
X199100884Y-195807614D01*
X199100884Y-195807614D02*
X199172312Y-195736185D01*
X199172312Y-195736185D02*
X199315170Y-195664757D01*
X199315170Y-195664757D02*
X199672312Y-195664757D01*
X199672312Y-195664757D02*
X199815170Y-195736185D01*
X199815170Y-195736185D02*
X199886598Y-195807614D01*
X199886598Y-195807614D02*
X199958027Y-195950471D01*
X199958027Y-195950471D02*
X199958027Y-196307614D01*
X199958027Y-196307614D02*
X199886598Y-196450471D01*
X199886598Y-196450471D02*
X199815170Y-196521900D01*
X199815170Y-196521900D02*
X199672312Y-196593328D01*
X199672312Y-196593328D02*
X199315170Y-196593328D01*
X199315170Y-196593328D02*
X199172312Y-196521900D01*
X199172312Y-196521900D02*
X199100884Y-196450471D01*
X177002200Y-191507200D02*
X285002200Y-191507200D01*
D11*
X264413853Y-193785528D02*
X263913853Y-193071242D01*
X263556710Y-193785528D02*
X263556710Y-192285528D01*
X263556710Y-192285528D02*
X264128139Y-192285528D01*
X264128139Y-192285528D02*
X264270996Y-192356957D01*
X264270996Y-192356957D02*
X264342425Y-192428385D01*
X264342425Y-192428385D02*
X264413853Y-192571242D01*
X264413853Y-192571242D02*
X264413853Y-192785528D01*
X264413853Y-192785528D02*
X264342425Y-192928385D01*
X264342425Y-192928385D02*
X264270996Y-192999814D01*
X264270996Y-192999814D02*
X264128139Y-193071242D01*
X264128139Y-193071242D02*
X263556710Y-193071242D01*
X265628139Y-193714100D02*
X265485282Y-193785528D01*
X265485282Y-193785528D02*
X265199568Y-193785528D01*
X265199568Y-193785528D02*
X265056710Y-193714100D01*
X265056710Y-193714100D02*
X264985282Y-193571242D01*
X264985282Y-193571242D02*
X264985282Y-192999814D01*
X264985282Y-192999814D02*
X265056710Y-192856957D01*
X265056710Y-192856957D02*
X265199568Y-192785528D01*
X265199568Y-192785528D02*
X265485282Y-192785528D01*
X265485282Y-192785528D02*
X265628139Y-192856957D01*
X265628139Y-192856957D02*
X265699568Y-192999814D01*
X265699568Y-192999814D02*
X265699568Y-193142671D01*
X265699568Y-193142671D02*
X264985282Y-193285528D01*
X266199567Y-192785528D02*
X266556710Y-193785528D01*
X266556710Y-193785528D02*
X266913853Y-192785528D01*
X267485281Y-193642671D02*
X267556710Y-193714100D01*
X267556710Y-193714100D02*
X267485281Y-193785528D01*
X267485281Y-193785528D02*
X267413853Y-193714100D01*
X267413853Y-193714100D02*
X267485281Y-193642671D01*
X267485281Y-193642671D02*
X267485281Y-193785528D01*
X267485281Y-192856957D02*
X267556710Y-192928385D01*
X267556710Y-192928385D02*
X267485281Y-192999814D01*
X267485281Y-192999814D02*
X267413853Y-192928385D01*
X267413853Y-192928385D02*
X267485281Y-192856957D01*
X267485281Y-192856957D02*
X267485281Y-192999814D01*
X269128139Y-192285528D02*
X269628139Y-193785528D01*
X269628139Y-193785528D02*
X270128139Y-192285528D01*
X271413853Y-193785528D02*
X270556710Y-193785528D01*
X270985281Y-193785528D02*
X270985281Y-192285528D01*
X270985281Y-192285528D02*
X270842424Y-192499814D01*
X270842424Y-192499814D02*
X270699567Y-192642671D01*
X270699567Y-192642671D02*
X270556710Y-192714100D01*
X272056709Y-193642671D02*
X272128138Y-193714100D01*
X272128138Y-193714100D02*
X272056709Y-193785528D01*
X272056709Y-193785528D02*
X271985281Y-193714100D01*
X271985281Y-193714100D02*
X272056709Y-193642671D01*
X272056709Y-193642671D02*
X272056709Y-193785528D01*
X273056710Y-192285528D02*
X273199567Y-192285528D01*
X273199567Y-192285528D02*
X273342424Y-192356957D01*
X273342424Y-192356957D02*
X273413853Y-192428385D01*
X273413853Y-192428385D02*
X273485281Y-192571242D01*
X273485281Y-192571242D02*
X273556710Y-192856957D01*
X273556710Y-192856957D02*
X273556710Y-193214100D01*
X273556710Y-193214100D02*
X273485281Y-193499814D01*
X273485281Y-193499814D02*
X273413853Y-193642671D01*
X273413853Y-193642671D02*
X273342424Y-193714100D01*
X273342424Y-193714100D02*
X273199567Y-193785528D01*
X273199567Y-193785528D02*
X273056710Y-193785528D01*
X273056710Y-193785528D02*
X272913853Y-193714100D01*
X272913853Y-193714100D02*
X272842424Y-193642671D01*
X272842424Y-193642671D02*
X272770995Y-193499814D01*
X272770995Y-193499814D02*
X272699567Y-193214100D01*
X272699567Y-193214100D02*
X272699567Y-192856957D01*
X272699567Y-192856957D02*
X272770995Y-192571242D01*
X272770995Y-192571242D02*
X272842424Y-192428385D01*
X272842424Y-192428385D02*
X272913853Y-192356957D01*
X272913853Y-192356957D02*
X273056710Y-192285528D01*
D10*
X178386598Y-193721900D02*
X178600884Y-193793328D01*
X178600884Y-193793328D02*
X178958026Y-193793328D01*
X178958026Y-193793328D02*
X179100884Y-193721900D01*
X179100884Y-193721900D02*
X179172312Y-193650471D01*
X179172312Y-193650471D02*
X179243741Y-193507614D01*
X179243741Y-193507614D02*
X179243741Y-193364757D01*
X179243741Y-193364757D02*
X179172312Y-193221900D01*
X179172312Y-193221900D02*
X179100884Y-193150471D01*
X179100884Y-193150471D02*
X178958026Y-193079042D01*
X178958026Y-193079042D02*
X178672312Y-193007614D01*
X178672312Y-193007614D02*
X178529455Y-192936185D01*
X178529455Y-192936185D02*
X178458026Y-192864757D01*
X178458026Y-192864757D02*
X178386598Y-192721900D01*
X178386598Y-192721900D02*
X178386598Y-192579042D01*
X178386598Y-192579042D02*
X178458026Y-192436185D01*
X178458026Y-192436185D02*
X178529455Y-192364757D01*
X178529455Y-192364757D02*
X178672312Y-192293328D01*
X178672312Y-192293328D02*
X179029455Y-192293328D01*
X179029455Y-192293328D02*
X179243741Y-192364757D01*
X179886597Y-193793328D02*
X179886597Y-192793328D01*
X179886597Y-192293328D02*
X179815169Y-192364757D01*
X179815169Y-192364757D02*
X179886597Y-192436185D01*
X179886597Y-192436185D02*
X179958026Y-192364757D01*
X179958026Y-192364757D02*
X179886597Y-192293328D01*
X179886597Y-192293328D02*
X179886597Y-192436185D01*
X180458026Y-192793328D02*
X181243741Y-192793328D01*
X181243741Y-192793328D02*
X180458026Y-193793328D01*
X180458026Y-193793328D02*
X181243741Y-193793328D01*
X182386598Y-193721900D02*
X182243741Y-193793328D01*
X182243741Y-193793328D02*
X181958027Y-193793328D01*
X181958027Y-193793328D02*
X181815169Y-193721900D01*
X181815169Y-193721900D02*
X181743741Y-193579042D01*
X181743741Y-193579042D02*
X181743741Y-193007614D01*
X181743741Y-193007614D02*
X181815169Y-192864757D01*
X181815169Y-192864757D02*
X181958027Y-192793328D01*
X181958027Y-192793328D02*
X182243741Y-192793328D01*
X182243741Y-192793328D02*
X182386598Y-192864757D01*
X182386598Y-192864757D02*
X182458027Y-193007614D01*
X182458027Y-193007614D02*
X182458027Y-193150471D01*
X182458027Y-193150471D02*
X181743741Y-193293328D01*
X183100883Y-193650471D02*
X183172312Y-193721900D01*
X183172312Y-193721900D02*
X183100883Y-193793328D01*
X183100883Y-193793328D02*
X183029455Y-193721900D01*
X183029455Y-193721900D02*
X183100883Y-193650471D01*
X183100883Y-193650471D02*
X183100883Y-193793328D01*
X183100883Y-192864757D02*
X183172312Y-192936185D01*
X183172312Y-192936185D02*
X183100883Y-193007614D01*
X183100883Y-193007614D02*
X183029455Y-192936185D01*
X183029455Y-192936185D02*
X183100883Y-192864757D01*
X183100883Y-192864757D02*
X183100883Y-193007614D01*
X184886598Y-193364757D02*
X185600884Y-193364757D01*
X184743741Y-193793328D02*
X185243741Y-192293328D01*
X185243741Y-192293328D02*
X185743741Y-193793328D01*
X186886598Y-192793328D02*
X186886598Y-193793328D01*
X186529455Y-192221900D02*
X186172312Y-193293328D01*
X186172312Y-193293328D02*
X187100883Y-193293328D01*
X263458026Y-196593328D02*
X263458026Y-195093328D01*
X264815170Y-196593328D02*
X264815170Y-195093328D01*
X264815170Y-196521900D02*
X264672312Y-196593328D01*
X264672312Y-196593328D02*
X264386598Y-196593328D01*
X264386598Y-196593328D02*
X264243741Y-196521900D01*
X264243741Y-196521900D02*
X264172312Y-196450471D01*
X264172312Y-196450471D02*
X264100884Y-196307614D01*
X264100884Y-196307614D02*
X264100884Y-195879042D01*
X264100884Y-195879042D02*
X264172312Y-195736185D01*
X264172312Y-195736185D02*
X264243741Y-195664757D01*
X264243741Y-195664757D02*
X264386598Y-195593328D01*
X264386598Y-195593328D02*
X264672312Y-195593328D01*
X264672312Y-195593328D02*
X264815170Y-195664757D01*
X265529455Y-196450471D02*
X265600884Y-196521900D01*
X265600884Y-196521900D02*
X265529455Y-196593328D01*
X265529455Y-196593328D02*
X265458027Y-196521900D01*
X265458027Y-196521900D02*
X265529455Y-196450471D01*
X265529455Y-196450471D02*
X265529455Y-196593328D01*
X265529455Y-195664757D02*
X265600884Y-195736185D01*
X265600884Y-195736185D02*
X265529455Y-195807614D01*
X265529455Y-195807614D02*
X265458027Y-195736185D01*
X265458027Y-195736185D02*
X265529455Y-195664757D01*
X265529455Y-195664757D02*
X265529455Y-195807614D01*
X268172313Y-196593328D02*
X267315170Y-196593328D01*
X267743741Y-196593328D02*
X267743741Y-195093328D01*
X267743741Y-195093328D02*
X267600884Y-195307614D01*
X267600884Y-195307614D02*
X267458027Y-195450471D01*
X267458027Y-195450471D02*
X267315170Y-195521900D01*
X268886598Y-196593328D02*
X269172312Y-196593328D01*
X269172312Y-196593328D02*
X269315169Y-196521900D01*
X269315169Y-196521900D02*
X269386598Y-196450471D01*
X269386598Y-196450471D02*
X269529455Y-196236185D01*
X269529455Y-196236185D02*
X269600884Y-195950471D01*
X269600884Y-195950471D02*
X269600884Y-195379042D01*
X269600884Y-195379042D02*
X269529455Y-195236185D01*
X269529455Y-195236185D02*
X269458027Y-195164757D01*
X269458027Y-195164757D02*
X269315169Y-195093328D01*
X269315169Y-195093328D02*
X269029455Y-195093328D01*
X269029455Y-195093328D02*
X268886598Y-195164757D01*
X268886598Y-195164757D02*
X268815169Y-195236185D01*
X268815169Y-195236185D02*
X268743741Y-195379042D01*
X268743741Y-195379042D02*
X268743741Y-195736185D01*
X268743741Y-195736185D02*
X268815169Y-195879042D01*
X268815169Y-195879042D02*
X268886598Y-195950471D01*
X268886598Y-195950471D02*
X269029455Y-196021900D01*
X269029455Y-196021900D02*
X269315169Y-196021900D01*
X269315169Y-196021900D02*
X269458027Y-195950471D01*
X269458027Y-195950471D02*
X269529455Y-195879042D01*
X269529455Y-195879042D02*
X269600884Y-195736185D01*
X271315169Y-195021900D02*
X270029455Y-196950471D01*
X272600884Y-196593328D02*
X271743741Y-196593328D01*
X272172312Y-196593328D02*
X272172312Y-195093328D01*
X272172312Y-195093328D02*
X272029455Y-195307614D01*
X272029455Y-195307614D02*
X271886598Y-195450471D01*
X271886598Y-195450471D02*
X271743741Y-195521900D01*
X273315169Y-196593328D02*
X273600883Y-196593328D01*
X273600883Y-196593328D02*
X273743740Y-196521900D01*
X273743740Y-196521900D02*
X273815169Y-196450471D01*
X273815169Y-196450471D02*
X273958026Y-196236185D01*
X273958026Y-196236185D02*
X274029455Y-195950471D01*
X274029455Y-195950471D02*
X274029455Y-195379042D01*
X274029455Y-195379042D02*
X273958026Y-195236185D01*
X273958026Y-195236185D02*
X273886598Y-195164757D01*
X273886598Y-195164757D02*
X273743740Y-195093328D01*
X273743740Y-195093328D02*
X273458026Y-195093328D01*
X273458026Y-195093328D02*
X273315169Y-195164757D01*
X273315169Y-195164757D02*
X273243740Y-195236185D01*
X273243740Y-195236185D02*
X273172312Y-195379042D01*
X273172312Y-195379042D02*
X273172312Y-195736185D01*
X273172312Y-195736185D02*
X273243740Y-195879042D01*
X273243740Y-195879042D02*
X273315169Y-195950471D01*
X273315169Y-195950471D02*
X273458026Y-196021900D01*
X273458026Y-196021900D02*
X273743740Y-196021900D01*
X273743740Y-196021900D02*
X273886598Y-195950471D01*
X273886598Y-195950471D02*
X273958026Y-195879042D01*
X273958026Y-195879042D02*
X274029455Y-195736185D01*
X177002200Y-187507200D02*
X285002200Y-187507200D01*
D12*
X178693928Y-188211638D02*
X179836785Y-188211638D01*
X179015357Y-190211638D02*
X179265357Y-188211638D01*
X180253452Y-190211638D02*
X180420119Y-188878304D01*
X180503452Y-188211638D02*
X180396309Y-188306876D01*
X180396309Y-188306876D02*
X180479643Y-188402114D01*
X180479643Y-188402114D02*
X180586786Y-188306876D01*
X180586786Y-188306876D02*
X180503452Y-188211638D01*
X180503452Y-188211638D02*
X180479643Y-188402114D01*
X181086786Y-188878304D02*
X181848690Y-188878304D01*
X181455833Y-188211638D02*
X181241548Y-189925923D01*
X181241548Y-189925923D02*
X181312976Y-190116400D01*
X181312976Y-190116400D02*
X181491548Y-190211638D01*
X181491548Y-190211638D02*
X181682024Y-190211638D01*
X182634405Y-190211638D02*
X182455833Y-190116400D01*
X182455833Y-190116400D02*
X182384405Y-189925923D01*
X182384405Y-189925923D02*
X182598690Y-188211638D01*
X184170119Y-190116400D02*
X183967738Y-190211638D01*
X183967738Y-190211638D02*
X183586785Y-190211638D01*
X183586785Y-190211638D02*
X183408214Y-190116400D01*
X183408214Y-190116400D02*
X183336785Y-189925923D01*
X183336785Y-189925923D02*
X183432024Y-189164019D01*
X183432024Y-189164019D02*
X183551071Y-188973542D01*
X183551071Y-188973542D02*
X183753452Y-188878304D01*
X183753452Y-188878304D02*
X184134404Y-188878304D01*
X184134404Y-188878304D02*
X184312976Y-188973542D01*
X184312976Y-188973542D02*
X184384404Y-189164019D01*
X184384404Y-189164019D02*
X184360595Y-189354495D01*
X184360595Y-189354495D02*
X183384404Y-189544971D01*
X185134405Y-190021161D02*
X185217738Y-190116400D01*
X185217738Y-190116400D02*
X185110595Y-190211638D01*
X185110595Y-190211638D02*
X185027262Y-190116400D01*
X185027262Y-190116400D02*
X185134405Y-190021161D01*
X185134405Y-190021161D02*
X185110595Y-190211638D01*
X185265357Y-188973542D02*
X185348690Y-189068780D01*
X185348690Y-189068780D02*
X185241548Y-189164019D01*
X185241548Y-189164019D02*
X185158214Y-189068780D01*
X185158214Y-189068780D02*
X185265357Y-188973542D01*
X185265357Y-188973542D02*
X185241548Y-189164019D01*
X188384405Y-189164019D02*
X188658215Y-189259257D01*
X188658215Y-189259257D02*
X188741548Y-189354495D01*
X188741548Y-189354495D02*
X188812977Y-189544971D01*
X188812977Y-189544971D02*
X188777262Y-189830685D01*
X188777262Y-189830685D02*
X188658215Y-190021161D01*
X188658215Y-190021161D02*
X188551072Y-190116400D01*
X188551072Y-190116400D02*
X188348691Y-190211638D01*
X188348691Y-190211638D02*
X187586786Y-190211638D01*
X187586786Y-190211638D02*
X187836786Y-188211638D01*
X187836786Y-188211638D02*
X188503453Y-188211638D01*
X188503453Y-188211638D02*
X188682024Y-188306876D01*
X188682024Y-188306876D02*
X188765358Y-188402114D01*
X188765358Y-188402114D02*
X188836786Y-188592590D01*
X188836786Y-188592590D02*
X188812977Y-188783066D01*
X188812977Y-188783066D02*
X188693929Y-188973542D01*
X188693929Y-188973542D02*
X188586786Y-189068780D01*
X188586786Y-189068780D02*
X188384405Y-189164019D01*
X188384405Y-189164019D02*
X187717739Y-189164019D01*
X190539167Y-190211638D02*
X189586786Y-190211638D01*
X189586786Y-190211638D02*
X189836786Y-188211638D01*
X191205834Y-190211638D02*
X191455834Y-188211638D01*
X191455834Y-188211638D02*
X191932025Y-188211638D01*
X191932025Y-188211638D02*
X192205834Y-188306876D01*
X192205834Y-188306876D02*
X192372501Y-188497352D01*
X192372501Y-188497352D02*
X192443929Y-188687828D01*
X192443929Y-188687828D02*
X192491549Y-189068780D01*
X192491549Y-189068780D02*
X192455834Y-189354495D01*
X192455834Y-189354495D02*
X192312977Y-189735447D01*
X192312977Y-189735447D02*
X192193929Y-189925923D01*
X192193929Y-189925923D02*
X191979644Y-190116400D01*
X191979644Y-190116400D02*
X191682025Y-190211638D01*
X191682025Y-190211638D02*
X191205834Y-190211638D01*
X194372501Y-190021161D02*
X194265358Y-190116400D01*
X194265358Y-190116400D02*
X193967739Y-190211638D01*
X193967739Y-190211638D02*
X193777263Y-190211638D01*
X193777263Y-190211638D02*
X193503453Y-190116400D01*
X193503453Y-190116400D02*
X193336787Y-189925923D01*
X193336787Y-189925923D02*
X193265358Y-189735447D01*
X193265358Y-189735447D02*
X193217739Y-189354495D01*
X193217739Y-189354495D02*
X193253453Y-189068780D01*
X193253453Y-189068780D02*
X193396310Y-188687828D01*
X193396310Y-188687828D02*
X193515358Y-188497352D01*
X193515358Y-188497352D02*
X193729644Y-188306876D01*
X193729644Y-188306876D02*
X194027263Y-188211638D01*
X194027263Y-188211638D02*
X194217739Y-188211638D01*
X194217739Y-188211638D02*
X194491549Y-188306876D01*
X194491549Y-188306876D02*
X194574882Y-188402114D01*
X194705834Y-190402114D02*
X196229644Y-190402114D01*
X196729644Y-190211638D02*
X196979644Y-188211638D01*
X196979644Y-188211638D02*
X197467739Y-189640209D01*
X197467739Y-189640209D02*
X198312978Y-188211638D01*
X198312978Y-188211638D02*
X198062978Y-190211638D01*
X200182025Y-190021161D02*
X200074882Y-190116400D01*
X200074882Y-190116400D02*
X199777263Y-190211638D01*
X199777263Y-190211638D02*
X199586787Y-190211638D01*
X199586787Y-190211638D02*
X199312977Y-190116400D01*
X199312977Y-190116400D02*
X199146311Y-189925923D01*
X199146311Y-189925923D02*
X199074882Y-189735447D01*
X199074882Y-189735447D02*
X199027263Y-189354495D01*
X199027263Y-189354495D02*
X199062977Y-189068780D01*
X199062977Y-189068780D02*
X199205834Y-188687828D01*
X199205834Y-188687828D02*
X199324882Y-188497352D01*
X199324882Y-188497352D02*
X199539168Y-188306876D01*
X199539168Y-188306876D02*
X199836787Y-188211638D01*
X199836787Y-188211638D02*
X200027263Y-188211638D01*
X200027263Y-188211638D02*
X200301073Y-188306876D01*
X200301073Y-188306876D02*
X200384406Y-188402114D01*
D10*
X178958026Y-185607614D02*
X178458026Y-185607614D01*
X178458026Y-186393328D02*
X178458026Y-184893328D01*
X178458026Y-184893328D02*
X179172312Y-184893328D01*
X179743740Y-186393328D02*
X179743740Y-185393328D01*
X179743740Y-184893328D02*
X179672312Y-184964757D01*
X179672312Y-184964757D02*
X179743740Y-185036185D01*
X179743740Y-185036185D02*
X179815169Y-184964757D01*
X179815169Y-184964757D02*
X179743740Y-184893328D01*
X179743740Y-184893328D02*
X179743740Y-185036185D01*
X180672312Y-186393328D02*
X180529455Y-186321900D01*
X180529455Y-186321900D02*
X180458026Y-186179042D01*
X180458026Y-186179042D02*
X180458026Y-184893328D01*
X181815169Y-186321900D02*
X181672312Y-186393328D01*
X181672312Y-186393328D02*
X181386598Y-186393328D01*
X181386598Y-186393328D02*
X181243740Y-186321900D01*
X181243740Y-186321900D02*
X181172312Y-186179042D01*
X181172312Y-186179042D02*
X181172312Y-185607614D01*
X181172312Y-185607614D02*
X181243740Y-185464757D01*
X181243740Y-185464757D02*
X181386598Y-185393328D01*
X181386598Y-185393328D02*
X181672312Y-185393328D01*
X181672312Y-185393328D02*
X181815169Y-185464757D01*
X181815169Y-185464757D02*
X181886598Y-185607614D01*
X181886598Y-185607614D02*
X181886598Y-185750471D01*
X181886598Y-185750471D02*
X181172312Y-185893328D01*
X182529454Y-186250471D02*
X182600883Y-186321900D01*
X182600883Y-186321900D02*
X182529454Y-186393328D01*
X182529454Y-186393328D02*
X182458026Y-186321900D01*
X182458026Y-186321900D02*
X182529454Y-186250471D01*
X182529454Y-186250471D02*
X182529454Y-186393328D01*
X182529454Y-185464757D02*
X182600883Y-185536185D01*
X182600883Y-185536185D02*
X182529454Y-185607614D01*
X182529454Y-185607614D02*
X182458026Y-185536185D01*
X182458026Y-185536185D02*
X182529454Y-185464757D01*
X182529454Y-185464757D02*
X182529454Y-185607614D01*
X184886597Y-185607614D02*
X185100883Y-185679042D01*
X185100883Y-185679042D02*
X185172312Y-185750471D01*
X185172312Y-185750471D02*
X185243740Y-185893328D01*
X185243740Y-185893328D02*
X185243740Y-186107614D01*
X185243740Y-186107614D02*
X185172312Y-186250471D01*
X185172312Y-186250471D02*
X185100883Y-186321900D01*
X185100883Y-186321900D02*
X184958026Y-186393328D01*
X184958026Y-186393328D02*
X184386597Y-186393328D01*
X184386597Y-186393328D02*
X184386597Y-184893328D01*
X184386597Y-184893328D02*
X184886597Y-184893328D01*
X184886597Y-184893328D02*
X185029455Y-184964757D01*
X185029455Y-184964757D02*
X185100883Y-185036185D01*
X185100883Y-185036185D02*
X185172312Y-185179042D01*
X185172312Y-185179042D02*
X185172312Y-185321900D01*
X185172312Y-185321900D02*
X185100883Y-185464757D01*
X185100883Y-185464757D02*
X185029455Y-185536185D01*
X185029455Y-185536185D02*
X184886597Y-185607614D01*
X184886597Y-185607614D02*
X184386597Y-185607614D01*
X186600883Y-186393328D02*
X185886597Y-186393328D01*
X185886597Y-186393328D02*
X185886597Y-184893328D01*
X187100883Y-186393328D02*
X187100883Y-184893328D01*
X187100883Y-184893328D02*
X187458026Y-184893328D01*
X187458026Y-184893328D02*
X187672312Y-184964757D01*
X187672312Y-184964757D02*
X187815169Y-185107614D01*
X187815169Y-185107614D02*
X187886598Y-185250471D01*
X187886598Y-185250471D02*
X187958026Y-185536185D01*
X187958026Y-185536185D02*
X187958026Y-185750471D01*
X187958026Y-185750471D02*
X187886598Y-186036185D01*
X187886598Y-186036185D02*
X187815169Y-186179042D01*
X187815169Y-186179042D02*
X187672312Y-186321900D01*
X187672312Y-186321900D02*
X187458026Y-186393328D01*
X187458026Y-186393328D02*
X187100883Y-186393328D01*
X189458026Y-186250471D02*
X189386598Y-186321900D01*
X189386598Y-186321900D02*
X189172312Y-186393328D01*
X189172312Y-186393328D02*
X189029455Y-186393328D01*
X189029455Y-186393328D02*
X188815169Y-186321900D01*
X188815169Y-186321900D02*
X188672312Y-186179042D01*
X188672312Y-186179042D02*
X188600883Y-186036185D01*
X188600883Y-186036185D02*
X188529455Y-185750471D01*
X188529455Y-185750471D02*
X188529455Y-185536185D01*
X188529455Y-185536185D02*
X188600883Y-185250471D01*
X188600883Y-185250471D02*
X188672312Y-185107614D01*
X188672312Y-185107614D02*
X188815169Y-184964757D01*
X188815169Y-184964757D02*
X189029455Y-184893328D01*
X189029455Y-184893328D02*
X189172312Y-184893328D01*
X189172312Y-184893328D02*
X189386598Y-184964757D01*
X189386598Y-184964757D02*
X189458026Y-185036185D01*
X189743741Y-186536185D02*
X190886598Y-186536185D01*
X191243740Y-186393328D02*
X191243740Y-184893328D01*
X191243740Y-184893328D02*
X191743740Y-185964757D01*
X191743740Y-185964757D02*
X192243740Y-184893328D01*
X192243740Y-184893328D02*
X192243740Y-186393328D01*
X193815169Y-186250471D02*
X193743741Y-186321900D01*
X193743741Y-186321900D02*
X193529455Y-186393328D01*
X193529455Y-186393328D02*
X193386598Y-186393328D01*
X193386598Y-186393328D02*
X193172312Y-186321900D01*
X193172312Y-186321900D02*
X193029455Y-186179042D01*
X193029455Y-186179042D02*
X192958026Y-186036185D01*
X192958026Y-186036185D02*
X192886598Y-185750471D01*
X192886598Y-185750471D02*
X192886598Y-185536185D01*
X192886598Y-185536185D02*
X192958026Y-185250471D01*
X192958026Y-185250471D02*
X193029455Y-185107614D01*
X193029455Y-185107614D02*
X193172312Y-184964757D01*
X193172312Y-184964757D02*
X193386598Y-184893328D01*
X193386598Y-184893328D02*
X193529455Y-184893328D01*
X193529455Y-184893328D02*
X193743741Y-184964757D01*
X193743741Y-184964757D02*
X193815169Y-185036185D01*
X194100884Y-186536185D02*
X195243741Y-186536185D01*
X195386598Y-184893328D02*
X195886598Y-186393328D01*
X195886598Y-186393328D02*
X196386598Y-184893328D01*
X197672312Y-186393328D02*
X196815169Y-186393328D01*
X197243740Y-186393328D02*
X197243740Y-184893328D01*
X197243740Y-184893328D02*
X197100883Y-185107614D01*
X197100883Y-185107614D02*
X196958026Y-185250471D01*
X196958026Y-185250471D02*
X196815169Y-185321900D01*
X198315168Y-186250471D02*
X198386597Y-186321900D01*
X198386597Y-186321900D02*
X198315168Y-186393328D01*
X198315168Y-186393328D02*
X198243740Y-186321900D01*
X198243740Y-186321900D02*
X198315168Y-186250471D01*
X198315168Y-186250471D02*
X198315168Y-186393328D01*
X199315169Y-184893328D02*
X199458026Y-184893328D01*
X199458026Y-184893328D02*
X199600883Y-184964757D01*
X199600883Y-184964757D02*
X199672312Y-185036185D01*
X199672312Y-185036185D02*
X199743740Y-185179042D01*
X199743740Y-185179042D02*
X199815169Y-185464757D01*
X199815169Y-185464757D02*
X199815169Y-185821900D01*
X199815169Y-185821900D02*
X199743740Y-186107614D01*
X199743740Y-186107614D02*
X199672312Y-186250471D01*
X199672312Y-186250471D02*
X199600883Y-186321900D01*
X199600883Y-186321900D02*
X199458026Y-186393328D01*
X199458026Y-186393328D02*
X199315169Y-186393328D01*
X199315169Y-186393328D02*
X199172312Y-186321900D01*
X199172312Y-186321900D02*
X199100883Y-186250471D01*
X199100883Y-186250471D02*
X199029454Y-186107614D01*
X199029454Y-186107614D02*
X198958026Y-185821900D01*
X198958026Y-185821900D02*
X198958026Y-185464757D01*
X198958026Y-185464757D02*
X199029454Y-185179042D01*
X199029454Y-185179042D02*
X199100883Y-185036185D01*
X199100883Y-185036185D02*
X199172312Y-184964757D01*
X199172312Y-184964757D02*
X199315169Y-184893328D01*
X200458025Y-186250471D02*
X200529454Y-186321900D01*
X200529454Y-186321900D02*
X200458025Y-186393328D01*
X200458025Y-186393328D02*
X200386597Y-186321900D01*
X200386597Y-186321900D02*
X200458025Y-186250471D01*
X200458025Y-186250471D02*
X200458025Y-186393328D01*
X201172311Y-186393328D02*
X201172311Y-184893328D01*
X201315169Y-185821900D02*
X201743740Y-186393328D01*
X201743740Y-185393328D02*
X201172311Y-185964757D01*
X202386597Y-186393328D02*
X202386597Y-185393328D01*
X202386597Y-184893328D02*
X202315169Y-184964757D01*
X202315169Y-184964757D02*
X202386597Y-185036185D01*
X202386597Y-185036185D02*
X202458026Y-184964757D01*
X202458026Y-184964757D02*
X202386597Y-184893328D01*
X202386597Y-184893328D02*
X202386597Y-185036185D01*
X203743741Y-186321900D02*
X203600883Y-186393328D01*
X203600883Y-186393328D02*
X203315169Y-186393328D01*
X203315169Y-186393328D02*
X203172312Y-186321900D01*
X203172312Y-186321900D02*
X203100883Y-186250471D01*
X203100883Y-186250471D02*
X203029455Y-186107614D01*
X203029455Y-186107614D02*
X203029455Y-185679042D01*
X203029455Y-185679042D02*
X203100883Y-185536185D01*
X203100883Y-185536185D02*
X203172312Y-185464757D01*
X203172312Y-185464757D02*
X203315169Y-185393328D01*
X203315169Y-185393328D02*
X203600883Y-185393328D01*
X203600883Y-185393328D02*
X203743741Y-185464757D01*
X205029455Y-186393328D02*
X205029455Y-185607614D01*
X205029455Y-185607614D02*
X204958026Y-185464757D01*
X204958026Y-185464757D02*
X204815169Y-185393328D01*
X204815169Y-185393328D02*
X204529455Y-185393328D01*
X204529455Y-185393328D02*
X204386597Y-185464757D01*
X205029455Y-186321900D02*
X204886597Y-186393328D01*
X204886597Y-186393328D02*
X204529455Y-186393328D01*
X204529455Y-186393328D02*
X204386597Y-186321900D01*
X204386597Y-186321900D02*
X204315169Y-186179042D01*
X204315169Y-186179042D02*
X204315169Y-186036185D01*
X204315169Y-186036185D02*
X204386597Y-185893328D01*
X204386597Y-185893328D02*
X204529455Y-185821900D01*
X204529455Y-185821900D02*
X204886597Y-185821900D01*
X204886597Y-185821900D02*
X205029455Y-185750471D01*
X206386598Y-186393328D02*
X206386598Y-184893328D01*
X206386598Y-186321900D02*
X206243740Y-186393328D01*
X206243740Y-186393328D02*
X205958026Y-186393328D01*
X205958026Y-186393328D02*
X205815169Y-186321900D01*
X205815169Y-186321900D02*
X205743740Y-186250471D01*
X205743740Y-186250471D02*
X205672312Y-186107614D01*
X205672312Y-186107614D02*
X205672312Y-185679042D01*
X205672312Y-185679042D02*
X205743740Y-185536185D01*
X205743740Y-185536185D02*
X205815169Y-185464757D01*
X205815169Y-185464757D02*
X205958026Y-185393328D01*
X205958026Y-185393328D02*
X206243740Y-185393328D01*
X206243740Y-185393328D02*
X206386598Y-185464757D01*
X206743741Y-186536185D02*
X207886598Y-186536185D01*
X208243740Y-185393328D02*
X208243740Y-186893328D01*
X208243740Y-185464757D02*
X208386598Y-185393328D01*
X208386598Y-185393328D02*
X208672312Y-185393328D01*
X208672312Y-185393328D02*
X208815169Y-185464757D01*
X208815169Y-185464757D02*
X208886598Y-185536185D01*
X208886598Y-185536185D02*
X208958026Y-185679042D01*
X208958026Y-185679042D02*
X208958026Y-186107614D01*
X208958026Y-186107614D02*
X208886598Y-186250471D01*
X208886598Y-186250471D02*
X208815169Y-186321900D01*
X208815169Y-186321900D02*
X208672312Y-186393328D01*
X208672312Y-186393328D02*
X208386598Y-186393328D01*
X208386598Y-186393328D02*
X208243740Y-186321900D01*
X210243741Y-186321900D02*
X210100883Y-186393328D01*
X210100883Y-186393328D02*
X209815169Y-186393328D01*
X209815169Y-186393328D02*
X209672312Y-186321900D01*
X209672312Y-186321900D02*
X209600883Y-186250471D01*
X209600883Y-186250471D02*
X209529455Y-186107614D01*
X209529455Y-186107614D02*
X209529455Y-185679042D01*
X209529455Y-185679042D02*
X209600883Y-185536185D01*
X209600883Y-185536185D02*
X209672312Y-185464757D01*
X209672312Y-185464757D02*
X209815169Y-185393328D01*
X209815169Y-185393328D02*
X210100883Y-185393328D01*
X210100883Y-185393328D02*
X210243741Y-185464757D01*
X210886597Y-186393328D02*
X210886597Y-184893328D01*
X210886597Y-185464757D02*
X211029455Y-185393328D01*
X211029455Y-185393328D02*
X211315169Y-185393328D01*
X211315169Y-185393328D02*
X211458026Y-185464757D01*
X211458026Y-185464757D02*
X211529455Y-185536185D01*
X211529455Y-185536185D02*
X211600883Y-185679042D01*
X211600883Y-185679042D02*
X211600883Y-186107614D01*
X211600883Y-186107614D02*
X211529455Y-186250471D01*
X211529455Y-186250471D02*
X211458026Y-186321900D01*
X211458026Y-186321900D02*
X211315169Y-186393328D01*
X211315169Y-186393328D02*
X211029455Y-186393328D01*
X211029455Y-186393328D02*
X210886597Y-186321900D01*
X177002200Y-181507200D02*
X285002200Y-181507200D01*
X178386598Y-183621900D02*
X178600884Y-183693328D01*
X178600884Y-183693328D02*
X178958026Y-183693328D01*
X178958026Y-183693328D02*
X179100884Y-183621900D01*
X179100884Y-183621900D02*
X179172312Y-183550471D01*
X179172312Y-183550471D02*
X179243741Y-183407614D01*
X179243741Y-183407614D02*
X179243741Y-183264757D01*
X179243741Y-183264757D02*
X179172312Y-183121900D01*
X179172312Y-183121900D02*
X179100884Y-183050471D01*
X179100884Y-183050471D02*
X178958026Y-182979042D01*
X178958026Y-182979042D02*
X178672312Y-182907614D01*
X178672312Y-182907614D02*
X178529455Y-182836185D01*
X178529455Y-182836185D02*
X178458026Y-182764757D01*
X178458026Y-182764757D02*
X178386598Y-182621900D01*
X178386598Y-182621900D02*
X178386598Y-182479042D01*
X178386598Y-182479042D02*
X178458026Y-182336185D01*
X178458026Y-182336185D02*
X178529455Y-182264757D01*
X178529455Y-182264757D02*
X178672312Y-182193328D01*
X178672312Y-182193328D02*
X179029455Y-182193328D01*
X179029455Y-182193328D02*
X179243741Y-182264757D01*
X179886597Y-183693328D02*
X179886597Y-182193328D01*
X180529455Y-183693328D02*
X180529455Y-182907614D01*
X180529455Y-182907614D02*
X180458026Y-182764757D01*
X180458026Y-182764757D02*
X180315169Y-182693328D01*
X180315169Y-182693328D02*
X180100883Y-182693328D01*
X180100883Y-182693328D02*
X179958026Y-182764757D01*
X179958026Y-182764757D02*
X179886597Y-182836185D01*
X181815169Y-183621900D02*
X181672312Y-183693328D01*
X181672312Y-183693328D02*
X181386598Y-183693328D01*
X181386598Y-183693328D02*
X181243740Y-183621900D01*
X181243740Y-183621900D02*
X181172312Y-183479042D01*
X181172312Y-183479042D02*
X181172312Y-182907614D01*
X181172312Y-182907614D02*
X181243740Y-182764757D01*
X181243740Y-182764757D02*
X181386598Y-182693328D01*
X181386598Y-182693328D02*
X181672312Y-182693328D01*
X181672312Y-182693328D02*
X181815169Y-182764757D01*
X181815169Y-182764757D02*
X181886598Y-182907614D01*
X181886598Y-182907614D02*
X181886598Y-183050471D01*
X181886598Y-183050471D02*
X181172312Y-183193328D01*
X183100883Y-183621900D02*
X182958026Y-183693328D01*
X182958026Y-183693328D02*
X182672312Y-183693328D01*
X182672312Y-183693328D02*
X182529454Y-183621900D01*
X182529454Y-183621900D02*
X182458026Y-183479042D01*
X182458026Y-183479042D02*
X182458026Y-182907614D01*
X182458026Y-182907614D02*
X182529454Y-182764757D01*
X182529454Y-182764757D02*
X182672312Y-182693328D01*
X182672312Y-182693328D02*
X182958026Y-182693328D01*
X182958026Y-182693328D02*
X183100883Y-182764757D01*
X183100883Y-182764757D02*
X183172312Y-182907614D01*
X183172312Y-182907614D02*
X183172312Y-183050471D01*
X183172312Y-183050471D02*
X182458026Y-183193328D01*
X183600883Y-182693328D02*
X184172311Y-182693328D01*
X183815168Y-182193328D02*
X183815168Y-183479042D01*
X183815168Y-183479042D02*
X183886597Y-183621900D01*
X183886597Y-183621900D02*
X184029454Y-183693328D01*
X184029454Y-183693328D02*
X184172311Y-183693328D01*
X184672311Y-183550471D02*
X184743740Y-183621900D01*
X184743740Y-183621900D02*
X184672311Y-183693328D01*
X184672311Y-183693328D02*
X184600883Y-183621900D01*
X184600883Y-183621900D02*
X184672311Y-183550471D01*
X184672311Y-183550471D02*
X184672311Y-183693328D01*
X184672311Y-182764757D02*
X184743740Y-182836185D01*
X184743740Y-182836185D02*
X184672311Y-182907614D01*
X184672311Y-182907614D02*
X184600883Y-182836185D01*
X184600883Y-182836185D02*
X184672311Y-182764757D01*
X184672311Y-182764757D02*
X184672311Y-182907614D01*
X197002200Y-191507200D02*
X197002200Y-194507200D01*
X261002200Y-191507200D02*
X261002200Y-198007200D01*
%TO.C,R34*%
D13*
X80740942Y-71693508D02*
X82200942Y-71693508D01*
X82200942Y-74653508D01*
X80740942Y-74653508D01*
X80740942Y-71693508D01*
%TO.C,C60*%
X90447275Y-33073508D02*
X93407275Y-33073508D01*
X93407275Y-34533508D01*
X90447275Y-34533508D01*
X90447275Y-33073508D01*
%TO.C,R17*%
X67483275Y-30540508D02*
X70443275Y-30540508D01*
X70443275Y-32000508D01*
X67483275Y-32000508D01*
X67483275Y-30540508D01*
%TO.C,R50*%
X90447275Y-30025508D02*
X93407275Y-30025508D01*
X93407275Y-31485508D01*
X90447275Y-31485508D01*
X90447275Y-30025508D01*
%TO.C,CR9*%
D14*
X39040675Y-57857308D02*
X39040675Y-58771708D01*
X39040675Y-57857308D02*
X39844575Y-57857308D01*
X39040675Y-58771708D02*
X39844575Y-58771708D01*
X39844575Y-57387408D02*
X39844575Y-57857308D01*
X39844575Y-58771708D02*
X39844575Y-59241608D01*
X39844575Y-59241608D02*
X42155975Y-59241608D01*
X42155975Y-57387408D02*
X39844575Y-57387408D01*
X42155975Y-57857308D02*
X42155975Y-57387408D01*
X42155975Y-59241608D02*
X42155975Y-58771708D01*
X42959875Y-57857308D02*
X42155975Y-57857308D01*
X42959875Y-58771708D02*
X42155975Y-58771708D01*
X42959875Y-58771708D02*
X42959875Y-57857308D01*
%TO.C,R35*%
D13*
X85736275Y-71693508D02*
X87196275Y-71693508D01*
X87196275Y-74653508D01*
X85736275Y-74653508D01*
X85736275Y-71693508D01*
%TO.C,R20*%
X67483275Y-32191508D02*
X70443275Y-32191508D01*
X70443275Y-33651508D01*
X67483275Y-33651508D01*
X67483275Y-32191508D01*
%TO.C,U13*%
X102771275Y-54074508D02*
X102771275Y-57474508D01*
X102771275Y-57474508D02*
X106991275Y-57474508D01*
X106991275Y-54074508D02*
X102771275Y-54074508D01*
X106991275Y-57474508D02*
X106991275Y-54074508D01*
%TO.C,L1*%
X72233275Y-60036508D02*
X72233275Y-63936508D01*
X72233275Y-63936508D02*
X72683275Y-63936508D01*
X72683275Y-58436508D02*
X72683275Y-60036508D01*
X72683275Y-60036508D02*
X72233275Y-60036508D01*
X72683275Y-63936508D02*
X72683275Y-65536508D01*
X72683275Y-65536508D02*
X80283275Y-65536508D01*
X80283275Y-58436508D02*
X72683275Y-58436508D01*
X80283275Y-60036508D02*
X80283275Y-58436508D01*
X80283275Y-63936508D02*
X80733275Y-63936508D01*
X80283275Y-65536508D02*
X80283275Y-63936508D01*
X80733275Y-60036508D02*
X80283275Y-60036508D01*
X80733275Y-63936508D02*
X80733275Y-60036508D01*
%TO.C,R1*%
X72903275Y-70756508D02*
X75863275Y-70756508D01*
X75863275Y-72216508D01*
X72903275Y-72216508D01*
X72903275Y-70756508D01*
%TO.C,R61*%
X108203275Y-30406508D02*
X110463275Y-30406508D01*
X110463275Y-34966508D01*
X108203275Y-34966508D01*
X108203275Y-30406508D01*
%TO.C,C3*%
X81233275Y-54206508D02*
X84633275Y-54206508D01*
X84633275Y-56166508D01*
X81233275Y-56166508D01*
X81233275Y-54206508D01*
%TO.C,D2*%
X80740942Y-75045508D02*
X82200942Y-75045508D01*
X82200942Y-78005508D01*
X80740942Y-78005508D01*
X80740942Y-75045508D01*
%TO.C,C70*%
X103178275Y-46073508D02*
X105138275Y-46073508D01*
X105138275Y-49473508D01*
X103178275Y-49473508D01*
X103178275Y-46073508D01*
%TO.C,C86*%
X87140275Y-57164508D02*
X90540275Y-57164508D01*
X90540275Y-59124508D01*
X87140275Y-59124508D01*
X87140275Y-57164508D01*
%TO.C,C6*%
X81233275Y-61336508D02*
X85833275Y-61336508D01*
X85833275Y-63636508D01*
X81233275Y-63636508D01*
X81233275Y-61336508D01*
%TO.C,R46*%
X90209775Y-48440508D02*
X93169775Y-48440508D01*
X93169775Y-49900508D01*
X90209775Y-49900508D01*
X90209775Y-48440508D01*
%TO.C,U3*%
X85134775Y-49248508D02*
X85134775Y-52648508D01*
X85134775Y-52648508D02*
X89354775Y-52648508D01*
X89354775Y-49248508D02*
X85134775Y-49248508D01*
X89354775Y-52648508D02*
X89354775Y-49248508D01*
%TO.C,C64*%
X151653275Y-32936508D02*
X153613275Y-32936508D01*
X153613275Y-36336508D01*
X151653275Y-36336508D01*
X151653275Y-32936508D01*
%TO.C,C67*%
X95183275Y-61686508D02*
X97483275Y-61686508D01*
X97483275Y-66286508D01*
X95183275Y-66286508D01*
X95183275Y-61686508D01*
%TO.C,U10*%
X85383011Y-40697508D02*
X85383011Y-44097508D01*
X85383011Y-44097508D02*
X89603011Y-44097508D01*
X89603011Y-40697508D02*
X85383011Y-40697508D01*
X89603011Y-44097508D02*
X89603011Y-40697508D01*
%TO.C,CR8*%
D14*
X39040675Y-55825308D02*
X39040675Y-56739708D01*
X39040675Y-55825308D02*
X39844575Y-55825308D01*
X39040675Y-56739708D02*
X39844575Y-56739708D01*
X39844575Y-55355408D02*
X39844575Y-55825308D01*
X39844575Y-56739708D02*
X39844575Y-57209608D01*
X39844575Y-57209608D02*
X42155975Y-57209608D01*
X42155975Y-55355408D02*
X39844575Y-55355408D01*
X42155975Y-55825308D02*
X42155975Y-55355408D01*
X42155975Y-57209608D02*
X42155975Y-56739708D01*
X42959875Y-55825308D02*
X42155975Y-55825308D01*
X42959875Y-56739708D02*
X42155975Y-56739708D01*
X42959875Y-56739708D02*
X42959875Y-55825308D01*
%TO.C,R55*%
D13*
X108203275Y-54006508D02*
X110463275Y-54006508D01*
X110463275Y-58566508D01*
X108203275Y-58566508D01*
X108203275Y-54006508D01*
%TO.C,C7*%
X63963275Y-63996508D02*
X65923275Y-63996508D01*
X65923275Y-67396508D01*
X63963275Y-67396508D01*
X63963275Y-63996508D01*
%TO.C,C26*%
X81233275Y-64036508D02*
X85833275Y-64036508D01*
X85833275Y-66336508D01*
X81233275Y-66336508D01*
X81233275Y-64036508D01*
%TO.C,C48*%
X115122275Y-56448508D02*
X116272275Y-56448508D01*
X115122275Y-59448508D02*
X115122275Y-56448508D01*
X116272275Y-53598508D02*
X117422275Y-52448508D01*
X116272275Y-56448508D02*
X116272275Y-53598508D01*
X116272275Y-59448508D02*
X115122275Y-59448508D01*
X116272275Y-62298508D02*
X116272275Y-59448508D01*
X116272275Y-62298508D02*
X117422275Y-63448508D01*
X117422275Y-52448508D02*
X127272275Y-52448508D01*
X117422275Y-63448508D02*
X127272275Y-63448508D01*
X127272275Y-56448508D02*
X127272275Y-52448508D01*
X127272275Y-59448508D02*
X128422275Y-59448508D01*
X127272275Y-63448508D02*
X127272275Y-59448508D01*
X128422275Y-56448508D02*
X127272275Y-56448508D01*
X128422275Y-59448508D02*
X128422275Y-56448508D01*
%TO.C,C8*%
X61953275Y-63996508D02*
X63913275Y-63996508D01*
X63913275Y-67396508D01*
X61953275Y-67396508D01*
X61953275Y-63996508D01*
%TO.C,C33*%
X72903275Y-72256508D02*
X75863275Y-72256508D01*
X75863275Y-73716508D01*
X72903275Y-73716508D01*
X72903275Y-72256508D01*
%TO.C,R60*%
X99503275Y-44503508D02*
X102463275Y-44503508D01*
X102463275Y-45963508D01*
X99503275Y-45963508D01*
X99503275Y-44503508D01*
%TO.C,R15*%
X90209775Y-51488508D02*
X93169775Y-51488508D01*
X93169775Y-52948508D01*
X90209775Y-52948508D01*
X90209775Y-51488508D01*
%TO.C,R56*%
X107388275Y-59489508D02*
X110348275Y-59489508D01*
X110348275Y-60949508D01*
X107388275Y-60949508D01*
X107388275Y-59489508D01*
%TO.C,U12*%
X90937775Y-57714508D02*
X90937775Y-61114508D01*
X90937775Y-61114508D02*
X95157775Y-61114508D01*
X95157775Y-57714508D02*
X90937775Y-57714508D01*
X95157775Y-61114508D02*
X95157775Y-57714508D01*
%TO.C,C17*%
X85550539Y-46901508D02*
X88950539Y-46901508D01*
X88950539Y-48861508D01*
X85550539Y-48861508D01*
X85550539Y-46901508D01*
%TO.C,C65*%
X151333275Y-42706508D02*
X154733275Y-42706508D01*
X154733275Y-44666508D01*
X151333275Y-44666508D01*
X151333275Y-42706508D01*
%TO.C,C49*%
X115122275Y-44398508D02*
X116272275Y-44398508D01*
X115122275Y-47398508D02*
X115122275Y-44398508D01*
X116272275Y-41548508D02*
X117422275Y-40398508D01*
X116272275Y-44398508D02*
X116272275Y-41548508D01*
X116272275Y-47398508D02*
X115122275Y-47398508D01*
X116272275Y-50248508D02*
X116272275Y-47398508D01*
X116272275Y-50248508D02*
X117422275Y-51398508D01*
X117422275Y-40398508D02*
X127272275Y-40398508D01*
X117422275Y-51398508D02*
X127272275Y-51398508D01*
X127272275Y-44398508D02*
X127272275Y-40398508D01*
X127272275Y-47398508D02*
X128422275Y-47398508D01*
X127272275Y-51398508D02*
X127272275Y-47398508D01*
X128422275Y-44398508D02*
X127272275Y-44398508D01*
X128422275Y-47398508D02*
X128422275Y-44398508D01*
%TO.C,C30*%
X48828275Y-68498508D02*
X48828275Y-71498508D01*
X48828275Y-71498508D02*
X49978275Y-71498508D01*
X49978275Y-64498508D02*
X49978275Y-68498508D01*
X49978275Y-68498508D02*
X48828275Y-68498508D01*
X49978275Y-71498508D02*
X49978275Y-75498508D01*
X59828275Y-64498508D02*
X49978275Y-64498508D01*
X59828275Y-75498508D02*
X49978275Y-75498508D01*
X60978275Y-65648508D02*
X59828275Y-64498508D01*
X60978275Y-65648508D02*
X60978275Y-68498508D01*
X60978275Y-68498508D02*
X62128275Y-68498508D01*
X60978275Y-71498508D02*
X60978275Y-74348508D01*
X60978275Y-74348508D02*
X59828275Y-75498508D01*
X62128275Y-68498508D02*
X62128275Y-71498508D01*
X62128275Y-71498508D02*
X60978275Y-71498508D01*
%TO.C,C61*%
X79005275Y-33338508D02*
X82405275Y-33338508D01*
X82405275Y-35298508D01*
X79005275Y-35298508D01*
X79005275Y-33338508D01*
%TO.C,C55*%
X107483275Y-67686508D02*
X109783275Y-67686508D01*
X109783275Y-72286508D01*
X107483275Y-72286508D01*
X107483275Y-67686508D01*
%TO.C,R65*%
X99503275Y-56060508D02*
X102463275Y-56060508D01*
X102463275Y-57520508D01*
X99503275Y-57520508D01*
X99503275Y-56060508D01*
%TO.C,C29*%
X48828275Y-56448508D02*
X48828275Y-59448508D01*
X48828275Y-59448508D02*
X49978275Y-59448508D01*
X49978275Y-52448508D02*
X49978275Y-56448508D01*
X49978275Y-56448508D02*
X48828275Y-56448508D01*
X49978275Y-59448508D02*
X49978275Y-63448508D01*
X59828275Y-52448508D02*
X49978275Y-52448508D01*
X59828275Y-63448508D02*
X49978275Y-63448508D01*
X60978275Y-53598508D02*
X59828275Y-52448508D01*
X60978275Y-53598508D02*
X60978275Y-56448508D01*
X60978275Y-56448508D02*
X62128275Y-56448508D01*
X60978275Y-59448508D02*
X60978275Y-62298508D01*
X60978275Y-62298508D02*
X59828275Y-63448508D01*
X62128275Y-56448508D02*
X62128275Y-59448508D01*
X62128275Y-59448508D02*
X60978275Y-59448508D01*
%TO.C,R6*%
X72903275Y-69256508D02*
X75863275Y-69256508D01*
X75863275Y-70716508D01*
X72903275Y-70716508D01*
X72903275Y-69256508D01*
%TO.C,C32*%
X72933275Y-65706508D02*
X76333275Y-65706508D01*
X76333275Y-67666508D01*
X72933275Y-67666508D01*
X72933275Y-65706508D01*
%TO.C,C59*%
X90441511Y-41601508D02*
X93401511Y-41601508D01*
X93401511Y-43061508D01*
X90441511Y-43061508D01*
X90441511Y-41601508D01*
%TO.C,C85*%
X103308275Y-28632508D02*
X106708275Y-28632508D01*
X106708275Y-30592508D01*
X103308275Y-30592508D01*
X103308275Y-28632508D01*
%TO.C,C84*%
X103308275Y-40062508D02*
X106708275Y-40062508D01*
X106708275Y-42022508D01*
X103308275Y-42022508D01*
X103308275Y-40062508D01*
%TO.C,R66*%
X99630275Y-33073508D02*
X102590275Y-33073508D01*
X102590275Y-34533508D01*
X99630275Y-34533508D01*
X99630275Y-33073508D01*
%TO.C,C10*%
X48828275Y-44398508D02*
X48828275Y-47398508D01*
X48828275Y-47398508D02*
X49978275Y-47398508D01*
X49978275Y-40398508D02*
X49978275Y-44398508D01*
X49978275Y-44398508D02*
X48828275Y-44398508D01*
X49978275Y-47398508D02*
X49978275Y-51398508D01*
X59828275Y-40398508D02*
X49978275Y-40398508D01*
X59828275Y-51398508D02*
X49978275Y-51398508D01*
X60978275Y-41548508D02*
X59828275Y-40398508D01*
X60978275Y-41548508D02*
X60978275Y-44398508D01*
X60978275Y-44398508D02*
X62128275Y-44398508D01*
X60978275Y-47398508D02*
X60978275Y-50248508D01*
X60978275Y-50248508D02*
X59828275Y-51398508D01*
X62128275Y-44398508D02*
X62128275Y-47398508D01*
X62128275Y-47398508D02*
X60978275Y-47398508D01*
%TO.C,C88*%
X39173275Y-50984508D02*
X42573275Y-50984508D01*
X42573275Y-52944508D01*
X39173275Y-52944508D01*
X39173275Y-50984508D01*
%TO.C,R62*%
X107515275Y-35740508D02*
X110475275Y-35740508D01*
X110475275Y-37200508D01*
X107515275Y-37200508D01*
X107515275Y-35740508D01*
%TO.C,D4*%
X83238608Y-75045508D02*
X84698608Y-75045508D01*
X84698608Y-78005508D01*
X83238608Y-78005508D01*
X83238608Y-75045508D01*
%TO.C,R49*%
X90441511Y-43125508D02*
X93401511Y-43125508D01*
X93401511Y-44585508D01*
X90441511Y-44585508D01*
X90441511Y-43125508D01*
%TO.C,C36*%
X76723275Y-48613508D02*
X78683275Y-48613508D01*
X78683275Y-52013508D01*
X76723275Y-52013508D01*
X76723275Y-48613508D01*
%TO.C,C47*%
X115122275Y-68498508D02*
X116272275Y-68498508D01*
X115122275Y-71498508D02*
X115122275Y-68498508D01*
X116272275Y-65648508D02*
X117422275Y-64498508D01*
X116272275Y-68498508D02*
X116272275Y-65648508D01*
X116272275Y-71498508D02*
X115122275Y-71498508D01*
X116272275Y-74348508D02*
X116272275Y-71498508D01*
X116272275Y-74348508D02*
X117422275Y-75498508D01*
X117422275Y-64498508D02*
X127272275Y-64498508D01*
X117422275Y-75498508D02*
X127272275Y-75498508D01*
X127272275Y-68498508D02*
X127272275Y-64498508D01*
X127272275Y-71498508D02*
X128422275Y-71498508D01*
X127272275Y-75498508D02*
X127272275Y-71498508D01*
X128422275Y-68498508D02*
X127272275Y-68498508D01*
X128422275Y-71498508D02*
X128422275Y-68498508D01*
%TO.C,R57*%
X105404775Y-57723508D02*
X106864775Y-57723508D01*
X106864775Y-60683508D01*
X105404775Y-60683508D01*
X105404775Y-57723508D01*
%TO.C,C35*%
X70333275Y-41806508D02*
X73733275Y-41806508D01*
X73733275Y-43766508D01*
X70333275Y-43766508D01*
X70333275Y-41806508D01*
%TO.C,D3*%
X85736275Y-75045508D02*
X87196275Y-75045508D01*
X87196275Y-78005508D01*
X85736275Y-78005508D01*
X85736275Y-75045508D01*
%TO.C,C50*%
X115122275Y-32348508D02*
X116272275Y-32348508D01*
X115122275Y-35348508D02*
X115122275Y-32348508D01*
X116272275Y-29498508D02*
X117422275Y-28348508D01*
X116272275Y-32348508D02*
X116272275Y-29498508D01*
X116272275Y-35348508D02*
X115122275Y-35348508D01*
X116272275Y-38198508D02*
X116272275Y-35348508D01*
X116272275Y-38198508D02*
X117422275Y-39348508D01*
X117422275Y-28348508D02*
X127272275Y-28348508D01*
X117422275Y-39348508D02*
X127272275Y-39348508D01*
X127272275Y-32348508D02*
X127272275Y-28348508D01*
X127272275Y-35348508D02*
X128422275Y-35348508D01*
X127272275Y-39348508D02*
X127272275Y-35348508D01*
X128422275Y-32348508D02*
X127272275Y-32348508D01*
X128422275Y-35348508D02*
X128422275Y-32348508D01*
%TO.C,R45*%
X90209775Y-46916508D02*
X93169775Y-46916508D01*
X93169775Y-48376508D01*
X90209775Y-48376508D01*
X90209775Y-46916508D01*
%TO.C,CR7*%
D14*
X39040675Y-53666308D02*
X39040675Y-54580708D01*
X39040675Y-53666308D02*
X39844575Y-53666308D01*
X39040675Y-54580708D02*
X39844575Y-54580708D01*
X39844575Y-53196408D02*
X39844575Y-53666308D01*
X39844575Y-54580708D02*
X39844575Y-55050608D01*
X39844575Y-55050608D02*
X42155975Y-55050608D01*
X42155975Y-53196408D02*
X39844575Y-53196408D01*
X42155975Y-53666308D02*
X42155975Y-53196408D01*
X42155975Y-55050608D02*
X42155975Y-54580708D01*
X42959875Y-53666308D02*
X42155975Y-53666308D01*
X42959875Y-54580708D02*
X42155975Y-54580708D01*
X42959875Y-54580708D02*
X42959875Y-53666308D01*
%TO.C,C28*%
D13*
X71953275Y-73856508D02*
X74913275Y-73856508D01*
X74913275Y-75316508D01*
X71953275Y-75316508D01*
X71953275Y-73856508D01*
%TO.C,C69*%
X103354275Y-34643508D02*
X105314275Y-34643508D01*
X105314275Y-38043508D01*
X103354275Y-38043508D01*
X103354275Y-34643508D01*
%TO.C,R51*%
X90447275Y-31549508D02*
X93407275Y-31549508D01*
X93407275Y-33009508D01*
X90447275Y-33009508D01*
X90447275Y-31549508D01*
%TO.C,R37*%
X78243275Y-71693508D02*
X79703275Y-71693508D01*
X79703275Y-74653508D01*
X78243275Y-74653508D01*
X78243275Y-71693508D01*
%TO.C,C58*%
X90209775Y-49964508D02*
X93169775Y-49964508D01*
X93169775Y-51424508D01*
X90209775Y-51424508D01*
X90209775Y-49964508D01*
%TO.C,CR10*%
D14*
X40047775Y-36216508D02*
X40047775Y-44852508D01*
X40047775Y-44852508D02*
X41559075Y-44852508D01*
X41559075Y-36064108D02*
X41559075Y-36216508D01*
X41559075Y-36216508D02*
X40047775Y-36216508D01*
X41559075Y-44852508D02*
X41559075Y-45004908D01*
X41559075Y-45004908D02*
X45267475Y-45004908D01*
X45267475Y-36064108D02*
X41559075Y-36064108D01*
X45267475Y-36216508D02*
X45267475Y-36064108D01*
X45267475Y-44852508D02*
X46778775Y-44852508D01*
X45267475Y-45004908D02*
X45267475Y-44852508D01*
X46778775Y-36216508D02*
X45267475Y-36216508D01*
X46778775Y-44852508D02*
X46778775Y-36216508D01*
%TO.C,R48*%
D13*
X90441511Y-40077508D02*
X93401511Y-40077508D01*
X93401511Y-41537508D01*
X90441511Y-41537508D01*
X90441511Y-40077508D01*
%TO.C,R53*%
X90142275Y-61871508D02*
X91602275Y-61871508D01*
X91602275Y-64831508D01*
X90142275Y-64831508D01*
X90142275Y-61871508D01*
%TO.C,R2*%
X71953275Y-75456508D02*
X74913275Y-75456508D01*
X74913275Y-76916508D01*
X71953275Y-76916508D01*
X71953275Y-75456508D01*
%TO.C,R3*%
X64146275Y-68264508D02*
X65606275Y-68264508D01*
X65606275Y-71224508D01*
X64146275Y-71224508D01*
X64146275Y-68264508D01*
%TO.C,U7*%
D14*
X99662975Y-70560908D02*
X99662975Y-78003108D01*
X99662975Y-78003108D02*
X107003575Y-78003108D01*
X100344774Y-66369908D02*
X100344774Y-70560908D01*
X100344774Y-70560908D02*
X99662975Y-70560908D01*
X101741774Y-66369908D02*
X100344774Y-66369908D01*
X101741774Y-68859108D02*
X101741774Y-66369908D01*
X104924776Y-66369908D02*
X104924776Y-68859108D01*
X104924776Y-68859108D02*
X101741774Y-68859108D01*
X106321776Y-66369908D02*
X104924776Y-66369908D01*
X106321776Y-70560908D02*
X106321776Y-66369908D01*
X107003575Y-70560908D02*
X106321776Y-70560908D01*
X107003575Y-78003108D02*
X107003575Y-70560908D01*
%TO.C,R18*%
D13*
X79578775Y-31704508D02*
X82538775Y-31704508D01*
X82538775Y-33164508D01*
X79578775Y-33164508D01*
X79578775Y-31704508D01*
%TO.C,C27*%
X81233275Y-66736508D02*
X85833275Y-66736508D01*
X85833275Y-69036508D01*
X81233275Y-69036508D01*
X81233275Y-66736508D01*
%TO.C,U11*%
X85372275Y-31976508D02*
X85372275Y-35376508D01*
X85372275Y-35376508D02*
X89592275Y-35376508D01*
X89592275Y-31976508D02*
X85372275Y-31976508D01*
X89592275Y-35376508D02*
X89592275Y-31976508D01*
%TO.C,U5*%
X67678275Y-46486508D02*
X76188275Y-46486508D01*
X67678275Y-53486508D02*
X67678275Y-46486508D01*
X76188275Y-46486508D02*
X76188275Y-53486508D01*
X76188275Y-53486508D02*
X67678275Y-53486508D01*
%TO.C,R63*%
X105636275Y-34736508D02*
X107096275Y-34736508D01*
X107096275Y-37696508D01*
X105636275Y-37696508D01*
X105636275Y-34736508D01*
%TO.C,C63*%
X85786275Y-29756508D02*
X89186275Y-29756508D01*
X89186275Y-31716508D01*
X85786275Y-31716508D01*
X85786275Y-29756508D01*
%TO.C,C9*%
X48828275Y-32348508D02*
X48828275Y-35348508D01*
X48828275Y-35348508D02*
X49978275Y-35348508D01*
X49978275Y-28348508D02*
X49978275Y-32348508D01*
X49978275Y-32348508D02*
X48828275Y-32348508D01*
X49978275Y-35348508D02*
X49978275Y-39348508D01*
X59828275Y-28348508D02*
X49978275Y-28348508D01*
X59828275Y-39348508D02*
X49978275Y-39348508D01*
X60978275Y-29498508D02*
X59828275Y-28348508D01*
X60978275Y-29498508D02*
X60978275Y-32348508D01*
X60978275Y-32348508D02*
X62128275Y-32348508D01*
X60978275Y-35348508D02*
X60978275Y-38198508D01*
X60978275Y-38198508D02*
X59828275Y-39348508D01*
X62128275Y-32348508D02*
X62128275Y-35348508D01*
X62128275Y-35348508D02*
X60978275Y-35348508D01*
%TO.C,C71*%
X95734275Y-57841508D02*
X97694275Y-57841508D01*
X97694275Y-61241508D01*
X95734275Y-61241508D01*
X95734275Y-57841508D01*
%TO.C,R59*%
X107388275Y-47932508D02*
X110348275Y-47932508D01*
X110348275Y-49392508D01*
X107388275Y-49392508D01*
X107388275Y-47932508D01*
%TO.C,R54*%
X91666275Y-61871508D02*
X93126275Y-61871508D01*
X93126275Y-64831508D01*
X91666275Y-64831508D01*
X91666275Y-61871508D01*
%TO.C,R47*%
X90441511Y-38553508D02*
X93401511Y-38553508D01*
X93401511Y-40013508D01*
X90441511Y-40013508D01*
X90441511Y-38553508D01*
%TO.C,C83*%
X103054275Y-51746508D02*
X106454275Y-51746508D01*
X106454275Y-53706508D01*
X103054275Y-53706508D01*
X103054275Y-51746508D01*
%TO.C,D1*%
X78243275Y-75045508D02*
X79703275Y-75045508D01*
X79703275Y-78005508D01*
X78243275Y-78005508D01*
X78243275Y-75045508D01*
%TO.C,C54*%
X95053275Y-68186508D02*
X97013275Y-68186508D01*
X97013275Y-71586508D01*
X95053275Y-71586508D01*
X95053275Y-68186508D01*
%TO.C,R52*%
X90447275Y-34597508D02*
X93407275Y-34597508D01*
X93407275Y-36057508D01*
X90447275Y-36057508D01*
X90447275Y-34597508D01*
%TO.C,R36*%
X83238608Y-71693508D02*
X84698608Y-71693508D01*
X84698608Y-74653508D01*
X83238608Y-74653508D01*
X83238608Y-71693508D01*
%TO.C,C62*%
X85782275Y-38411508D02*
X89182275Y-38411508D01*
X89182275Y-40371508D01*
X85782275Y-40371508D01*
X85782275Y-38411508D01*
%TO.C,R64*%
X105460275Y-46039508D02*
X106920275Y-46039508D01*
X106920275Y-48999508D01*
X105460275Y-48999508D01*
X105460275Y-46039508D01*
%TO.C,R5*%
X66178275Y-71185508D02*
X67638275Y-71185508D01*
X67638275Y-74145508D01*
X66178275Y-74145508D01*
X66178275Y-71185508D01*
%TO.C,C34*%
X72903275Y-67756508D02*
X75863275Y-67756508D01*
X75863275Y-69216508D01*
X72903275Y-69216508D01*
X72903275Y-67756508D01*
%TO.C,C68*%
X103122775Y-57757508D02*
X105082775Y-57757508D01*
X105082775Y-61157508D01*
X103122775Y-61157508D01*
X103122775Y-57757508D01*
%TO.C,R4*%
X68753275Y-73856508D02*
X71713275Y-73856508D01*
X71713275Y-75316508D01*
X68753275Y-75316508D01*
X68753275Y-73856508D01*
%TO.C,R58*%
X108203275Y-42406508D02*
X110463275Y-42406508D01*
X110463275Y-46966508D01*
X108203275Y-46966508D01*
X108203275Y-42406508D01*
%TO.C,R19*%
X67483275Y-33842508D02*
X70443275Y-33842508D01*
X70443275Y-35302508D01*
X67483275Y-35302508D01*
X67483275Y-33842508D01*
%TO.C,C5*%
X81233275Y-58686508D02*
X85833275Y-58686508D01*
X85833275Y-60986508D01*
X81233275Y-60986508D01*
X81233275Y-58686508D01*
%TO.C,U15*%
X102898275Y-30960508D02*
X102898275Y-34360508D01*
X102898275Y-34360508D02*
X107118275Y-34360508D01*
X107118275Y-30960508D02*
X102898275Y-30960508D01*
X107118275Y-34360508D02*
X107118275Y-30960508D01*
%TO.C,CR1*%
D15*
X47077575Y-54211508D02*
X49388975Y-54211508D01*
X49388975Y-56139008D01*
X47077575Y-56139008D01*
X47077575Y-54211508D01*
%TO.C,C53*%
D13*
X97153275Y-68186508D02*
X99113275Y-68186508D01*
X99113275Y-71586508D01*
X97153275Y-71586508D01*
X97153275Y-68186508D01*
%TO.C,U14*%
X102810275Y-42390508D02*
X102810275Y-45790508D01*
X102810275Y-45790508D02*
X107030275Y-45790508D01*
X107030275Y-42390508D02*
X102810275Y-42390508D01*
X107030275Y-45790508D02*
X107030275Y-42390508D01*
%TO.C,U1*%
X66283275Y-64036508D02*
X71183275Y-64036508D01*
X66283275Y-70936508D02*
X66283275Y-64036508D01*
X71183275Y-64036508D02*
X71183275Y-70936508D01*
X71183275Y-70936508D02*
X66283275Y-70936508D01*
%TO.C,C37*%
X69733275Y-43936508D02*
X74333275Y-43936508D01*
X74333275Y-46236508D01*
X69733275Y-46236508D01*
X69733275Y-43936508D01*
%TO.C,C56*%
X109883275Y-67686508D02*
X112183275Y-67686508D01*
X112183275Y-72286508D01*
X109883275Y-72286508D01*
X109883275Y-67686508D01*
%TO.C,C4*%
X81233275Y-56406508D02*
X84633275Y-56406508D01*
X84633275Y-58366508D01*
X81233275Y-58366508D01*
X81233275Y-56406508D01*
%TO.C,U8*%
X71228275Y-29584008D02*
X78638275Y-29584008D01*
X71228275Y-34989008D02*
X71228275Y-29584008D01*
X71228275Y-34989008D02*
X78638275Y-34989008D01*
X78638275Y-34989008D02*
X78638275Y-29584008D01*
%TO.C,C66*%
X93194275Y-61778508D02*
X95154275Y-61778508D01*
X95154275Y-65178508D01*
X93194275Y-65178508D01*
X93194275Y-61778508D01*
%TD*%
M02*
